<svg width="22" height="22" viewBox="0 0 22 22" fill="none" xmlns="http://www.w3.org/2000/svg">
<path d="M11.8203 8.25H10.1794C9.62 8.25 9.1665 8.7035 9.1665 9.26292V18.2371C9.1665 18.7965 9.62 19.25 10.1794 19.25H11.8203C12.3797 19.25 12.8332 18.7965 12.8332 18.2371V9.26292C12.8332 8.7035 12.3797 8.25 11.8203 8.25Z" stroke="#415F8B" stroke-width="1.2" stroke-linecap="round" stroke-linejoin="round"/>
<path d="M18.2372 2.75H16.5964C16.037 2.75 15.5835 3.2035 15.5835 3.76292V18.2371C15.5835 18.7965 16.037 19.25 16.5964 19.25H18.2372C18.7967 19.25 19.2502 18.7965 19.2502 18.2371V3.76292C19.2502 3.2035 18.7967 2.75 18.2372 2.75Z" stroke="#415F8B" stroke-width="1.2" stroke-linecap="round" stroke-linejoin="round"/>
<path d="M4.58333 19.2502C5.59586 19.2502 6.41667 18.4294 6.41667 17.4168C6.41667 16.4043 5.59586 15.5835 4.58333 15.5835C3.57081 15.5835 2.75 16.4043 2.75 17.4168C2.75 18.4294 3.57081 19.2502 4.58333 19.2502Z" stroke="#415F8B" stroke-width="1.2" stroke-linecap="round" stroke-linejoin="round"/>
</svg>