<svg xmlns="http://www.w3.org/2000/svg" width="199" height="131" viewBox="0 0 199 131">
  <g id="Calci" transform="translate(-467 -146)">
    <rect id="Rectangle_60" data-name="Rectangle 60" width="199" height="131" rx="20" transform="translate(467 146)" fill="#0066f9"/>
    <g id="Asset_17" data-name="Asset 17" transform="translate(482.393 195.226)">
      <g id="Layer_1" data-name="Layer 1" transform="translate(0 -0.005)">
        <path id="Path_41" data-name="Path 41" d="M29.571,0H2.7A2.5,2.5,0,0,0,0,2.367V29.223a2.859,2.859,0,0,0,2.664,2.821H29.521a2.74,2.74,0,0,0,2.523-2.821V2.367A2.308,2.308,0,0,0,29.571,0ZM23.213,10.092H16.108a3.635,3.635,0,0,0-3.167,1.375,7.687,7.687,0,0,0-1.034,4.463c0,3.823,1.39,5.768,4.171,5.768h7.135v3.28H16.872c-5.392,0-8.293-3.232-8.293-9.156v-.086c0-5.9,2.967-8.672,8.326-8.672h6.308Z" transform="translate(0 0.001)" fill="#fff"/>
        <path id="Path_42" data-name="Path 42" d="M163.04,0H135.924C134.484,0,133,.812,133,2.241V29.124a3.215,3.215,0,0,0,2.955,2.919h27.131c1.441,0,2.21-1.491,2.21-2.919V2.241A2.041,2.041,0,0,0,163.04,0Zm-8.018,24.979-5-14.286a.7.7,0,0,0-.681-.553.737.737,0,0,0-.681.563l-5,14.276h-3.323L145.88,9.358a3.252,3.252,0,0,1,1.32-1.789,4.269,4.269,0,0,1,4.272-.035,3.326,3.326,0,0,1,1.335,1.819l5.536,15.626Z" transform="translate(-99.442 0.001)" fill="#fff"/>
        <path id="Path_43" data-name="Path 43" d="M296.816,0H269.654A2.6,2.6,0,0,0,267,2.534V29.418a2.617,2.617,0,0,0,2.594,2.624h27.131a2.6,2.6,0,0,0,2.571-2.624V2.534A2.447,2.447,0,0,0,296.816,0Zm-7.108,24.979H284.48a9.893,9.893,0,0,1-3.434-.633,6.5,6.5,0,0,1-2.455-1.595,6.623,6.623,0,0,1-1.5-2.45,9.821,9.821,0,0,1-.5-3.23V7.063h3.028V17.1a4.582,4.582,0,0,0,1.284,3.378,4.849,4.849,0,0,0,3.51,1.221h5.3Z" transform="translate(-199.633 0.003)" fill="#fff"/>
        <path id="Path_44" data-name="Path 44" d="M430.833,0h-27.1A2.71,2.71,0,0,0,401,2.594V29.457a2.652,2.652,0,0,0,2.675,2.586h27.073a2.543,2.543,0,0,0,2.548-2.586V2.594A2.473,2.473,0,0,0,430.833,0Zm-6.368,10.092h-7.317a3.669,3.669,0,0,0-3.166,1.458,7.55,7.55,0,0,0-1.035,4.421q0,5.735,4.171,5.727h7.347v3.28h-6.542c-5.392,0-8.092-3.066-8.092-8.987v-.1c0-5.9,2.775-8.831,8.122-8.831h6.512Z" transform="translate(-299.823 0.001)" fill="#fff"/>
        <path id="Path_45" data-name="Path 45" d="M564.831,0H537.7A2.593,2.593,0,0,0,535,2.479V29.343a2.677,2.677,0,0,0,2.6,2.7h27.073a2.7,2.7,0,0,0,2.627-2.7V2.479A2.389,2.389,0,0,0,564.831,0ZM552.662,24.975h-3.28V7.061h3.28Z" transform="translate(-400.013 0.005)" fill="#fff"/>
      </g>
    </g>
  </g>
</svg>
