 <svg width="22" height="22" viewBox="0 0 22 22" fill="none" xmlns="http://www.w3.org/2000/svg">
<path d="M11 12.8335C12.5188 12.8335 13.75 11.6023 13.75 10.0835C13.75 8.56471 12.5188 7.3335 11 7.3335C9.48122 7.3335 8.25 8.56471 8.25 10.0835C8.25 11.6023 9.48122 12.8335 11 12.8335Z" stroke="#415F8B" stroke-width="1.2" stroke-linecap="round" stroke-linejoin="round"/>
<path d="M16.1854 15.2687L12.296 19.1581C11.9522 19.5015 11.4862 19.6944 11.0003 19.6944C10.5144 19.6944 10.0484 19.5015 9.70459 19.1581L5.81426 15.2687C4.78871 14.2431 4.09032 12.9364 3.80739 11.5139C3.52446 10.0913 3.66971 8.61687 4.22476 7.2769C4.77981 5.93693 5.71975 4.79164 6.9257 3.98586C8.13165 3.18008 9.54946 2.75 10.9998 2.75C12.4502 2.75 13.868 3.18008 15.074 3.98586C16.2799 4.79164 17.2199 5.93693 17.7749 7.2769C18.33 8.61687 18.4752 10.0913 18.1923 11.5139C17.9094 12.9364 17.211 14.2431 16.1854 15.2687V15.2687Z" stroke="#415F8B" stroke-width="1.2" stroke-linecap="round" stroke-linejoin="round"/>
</svg>