<svg width="22" height="22" viewBox="0 0 22 22" fill="none" xmlns="http://www.w3.org/2000/svg">
<path d="M3.6665 7.33317V5.49984C3.6665 5.01361 3.85966 4.54729 4.20347 4.20347C4.54729 3.85966 5.01361 3.6665 5.49984 3.6665H7.33317" stroke="#415F8B" stroke-width="1.2" stroke-linecap="round" stroke-linejoin="round"/>
<path d="M3.6665 14.6665V16.4998C3.6665 16.9861 3.85966 17.4524 4.20347 17.7962C4.54729 18.14 5.01361 18.3332 5.49984 18.3332H7.33317" stroke="#415F8B" stroke-width="1.2" stroke-linecap="round" stroke-linejoin="round"/>
<path d="M14.6665 3.6665H16.4998C16.9861 3.6665 17.4524 3.85966 17.7962 4.20347C18.14 4.54729 18.3332 5.01361 18.3332 5.49984V7.33317" stroke="#415F8B" stroke-width="1.2" stroke-linecap="round" stroke-linejoin="round"/>
<path d="M14.6665 18.3332H16.4998C16.9861 18.3332 17.4524 18.14 17.7962 17.7962C18.14 17.4524 18.3332 16.9861 18.3332 16.4998V14.6665" stroke="#415F8B" stroke-width="1.2" stroke-linecap="round" stroke-linejoin="round"/>
<path d="M11 10.0835V10.0918" stroke="#415F8B" stroke-width="1.2" stroke-linecap="round" stroke-linejoin="round"/>
<path d="M11.0002 16.5002L7.79183 11.9169C7.48298 11.3587 7.32511 10.7295 7.33384 10.0916C7.34257 9.4537 7.51758 8.82911 7.84159 8.27955C8.16559 7.72999 8.62738 7.27447 9.18133 6.95801C9.73527 6.64155 10.3622 6.4751 11.0002 6.4751C11.6381 6.4751 12.2651 6.64155 12.819 6.95801C13.3729 7.27447 13.8347 7.72999 14.1587 8.27955C14.4827 8.82911 14.6578 9.4537 14.6665 10.0916C14.6752 10.7295 14.5174 11.3587 14.2085 11.9169L11.0002 16.5002Z" stroke="#415F8B" stroke-width="1.2" stroke-linecap="round" stroke-linejoin="round"/>
</svg>