<svg width="22" height="22" viewBox="0 0 22 22" fill="none" xmlns="http://www.w3.org/2000/svg">
<path d="M16.5 5.5V5.51" stroke="#415F8B" stroke-width="1.2" stroke-linecap="round" stroke-linejoin="round"/>
<path d="M16.5002 11.9167L13.2918 7.33339C12.983 6.77517 12.8251 6.14602 12.8338 5.50811C12.8426 4.87021 13.0176 4.24562 13.3416 3.69605C13.6656 3.14649 14.1274 2.69098 14.6813 2.37452C15.2353 2.05806 15.8622 1.8916 16.5002 1.8916C17.1381 1.8916 17.7651 2.05806 18.319 2.37452C18.8729 2.69098 19.3347 3.14649 19.6587 3.69605C19.9828 4.24562 20.1578 4.87021 20.1665 5.50811C20.1752 6.14602 20.0174 6.77517 19.7085 7.33339L16.5002 11.9167Z" stroke="#415F8B" stroke-width="1.2" stroke-linecap="round" stroke-linejoin="round"/>
<path d="M9.625 4.354L8.25 3.6665L2.75 6.4165V18.3332L8.25 15.5832L13.75 18.3332L19.25 15.5832V13.7498" stroke="#415F8B" stroke-width="1.2" stroke-linecap="round" stroke-linejoin="round"/>
<path d="M8.25 3.6665V15.5832" stroke="#415F8B" stroke-width="1.2" stroke-linecap="round" stroke-linejoin="round"/>
<path d="M13.75 13.75V18.3333" stroke="#415F8B" stroke-width="1.2" stroke-linecap="round" stroke-linejoin="round"/>
</svg>