  <svg width="22" height="22" viewBox="0 0 22 22" fill="none" xmlns="http://www.w3.org/2000/svg">
<path d="M5.49984 19.2502C6.51236 19.2502 7.33317 18.4294 7.33317 17.4168C7.33317 16.4043 6.51236 15.5835 5.49984 15.5835C4.48732 15.5835 3.6665 16.4043 3.6665 17.4168C3.6665 18.4294 4.48732 19.2502 5.49984 19.2502Z" stroke="#415F8B" stroke-width="1.2" stroke-linecap="round" stroke-linejoin="round"/>
<path d="M16.4998 6.41667C17.5124 6.41667 18.3332 5.59586 18.3332 4.58333C18.3332 3.57081 17.5124 2.75 16.4998 2.75C15.4873 2.75 14.6665 3.57081 14.6665 4.58333C14.6665 5.59586 15.4873 6.41667 16.4998 6.41667Z" stroke="#415F8B" stroke-width="1.2" stroke-linecap="round" stroke-linejoin="round"/>
<path d="M11.0002 17.4168H15.1252C15.9761 17.4168 16.7921 17.0788 17.3938 16.4771C17.9955 15.8755 18.3335 15.0594 18.3335 14.2085C18.3335 13.3576 17.9955 12.5415 17.3938 11.9399C16.7921 11.3382 15.9761 11.0002 15.1252 11.0002H7.79183C6.94093 11.0002 6.12487 10.6621 5.5232 10.0605C4.92152 9.45878 4.5835 8.64273 4.5835 7.79183C4.5835 6.94093 4.92152 6.12487 5.5232 5.5232C6.12487 4.92152 6.94093 4.5835 7.79183 4.5835H11.0002" stroke="#415F8B" stroke-width="1.2" stroke-linecap="round" stroke-linejoin="round"/>
</svg>