<svg xmlns="http://www.w3.org/2000/svg" xmlns:xlink="http://www.w3.org/1999/xlink" width="199" height="131" viewBox="0 0 199 131">
  <defs>
    <filter id="Union_1" x="47.569" y="33.15" width="103.788" height="68.907" filterUnits="userSpaceOnUse">
      <feOffset dy="2" input="SourceAlpha"/>
      <feGaussianBlur stdDeviation="1" result="blur"/>
      <feFlood flood-opacity="0.161"/>
      <feComposite operator="in" in2="blur"/>
      <feComposite in="SourceGraphic"/>
    </filter>
    <filter id="Path_33" x="103.577" y="48.52" width="27.746" height="38.168" filterUnits="userSpaceOnUse">
      <feOffset dy="2" input="SourceAlpha"/>
      <feGaussianBlur stdDeviation="1" result="blur-2"/>
      <feFlood flood-opacity="0.161"/>
      <feComposite operator="in" in2="blur-2"/>
      <feComposite in="SourceGraphic"/>
    </filter>
  </defs>
  <g id="A8ooh" transform="translate(-116 -305)">
    <rect id="Rectangle_76" data-name="Rectangle 76" width="199" height="131" rx="20" transform="translate(116 305)" fill="#fdc706"/>
    <g id="ad8ooh" transform="translate(166.57 339.15)">
      <g id="_2145295857520">
        <g transform="matrix(1, 0, 0, 1, -50.57, -34.15)" filter="url(#Union_1)">
          <path id="Union_1-2" data-name="Union 1" d="M-119.693-282.983a2.83,2.83,0,0,1-.838.126h-16.75a2.832,2.832,0,0,1-2.831-2.831,2.831,2.831,0,0,1,2.831-2.831h12.114a31.366,31.366,0,0,1-4.983-9.433,2.819,2.819,0,0,1-1.516.439h-9.564a2.831,2.831,0,0,1-2.831-2.831,2.831,2.831,0,0,1,2.831-2.831h9.564a2.869,2.869,0,0,1,.3.016,31.713,31.713,0,0,1-.325-4.537,31.7,31.7,0,0,1,.336-4.615h-11.733a2.831,2.831,0,0,1-2.831-2.831,2.831,2.831,0,0,1,2.831-2.831h13.115a31.392,31.392,0,0,1,4.8-8.9h-1.882a2.831,2.831,0,0,1-2.831-2.831,2.831,2.831,0,0,1,2.831-2.831h7.518a31.313,31.313,0,0,1,19.3-6.614,31.138,31.138,0,0,1,16.559,4.711c.048,0,.048,0,.048.048a.784.784,0,0,1,.381.714.814.814,0,0,1-.333.618l-4.473,4.521a.836.836,0,0,1-.618.285.763.763,0,0,1-.428-.142,23.709,23.709,0,0,0-11.135-2.808A23.5,23.5,0,0,0-123.743-307.7a23.5,23.5,0,0,0,23.507,23.507A23.5,23.5,0,0,0-76.729-307.7a23.333,23.333,0,0,0-5.234-14.751,1,1,0,0,1-.191-.524,1,1,0,0,1,.238-.618l4.426-4.378a.8.8,0,0,1,.666-.286.772.772,0,0,1,.666.334A31.215,31.215,0,0,1-68.783-307.7a31.457,31.457,0,0,1-31.453,31.454A31.317,31.317,0,0,1-119.693-282.983Zm-31.483.126a2.832,2.832,0,0,1-2.831-2.831,2.831,2.831,0,0,1,2.831-2.831h4.14a2.831,2.831,0,0,1,2.831,2.831,2.831,2.831,0,0,1-2.831,2.831Zm-6.138-14.656a2.831,2.831,0,0,1-2.831-2.831,2.831,2.831,0,0,1,2.831-2.831h6.281a2.832,2.832,0,0,1,2.831,2.831,2.831,2.831,0,0,1-2.831,2.831Zm-6.424-14.8a2.831,2.831,0,0,1-2.831-2.831,2.831,2.831,0,0,1,2.831-2.831h8.994a2.831,2.831,0,0,1,2.831,2.831,2.832,2.832,0,0,1-2.831,2.831Zm17.368-14.561A2.832,2.832,0,0,1-149.2-329.7a2.831,2.831,0,0,1,2.831-2.831h8.708a2.831,2.831,0,0,1,2.831,2.831,2.832,2.832,0,0,1-2.831,2.831Z" transform="translate(217.14 373.3)" fill="#fff"/>
        </g>
        <g transform="matrix(1, 0, 0, 1, -50.57, -34.15)" filter="url(#Path_33)">
          <path id="Path_33-2" data-name="Path 33" d="M1187.849,323l-10.8,6.472H1177v.048h0v6.234h0v.1l.048-.048,5.472,3.283-5.472,3.283-.048-.048v.1h0v6.234h0v.1l.048-.048,10.8,6.472L1198.7,348.7l.047.048v-.1h0v-6.234h0v-.1l-.047.048-5.52-3.283,5.52-3.283.047.048v-.1h0v-6.234h0v-.048h-.047Zm-5.568,22.508,5.472-3.283.1.048.143-.048,5.472,3.283-5.615,3.379Zm5.568-9.612.143.048,5.472-3.283-5.615-3.379-5.568,3.379,5.472,3.283Z" transform="translate(-1070.42 -273.48)" fill="#fff" fill-rule="evenodd"/>
        </g>
      </g>
    </g>
  </g>
</svg>
