<svg xmlns="http://www.w3.org/2000/svg" width="199" height="131" viewBox="0 0 199 131">
  <g id="Ad8radio" transform="translate(-935 -146)">
    <rect id="Rectangle_62" data-name="Rectangle 62" width="199" height="131" rx="20" transform="translate(935 146)" fill="#795548"/>
    <g id="Group_8" data-name="Group 8" transform="translate(405.606 -673)">
      <path id="Path_15" data-name="Path 15" d="M78.362,30,68,36.217h0V41.4h0l5.181,3.108L68,47.615h0v6.217h0l10.362,6.217,10.362-6.217h0V47.615h0l-5.181-3.108L88.723,41.4h0V36.217h0ZM73.181,50.723l5.181-3.108h0l5.181,3.108-5.181,3.108ZM78.362,41.4h0l5.181-2.072-5.181-3.108-5.181,3.108L78.362,41.4Z" transform="translate(569.663 842.94)" fill="#fefefe" fill-rule="evenodd"/>
      <path id="Path_16" data-name="Path 16" d="M24.072,19h74.6a2.229,2.229,0,0,1,2.072,2.072V70.808a3.618,3.618,0,0,1-2.072,1.036h-74.6A3.618,3.618,0,0,1,22,70.808V21.072A2.229,2.229,0,0,1,24.072,19Zm1.036,1.036H97.639a2.229,2.229,0,0,1,2.072,2.072V68.736a2.229,2.229,0,0,1-2.072,2.072H25.108a2.229,2.229,0,0,1-2.072-2.072V22.108A2.229,2.229,0,0,1,25.108,20.036Z" transform="translate(568 842.542)" fill="#fefefe" stroke="#fefefe" stroke-width="1.25" fill-rule="evenodd"/>
      <path id="Path_17" data-name="Path 17" d="M54.036,4,86.157,19.542v1.036H85.121L53,5.036V4h1.036Z" transform="translate(569.121 842)" fill="#fefefe" fill-rule="evenodd"/>
      <path id="Path_18" data-name="Path 18" d="M38.036,30h8.289a1.015,1.015,0,0,1,1.036,1.036h0c0,1.036,0,2.072-1.036,2.072H38.036A3.618,3.618,0,0,1,37,31.036h0Z" transform="translate(568.542 842.94)" fill="#fefefe" fill-rule="evenodd"/>
      <path id="Path_19" data-name="Path 19" d="M32.036,35H53.8c1.036,0,1.036,1.036,1.036,2.072h0A1.015,1.015,0,0,1,53.8,38.108H32.036A1.015,1.015,0,0,1,31,37.072h0C31,36.036,31,35,32.036,35Z" transform="translate(568.325 843.121)" fill="#fefefe" fill-rule="evenodd"/>
      <path id="Path_20" data-name="Path 20" d="M29.036,40h26.94a2.229,2.229,0,0,1,2.072,2.072h0c0,1.036-1.036,1.036-2.072,1.036H29.036c-1.036,0-1.036,0-1.036-1.036h0C28,41.036,28,40,29.036,40Z" transform="translate(568.217 843.302)" fill="#fefefe" fill-rule="evenodd"/>
      <path id="Path_21" data-name="Path 21" d="M29.036,46h26.94c1.036,0,2.072,0,2.072,1.036h0c0,1.036-1.036,1.036-2.072,1.036H29.036c-1.036,0-1.036,0-1.036-1.036h0C28,46,28,46,29.036,46Z" transform="translate(568.217 843.519)" fill="#fefefe" fill-rule="evenodd"/>
      <path id="Path_22" data-name="Path 22" d="M32.036,51H53.8c1.036,0,1.036,0,1.036,1.036h0c0,1.036,0,1.036-1.036,1.036H32.036c-1.036,0-1.036,0-1.036-1.036h0C31,51,31,51,32.036,51Z" transform="translate(568.325 843.699)" fill="#fefefe" fill-rule="evenodd"/>
      <path id="Path_23" data-name="Path 23" d="M38.036,56h8.289a1.015,1.015,0,0,1,1.036,1.036h0c0,1.036,0,2.072-1.036,2.072H38.036A3.618,3.618,0,0,1,37,57.036h0Z" transform="translate(568.542 843.88)" fill="#fefefe" fill-rule="evenodd"/>
    </g>
  </g>
</svg>
