<svg width="97" height="13" viewBox="0 0 97 13" fill="none" xmlns="http://www.w3.org/2000/svg">
<path d="M8.676 10.3209H3.582L2.682 12.8741H0L4.68 0.323652H7.578L12.24 12.8741H9.558L8.676 10.3209ZM7.992 8.39696L6.12 3.03873L4.248 8.39696H7.992Z" fill="url(#paint0_linear)"/>
<path d="M27.3078 0.323652V12.8741H24.7878V4.11757L21.5658 12.8741H19.3698L16.1478 4.15353V12.8741H13.6098V0.323652H16.6878L20.5038 9.76349L24.2478 0.323652H27.3078Z" fill="url(#paint1_linear)"/>
<path d="M36.6979 6.32918C37.4659 6.48502 38.0779 6.85062 38.5339 7.426C39.0019 7.9894 39.2359 8.65468 39.2359 9.42185C39.2359 10.4887 38.8759 11.3338 38.1559 11.9571C37.4479 12.5685 36.4159 12.8741 35.0599 12.8741H29.6059V0.179806H34.9519C36.2359 0.179806 37.2199 0.461503 37.9039 1.0249C38.5999 1.58829 38.9479 2.37944 38.9479 3.39834C38.9479 4.18949 38.7379 4.83679 38.3179 5.34025C37.9099 5.84371 37.3699 6.17335 36.6979 6.32918ZM32.1439 5.50208H34.4299C35.0659 5.50208 35.5459 5.36422 35.8699 5.08852C36.2059 4.80083 36.3739 4.39327 36.3739 3.86584C36.3739 3.33841 36.2119 2.93084 35.8879 2.64315C35.5639 2.35546 35.0659 2.21162 34.3939 2.21162H32.1439V5.50208ZM34.5559 10.8064C35.2279 10.8064 35.7439 10.6625 36.1039 10.3748C36.4639 10.0751 36.6439 9.64361 36.6439 9.08022C36.6439 8.51683 36.4579 8.08529 36.0859 7.78562C35.7259 7.47395 35.2099 7.31812 34.5379 7.31812H32.1439V10.8064H34.5559Z" fill="url(#paint2_linear)"/>
<path d="M53.664 9.40387C53.664 10.0512 53.502 10.6505 53.178 11.2019C52.854 11.7414 52.3741 12.1789 51.738 12.5145C51.102 12.8382 50.328 13 49.416 13C48.516 13 47.712 12.8502 47.004 12.5505C46.296 12.2388 45.726 11.7953 45.294 11.2199C44.8741 10.6445 44.634 9.97326 44.574 9.20609H47.274C47.334 9.72153 47.538 10.1531 47.886 10.5007C48.246 10.8363 48.72 11.0042 49.308 11.0042C49.836 11.0042 50.238 10.8663 50.514 10.5906C50.802 10.3029 50.946 9.9373 50.946 9.49378C50.946 9.0982 50.832 8.77455 50.604 8.52282C50.376 8.25911 50.088 8.04933 49.74 7.8935C49.392 7.73767 48.912 7.55786 48.3 7.35408C47.508 7.09036 46.8601 6.83264 46.356 6.58091C45.852 6.3172 45.42 5.9396 45.06 5.44813C44.712 4.95666 44.538 4.31535 44.538 3.5242C44.538 2.43338 44.928 1.5763 45.708 0.952973C46.5 0.317658 47.544 0 48.84 0C50.184 0 51.252 0.323651 52.044 0.970954C52.848 1.61826 53.304 2.48133 53.412 3.56017H50.676C50.604 3.10466 50.412 2.73306 50.1 2.44537C49.788 2.14569 49.362 1.99585 48.822 1.99585C48.354 1.99585 47.976 2.12172 47.688 2.37344C47.4 2.61319 47.256 2.9668 47.256 3.4343C47.256 3.8059 47.364 4.11757 47.58 4.3693C47.808 4.60904 48.09 4.80682 48.426 4.96266C48.774 5.11849 49.242 5.2923 49.83 5.48409C50.646 5.77178 51.306 6.04149 51.81 6.29322C52.326 6.54495 52.764 6.92254 53.1241 7.426C53.4841 7.92946 53.664 8.58875 53.664 9.40387Z" fill="url(#paint3_linear)"/>
<path d="M58.0717 8.16321V12.8741H55.5337V0.179806H60.1597C61.6597 0.179806 62.7877 0.539419 63.5437 1.25864C64.3117 1.97787 64.6957 2.95482 64.6957 4.18949C64.6957 5.40018 64.2997 6.36515 63.5077 7.08437C62.7277 7.8036 61.6117 8.16321 60.1597 8.16321H58.0717ZM59.8897 6.1314C61.3777 6.1314 62.1217 5.48409 62.1217 4.18949C62.1217 3.55417 61.9477 3.0687 61.5997 2.73306C61.2517 2.39742 60.6817 2.2296 59.8897 2.2296H58.0717V6.1314H59.8897Z" fill="url(#paint4_linear)"/>
<path d="M68.8822 2.19364V5.48409H73.3822V7.426H68.8822V10.8423H73.9222V12.8741H66.3442V0.179806H73.9222V2.19364H68.8822Z" fill="url(#paint5_linear)"/>
<path d="M84.5312 9.40387C84.5312 10.0512 84.3692 10.6505 84.0452 11.2019C83.7212 11.7414 83.2412 12.1789 82.6052 12.5145C81.9692 12.8382 81.1952 13 80.2832 13C79.3832 13 78.5792 12.8502 77.8712 12.5505C77.1632 12.2388 76.5932 11.7953 76.1612 11.2199C75.7412 10.6445 75.5012 9.97326 75.4412 9.20609H78.1412C78.2012 9.72153 78.4052 10.1531 78.7532 10.5007C79.1132 10.8363 79.5872 11.0042 80.1752 11.0042C80.7032 11.0042 81.1052 10.8663 81.3812 10.5906C81.6692 10.3029 81.8132 9.9373 81.8132 9.49378C81.8132 9.0982 81.6992 8.77455 81.4712 8.52282C81.2432 8.25911 80.9552 8.04933 80.6072 7.8935C80.2592 7.73767 79.7792 7.55786 79.1672 7.35408C78.3752 7.09036 77.7272 6.83264 77.2232 6.58091C76.7192 6.3172 76.2872 5.9396 75.9272 5.44813C75.5792 4.95666 75.4052 4.31535 75.4052 3.5242C75.4052 2.43338 75.7952 1.5763 76.5752 0.952973C77.3672 0.317658 78.4112 0 79.7072 0C81.0512 0 82.1192 0.323651 82.9112 0.970954C83.7152 1.61826 84.1712 2.48133 84.2792 3.56017H81.5432C81.4712 3.10466 81.2792 2.73306 80.9672 2.44537C80.6552 2.14569 80.2292 1.99585 79.6892 1.99585C79.2212 1.99585 78.8432 2.12172 78.5552 2.37344C78.2672 2.61319 78.1232 2.9668 78.1232 3.4343C78.1232 3.8059 78.2312 4.11757 78.4472 4.3693C78.6752 4.60904 78.9572 4.80682 79.2932 4.96266C79.6412 5.11849 80.1092 5.2923 80.6972 5.48409C81.5132 5.77178 82.1732 6.04149 82.6772 6.29322C83.1932 6.54495 83.6312 6.92254 83.9912 7.426C84.3512 7.92946 84.5312 8.58875 84.5312 9.40387Z" fill="url(#paint6_linear)"/>
<path d="M96.9308 0.179806V12.8741H94.3748V7.35408H88.9388V12.8741H86.4008V0.179806H88.9388V5.32227H94.3748V0.179806H96.9308Z" fill="url(#paint7_linear)"/>
<defs>
<linearGradient id="paint0_linear" x1="-3.0964" y1="17.756" x2="-3.84981" y2="-1.91082" gradientUnits="userSpaceOnUse">
<stop stop-color="#BB9434"/>
<stop offset="1" stop-color="#EFD677" stop-opacity="0.94"/>
</linearGradient>
<linearGradient id="paint1_linear" x1="-3.0964" y1="17.756" x2="-3.84981" y2="-1.91082" gradientUnits="userSpaceOnUse">
<stop stop-color="#BB9434"/>
<stop offset="1" stop-color="#EFD677" stop-opacity="0.94"/>
</linearGradient>
<linearGradient id="paint2_linear" x1="-3.0964" y1="17.756" x2="-3.84981" y2="-1.91082" gradientUnits="userSpaceOnUse">
<stop stop-color="#BB9434"/>
<stop offset="1" stop-color="#EFD677" stop-opacity="0.94"/>
</linearGradient>
<linearGradient id="paint3_linear" x1="-3.0964" y1="17.756" x2="-3.84981" y2="-1.91082" gradientUnits="userSpaceOnUse">
<stop stop-color="#BB9434"/>
<stop offset="1" stop-color="#EFD677" stop-opacity="0.94"/>
</linearGradient>
<linearGradient id="paint4_linear" x1="-3.0964" y1="17.756" x2="-3.84981" y2="-1.91082" gradientUnits="userSpaceOnUse">
<stop stop-color="#BB9434"/>
<stop offset="1" stop-color="#EFD677" stop-opacity="0.94"/>
</linearGradient>
<linearGradient id="paint5_linear" x1="-3.0964" y1="17.756" x2="-3.84981" y2="-1.91082" gradientUnits="userSpaceOnUse">
<stop stop-color="#BB9434"/>
<stop offset="1" stop-color="#EFD677" stop-opacity="0.94"/>
</linearGradient>
<linearGradient id="paint6_linear" x1="-3.0964" y1="17.756" x2="-3.84981" y2="-1.91082" gradientUnits="userSpaceOnUse">
<stop stop-color="#BB9434"/>
<stop offset="1" stop-color="#EFD677" stop-opacity="0.94"/>
</linearGradient>
<linearGradient id="paint7_linear" x1="-3.0964" y1="17.756" x2="-3.84981" y2="-1.91082" gradientUnits="userSpaceOnUse">
<stop stop-color="#BB9434"/>
<stop offset="1" stop-color="#EFD677" stop-opacity="0.94"/>
</linearGradient>
</defs>
</svg>
