<svg width="56" height="60" viewBox="0 0 56 60" fill="none" xmlns="http://www.w3.org/2000/svg">
<path d="M55.8452 29.1078C54.4168 17.6217 46.4286 29.4182 44.2676 22.3006C42.9575 17.9855 48.3765 12.6833 46.538 7.95766C45.0014 4.00792 40.7213 2.94719 36.6768 3.74016C33.421 4.37845 30.5242 7.74459 27.1021 7.18272C23.4787 6.58767 22.3469 1.81385 18.7425 0.556924C9.48431 -2.67152 5.14248 8.90243 2.83526 15.574C-0.0967628 24.0522 -2.88255 35.1301 6.11832 40.7658C15.5972 46.7007 21.9703 38.3335 28.0511 50.2645C40.043 73.7937 57.844 45.1806 55.8452 29.1078Z" fill="url(#paint0_linear)"/>
<path d="M49.75 32.25H46.75V40.5H42.25V32.25H39.25L44.5 27L49.75 32.25Z" fill="#B7C5FF"/>
<path d="M43.75 45.5025V46.185C43.7509 46.4955 43.6554 46.7985 43.4767 47.0524C43.2981 47.3063 43.045 47.4985 42.7525 47.6025L31 51.75H19.75L10.75 48.75V36.75H16L18.25 37.41L22.75 38.7375L27.67 40.185C27.9821 40.275 28.2563 40.4643 28.4512 40.7241C28.6461 40.9839 28.751 41.3002 28.75 41.625V42C28.7488 42.3975 28.5904 42.7783 28.3093 43.0593C28.0283 43.3404 27.6475 43.4988 27.25 43.5H18.25L25 47.25H31L35.5 45.9225L41.83 44.0625C42.0536 43.9973 42.2892 43.985 42.5183 44.0267C42.7474 44.0684 42.9637 44.1628 43.15 44.3025C43.3363 44.4422 43.4875 44.6234 43.5916 44.8317C43.6958 45.04 43.75 45.2696 43.75 45.5025Z" fill="#FFDBD3"/>
<path d="M43.75 45.5024V46.1849C43.7509 46.4954 43.6554 46.7985 43.4767 47.0524C43.2981 47.3062 43.045 47.4984 42.7525 47.6024L31 51.7499H19.75L10.75 48.7499V46.7474L16.75 48.7499H28L38.53 45.0299L41.83 44.0624C42.0536 43.9972 42.2892 43.985 42.5183 44.0266C42.7474 44.0683 42.9637 44.1627 43.15 44.3024C43.3363 44.4422 43.4875 44.6233 43.5916 44.8316C43.6958 45.0399 43.75 45.2696 43.75 45.5024Z" fill="#FBC7BC"/>
<path d="M38.5 37.5H35.5V45.9225L31 47.25V42V37.5H28L33.25 32.25L38.5 37.5Z" fill="#B7C5FF"/>
<path d="M25.75 33.75H22.75V38.7375L18.25 37.41V33.75H15.25L20.5 28.5L25.75 33.75Z" fill="#B7C5FF"/>
<path d="M16.75 26.25H13.75V31.5H9.25V26.25H6.25L11.5 21L16.75 26.25Z" fill="#B7C5FF"/>
<path d="M10.75 48.75V51H6.25V34.5H10.75V36.75V48.75Z" fill="#FF7EB8"/>
<path d="M29.5 29.25C35.299 29.25 40 24.549 40 18.75C40 12.951 35.299 8.25 29.5 8.25C23.701 8.25 19 12.951 19 18.75C19 24.549 23.701 29.25 29.5 29.25Z" fill="#E0E0E2"/>
<path d="M39.9999 18.75H36.9999C37.001 17.4333 36.6543 16.1397 35.9949 15L38.5899 13.5C39.5175 15.0939 40.0041 16.9059 39.9999 18.75Z" fill="#FFD54D"/>
<path d="M35.995 22.5L38.59 24C37.674 25.5985 36.3485 26.924 34.75 27.84L33.25 25.245C34.386 24.5815 35.3315 23.636 35.995 22.5Z" fill="#FFD54D"/>
<path d="M34.75 9.66003L33.25 12.255C32.1103 11.5956 30.8167 11.2489 29.5 11.25V8.25003C31.3441 8.24581 33.1561 8.73247 34.75 9.66003Z" fill="#FFD54D"/>
<path d="M29.5 26.2501V29.2501C27.6559 29.2543 25.8439 28.7677 24.25 27.8401L25.75 25.2451C26.8897 25.9046 28.1833 26.2513 29.5 26.2501Z" fill="#FFD54D"/>
<path d="M24.2499 9.65991L25.7499 12.2549C24.6139 12.9184 23.6684 13.8639 23.0049 14.9999L20.4099 13.4999C21.3259 11.9014 22.6514 10.5759 24.2499 9.65991Z" fill="#FFD54D"/>
<path d="M23.0049 22.5L20.4099 24C19.4823 22.4061 18.9957 20.5941 18.9999 18.75H21.9999C21.9988 20.0667 22.3455 21.3603 23.0049 22.5Z" fill="#FFD54D"/>
<path d="M29.5 26.25C33.6421 26.25 37 22.8921 37 18.75C37 14.6079 33.6421 11.25 29.5 11.25C25.3579 11.25 22 14.6079 22 18.75C22 22.8921 25.3579 26.25 29.5 26.25Z" fill="#FFD54D"/>
<path d="M37 18.75C36.9989 20.4163 36.443 22.0348 35.4199 23.35C34.3968 24.6653 32.9648 25.6023 31.35 26.0133C29.7352 26.4244 28.0295 26.2859 26.5021 25.6199C24.9747 24.9538 23.7126 23.798 22.915 22.335C24.0137 22.9377 25.247 23.2524 26.5 23.25C27.485 23.25 28.4602 23.056 29.3702 22.6791C30.2801 22.3022 31.1069 21.7498 31.8033 21.0533C32.4998 20.3569 33.0522 19.5301 33.4291 18.6202C33.806 17.7102 34 16.735 34 15.75C34.0024 14.497 33.6877 13.2637 33.085 12.165C34.27 12.8085 35.2593 13.7599 35.9484 14.919C36.6375 16.078 37.0008 17.4016 37 18.75Z" fill="#FFCD00"/>
<path d="M43.6 43.7027C43.319 43.4932 42.9934 43.3517 42.6485 43.2893C42.3037 43.2268 41.9491 43.2451 41.6125 43.3427L36.25 44.9252V38.2502H38.5C38.6484 38.2507 38.7935 38.2067 38.9165 38.1238C39.0396 38.0409 39.1348 37.9229 39.19 37.7852C39.2474 37.6486 39.2631 37.498 39.2351 37.3525C39.2071 37.207 39.1366 37.0731 39.0325 36.9677L33.7825 31.7177C33.6409 31.5771 33.4495 31.4983 33.25 31.4983C33.0505 31.4983 32.8591 31.5771 32.7175 31.7177L27.4675 36.9677C27.3634 37.0731 27.2929 37.207 27.2649 37.3525C27.2369 37.498 27.2526 37.6486 27.31 37.7852C27.3652 37.9229 27.4604 38.0409 27.5835 38.1238C27.7065 38.2067 27.8516 38.2507 28 38.2502H30.25V46.5002H25.195L21.145 44.2502H27.25C27.8462 44.2484 28.4175 44.0107 28.839 43.5892C29.2606 43.1676 29.4982 42.5963 29.5 42.0002V41.6252C29.4987 41.1397 29.3412 40.6676 29.0508 40.2786C28.7604 39.8896 28.3525 39.6044 27.8875 39.4652L23.5 38.1752V34.5002H25.75C25.8984 34.5007 26.0435 34.4567 26.1665 34.3738C26.2896 34.2909 26.3848 34.1729 26.44 34.0352C26.4974 33.8986 26.5131 33.748 26.4851 33.6025C26.4571 33.457 26.3866 33.3231 26.2825 33.2177L21.0325 27.9677C20.8909 27.8271 20.6995 27.7483 20.5 27.7483C20.3005 27.7483 20.1091 27.8271 19.9675 27.9677L14.7175 33.2177C14.6134 33.3231 14.5429 33.457 14.5149 33.6025C14.4869 33.748 14.5026 33.8986 14.56 34.0352C14.6152 34.1729 14.7104 34.2909 14.8335 34.3738C14.9565 34.4567 15.1016 34.5007 15.25 34.5002H17.5V36.4127L16.21 36.0302C16.1421 36.0087 16.0712 35.9985 16 36.0002H11.5V34.5002C11.5 34.3012 11.421 34.1105 11.2803 33.9698C11.1397 33.8292 10.9489 33.7502 10.75 33.7502H6.25C6.05109 33.7502 5.86032 33.8292 5.71967 33.9698C5.57902 34.1105 5.5 34.3012 5.5 34.5002V51.0002C5.5 51.1991 5.57902 51.3898 5.71967 51.5305C5.86032 51.6711 6.05109 51.7502 6.25 51.7502H10.75C10.9489 51.7502 11.1397 51.6711 11.2803 51.5305C11.421 51.3898 11.5 51.1991 11.5 51.0002V49.7927L19.51 52.4627C19.5879 52.4861 19.6687 52.4987 19.75 52.5002H31C31.0846 52.5005 31.1685 52.4852 31.2475 52.4552L43 48.3077C43.4389 48.1525 43.8188 47.865 44.0875 47.4849C44.3561 47.1047 44.5002 46.6506 44.5 46.1852V45.5027C44.5009 45.1532 44.42 44.8084 44.2637 44.4958C44.1074 44.1832 43.8801 43.9116 43.6 43.7027ZM10 50.2502H7V35.2502H10V50.2502ZM29.8075 36.7502L33.25 33.3077L36.6925 36.7502H35.5C35.3011 36.7502 35.1103 36.8292 34.9697 36.9698C34.829 37.1105 34.75 37.3012 34.75 37.5002V45.3677L31.75 46.2452V37.5002C31.75 37.3012 31.671 37.1105 31.5303 36.9698C31.3897 36.8292 31.1989 36.7502 31 36.7502H29.8075ZM17.0575 33.0002L20.5 29.5577L23.9425 33.0002H22.75C22.5511 33.0002 22.3603 33.0792 22.2197 33.2198C22.079 33.3605 22 33.5512 22 33.7502V37.7327L19 36.8477V33.7502C19 33.5512 18.921 33.3605 18.7803 33.2198C18.6397 33.0792 18.4489 33.0002 18.25 33.0002H17.0575ZM43 46.1852C43.0009 46.3415 42.953 46.4942 42.8629 46.6219C42.7728 46.7497 42.6451 46.8461 42.4975 46.8977L30.8725 51.0002H19.87L11.5 48.2102V37.5002H15.895L27.46 40.9052C27.6153 40.9514 27.7516 41.0464 27.8488 41.176C27.946 41.3057 27.999 41.4631 28 41.6252V42.0002C28 42.1991 27.921 42.3898 27.7803 42.5305C27.6397 42.6711 27.4489 42.7502 27.25 42.7502H18.25C18.0846 42.7507 17.924 42.8058 17.7932 42.9071C17.6624 43.0084 17.5687 43.15 17.5268 43.31C17.4848 43.4701 17.497 43.6395 17.5613 43.7918C17.6257 43.9442 17.7386 44.0711 17.8825 44.1527L24.6325 47.9027C24.7439 47.9679 24.8709 48.0017 25 48.0002H31C31.0712 48.0018 31.1421 47.9916 31.21 47.9702L42.04 44.7827C42.1518 44.75 42.2696 44.7439 42.3842 44.7647C42.4987 44.7856 42.6069 44.8328 42.7 44.9027C42.7931 44.9725 42.8688 45.0631 42.9208 45.1672C42.9729 45.2714 43 45.3862 43 45.5027V46.1852Z" fill="#2626BC"/>
<path d="M29.4999 7.5C27.2748 7.5 25.0998 8.1598 23.2497 9.39597C21.3997 10.6321 19.9577 12.3891 19.1062 14.4448C18.2548 16.5005 18.032 18.7625 18.466 20.9448C18.9001 23.127 19.9716 25.1316 21.5449 26.7049C23.1183 28.2783 25.1228 29.3497 27.3051 29.7838C29.4874 30.2179 31.7494 29.9951 33.8051 29.1436C35.8607 28.2921 37.6177 26.8502 38.8539 25.0001C40.0901 23.1501 40.7499 20.975 40.7499 18.75C40.7463 15.7674 39.5599 12.908 37.4509 10.799C35.3419 8.68998 32.4825 7.50357 29.4999 7.5ZM39.2124 18H37.7124C37.624 17.0654 37.378 16.1525 36.9849 15.3L38.2824 14.5425C38.8028 15.6278 39.1181 16.8 39.2124 18ZM35.0049 10.71C35.9966 11.3943 36.8556 12.2532 37.5399 13.245L36.2349 13.995C35.6881 13.2307 35.0191 12.5618 34.2549 12.015L35.0049 10.71ZM30.2499 9.0375C31.4498 9.13179 32.622 9.44709 33.7074 9.9675L32.9499 11.265C32.0974 10.8718 31.1845 10.6259 30.2499 10.5375V9.0375ZM28.7499 9.0375V10.5375C27.8153 10.6259 26.9024 10.8718 26.0499 11.265L25.2924 9.9675C26.3777 9.44709 27.5499 9.13179 28.7499 9.0375ZM23.9949 10.71L24.7449 12.015C23.9806 12.5618 23.3116 13.2307 22.7649 13.995L21.4599 13.245C22.1441 12.2532 23.0031 11.3943 23.9949 10.71ZM20.7174 14.5425L22.0149 15.3C21.6217 16.1525 21.3758 17.0654 21.2874 18H19.7874C19.8817 16.8 20.197 15.6278 20.7174 14.5425ZM19.7874 19.5H21.2874C21.3758 20.4346 21.6217 21.3475 22.0149 22.2L20.7174 22.9575C20.197 21.8721 19.8817 20.6999 19.7874 19.5ZM23.9949 26.79C23.0031 26.1057 22.1441 25.2467 21.4599 24.255L22.7649 23.505C23.3116 24.2693 23.9806 24.9382 24.7449 25.485L23.9949 26.79ZM28.7499 28.4625C27.5499 28.3682 26.3777 28.0529 25.2924 27.5325L26.0499 26.235C26.9024 26.6281 27.8153 26.8741 28.7499 26.9625V28.4625ZM22.7499 18.75C22.7499 17.415 23.1458 16.1099 23.8875 14.9999C24.6292 13.8899 25.6834 13.0247 26.9168 12.5138C28.1502 12.0029 29.5074 11.8692 30.8167 12.1297C32.1261 12.3901 33.3288 13.033 34.2728 13.977C35.2168 14.921 35.8597 16.1238 36.1202 17.4331C36.3806 18.7425 36.2469 20.0997 35.736 21.3331C35.2252 22.5665 34.36 23.6207 33.25 24.3624C32.1399 25.1041 30.8349 25.5 29.4999 25.5C27.7105 25.4972 25.9952 24.7852 24.73 23.5199C23.4647 22.2546 22.7527 20.5393 22.7499 18.75ZM30.2499 28.4625V26.9625C31.1845 26.8741 32.0974 26.6281 32.9499 26.235L33.7074 27.5325C32.622 28.0529 31.4498 28.3682 30.2499 28.4625ZM35.0049 26.79L34.2549 25.485C35.0191 24.9382 35.6881 24.2693 36.2349 23.505L37.5399 24.255C36.8556 25.2467 35.9966 26.1057 35.0049 26.79ZM38.2824 22.9575L36.9849 22.2C37.378 21.3475 37.624 20.4346 37.7124 19.5H39.2124C39.1181 20.6999 38.8028 21.8721 38.2824 22.9575Z" fill="#2626BC"/>
<path d="M28.75 24H30.25V22.5C30.6478 22.5 31.0294 22.342 31.3107 22.0607C31.592 21.7794 31.75 21.3978 31.75 21V19.5C31.75 19.1022 31.592 18.7206 31.3107 18.4393C31.0294 18.158 30.6478 18 30.25 18H28.75V16.5H31.75V15H30.25V13.5H28.75V15C28.3522 15 27.9706 15.158 27.6893 15.4393C27.408 15.7206 27.25 16.1022 27.25 16.5V18C27.25 18.3978 27.408 18.7794 27.6893 19.0607C27.9706 19.342 28.3522 19.5 28.75 19.5H30.25V21H27.25V22.5H28.75V24Z" fill="#2626BC"/>
<path d="M50.2802 31.7196L45.0302 26.4696C44.8896 26.329 44.6988 26.25 44.5 26.25C44.3011 26.25 44.1104 26.329 43.9697 26.4696L38.7197 31.7196C38.6149 31.8245 38.5435 31.9581 38.5145 32.1036C38.4856 32.249 38.5005 32.3998 38.5572 32.5368C38.614 32.6739 38.7101 32.791 38.8334 32.8734C38.9567 32.9558 39.1017 32.9998 39.25 32.9998H41.5V40.4998C41.5 40.6988 41.579 40.8895 41.7196 41.0302C41.8603 41.1708 42.0511 41.2498 42.25 41.2498H46.75C46.9489 41.2498 47.1397 41.1708 47.2803 41.0302C47.421 40.8895 47.5 40.6988 47.5 40.4998V32.9998H49.75C49.8983 32.9998 50.0433 32.9558 50.1666 32.8734C50.2899 32.791 50.386 32.6739 50.4427 32.5368C50.4995 32.3998 50.5143 32.249 50.4854 32.1036C50.4565 31.9581 50.3851 31.8245 50.2802 31.7196ZM46.75 31.4998C46.5511 31.4998 46.3603 31.5789 46.2196 31.7195C46.079 31.8602 46 32.0509 46 32.2498V39.7498H43V32.2498C43 32.0509 42.921 31.8602 42.7803 31.7195C42.6396 31.5789 42.4489 31.4998 42.25 31.4998H41.0605L44.5 28.0603L47.9395 31.4998H46.75Z" fill="#2626BC"/>
<path d="M6.24996 26.9998H8.49996V31.4998C8.49996 31.6988 8.57898 31.8895 8.71964 32.0302C8.86029 32.1708 9.05105 32.2498 9.24997 32.2498H13.75C13.9489 32.2498 14.1396 32.1708 14.2803 32.0302C14.421 31.8895 14.5 31.6988 14.5 31.4998V26.9998H16.75C16.8983 26.9998 17.0433 26.9558 17.1666 26.8734C17.2899 26.791 17.386 26.6739 17.4427 26.5368C17.4995 26.3998 17.5143 26.249 17.4854 26.1036C17.4565 25.9581 17.3851 25.8245 17.2802 25.7196L12.0302 20.4696C11.8896 20.329 11.6988 20.25 11.5 20.25C11.3011 20.25 11.1104 20.329 10.9697 20.4696L5.71971 25.7196C5.61486 25.8245 5.54345 25.9581 5.51452 26.1036C5.4856 26.249 5.50045 26.3998 5.5572 26.5368C5.61396 26.6739 5.71006 26.791 5.83337 26.8734C5.95668 26.9558 6.10165 26.9998 6.24996 26.9998ZM11.5 22.0603L14.9395 25.4998H13.75C13.5511 25.4998 13.3603 25.5789 13.2196 25.7195C13.079 25.8602 13 26.0509 13 26.2498V30.7498H9.99997V26.2498C9.99997 26.0509 9.92095 25.8602 9.7803 25.7195C9.63964 25.5789 9.44888 25.4998 9.24997 25.4998H8.06046L11.5 22.0603Z" fill="#2626BC"/>
<defs>
<linearGradient id="paint0_linear" x1="30.4197" y1="62.0125" x2="22.8839" y2="9.3764" gradientUnits="userSpaceOnUse">
<stop stop-color="#C7D3FF"/>
<stop offset="0.593" stop-color="#E7D8F5"/>
<stop offset="0.997" stop-color="#FFDBED"/>
</linearGradient>
</defs>
</svg>
