<svg width="56" height="48" viewBox="0 0 56 48" fill="none" xmlns="http://www.w3.org/2000/svg">
<path d="M39.9025 1.60353C32.3449 -1.35342 21.8793 -0.230032 16.0957 5.04994C12.0121 8.77798 15.1727 9.84056 17.9569 16.6623C19.9719 21.5995 0 20.9199 0 29.8414C0 40.1554 14.465 38.2003 19.8329 39.3809C28.0399 41.186 35.1996 47.9386 43.9684 47.0484C51.6022 46.2734 54.5125 40.283 55.5741 33.4157C57.5518 20.6214 52.6944 6.60853 39.9025 1.60353Z" fill="url(#paint0_linear)"/>
<path d="M27.9266 0.5625C24.6445 0.5625 21.9841 3.25245 21.9841 6.57084V9.00021C22.3813 8.62798 22.9463 8.42576 23.4979 8.50022V8.20083C23.4979 7.96282 23.6988 7.77487 23.9319 7.79266C26.2294 7.95952 28.5676 7.22137 30.3356 6.05362C30.5006 5.94457 30.7192 5.97171 30.8533 6.11747C32.3647 7.76011 32.3556 7.69655 32.3556 7.91107V8.49902C32.9602 8.40741 33.4965 8.59626 33.8691 8.94649V6.57091C33.8691 3.25252 31.2087 0.5625 27.9266 0.5625Z" fill="#F1B279"/>
<path d="M23.375 6.57091C23.375 3.49052 25.668 0.953227 28.6221 0.604898C28.3938 0.577898 28.162 0.5625 27.9266 0.5625C24.6445 0.5625 21.9841 3.25245 21.9841 6.57084V9.00028C22.3518 8.65568 22.8635 8.45719 23.375 8.48869V6.57091Z" fill="#ED9443"/>
<path d="M32.3477 8.28164V11.5858C32.3477 11.6216 32.3458 11.657 32.345 11.6927C33.5014 11.8698 34.4072 11.0249 34.4072 9.98735C34.4072 8.94764 33.5007 8.10692 32.3477 8.28164Z" fill="#F0A479"/>
<path d="M33.7493 8.62982C33.384 8.344 32.8935 8.19888 32.3477 8.28164V11.5858C32.3477 11.6216 32.3458 11.657 32.345 11.6927C32.8925 11.7765 33.3837 11.631 33.7492 11.3447V8.62989H33.7493V8.62982Z" fill="#FFD1C7"/>
<path d="M23.5111 11.5897V8.27836C22.5017 8.14209 21.4463 8.9253 21.4463 9.98702C21.4463 11.0259 22.3524 11.8744 23.5136 11.6967C23.5128 11.661 23.5111 11.6254 23.5111 11.5897Z" fill="#F0A479"/>
<path d="M23.5111 11.3594C23.0948 11.0404 22.8372 10.5408 22.8372 9.98702C22.8372 9.4473 23.1102 8.97986 23.5111 8.66824V8.27836C22.5017 8.14209 21.4463 8.92537 21.4463 9.98702C21.4463 11.0259 22.3524 11.8744 23.5136 11.6967C23.5128 11.6609 23.5111 11.6253 23.5111 11.5896V11.3594Z" fill="#FFD1C7"/>
<path d="M27.9899 15.7823C27.0298 15.7823 26.1861 15.5158 25.4961 15.0699V17.5314L27.9792 20.6304L30.4622 17.5314V15.0034C29.7589 15.4941 28.9072 15.7823 27.9899 15.7823Z" fill="#F0A479"/>
<path d="M26.9141 15.6634C26.3905 15.5445 25.9148 15.3406 25.4961 15.0701V17.5316L26.9141 19.3013V15.6634Z" fill="#E59770"/>
<path d="M37.0314 19.8927L30.4625 17.3206L27.9794 20.4195L25.4963 17.3206L18.9342 19.8927C18.9342 19.8927 16.5046 20.9026 16.5046 23.703C16.5046 26.2369 16.5046 32.642 16.5046 34.6889C16.5046 35.141 16.8671 35.5075 17.3142 35.5075C17.6549 35.5075 38.3055 35.5075 38.6515 35.5075C39.0986 35.5075 39.4611 35.1411 39.4611 34.6889C39.4611 32.6419 39.4611 26.2368 39.4611 23.703C39.461 20.9026 37.0314 19.8927 37.0314 19.8927Z" fill="#E4EAF8"/>
<path d="M17.8907 34.6893C17.8907 32.6423 17.8907 25.4637 17.8907 22.9299C17.8907 21.3055 18.7079 20.2845 19.3945 19.7126L18.9342 19.8931C18.9342 19.8931 16.5046 20.903 16.5046 23.7033C16.5046 26.2372 16.5046 32.6423 16.5046 34.6893C16.5046 35.1413 16.8672 35.5079 17.3142 35.5079C17.3653 35.5079 17.8732 35.5079 18.7003 35.5079C18.2533 35.5079 17.8907 35.1413 17.8907 34.6893Z" fill="#D8DCE5"/>
<path d="M30.8535 5.9066C30.7193 5.76084 30.5008 5.73377 30.3358 5.84276C28.5678 7.01044 26.2297 7.74865 23.9321 7.58173C23.699 7.56387 23.498 7.75188 23.498 7.98982V11.5793C23.498 13.8862 25.2859 15.9933 27.9901 15.9933C30.3974 15.9933 32.3559 14.0131 32.3559 11.5793V7.70006C32.3559 7.48561 32.365 7.54924 30.8535 5.9066Z" fill="#FFDBD3"/>
<path d="M24.889 11.5795V7.59984C24.5703 7.61025 24.2508 7.60512 23.9321 7.58199C23.699 7.56413 23.498 7.75214 23.498 7.99015V11.5796C23.498 13.8866 25.2859 15.9936 27.9901 15.9936C28.2049 15.9936 28.4159 15.9772 28.6224 15.9467C26.5138 15.6359 24.889 13.7963 24.889 11.5795Z" fill="#FBC7BC"/>
<path d="M30.9776 22.0119L32.8345 18.2493L30.4626 17.3206L27.9795 20.4195L30.4004 22.1578C30.5962 22.2987 30.8702 22.2293 30.9776 22.0119Z" fill="#D8DCE5"/>
<path d="M24.9845 22.0119L23.1277 18.2493L25.4996 17.3206L27.9826 20.4195L25.5617 22.1578C25.3658 22.2987 25.0918 22.2293 24.9845 22.0119Z" fill="#D8DCE5"/>
<path d="M30.5047 32.4673L28.9111 22.9294H27.9826H27.9796H27.0511L25.4574 32.4673C25.4407 32.5902 25.4764 32.7149 25.5523 32.7996L27.7525 35.2514C27.8751 35.3879 28.0871 35.3879 28.2097 35.2514L30.41 32.7996C30.4858 32.7149 30.5214 32.5902 30.5047 32.4673Z" fill="#FF7EB8"/>
<path d="M27.9828 20.422V20.4199L27.9813 20.421L27.9798 20.4199V20.422L26.219 21.6865L27.0513 22.953H27.9798H27.9828H28.9113L29.7437 21.6865L27.9828 20.422Z" fill="#FF7EB8"/>
<path d="M26.9432 32.8001C26.8672 32.7153 26.8316 32.5906 26.8484 32.4678L28.442 22.9299H27.9826H27.9796H27.0511L25.4574 32.4678C25.4407 32.5907 25.4763 32.7154 25.5523 32.8001L27.7525 35.2519C27.875 35.3884 28.0871 35.3884 28.2096 35.2519L28.6765 34.7316L26.9432 32.8001Z" fill="#F05FA0"/>
<path d="M28.6764 20.9204L27.9824 20.4221V20.4199L27.9808 20.421L27.9794 20.4199V20.4221L26.2185 21.6865L27.0509 22.953H27.9794H27.9824H28.4418L27.7208 21.8558C27.6587 21.7615 27.682 21.6344 27.7734 21.5687L28.6764 20.9204Z" fill="#F05FA0"/>
<path d="M39.4778 27.7623C39.7659 27.7623 39.9994 27.5262 39.9994 27.235V23.668C39.9994 20.5501 37.3589 19.4167 37.2466 19.37C37.2433 19.3686 37.2399 19.3672 37.2366 19.366L31.0009 16.9243V15.4456C31.9913 14.6668 32.678 13.5124 32.8504 12.1953C33.3443 12.1601 33.8025 11.9737 34.1767 11.6483C34.6654 11.2234 34.9457 10.605 34.9457 9.95196C34.9457 9.40999 34.7523 8.89249 34.4077 8.48925V6.53576C34.4076 2.93196 31.5079 0 27.9435 0C24.3792 0 21.4794 2.93196 21.4794 6.53576V8.54044C21.1311 8.9396 20.9417 9.43095 20.9417 9.95189C20.9417 10.6052 21.2219 11.2235 21.7107 11.6485C22.0847 11.9737 22.5426 12.1599 23.0363 12.1951C23.2101 13.5369 23.9168 14.7344 24.9916 15.5237V16.9243L18.7626 19.3659C18.7594 19.3672 18.7561 19.3685 18.7528 19.3698C18.6404 19.4166 16 20.55 16 23.6679V34.6539C16 35.396 16.5972 35.9998 17.3312 35.9998H22.3005C22.5885 35.9998 22.822 35.7637 22.822 35.4724C22.822 35.1812 22.5885 34.9451 22.3005 34.9451H21.1783V24.5602C21.1783 24.269 20.9447 24.0329 20.6567 24.0329C20.3686 24.0329 20.1351 24.269 20.1351 24.5602V34.9452H17.3312C17.1725 34.9452 17.0433 34.8146 17.0433 34.6541V23.668C17.0433 21.2936 19.0247 20.3994 19.1464 20.3468L22.8902 18.8794L24.535 22.2124C24.6924 22.5311 25.0119 22.7235 25.3525 22.7235C25.6864 22.7235 25.8636 22.5654 26.0993 22.3961L26.5194 23.0356L24.9602 32.3497C24.9593 32.355 24.9585 32.3603 24.9577 32.3656C24.92 32.6415 25.0044 32.9251 25.1833 33.1242L26.8206 34.9453H24.7346C24.4466 34.9453 24.2131 35.1814 24.2131 35.4727C24.2131 35.7639 24.4466 36 24.7346 36H38.6685C39.4025 36 39.9997 35.3962 39.9997 34.6541V29.6961C39.9997 29.4048 39.7661 29.1687 39.4781 29.1687C39.19 29.1687 38.9565 29.4048 38.9565 29.6961V34.6541C38.9565 34.8146 38.8273 34.9452 38.6686 34.9452H35.8648V24.5602C35.8648 24.269 35.6313 24.0329 35.3432 24.0329C35.0552 24.0329 34.8217 24.269 34.8217 24.5602V34.9452H29.1759L30.8131 33.1241C30.992 32.9252 31.0763 32.6417 31.0387 32.3657C31.038 32.3603 31.0372 32.355 31.0363 32.3497L29.4768 23.0356L29.8969 22.3961C30.1292 22.5629 30.3081 22.7235 30.6437 22.7235C30.985 22.7235 31.3041 22.5304 31.4611 22.2124V22.2124L33.1058 18.8795L36.8525 20.3466C36.988 20.4054 38.9562 21.3016 38.9562 23.668V27.235C38.9562 27.5262 39.1898 27.7623 39.4778 27.7623ZM33.4965 10.8486C33.3259 10.9969 33.1198 11.0918 32.8942 11.1289V8.77507C33.4936 8.87351 33.9025 9.37631 33.9025 9.95189C33.9025 10.2974 33.7545 10.6242 33.4965 10.8486ZM22.5226 6.53576C22.5226 3.51352 24.9544 1.05476 27.9435 1.05476C30.9327 1.05476 33.3644 3.51352 33.3644 6.53576V7.80441C33.2128 7.75779 33.0556 7.72699 32.8942 7.71251C32.8942 7.20366 32.8986 7.30181 31.2521 5.51215C30.9494 5.18323 30.4485 5.11432 30.0674 5.36611C28.2502 6.56627 26.0336 7.1692 23.9883 7.0207C23.5399 6.98674 23.1312 7.2855 23.0213 7.72706C22.8551 7.74633 22.6647 7.79182 22.5228 7.84062V6.53576H22.5226ZM21.9848 9.95189C21.9848 9.3882 22.4471 8.92927 22.9932 8.80165V11.129C22.3869 11.0295 21.9848 10.5227 21.9848 9.95189ZM24.0364 11.5442V8.25412V8.0808C26.2878 8.21412 28.6483 7.53785 30.5552 6.30309C31.3103 7.1228 31.7192 7.55276 31.851 7.7163C31.851 8.13002 31.851 11.0706 31.851 11.5441C31.851 13.6849 30.1246 15.4307 28.007 15.4307C25.629 15.4308 24.0364 13.5657 24.0364 11.5442ZM28.0069 16.4855C28.6907 16.4855 29.3613 16.3382 29.9577 16.0745V17.0987L27.9979 19.5446L26.0347 17.0944V16.1075C26.6683 16.3658 27.3455 16.4855 28.0069 16.4855ZM23.867 18.497L25.3478 17.9172L27.2422 20.2814C26.2789 20.9732 25.4878 21.5414 25.4004 21.6041L23.867 18.497ZM27.9979 34.6869L25.9989 32.4634L27.5085 23.4449H28.4871L29.9968 32.4634L27.9979 34.6869ZM28.6482 22.3902H27.3476L26.9499 21.7851L27.9979 21.0325L29.0459 21.7851L28.6482 22.3902ZM30.5954 21.6041C30.5573 21.5768 29.7447 20.9931 28.7513 20.2799C29.1824 19.7419 28.6781 20.3712 30.6453 17.9162L32.1287 18.4971L30.5954 21.6041Z" fill="#2626BC"/>
<path d="M28.982 29.1105L31.2186 33.6424L36.2199 34.3692C37.1182 34.4997 37.4769 35.6037 36.8269 36.2373L33.2079 39.765L34.0622 44.746C34.2157 45.6408 33.2766 46.323 32.4731 45.9006L27.9998 43.5488L23.5265 45.9006C22.7231 46.323 21.784 45.6407 21.9374 44.746L22.7918 39.765L19.1728 36.2373C18.5227 35.6037 18.8814 34.4997 19.7798 34.3692L24.781 33.6424L27.0177 29.1105C27.4195 28.2965 28.5803 28.2965 28.982 29.1105Z" fill="#FFD54D"/>
<path d="M19.7797 34.3688C18.8814 34.4993 18.5227 35.6033 19.1727 36.2369L22.7917 39.7645L21.9375 44.7456C21.784 45.6403 22.7231 46.3226 23.5266 45.9001L27.9999 43.5483L32.4731 45.9001C33.2767 46.3225 34.2157 45.6402 34.0623 44.7456L33.9395 44.0303L23.7073 33.7981L19.7797 34.3688Z" fill="#FFC919"/>
<path d="M15.7833 34.8313L17.2636 37.8308L20.5738 38.3119C21.1683 38.3982 21.4057 39.1289 20.9755 39.5483L18.5803 41.883L19.1457 45.1798C19.2472 45.7719 18.6257 46.2235 18.0939 45.9439L15.1332 44.3874L12.1726 45.9439C11.6408 46.2235 11.0192 45.7719 11.1208 45.1798L11.6862 41.883L9.29098 39.5483C8.86076 39.1289 9.09818 38.3982 9.69271 38.3119L13.0028 37.8308L14.4832 34.8313C14.7491 34.2926 15.5174 34.2926 15.7833 34.8313Z" fill="#FFD54D"/>
<path d="M9.69295 38.3118C9.09843 38.3982 8.861 39.1289 9.29122 39.5483L11.6864 41.8829L11.121 45.1797C11.0194 45.7718 11.6409 46.2234 12.1727 45.9438L15.1334 44.3873L18.0941 45.9438C18.6259 46.2234 19.2474 45.7718 19.1458 45.1797L19.0646 44.7063L12.2925 37.9341L9.69295 38.3118Z" fill="#FFC919"/>
<path d="M41.5167 34.8313L42.997 37.8308L46.3071 38.3119C46.9017 38.3982 47.1391 39.1289 46.7089 39.5483L44.3136 41.883L44.8791 45.1798C44.9806 45.7719 44.3591 46.2235 43.8273 45.9439L40.8666 44.3874L37.906 45.9439C37.3742 46.2235 36.7526 45.7719 36.8542 45.1798L37.4196 41.883L35.0244 39.5483C34.5942 39.1289 34.8316 38.3982 35.4261 38.3119L38.7362 37.8308L40.2166 34.8313C40.4826 34.2926 41.2508 34.2926 41.5167 34.8313Z" fill="#FFD54D"/>
<path d="M35.4261 38.312C34.8316 38.3984 34.5942 39.1291 35.0244 39.5484L37.4196 41.8832L36.8542 45.1799C36.7526 45.7721 37.3741 46.2236 37.906 45.9441L40.8666 44.3876L43.8273 45.9441C44.3591 46.2236 44.9806 45.7721 44.8791 45.1799L44.7979 44.7065L38.0257 37.9343L35.4261 38.312Z" fill="#FFC919"/>
<path d="M19.4353 40.289L18.2507 41.4436C18.116 41.5749 18.0546 41.764 18.0864 41.9492L18.6559 45.27C18.6697 45.3505 18.6292 45.3989 18.5927 45.4254C18.5562 45.4519 18.4975 45.4755 18.4255 45.4375L15.4432 43.8696C15.2767 43.7822 15.078 43.7822 14.9116 43.8696L11.9293 45.4375C11.8571 45.4754 11.7985 45.4519 11.7621 45.4254C11.7256 45.3989 11.685 45.3505 11.6988 45.27L12.2684 41.9492C12.3001 41.7639 12.2387 41.5749 12.1041 41.4436L9.69139 39.0918C9.63297 39.0348 9.63731 38.9718 9.65118 38.9289C9.66511 38.8861 9.69871 38.8325 9.77945 38.8208L13.1137 38.3363C13.2997 38.3093 13.4606 38.1924 13.5438 38.0238L15.0349 35.0024C15.0711 34.9292 15.1324 34.9138 15.1774 34.9138C15.2224 34.9138 15.2837 34.9292 15.3198 35.0024L16.6251 37.6472C16.7647 37.9301 17.1071 38.0462 17.3903 37.9066C17.6732 37.767 17.7893 37.4244 17.6497 37.1415L16.3444 34.4967C16.1236 34.0492 15.6764 33.7712 15.1774 33.7712C14.6784 33.7712 14.2312 34.0492 14.0104 34.4967L12.6522 37.2487L9.61522 37.69C9.1214 37.7618 8.71875 38.1012 8.56466 38.5758C8.41048 39.0504 8.53662 39.5615 8.89402 39.9099L11.0916 42.052L10.5728 45.0767C10.4885 45.5686 10.6868 46.0563 11.0905 46.3496C11.3187 46.5153 11.5856 46.5996 11.8543 46.5996C12.0611 46.5996 12.2691 46.5497 12.4612 46.4487L15.1775 45.0205L17.8939 46.4486C18.3356 46.6808 18.8608 46.6428 19.2645 46.3496C19.6682 46.0562 19.8666 45.5685 19.7822 45.0767L19.2634 42.0519L20.2329 41.1069C20.4588 40.8867 20.4634 40.525 20.2432 40.2991C20.0229 40.0733 19.6611 40.0687 19.4353 40.289Z" fill="#2626BC"/>
<path d="M47.4353 38.5758C47.2811 38.1012 46.8785 37.7617 46.3847 37.69L43.3477 37.2487L41.9895 34.4967C41.7687 34.0492 41.3214 33.7712 40.8224 33.7712C40.3234 33.7712 39.8762 34.0492 39.6554 34.4967L38.3501 37.1415C38.2105 37.4244 38.3267 37.7669 38.6096 37.9066C38.8925 38.0463 39.235 37.9301 39.3747 37.6472L40.68 35.0024C40.7161 34.9292 40.7774 34.9138 40.8224 34.9138C40.8675 34.9138 40.9288 34.9292 40.9649 35.0024L42.456 38.0238C42.5392 38.1924 42.7001 38.3093 42.8862 38.3363L46.2204 38.8208C46.3012 38.8325 46.3347 38.8861 46.3487 38.9289C46.3626 38.9717 46.3669 39.0348 46.3084 39.0918L43.8958 41.4436C43.7612 41.5749 43.6998 41.764 43.7315 41.9492L44.3011 45.27C44.3149 45.3505 44.2743 45.3989 44.2379 45.4254C44.2014 45.4519 44.1427 45.4755 44.0706 45.4375L41.0884 43.8696C40.9218 43.7822 40.723 43.7822 40.5567 43.8696L37.5743 45.4374C37.502 45.4754 37.4434 45.4518 37.407 45.4253C37.3706 45.3988 37.33 45.3503 37.3438 45.2699L37.9133 41.9491C37.9451 41.7638 37.8837 41.5747 37.749 41.4435L36.5645 40.2888C36.3386 40.0686 35.9769 40.0732 35.7567 40.2992C35.5365 40.5251 35.541 40.8868 35.767 41.107L36.7365 42.052L36.2177 45.0768C36.1334 45.5686 36.3318 46.0564 36.7354 46.3496C37.1391 46.643 37.6643 46.6808 38.106 46.4487L40.8224 45.0205L43.5387 46.4486C43.7309 46.5496 43.9387 46.5995 44.1456 46.5995C44.4143 46.5995 44.6813 46.5152 44.9093 46.3495C45.313 46.0561 45.5114 45.5684 45.4271 45.0766L44.9082 42.0519L47.1058 39.9097C47.4632 39.5616 47.5894 39.0504 47.4353 38.5758Z" fill="#2626BC"/>
<path fill-rule="evenodd" clip-rule="evenodd" d="M27.4886 29.3427C27.4886 29.3427 27.4886 29.3427 27.4886 29.3427L25.252 33.8746C25.1755 34.0296 25.0277 34.137 24.8567 34.1618L19.8555 34.8886C19.8555 34.8886 19.8555 34.8886 19.8555 34.8886C19.3877 34.9566 19.201 35.5314 19.5394 35.8612L19.5394 35.8612L23.1584 39.3889C23.2822 39.5095 23.3386 39.6833 23.3094 39.8536L22.4551 44.8347L22.4551 44.8347C22.3752 45.3004 22.8641 45.6557 23.2824 45.4358L23.2824 45.4357L27.7557 43.084C27.9087 43.0036 28.0914 43.0036 28.2443 43.084L32.7176 45.4357L32.7176 45.4358C33.1359 45.6557 33.6249 45.3005 33.545 44.8347L33.545 44.8347L32.6906 39.8536C32.6614 39.6833 32.7179 39.5095 32.8416 39.3889L36.4606 35.8612L36.4606 35.8612C36.799 35.5314 36.6123 34.9566 36.1446 34.8886C36.1446 34.8886 36.1445 34.8886 36.1445 34.8886L31.1433 34.1618C30.9723 34.137 30.8245 34.0296 30.748 33.8746L28.5114 29.3427C28.5114 29.3427 28.5114 29.3427 28.5114 29.3427C28.3023 28.919 27.6979 28.9189 27.4886 29.3427ZM26.5471 28.8779C27.1415 27.6739 28.8586 27.6738 29.453 28.878L29.453 28.878L31.5675 33.1624L36.2956 33.8495L36.2956 33.8495C37.6244 34.0426 38.1552 35.6757 37.1935 36.6131C37.1935 36.6131 37.1935 36.6131 37.1935 36.6131L33.7722 39.9481L34.5798 44.6571C34.5798 44.6571 34.5798 44.6571 34.5798 44.6572C34.8069 45.9808 33.4176 46.9901 32.229 46.3651C32.229 46.3651 32.229 46.3651 32.229 46.3651L28 44.1418L23.7711 46.3651C23.771 46.3651 23.771 46.3651 23.771 46.3651C22.5824 46.9901 21.1931 45.9807 21.4202 44.6572C21.4202 44.6571 21.4202 44.6571 21.4202 44.6571L22.2279 39.9481L18.8065 36.6131C18.8065 36.6131 18.8065 36.6131 18.8065 36.6131C17.8448 35.6757 18.3755 34.0426 19.7045 33.8495L19.7045 33.8495L24.4326 33.1624L26.5471 28.878L26.5471 28.8779Z" fill="#2626BC"/>
<defs>
<linearGradient id="paint0_linear" x1="30.4197" y1="49.3737" x2="25.6072" y2="7.15497" gradientUnits="userSpaceOnUse">
<stop stop-color="#C7D3FF"/>
<stop offset="0.593" stop-color="#E7D8F5"/>
<stop offset="0.997" stop-color="#FFDBED"/>
</linearGradient>
</defs>
</svg>
