<svg width="56" height="60" viewBox="0 0 56 60" fill="none" xmlns="http://www.w3.org/2000/svg">
<path d="M55.8452 29.1078C54.4168 17.6217 46.4286 29.4182 44.2676 22.3006C42.9575 17.9855 48.3765 12.6833 46.538 7.95766C45.0014 4.00792 40.7213 2.94719 36.6768 3.74016C33.421 4.37845 30.5242 7.74459 27.1021 7.18272C23.4787 6.58767 22.3469 1.81385 18.7425 0.556924C9.48431 -2.67152 5.14248 8.90243 2.83526 15.574C-0.0967628 24.0522 -2.88255 35.1301 6.11832 40.7658C15.5972 46.7007 21.9703 38.3335 28.0511 50.2645C40.043 73.7937 57.844 45.1806 55.8452 29.1078Z" fill="url(#paint0_linear)"/>
<path d="M44.2851 37.6084H32.977C31.462 40.0054 29.7998 42.3062 28 44.4975C26.2002 42.3062 24.538 40.0054 23.023 37.6084H11.7149L6.36475 51.6353H49.6353L44.2851 37.6084Z" fill="#DFEEF4"/>
<path d="M27.9998 8.36621C24.9455 8.36631 22.0164 9.57966 19.8567 11.7394C17.697 13.899 16.4837 16.8282 16.4836 19.8825C16.4161 30.87 27.9998 44.4975 27.9998 44.4975C27.9998 44.4975 39.5835 30.87 39.516 19.8825C39.5159 16.8282 38.3026 13.899 36.1429 11.7394C33.9832 9.57966 31.0541 8.36631 27.9998 8.36621ZM27.9998 24.7687C27.0334 24.7687 26.0887 24.4821 25.2852 23.9452C24.4816 23.4083 23.8553 22.6452 23.4855 21.7523C23.1157 20.8595 23.0189 19.877 23.2074 18.9292C23.396 17.9814 23.8614 17.1107 24.5447 16.4274C25.2281 15.744 26.0987 15.2786 27.0465 15.0901C27.9944 14.9016 28.9768 14.9983 29.8697 15.3682C30.7625 15.738 31.5257 16.3643 32.0626 17.1678C32.5995 17.9713 32.886 18.9161 32.886 19.8825C32.8863 20.5242 32.7601 21.1597 32.5146 21.7526C32.2691 22.3456 31.9092 22.8843 31.4555 23.3381C31.0017 23.7919 30.4629 24.1518 29.87 24.3973C29.277 24.6427 28.6415 24.769 27.9998 24.7687Z" fill="#FF7EB8"/>
<path d="M45.5275 40.8599L23.935 48.5399L15.52 37.6086H23.0238C24.5384 40.0056 26.2004 42.3063 28 44.4974C29.7997 42.3063 31.4616 40.0056 32.9763 37.6086H44.2863L45.5275 40.8599Z" fill="#FFD54D"/>
<path d="M15.2349 51.6352L36.6084 44.0325L42.4599 51.6352H15.2349Z" fill="#6583FE"/>
<path d="M37.2764 14.2299C37.3678 14.3768 37.5136 14.4817 37.682 14.5217C37.8504 14.5617 38.0278 14.5335 38.1756 14.4433C38.3233 14.353 38.4294 14.2081 38.4708 14.04C38.5122 13.872 38.4855 13.6943 38.3965 13.5459C38.0526 12.9834 37.6638 12.4497 37.234 11.9499C37.1196 11.8211 36.9593 11.7425 36.7875 11.731C36.6157 11.7194 36.4462 11.7758 36.3157 11.8881C36.1851 12.0003 36.1038 12.1593 36.0895 12.3309C36.0751 12.5025 36.1287 12.6728 36.2387 12.8052C36.6222 13.2515 36.9692 13.7279 37.2764 14.2299Z" fill="#2626BC"/>
<path d="M22.4585 19.8829C22.4586 20.9789 22.7838 22.0502 23.3927 22.9614C24.0017 23.8725 24.8672 24.5827 25.8798 25.002C26.8924 25.4213 28.0065 25.5309 29.0814 25.317C30.1563 25.1031 31.1436 24.5753 31.9185 23.8003C32.6934 23.0253 33.2211 22.0379 33.4348 20.963C33.6486 19.8881 33.5388 18.7739 33.1194 17.7614C32.6999 16.7489 31.9897 15.8835 31.0784 15.2747C30.1671 14.6658 29.0958 14.3408 27.9999 14.3408C26.5306 14.3425 25.122 14.927 24.0831 15.966C23.0443 17.005 22.46 18.4137 22.4585 19.8829ZM32.2287 19.8829C32.2286 20.7193 31.9804 21.5368 31.5157 22.2322C31.0509 22.9275 30.3904 23.4694 29.6177 23.7894C28.8449 24.1093 27.9947 24.193 27.1744 24.0297C26.3541 23.8665 25.6007 23.4636 25.0093 22.8722C24.418 22.2807 24.0153 21.5272 23.8522 20.7069C23.6891 19.8866 23.7729 19.0364 24.093 18.2637C24.4131 17.491 24.9551 16.8306 25.6505 16.366C26.3459 15.9013 27.1635 15.6533 27.9999 15.6533C29.1212 15.6545 30.1962 16.1005 30.9891 16.8935C31.7819 17.6865 32.2277 18.7616 32.2287 19.8829Z" fill="#2626BC"/>
<path d="M8.1763 46.885C8.25678 46.9159 8.34257 46.9306 8.42874 46.9283C8.51491 46.9259 8.59978 46.9066 8.67848 46.8714C8.75718 46.8363 8.82816 46.7859 8.88735 46.7232C8.94654 46.6606 8.99278 46.5868 9.02343 46.5062L9.62342 44.9312C9.68099 44.7697 9.67303 44.592 9.60124 44.4362C9.52945 44.2805 9.39953 44.159 9.23931 44.0978C9.07908 44.0367 8.90128 44.0407 8.74395 44.109C8.58663 44.1772 8.46229 44.3044 8.39755 44.4632L7.79755 46.0382C7.76677 46.1187 7.75215 46.2044 7.75452 46.2906C7.7569 46.3767 7.77623 46.4615 7.8114 46.5401C7.84658 46.6188 7.89691 46.6897 7.95953 46.7489C8.02214 46.8081 8.0958 46.8543 8.1763 46.885Z" fill="#2626BC"/>
<path d="M50.248 51.4008L44.8982 37.3758C44.8507 37.2517 44.7667 37.1448 44.6573 37.0694C44.5478 36.994 44.418 36.9536 44.2851 36.9536H34.1601C34.222 36.8527 34.2834 36.7548 34.3453 36.6536C38.2412 30.2036 40.2017 24.5613 40.1736 19.8858C40.1746 18.6967 40.0014 17.5139 39.6595 16.3751C39.6093 16.2084 39.495 16.0684 39.3417 15.986C39.1884 15.9036 39.0086 15.8854 38.8419 15.9356C38.6753 15.9857 38.5353 16.1 38.4529 16.2533C38.3705 16.4066 38.3523 16.5864 38.4025 16.7531C38.7078 17.7705 38.8624 18.8273 38.8611 19.8896C38.9177 29.2083 30.2027 40.7055 27.9999 43.4625C25.7972 40.7066 17.0818 29.2125 17.1385 19.8828C17.1387 17.8948 17.6846 15.945 18.7165 14.2458C19.7484 12.5465 21.2269 11.1631 22.9908 10.2461C24.7547 9.32909 26.7364 8.91373 28.7201 9.04524C30.7038 9.17676 32.6133 9.85011 34.2407 10.992C34.3831 11.0921 34.5595 11.1315 34.731 11.1016C34.9025 11.0716 35.055 10.9748 35.1551 10.8324C35.2552 10.69 35.2947 10.5136 35.2647 10.3421C35.2348 10.1706 35.138 10.0181 34.9956 9.91795C33.1718 8.63822 31.0319 7.88342 28.8088 7.73576C26.5857 7.5881 24.3648 8.05323 22.3878 9.0805C20.4108 10.1078 18.7535 11.6578 17.5965 13.5618C16.4395 15.4658 15.8271 17.6507 15.826 19.8787C15.7978 24.5583 17.7583 30.2013 21.6542 36.6506C21.7161 36.753 21.7776 36.8508 21.8394 36.9506H11.7145C11.5815 36.9506 11.4517 36.991 11.3423 37.0664C11.2328 37.1418 11.1488 37.2487 11.1013 37.3728L9.56383 41.4086C9.5331 41.4891 9.51853 41.5749 9.52095 41.661C9.52337 41.7472 9.54274 41.832 9.57794 41.9107C9.64904 42.0695 9.78034 42.1936 9.94295 42.2557C10.1056 42.3178 10.2862 42.3127 10.445 42.2416C10.6039 42.1705 10.728 42.0392 10.7901 41.8766L12.1678 38.2631H15.1978L22.8624 48.225L15.1213 50.9782H7.31758L7.92433 49.3863C7.9824 49.2246 7.97471 49.0465 7.90291 48.8904C7.83111 48.7343 7.70094 48.6125 7.54035 48.5513C7.37976 48.4901 7.20158 48.4944 7.04409 48.5631C6.8866 48.6319 6.76236 48.7597 6.69808 48.9191L5.75195 51.4012C5.71392 51.5005 5.70063 51.6077 5.71324 51.7133C5.72585 51.8189 5.76398 51.9199 5.82434 52.0075C5.88469 52.0951 5.96546 52.1667 6.05967 52.2161C6.15388 52.2655 6.2587 52.2912 6.36508 52.2911H49.6348C49.7412 52.2913 49.8461 52.2655 49.9404 52.2161C50.0346 52.1667 50.1154 52.095 50.1758 52.0074C50.2361 51.9197 50.2743 51.8187 50.2868 51.713C50.2994 51.6073 50.2861 51.5002 50.248 51.4008ZM16.8531 38.2642H22.6618C24.1416 40.5775 25.7569 42.8013 27.4993 44.9238C27.5609 44.9963 27.6375 45.0544 27.7239 45.0943C27.8102 45.1342 27.9041 45.1549 27.9992 45.1549C28.0943 45.1549 28.1882 45.1342 28.2745 45.0943C28.3609 45.0544 28.4375 44.9963 28.4991 44.9238C30.2415 42.8013 31.8568 40.5775 33.3366 38.2642H43.8317L44.6717 40.4673L24.1633 47.7626L16.8531 38.2642ZM24.1404 49.1625H24.1442L36.3793 44.8125L41.125 50.9786H19.0374L24.1404 49.1625ZM42.7828 50.9775L37.6794 44.3478L45.1419 41.694L48.6831 50.9786L42.7828 50.9775Z" fill="#2626BC"/>
<defs>
<linearGradient id="paint0_linear" x1="46.0309" y1="5.64354" x2="10.767" y2="49.2272" gradientUnits="userSpaceOnUse">
<stop offset="0.0112" stop-color="#DCFDEE"/>
<stop offset="0.3814" stop-color="#E8F1EE"/>
<stop offset="1" stop-color="#FFDBED"/>
</linearGradient>
</defs>
</svg>
