<svg width="56" height="48" viewBox="0 0 56 48" fill="none" xmlns="http://www.w3.org/2000/svg">
<path d="M39.9025 1.60353C32.3449 -1.35342 21.8793 -0.230032 16.0957 5.04994C12.0121 8.77798 15.1727 9.84056 17.9569 16.6623C19.9719 21.5995 0 20.9199 0 29.8414C0 40.1554 14.465 38.2003 19.8329 39.3809C28.0399 41.186 35.1996 47.9386 43.9684 47.0484C51.6022 46.2734 54.5125 40.283 55.5741 33.4157C57.5518 20.6214 52.6944 6.60853 39.9025 1.60353Z" fill="url(#paint0_linear)"/>
<g clip-path="url(#clip0)">
<path d="M39.9999 6.27201V18.6C40.0007 21.1707 38.7653 23.5849 36.6799 25.088L28.3919 31.072C28.1576 31.24 27.8422 31.24 27.6079 31.072L26.7999 30.488L19.3199 25.088C17.2345 23.5849 15.9991 21.1707 15.9999 18.6V6.27201C15.998 6.12254 16.0864 5.98668 16.2239 5.92801L26.7999 1.28801L27.8479 0.832007C27.9453 0.792 28.0545 0.792 28.1519 0.832007L39.7759 5.92801C39.9134 5.98668 40.0019 6.12254 39.9999 6.27201Z" fill="#00BA7B"/>
<path d="M37.5999 6.27209V18.6001C37.6007 21.1708 36.3653 23.585 34.2799 25.0881L26.7999 30.4881L19.3199 25.0881C17.2345 23.585 15.9991 21.1708 15.9999 18.6001V6.27209C15.998 6.12262 16.0864 5.98676 16.2239 5.92809L26.7999 1.28809L37.3759 5.92809C37.5134 5.98676 37.6018 6.12262 37.5999 6.27209Z" fill="#00E195"/>
<path d="M21.2104 22.2578C19.9498 21.3371 19.2032 19.8709 19.2 18.3098V7.88744L28 4.00024L36.8 7.88744V18.3098C36.7975 19.8711 36.0507 21.3376 34.7896 22.2578L28 27.2002L21.2104 22.2578Z" fill="#02FFB3"/>
<path d="M15.4527 33.3905L11.7983 29.7353C11.0144 28.9514 10.3872 28.0253 9.9503 27.0065L8.1599 22.8313C7.884 22.1882 7.25171 21.7711 6.5519 21.7705C5.95707 21.7714 5.40335 22.0741 5.08157 22.5744C4.7598 23.0747 4.71398 23.7041 4.9599 24.2457L8.0951 31.1433C8.47959 31.9888 9.01286 32.7584 9.6695 33.4153L15.4527 39.2001H23.1999V36.9113C23.226 35.1982 22.6698 33.527 21.6223 32.1713C21.0369 31.3988 20.2394 30.8131 19.3271 30.4857C17.5511 29.7361 15.9141 28.6927 14.4847 27.3993C13.3433 26.4464 11.6628 26.5242 10.6143 27.5785" fill="#FFDBD3"/>
<path d="M40.5455 33.3905L44.2008 29.7353C44.9846 28.9514 45.6118 28.0253 46.0488 27.0065L47.84 22.8313C48.1161 22.1876 48.7492 21.7704 49.4496 21.7705C50.0441 21.7719 50.5973 22.0749 50.9187 22.5751C51.2401 23.0753 51.2858 23.7044 51.04 24.2457L47.9048 31.1433C47.5203 31.9888 46.987 32.7584 46.3304 33.4153L40.5455 39.2001H32.7999V36.9113C32.774 35.1981 33.3305 33.5269 34.3783 32.1713C34.9638 31.3988 35.7612 30.8131 36.6735 30.4857C38.4493 29.7361 40.0861 28.6927 41.5151 27.3993C42.657 26.4467 44.3374 26.5245 45.3864 27.5785" fill="#FFDBD3"/>
<path d="M51.2 23.5201C51.2008 23.7716 51.1461 24.0201 51.04 24.2481L47.904 31.1441C47.5198 31.9901 46.9859 32.7598 46.328 33.4161L40.544 39.2001H38.144L43.928 33.4161C44.5859 32.7598 45.1198 31.9901 45.504 31.1441L48.64 24.2481C48.7462 24.0201 48.8008 23.7716 48.8 23.5201C48.7978 23.0384 48.5983 22.5787 48.248 22.2481C48.5705 21.9382 49.0009 21.7661 49.448 21.7681C50.4138 21.7725 51.1956 22.5543 51.2 23.5201Z" fill="#FBC7BC"/>
<path d="M40.7999 39.2002H32C31.5581 39.2002 31.2 39.5584 31.2 40.0002V46.4002C31.2 46.842 31.5581 47.2002 32 47.2002H40.7999C41.2418 47.2002 41.5999 46.842 41.5999 46.4002V40.0002C41.5999 39.5584 41.2418 39.2002 40.7999 39.2002Z" fill="#FFC70F"/>
<path d="M38.3999 39.2002H32C31.5581 39.2002 31.2 39.5584 31.2 40.0002V46.4002C31.2 46.842 31.5581 47.2002 32 47.2002H38.3999C38.8418 47.2002 39.1999 46.842 39.1999 46.4002V40.0002C39.1999 39.5584 38.8418 39.2002 38.3999 39.2002Z" fill="#FFD54D"/>
<path d="M23.9992 39.2002H15.1992C14.7573 39.2002 14.3992 39.5584 14.3992 40.0002V46.4002C14.3992 46.842 14.7573 47.2002 15.1992 47.2002H23.9992C24.441 47.2002 24.7992 46.842 24.7992 46.4002V40.0002C24.7992 39.5584 24.441 39.2002 23.9992 39.2002Z" fill="#FFD54D"/>
<path d="M28 32.0001C27.6916 32 27.3912 31.9026 27.1416 31.7217L18.848 25.7401C16.5607 24.0861 15.2043 21.4363 15.2 18.6137V6.05288C15.2001 5.73493 15.3885 5.44726 15.68 5.32008L27.68 0.0672762C27.884 -0.0217744 28.1159 -0.0217744 28.32 0.0672762L40.32 5.32008C40.6114 5.44726 40.7998 5.73493 40.8 6.05288V18.6129C40.7956 21.4355 39.4392 24.0853 37.152 25.7393L28.8584 31.7225C28.6085 31.9028 28.3081 31.9999 28 32.0001ZM16.8 6.57608V18.6137C16.8036 20.9224 17.9131 23.0896 19.784 24.4425L28 30.3681L36.216 24.4425C38.0868 23.0896 39.1963 20.9224 39.2 18.6137V6.57608L28 1.67368L16.8 6.57608Z" fill="#2626BC"/>
<path d="M27.9999 28.2096C27.8319 28.2095 27.6682 28.1566 27.5319 28.0584L20.7199 23.1448C19.2651 22.0934 18.4024 20.4085 18.3999 18.6136V8.14555C18.4001 7.8276 18.5885 7.53993 18.8799 7.41275L27.6799 3.55995C27.8839 3.4709 28.1159 3.4709 28.3199 3.55995L37.1199 7.41275C37.4113 7.53993 37.5997 7.8276 37.5999 8.14555V18.6136C37.5974 20.4085 36.7347 22.0934 35.2799 23.1448L28.4679 28.0584C28.3317 28.1566 28.1679 28.2095 27.9999 28.2096ZM21.6559 21.8472L27.9999 26.4232L34.3439 21.8472C35.3818 21.0966 35.9975 19.8944 35.9999 18.6136V8.66795L27.9999 5.16635L19.9999 8.66795V18.6136C20.0024 19.8944 20.618 21.0966 21.6559 21.8472Z" fill="#2626BC"/>
<path d="M23.2 40H15.4536C15.2414 40 15.038 39.9156 14.888 39.7656L9.10317 33.9808C8.37775 33.2567 7.78934 32.4073 7.36637 31.4736L4.23117 24.5768C3.86318 23.7432 3.96786 22.7767 4.50576 22.0412C5.04366 21.3057 5.93308 20.9131 6.83896 21.0112C7.74485 21.1093 8.52958 21.6832 8.89757 22.5168L10.628 26.56C11.9776 25.6675 13.7519 25.7613 15 26.7912C16.3455 28.028 17.895 29.0225 19.58 29.7304C20.6394 30.1047 21.5663 30.7807 22.2464 31.6752C23.4055 33.1724 24.0236 35.0179 24 36.9112V39.2C24 39.6418 23.6418 40 23.2 40ZM15.7848 38.4H22.4V36.9112C22.4241 35.3802 21.9299 33.8859 20.9976 32.6712C20.5082 32.0192 19.8397 31.5236 19.0736 31.2448C17.1935 30.4797 15.465 29.3853 13.9696 28.0128C13.2214 27.3963 12.1466 27.3784 11.3784 27.9696C11.6669 28.4011 11.9973 28.803 12.3648 29.1696L16.0192 32.8248C16.2271 33.0257 16.3105 33.3231 16.2373 33.6028C16.1641 33.8825 15.9457 34.101 15.666 34.1742C15.3863 34.2474 15.0888 34.164 14.888 33.956L11.2336 30.3008C10.3762 29.446 9.69119 28.4343 9.21597 27.3208L7.42637 23.1472C7.27718 22.7972 6.93329 22.5701 6.55277 22.5704C6.22942 22.5705 5.92828 22.7349 5.75328 23.0068C5.57827 23.2787 5.55337 23.6208 5.68717 23.9152L8.82237 30.812C9.16653 31.5707 9.64488 32.2609 10.2344 32.8496L15.7848 38.4Z" fill="#2626BC"/>
<path d="M24 48.0001H15.2C14.3163 48.0001 13.6 47.2838 13.6 46.4001V40.0001C13.6 39.1165 14.3163 38.4001 15.2 38.4001H24C24.8836 38.4001 25.6 39.1165 25.6 40.0001V46.4001C25.6 47.2838 24.8836 48.0001 24 48.0001ZM15.2 40.0001V46.4001H24V40.0001H15.2Z" fill="#2626BC"/>
<path d="M21.5999 44.0001H20.7999C20.358 44.0001 19.9999 43.642 19.9999 43.2001C19.9999 42.7583 20.358 42.4001 20.7999 42.4001H21.5999C22.0417 42.4001 22.3999 42.7583 22.3999 43.2001C22.3999 43.642 22.0417 44.0001 21.5999 44.0001Z" fill="#2626BC"/>
<path d="M40.5464 40.0002H32.8C32.3581 40.0002 32 39.642 32 39.2002V36.9114C31.9755 35.0167 32.5936 33.1697 33.7536 31.6714C34.4336 30.7769 35.3605 30.1009 36.42 29.7266C38.1049 29.0187 39.6545 28.0243 41 26.7874C42.2481 25.7555 44.0233 25.6582 45.3768 26.5474L47.1032 22.5194C47.4615 21.671 48.2494 21.0818 49.1645 20.9778C50.0796 20.8738 50.9796 21.2712 51.5192 22.0175C52.0589 22.7638 52.1542 23.743 51.7687 24.5794L48.6336 31.4762C48.2106 32.4099 47.6222 33.2593 46.8968 33.9834L41.112 39.7658C40.962 39.9158 40.7585 40.0002 40.5464 40.0002ZM33.6 38.4002H40.2152L45.7656 32.8498C46.355 32.2611 46.8334 31.5709 47.1776 30.8122L50.3127 23.9154C50.4465 23.621 50.4216 23.2789 50.2466 23.007C50.0716 22.7351 49.7705 22.5707 49.4471 22.5706C49.0669 22.5704 48.7232 22.797 48.5735 23.1466L46.784 27.321C46.3087 28.4345 45.6238 29.4462 44.7664 30.301L41.112 33.9562C40.7981 34.2594 40.2991 34.255 39.9905 33.9465C39.6819 33.6379 39.6776 33.1389 39.9808 32.825L43.6352 29.1698C44.0049 28.8011 44.337 28.3965 44.6264 27.9618C43.8555 27.3701 42.7777 27.3911 42.0304 28.0122C40.5347 29.3849 38.806 30.4794 36.9256 31.2442C36.161 31.5238 35.494 32.0193 35.0056 32.6706C34.0719 33.8851 33.5766 35.3797 33.6 36.9114V38.4002Z" fill="#2626BC"/>
<path d="M40.7999 48.0001H31.9999C31.1162 48.0001 30.3999 47.2838 30.3999 46.4001V40.0001C30.3999 39.1165 31.1162 38.4001 31.9999 38.4001H40.7999C41.6836 38.4001 42.3999 39.1165 42.3999 40.0001V46.4001C42.3999 47.2838 41.6836 48.0001 40.7999 48.0001ZM31.9999 40.0001V46.4001H40.7999V40.0001H31.9999Z" fill="#2626BC"/>
<path d="M35.1998 44.0001H34.3999C33.958 44.0001 33.5999 43.642 33.5999 43.2001C33.5999 42.7583 33.958 42.4001 34.3999 42.4001H35.1998C35.6417 42.4001 35.9998 42.7583 35.9998 43.2001C35.9998 43.642 35.6417 44.0001 35.1998 44.0001Z" fill="#2626BC"/>
<path d="M26.4 20.8C26.2269 20.8 26.0584 20.7439 25.92 20.64L22.7199 18.24C22.3665 17.9749 22.2949 17.4735 22.5599 17.12C22.825 16.7666 23.3265 16.6949 23.68 16.96L26.2032 18.8528L32.1344 9.95604C32.3796 9.58844 32.8764 9.48922 33.244 9.73444C33.6116 9.97965 33.7108 10.4764 33.4656 10.844L27.0656 20.444C26.9436 20.627 26.7518 20.7517 26.5352 20.7888C26.4905 20.7961 26.4452 20.7999 26.4 20.8Z" fill="#2626BC"/>
</g>
<defs>
<linearGradient id="paint0_linear" x1="46.0309" y1="4.49333" x2="19.8903" y2="45.0715" gradientUnits="userSpaceOnUse">
<stop offset="0.0112" stop-color="#DCFDEE"/>
<stop offset="0.3814" stop-color="#E8F1EE"/>
<stop offset="1" stop-color="#FFDBED"/>
</linearGradient>
<clipPath id="clip0">
<rect width="48" height="48" fill="white" transform="translate(4)"/>
</clipPath>
</defs>
</svg>
