<svg width="56" height="48" viewBox="0 0 56 48" fill="none" xmlns="http://www.w3.org/2000/svg">
<path d="M39.9025 1.60353C32.3449 -1.35342 21.8793 -0.230032 16.0957 5.04994C12.0121 8.77798 15.1727 9.84056 17.9569 16.6623C19.9719 21.5995 0 20.9199 0 29.8414C0 40.1554 14.465 38.2003 19.8329 39.3809C28.0399 41.186 35.1996 47.9386 43.9684 47.0484C51.6022 46.2734 54.5125 40.283 55.5741 33.4157C57.5518 20.6214 52.6944 6.60853 39.9025 1.60353Z" fill="url(#paint0_linear)"/>
<g clip-path="url(#clip0)">
<path d="M4.7041 30.7659H12.8676V47.2969H4.7041V30.7659Z" fill="#02FFB3"/>
<path d="M10.4053 30.7659H12.8675V47.2969H10.4053V30.7659Z" fill="#00E195"/>
<path d="M46.3439 29.8475L41.5419 34.7451H31.687C33.2631 34.7451 34.5356 33.4458 34.4921 31.86C34.4502 30.3315 33.1577 29.1328 31.6286 29.1328H23.8099C23.2368 29.1328 22.6702 29.2534 22.1469 29.487L16.3079 32.0921H12.8677V46.3781H21.1054C21.9321 46.3781 22.7557 46.2777 23.5581 46.079L40.8324 41.8016C42.7552 41.3254 44.4978 40.3 45.8477 38.8502L50.5206 33.8431C51.6091 32.6767 51.5467 30.8489 50.381 29.7595C49.2346 28.6878 47.4426 28.7269 46.3439 29.8475Z" fill="#FFDBD3"/>
<path d="M50.8451 30.3167C50.7433 30.8244 50.5042 31.3111 50.125 31.7175L45.4521 36.7246C44.1022 38.1743 42.3596 39.1997 40.4367 39.6759L23.1625 43.9533C22.3601 44.152 21.5365 44.2525 20.7098 44.2525H12.8677V46.3782H21.1054C21.9321 46.3782 22.7557 46.2778 23.5581 46.079L40.8324 41.8016C42.7552 41.3254 44.4978 40.3 45.8477 38.8503L50.5206 33.8432C51.4398 32.8582 51.5383 31.4019 50.8451 30.3167Z" fill="#FBC7BC"/>
<path d="M32.7362 26.0835C39.7448 26.0835 45.4264 20.4019 45.4264 13.3933C45.4264 6.38472 39.7448 0.703125 32.7362 0.703125C25.7276 0.703125 20.046 6.38472 20.046 13.3933C20.046 20.4019 25.7276 26.0835 32.7362 26.0835Z" fill="#D3EFFD"/>
<path d="M40.5236 3.38062C42.2005 5.53199 43.2009 8.23518 43.2009 11.168C43.2009 18.1654 37.5082 23.8581 30.5107 23.8581C27.578 23.8581 24.8748 22.8577 22.7234 21.1808C25.0475 24.1625 28.6716 26.0837 32.7362 26.0837C39.7335 26.0837 45.4264 20.3909 45.4264 13.3935C45.4265 9.32877 43.5053 5.70477 40.5236 3.38062Z" fill="#B2E5FB"/>
<path d="M42.2537 14.7532V12.0339L39.2073 11.3086C39.094 10.9565 38.9522 10.6174 38.7856 10.2931L40.4276 7.62495L38.5047 5.70213L35.8366 7.34407C35.5122 7.17748 35.1732 7.03573 34.8211 6.92238L34.0958 3.87598H31.3765L30.6511 6.92238C30.2991 7.03573 29.96 7.17748 29.6356 7.34407L26.9675 5.70213L25.0447 7.62495L26.6866 10.2931C26.52 10.6174 26.3783 10.9564 26.2649 11.3086L23.2185 12.0339V14.7532L26.2649 15.4786C26.3783 15.8306 26.52 16.1697 26.6866 16.4941L25.0447 19.1622L26.9675 21.085L29.6356 19.4431C29.96 19.6097 30.299 19.7514 30.6511 19.8648L31.3765 22.9112H34.0958L34.8211 19.8648C35.1731 19.7514 35.5122 19.6097 35.8366 19.4431L38.5047 21.085L40.4276 19.1622L38.7856 16.4941C38.9522 16.1697 39.094 15.8307 39.2073 15.4786L42.2537 14.7532ZM32.7361 16.1129C31.2342 16.1129 30.0168 14.8954 30.0168 13.3936C30.0168 11.8917 31.2342 10.6743 32.7361 10.6743C34.238 10.6743 35.4554 11.8917 35.4554 13.3936C35.4554 14.8954 34.2379 16.1129 32.7361 16.1129Z" fill="#FF7EB8"/>
<path d="M36.1785 16.3897C34.4847 18.0835 32.6515 19.464 30.8031 20.5024L31.3766 22.9111H34.0959L34.8212 19.8647C35.1733 19.7514 35.5124 19.6096 35.8367 19.443L38.5048 21.0849L40.4277 19.1621L38.7858 16.494C38.9524 16.1696 39.0942 15.8306 39.2075 15.4785L42.2539 14.7532V12.0338L40.0107 11.4998C39.0086 13.1828 37.7239 14.8442 36.1785 16.3897Z" fill="#F05FA0"/>
<path d="M50.8611 29.2452C50.1933 28.6214 49.3223 28.2778 48.4086 28.2778C47.4345 28.2778 46.5231 28.6603 45.8422 29.3549L41.2462 34.0416H34.4976C34.9717 33.411 35.2171 32.6446 35.1952 31.8405C35.1433 29.9597 33.5431 28.4296 31.6283 28.4296H23.8095C23.1346 28.4296 22.4788 28.5693 21.86 28.845L16.158 31.3884H13.5712V30.7659C13.5712 30.3775 13.2564 30.0627 12.8681 30.0627H9.94869C9.56038 30.0627 9.24557 30.3775 9.24557 30.7659C9.24557 31.1543 9.56038 31.469 9.94869 31.469H12.1649V46.5938H5.40744V31.4691H6.66744C7.05576 31.4691 7.37057 31.1544 7.37057 30.766C7.37057 30.3776 7.05576 30.0628 6.66744 30.0628H4.70422C4.31591 30.0628 4.0011 30.3776 4.0011 30.766V47.2969C4.0011 47.6853 4.31591 48 4.70422 48H12.868C13.2563 48 13.5711 47.6853 13.5711 47.2969V47.0813H21.1058C21.9887 47.0813 22.8707 46.9737 23.7272 46.7616L35.3775 43.8769C35.7545 43.7835 35.9844 43.4023 35.8911 43.0254C35.7978 42.6484 35.4165 42.4185 35.0396 42.5118L23.3893 45.3965C22.6432 45.5814 21.8749 45.675 21.1059 45.675H13.5712V32.7947H16.3078C16.4065 32.7947 16.5041 32.7739 16.5942 32.7338L22.4325 30.1296C22.8699 29.9349 23.3331 29.8361 23.8095 29.8361H31.6283C32.7888 29.8361 33.7584 30.7527 33.7895 31.8792C33.8051 32.4532 33.5939 32.9951 33.1946 33.4054C32.7952 33.8157 31.6825 34.0421 31.68 34.0421H26.3337C25.9454 34.0421 25.6305 34.3568 25.6305 34.7452C25.6305 35.1336 25.9454 35.4483 26.3337 35.4483L41.5413 35.4479C41.7302 35.4479 41.9111 35.3719 42.0434 35.2371L46.8462 30.3396C47.2605 29.9169 47.8154 29.6842 48.4085 29.6842C48.9645 29.6842 49.4946 29.8932 49.9008 30.2727C50.7813 31.0959 50.8288 32.4822 50.0067 33.3632L45.3324 38.3712C44.0743 39.7239 42.4598 40.6739 40.6636 41.1189L38.2243 41.7226C37.8473 41.8159 37.6173 42.1972 37.7106 42.5741C37.7899 42.8943 38.0769 43.1084 38.3925 43.1084C38.4485 43.1084 38.5053 43.1017 38.562 43.0876L41.0015 42.4839C43.0636 41.9731 44.9173 40.8821 46.3611 39.3298L51.0346 34.3226C52.3856 32.8752 52.3077 30.5976 50.8611 29.2452Z" fill="#2626BC"/>
<path d="M32.7364 26.7863C40.1214 26.7863 46.1295 20.7781 46.1295 13.3932C46.1295 10.3027 45.0475 7.28569 43.0827 4.89797C42.8361 4.59834 42.3929 4.55503 42.093 4.80188C41.7932 5.04862 41.7501 5.49169 41.9968 5.79159C43.7549 7.92825 44.7233 10.628 44.7233 13.3933C44.7233 20.0029 39.3459 25.3801 32.7364 25.3801C26.1268 25.3801 20.7495 20.0029 20.7495 13.3933C20.7496 6.78347 26.1268 1.40625 32.7364 1.40625C35.2689 1.40625 37.6917 2.19 39.7429 3.67294C40.0576 3.90038 40.4971 3.82978 40.7246 3.51497C40.9522 3.20034 40.8815 2.76075 40.5668 2.53322C38.2744 0.876 35.5667 0 32.7364 0C25.3514 0 19.3433 6.00816 19.3433 13.3931C19.3434 20.7781 25.3514 26.7863 32.7364 26.7863Z" fill="#2626BC"/>
<path d="M38.1361 5.10335L35.7946 6.54429C35.6696 6.48832 35.5434 6.43591 35.4163 6.38707L34.7796 3.71313C34.7043 3.39645 34.4212 3.17285 34.0956 3.17285H31.3763C31.0507 3.17285 30.7677 3.39645 30.6923 3.71313L30.0557 6.38707C29.9286 6.43591 29.8024 6.48832 29.6774 6.54429L27.3359 5.10335C27.0587 4.93273 26.7005 4.97482 26.4702 5.20498L24.5474 7.12788C24.3171 7.35813 24.2751 7.71626 24.4458 7.99357L25.8866 10.335C25.8306 10.4599 25.7782 10.5861 25.7295 10.7134L23.0555 11.35C22.7389 11.4255 22.5153 11.7084 22.5153 12.034V14.7533C22.5153 15.0789 22.7388 15.3619 23.0555 15.4373L25.7295 16.074C25.7782 16.201 25.8307 16.3273 25.8866 16.4523L24.4458 18.7938C24.2751 19.0711 24.3172 19.4292 24.5474 19.6594L26.4702 21.5823C26.7005 21.8124 27.0587 21.8543 27.3359 21.6839L29.6773 20.2429C29.8022 20.2989 29.9284 20.3513 30.0556 20.4002L30.6922 23.0741C30.7676 23.3908 31.0506 23.6144 31.3762 23.6144H34.0956C34.4211 23.6144 34.7042 23.3908 34.7796 23.0741L35.4162 20.4002C35.5434 20.3513 35.6697 20.2989 35.7945 20.2429L38.1359 21.6839C38.4132 21.8546 38.7713 21.8124 39.0016 21.5823L40.9245 19.6594C41.1548 19.4292 41.1968 19.0711 41.0261 18.7938L39.5852 16.4523C39.6412 16.3273 39.6936 16.201 39.7423 16.074L42.4163 15.4373C42.733 15.3619 42.9565 15.0789 42.9565 14.7533V12.034C42.9565 11.7084 42.733 11.4255 42.4163 11.35L39.7423 10.7134C39.6935 10.5861 39.6411 10.4599 39.5852 10.335L41.026 7.99357C41.1967 7.71626 41.1547 7.35813 40.9244 7.12788L39.0015 5.20498C38.7715 4.97482 38.4133 4.93282 38.1361 5.10335ZM38.1601 10.6143C38.3112 10.9085 38.4383 11.2145 38.538 11.5241C38.6134 11.758 38.8054 11.9357 39.0444 11.9926L41.5506 12.5893V14.1979L39.0444 14.7945C38.8053 14.8514 38.6133 15.029 38.538 15.263C38.4384 15.5723 38.3113 15.8784 38.1601 16.1728C38.0478 16.3915 38.0579 16.6531 38.1867 16.8624L39.5376 19.0576L38.4001 20.1949L36.2049 18.8441C35.9954 18.7152 35.7338 18.7052 35.5152 18.8176C35.2213 18.9685 34.9152 19.0957 34.6054 19.1955C34.3715 19.2709 34.1939 19.4629 34.137 19.7018L33.5403 22.2079H31.9316L31.3349 19.7018C31.278 19.4628 31.1004 19.2708 30.8665 19.1955C30.5567 19.0957 30.2506 18.9685 29.9567 18.8176C29.7378 18.7049 29.4762 18.7152 29.267 18.8441L27.0718 20.1949L25.9344 19.0576L27.2853 16.8624C27.4142 16.653 27.4242 16.3915 27.3119 16.1728C27.1607 15.8784 27.0335 15.5723 26.934 15.263C26.8587 15.029 26.6666 14.8514 26.4275 14.7945L23.9214 14.1979V12.5893L26.4275 11.9926C26.6666 11.9357 26.8586 11.758 26.934 11.5241C27.0336 11.2145 27.1608 10.9085 27.3119 10.6143C27.4242 10.3955 27.4141 10.134 27.2852 9.92463L25.9346 7.72948L27.072 6.59201L29.2671 7.94285C29.4766 8.07157 29.738 8.08188 29.9568 7.96948C30.2513 7.81835 30.5574 7.69113 30.8666 7.59157C31.1005 7.51629 31.2782 7.3242 31.3351 7.08523L31.9318 4.5791H33.5405L34.1372 7.08523C34.1941 7.32429 34.3717 7.51638 34.6056 7.59157C34.9148 7.69113 35.2209 7.81835 35.5155 7.96948C35.7343 8.08188 35.9958 8.07157 36.2051 7.94285L38.4003 6.59201L39.5378 7.72948L38.1869 9.92454C38.0579 10.134 38.0478 10.3955 38.1601 10.6143Z" fill="#2626BC"/>
<path d="M32.7362 9.97095C30.8491 9.97095 29.3137 11.5063 29.3137 13.3935C29.3137 15.2806 30.849 16.8159 32.7362 16.8159C34.6233 16.8159 36.1586 15.2806 36.1586 13.3935C36.1587 11.5063 34.6233 9.97095 32.7362 9.97095ZM32.7362 15.4097C31.6245 15.4097 30.72 14.5053 30.72 13.3935C30.72 12.2817 31.6244 11.3772 32.7362 11.3772C33.8479 11.3772 34.7523 12.2816 34.7523 13.3935C34.7524 14.5053 33.8479 15.4097 32.7362 15.4097Z" fill="#2626BC"/>
</g>
<defs>
<linearGradient id="paint0_linear" x1="46.0309" y1="4.49333" x2="19.8903" y2="45.0715" gradientUnits="userSpaceOnUse">
<stop offset="0.0112" stop-color="#DCFDEE"/>
<stop offset="0.3814" stop-color="#E8F1EE"/>
<stop offset="1" stop-color="#FFDBED"/>
</linearGradient>
<clipPath id="clip0">
<rect width="48" height="48" fill="white" transform="translate(4)"/>
</clipPath>
</defs>
</svg>
