<svg xmlns="http://www.w3.org/2000/svg" width="199" height="131" viewBox="0 0 199 131">
  <g id="TV" transform="translate(-233 -305)">
    <rect id="Rectangle_66" data-name="Rectangle 66" width="199" height="131" rx="20" transform="translate(233 305)" fill="#ae4a84"/>
    <g id="_713991056032" transform="translate(271.456 328.125)">
      <path id="Path_24" data-name="Path 24" d="M83.11,27a1.055,1.055,0,1,1,0,2.11c-1.055,0-2.11,0-2.11-1.055S82.055,27,83.11,27Z" transform="translate(2.703 1.379)" fill="#fefefe" fill-rule="evenodd"/>
      <path id="Path_25" data-name="Path 25" d="M83.11,31l1.055,1.055A1.033,1.033,0,0,1,83.11,33.11c-1.055,0-2.11,0-2.11-1.055A3.684,3.684,0,0,1,83.11,31Z" transform="translate(2.703 1.6)" fill="#fefefe" fill-rule="evenodd"/>
      <path id="Path_26" data-name="Path 26" d="M83.055,35l1.055,1.055a1.033,1.033,0,0,1-1.055,1.055C82,37.11,82,37.11,82,36.055A1.033,1.033,0,0,1,83.055,35Z" transform="translate(2.758 1.82)" fill="#fefefe" fill-rule="evenodd"/>
      <path id="Path_27" data-name="Path 27" d="M33.055,22H90.034c1.055,0,1.055,0,1.055,1.055V70.537c0,1.055,0,2.11-1.055,2.11H33.055C32,72.647,32,71.592,32,70.537V23.055C32,22,32,22,33.055,22Zm1.055,1.055H88.978c1.055,0,1.055,0,1.055,1.055V69.482c0,1.055,0,2.11-1.055,2.11H34.11c-1.055,0-1.055-1.055-1.055-2.11V24.11C33.055,23.055,33.055,23.055,34.11,23.055Z" transform="translate(0 1.103)" fill="#fefefe" stroke="#fefefe" stroke-width="1.25" fill-rule="evenodd"/>
      <path id="Path_28" data-name="Path 28" d="M61.717,29,48,36.386h0v7.386h0l7.386,4.221L48,51.158h0V59.6h0l13.717,7.386L74.379,59.6h0V51.158h0l-6.331-3.165,6.331-4.221h0V36.386h0ZM54.331,55.379l7.386-4.221h0l6.331,4.221L61.717,59.6Zm7.386-11.607h0l6.331-4.221-6.331-3.165-7.386,3.165,7.386,4.221Z" transform="translate(0.882 1.489)" fill="#fefefe" fill-rule="evenodd"/>
      <path id="Path_29" data-name="Path 29" d="M41.055,2,61.1,22.048V23.1H60.048L40,3.055V2h1.055Z" transform="translate(0.441)" fill="#fefefe" fill-rule="evenodd"/>
      <path id="Path_30" data-name="Path 30" d="M74.827,8.041,59,21.758v1.055h1.055L75.882,8.041h0C75.882,6.986,74.827,6.986,74.827,8.041Z" transform="translate(1.489 0.29)" fill="#fefefe" fill-rule="evenodd"/>
      <path id="Path_31" data-name="Path 31" d="M47,22.11h0C47,21.055,47,20,48.055,20H73.379c1.055,0,1.055,1.055,1.055,2.11H47Z" transform="translate(0.827 0.993)" fill="#fefefe" fill-rule="evenodd"/>
    </g>
  </g>
</svg>
