<svg xmlns="http://www.w3.org/2000/svg" width="199" height="131" viewBox="0 0 199 131">
  <g id="AMBSure" transform="translate(-5794 -1123)">
    <rect id="Rectangle_112" data-name="Rectangle 112" width="199" height="131" rx="20" transform="translate(5794 1123)" fill="#0eb7b7"/>
    <g id="Group_34" data-name="Group 34" transform="translate(-1080 -528)">
      <g id="Group_33" data-name="Group 33" transform="translate(-100 467.16)">
        <path id="Path_69" data-name="Path 69" d="M17.216,0,11.584-16a.739.739,0,0,0-.3-.416.868.868,0,0,0-.464-.128.748.748,0,0,0-.768.544L4.416,0H.672l6.24-17.5A3.536,3.536,0,0,1,8.4-19.456a4.516,4.516,0,0,1,2.416-.64,4.538,4.538,0,0,1,2.4.64,3.513,3.513,0,0,1,1.5,1.952L20.96,0ZM24.48,0V-15.232a5.006,5.006,0,0,1,.4-2.032,4.524,4.524,0,0,1,1.1-1.552,5.038,5.038,0,0,1,1.648-.992,5.77,5.77,0,0,1,2.032-.352,4.887,4.887,0,0,1,2.8.832,4.3,4.3,0,0,1,1.712,2.3L38.208-4.736a2.681,2.681,0,0,0,.464.928.934.934,0,0,0,.752.32q1.5,0,1.5-1.76v-9.984a5.006,5.006,0,0,1,.4-2.032,4.524,4.524,0,0,1,1.1-1.552,5.038,5.038,0,0,1,1.648-.992,5.77,5.77,0,0,1,2.032-.352,4.769,4.769,0,0,1,2.768.848,4.559,4.559,0,0,1,1.744,2.288L56.7,0H52.736L47.392-15.39a3.377,3.377,0,0,0-.48-.93.887.887,0,0,0-.736-.321q-1.5,0-1.5,1.764v10a5.024,5.024,0,0,1-.4,2.036,4.533,4.533,0,0,1-1.1,1.555,5.037,5.037,0,0,1-1.648.994,5.759,5.759,0,0,1-2.032.353,4.88,4.88,0,0,1-2.8-.834,4.311,4.311,0,0,1-1.712-2.309L30.944-15.39a2.687,2.687,0,0,0-.464-.93.933.933,0,0,0-.752-.321q-1.5,0-1.5,1.764V0ZM63.488-11.872H70.5a2.168,2.168,0,0,0,1.664-.688,2.376,2.376,0,0,0,.64-1.68,2.292,2.292,0,0,0-.672-1.632,2.137,2.137,0,0,0-1.6-.7h-7.04Zm0,8.352H70.5a2.1,2.1,0,0,0,1.7-.72A2.659,2.659,0,0,0,72.8-6.016a2.292,2.292,0,0,0-.672-1.632,2.137,2.137,0,0,0-1.6-.7h-7.04Zm6.5-16.576a8.145,8.145,0,0,1,2.928.464,5.356,5.356,0,0,1,1.968,1.264,4.692,4.692,0,0,1,1.1,1.872,7.719,7.719,0,0,1,.336,2.32,5.433,5.433,0,0,1-.512,2.208,4.057,4.057,0,0,1-1.7,1.856,4.22,4.22,0,0,1,1.68,1.84,5.451,5.451,0,0,1,.528,2.32,7.287,7.287,0,0,1-.336,2.192,5.067,5.067,0,0,1-1.088,1.9A5.456,5.456,0,0,1,72.928-.512,7.578,7.578,0,0,1,69.984,0H59.968V-20.1Z" transform="translate(7060.328 1246)" fill="#fff"/>
        <path id="Path_82" data-name="Path 82" d="M14.826-5.749a5.351,5.351,0,0,1-2.018,4.418A8.765,8.765,0,0,1,7.193.283,13.186,13.186,0,0,1,1.331-.963V-5.041A24.158,24.158,0,0,0,4.878-3.724a10.5,10.5,0,0,0,2.655.382,3.775,3.775,0,0,0,2.216-.552,1.889,1.889,0,0,0,.772-1.643,1.813,1.813,0,0,0-.34-1.083,3.8,3.8,0,0,0-1-.913A25.675,25.675,0,0,0,6.5-8.935a12.719,12.719,0,0,1-2.846-1.713A6.432,6.432,0,0,1,2.138-12.56a5.455,5.455,0,0,1-.566-2.549,5.35,5.35,0,0,1,1.862-4.319A7.737,7.737,0,0,1,8.581-21a12.155,12.155,0,0,1,3.08.382,21.17,21.17,0,0,1,3.066,1.076l-1.416,3.413a20.718,20.718,0,0,0-2.74-.949,8.819,8.819,0,0,0-2.131-.269,2.822,2.822,0,0,0-1.912.581,1.915,1.915,0,0,0-.666,1.515,1.875,1.875,0,0,0,.269,1.012,2.958,2.958,0,0,0,.857.835,26.488,26.488,0,0,0,2.782,1.451A11.071,11.071,0,0,1,13.75-9.169,5.43,5.43,0,0,1,14.826-5.749ZM36.589-20.7v13.4a7.723,7.723,0,0,1-1.027,4.021A6.681,6.681,0,0,1,32.6-.637a10.609,10.609,0,0,1-4.588.92,8.785,8.785,0,0,1-6.2-2.046,7.259,7.259,0,0,1-2.209-5.6V-20.7h4.375V-8.029a5.308,5.308,0,0,0,.963,3.512A4,4,0,0,0,28.121-3.4a3.914,3.914,0,0,0,3.122-1.126,5.336,5.336,0,0,0,.97-3.533V-20.7Zm10.619,9.19h1.416a5.417,5.417,0,0,0,3.073-.694,2.477,2.477,0,0,0,.991-2.181,2.265,2.265,0,0,0-1.012-2.1,6.144,6.144,0,0,0-3.136-.623H47.208Zm0,3.568V0h-4.39V-20.7H48.85q4.22,0,6.245,1.536A5.484,5.484,0,0,1,57.12-14.5a5.493,5.493,0,0,1-1.005,3.25,6.652,6.652,0,0,1-2.846,2.23Q57.941-2.039,59.357,0H54.486L49.544-7.944ZM75.045,0H63.123V-20.7H75.045v3.6H67.512v4.545h7.009v3.6H67.512v5.338h7.533Z" transform="translate(7060 1272)" fill="#fff"/>
      </g>
      <g id="shield_1_" data-name="shield (1)" transform="translate(6910.165 1691.001)">
        <path id="Path_79" data-name="Path 79" d="M43.615,13.912l0-.04c-.022-.493-.037-1.014-.046-1.594A5.435,5.435,0,0,0,38.45,6.955,21.089,21.089,0,0,1,24.1.9L24.064.873a3.282,3.282,0,0,0-4.46,0L19.57.9A21.091,21.091,0,0,1,5.217,6.955,5.434,5.434,0,0,0,.1,12.279c-.009.576-.024,1.1-.046,1.593l0,.093C-.063,19.977-.206,27.459,2.3,34.25A25.822,25.822,0,0,0,8.492,43.9,32.407,32.407,0,0,0,20.615,51.07a3.755,3.755,0,0,0,.5.135,3.669,3.669,0,0,0,1.443,0,3.766,3.766,0,0,0,.5-.136,32.428,32.428,0,0,0,12.11-7.175,25.859,25.859,0,0,0,6.195-9.652C43.871,27.431,43.729,19.935,43.615,13.912ZM38.536,33.2c-2.64,7.158-8.029,12.073-16.475,15.027a.756.756,0,0,1-.1.026.675.675,0,0,1-.264,0,.749.749,0,0,1-.095-.025C13.151,45.281,7.759,40.368,5.121,33.21,2.814,26.95,2.944,20.082,3.06,14.022v-.034c.023-.521.039-1.066.048-1.665A2.415,2.415,0,0,1,5.385,9.959a26.4,26.4,0,0,0,8.96-1.971,23.443,23.443,0,0,0,7.3-4.906.277.277,0,0,1,.372,0,23.452,23.452,0,0,0,7.3,4.906,26.4,26.4,0,0,0,8.961,1.971,2.415,2.415,0,0,1,2.276,2.365c.009.6.025,1.148.048,1.665C40.722,20.055,40.85,26.929,38.536,33.2Zm0,0" fill="#fff"/>
        <path id="Path_80" data-name="Path 80" d="M103.178,128.41a12.779,12.779,0,1,0,12.779,12.779A12.794,12.794,0,0,0,103.178,128.41Zm0,22.549a9.77,9.77,0,1,1,9.77-9.77A9.781,9.781,0,0,1,103.178,150.959Zm0,0" transform="translate(-81.345 -115.55)" fill="#fff"/>
        <path id="Path_81" data-name="Path 81" d="M163.788,212.432l-5.936,5.935-1.611-1.611a1.5,1.5,0,0,0-2.128,2.127l2.675,2.675a1.5,1.5,0,0,0,2.127,0l7-7a1.5,1.5,0,1,0-2.128-2.127Zm0,0" transform="translate(-138.282 -190.761)" fill="#fff"/>
      </g>
    </g>
  </g>
</svg>
