<svg width="80" height="80" viewBox="0 0 80 80" fill="none" xmlns="http://www.w3.org/2000/svg">
<g clip-path="url(#clip0)">
<path d="M57.0036 8.62731C46.207 4.40309 31.2561 6.00793 22.9939 13.5507C17.1602 18.8765 21.6753 20.3945 25.6527 30.1398C28.5312 37.1929 0 36.2222 0 48.9672C0 63.7014 20.6642 60.9084 28.3327 62.595C40.057 65.1737 50.2852 74.8203 62.812 73.5486C73.7175 72.4414 77.875 63.8837 79.3916 54.0732C82.2169 35.7957 75.2777 15.7773 57.0036 8.62731Z" fill="url(#paint0_linear)"/>
<path opacity="0.11" d="M65.99 62.8178H62.7541V46.4105C66.1997 42.8178 68.3202 37.945 68.3202 32.586C68.3202 21.5652 59.3542 12.5992 48.3335 12.5992C38.4038 12.5992 30.1435 19.8785 28.605 29.3806H17.6463C15.8478 29.3806 14.39 30.8385 14.39 32.6385V62.818H11.1544C10.0778 62.818 9.20502 63.6906 9.20502 64.7674V66.5588C9.20502 68.4478 10.7358 69.9803 12.6266 69.9803H64.5178C66.4086 69.9803 67.9394 68.448 67.9394 66.5588V64.7672C67.9394 63.6905 67.0666 62.8178 65.99 62.8178ZM48.3335 22.7222C52.6503 22.7222 56.3258 25.511 57.6597 29.3806H39.0074C40.3411 25.511 44.0166 22.7222 48.3335 22.7222Z" fill="#2626BC"/>
<path d="M66.0781 29.8257V62.471C66.0781 62.9022 65.7281 63.2522 65.2969 63.2522H17.7141V29.8257C17.7141 28.0257 19.1719 26.5679 20.9703 26.5679H62.8219C64.6203 26.5679 66.0781 28.0257 66.0781 29.8257Z" fill="#97FFD2"/>
<path d="M38.75 41.7969V26.5679H29.7875C29.5437 27.8726 29.4156 29.2179 29.4156 30.5929C29.4156 42.6476 39.2219 52.4538 51.2766 52.4538C56.9797 52.4538 62.1812 50.2585 66.0781 46.6679V41.7969H38.75Z" fill="#02FFB3"/>
<path d="M56.4844 44.3444V49.2647C56.4844 49.7788 56.0672 50.196 55.5516 50.196H24.0188C23.5031 50.196 23.0859 49.7788 23.0859 49.2647V44.3444C23.0859 43.8288 23.5031 43.4116 24.0188 43.4116H55.5516C56.0672 43.4116 56.4844 43.8288 56.4844 44.3444Z" fill="#FFDBED"/>
<path d="M55.5515 43.4116H33.5765C35.6562 46.2726 38.4109 48.6132 41.6047 50.196H55.5515C56.0672 50.196 56.4844 49.7788 56.4844 49.2647V44.3444C56.4844 43.8288 56.0672 43.4116 55.5515 43.4116Z" fill="#FFC4DF"/>
<path d="M25.4488 44.193H22.8384C22.4068 44.193 22.0571 43.8431 22.0571 43.4117C22.0571 42.9803 22.4068 42.6305 22.8384 42.6305H25.4488C25.8804 42.6305 26.2301 42.9803 26.2301 43.4117C26.2301 43.8431 25.8803 44.193 25.4488 44.193Z" fill="#FF7EB8"/>
<path d="M30.9327 49.072H22.8374C22.4058 49.072 22.0561 48.7222 22.0561 48.2908C22.0561 47.8594 22.4058 47.5095 22.8374 47.5095H30.9327C31.3642 47.5095 31.7139 47.8594 31.7139 48.2908C31.7139 48.7222 31.3642 49.072 30.9327 49.072Z" fill="#FF7EB8"/>
<path d="M34.7936 51.7102H22.8374C22.4058 51.7102 22.0561 51.3604 22.0561 50.929C22.0561 50.4975 22.4058 50.1477 22.8374 50.1477H34.7936C35.2252 50.1477 35.5749 50.4975 35.5749 50.929C35.5749 51.3604 35.2252 51.7102 34.7936 51.7102Z" fill="#FF7EB8"/>
<path d="M66.0781 56.1227V62.4711C66.0781 62.9024 65.7281 63.2524 65.2969 63.2524H17.7141V56.1227H66.0781Z" fill="#6583FE"/>
<path d="M71.2634 61.9548V63.7462C71.2634 65.6352 69.7326 67.1677 67.8419 67.1677H15.9508C14.06 67.1677 12.5292 65.6352 12.5292 63.7462V61.9548C12.5292 60.8782 13.402 60.0054 14.4786 60.0054H31.2078C31.4967 60.0054 31.7622 60.1649 31.8978 60.4201L32.9228 62.3494C33.0584 62.6046 33.3237 62.7641 33.6128 62.7641H50.1801C50.4691 62.7641 50.7345 62.6046 50.8701 62.3494L51.8951 60.4201C52.0308 60.1649 52.2961 60.0054 52.585 60.0054H69.3142C70.3908 60.0054 71.2634 60.878 71.2634 61.9548Z" fill="#B7C5FF"/>
<path d="M71.2637 61.9539V63.7461C71.2637 65.6352 69.7325 67.168 67.8419 67.168H65.5419C67.4325 67.168 68.9637 65.6352 68.9637 63.7461V61.9539C68.9637 60.8774 68.0903 60.0055 67.0137 60.0055H69.3137C70.3903 60.0055 71.2637 60.8774 71.2637 61.9539Z" fill="#D2DEFF"/>
<path d="M25.2792 62.8363H18.5085C18.077 62.8363 17.7272 62.4865 17.7272 62.0551V60.0054H26.0605V62.0551C26.0605 62.4865 25.7106 62.8363 25.2792 62.8363Z" fill="#FF7EB8"/>
<path d="M65.2648 62.8363H58.494C58.0626 62.8363 57.7128 62.4865 57.7128 62.0551V60.0054H66.0461V62.0551C66.0461 62.4865 65.6964 62.8363 65.2648 62.8363Z" fill="#FF7EB8"/>
<path d="M51.2768 50.5794C40.2562 50.5794 31.2903 41.6135 31.2903 30.5927C31.2903 19.5719 40.2562 10.606 51.2768 10.606C62.2976 10.606 71.2636 19.5719 71.2636 30.5927C71.2636 41.6135 62.2976 50.5794 51.2768 50.5794ZM51.2768 20.7289C45.8379 20.7289 41.4133 25.1538 41.4133 30.5925C41.4133 36.0313 45.8379 40.4561 51.2768 40.4561C56.7158 40.4561 61.1406 36.0313 61.1406 30.5925C61.1406 25.1538 56.7158 20.7289 51.2768 20.7289Z" fill="#FFA8CF"/>
<path d="M71.2637 30.5924H61.1403C61.1403 29.1877 60.845 27.8486 60.3106 26.6377L69.1325 21.6205C70.4965 24.3189 71.2637 27.3689 71.2637 30.5924Z" fill="#FFC4DF"/>
<path d="M69.3141 59.2241H66.8602V44.3049C70.0852 40.6442 72.0449 35.8433 72.0449 30.5927C72.0449 19.1411 62.7285 9.82471 51.2769 9.82471C41.4792 9.82471 33.2455 16.645 31.0714 25.7871H20.9708C18.7441 25.7871 16.9325 27.5986 16.9325 29.8253V59.2239H14.4786C12.9728 59.2239 11.7478 60.4489 11.7478 61.9545V63.7458C11.7478 66.0633 13.6331 67.9486 15.9506 67.9486H26.4764C26.908 67.9486 27.2577 67.5988 27.2577 67.1674C27.2577 66.736 26.908 66.3861 26.4764 66.3861H15.9506C14.4949 66.3861 13.3103 65.2016 13.3103 63.7458V61.9547C13.3103 61.3105 13.8344 60.7866 14.4786 60.7866H16.946V62.055C16.946 62.9166 17.6469 63.6175 18.5085 63.6175H25.2792C26.1408 63.6175 26.8417 62.9166 26.8417 62.055V60.7866H31.2077L32.2328 62.7161C32.5047 63.2275 33.0335 63.5453 33.6127 63.5453H50.18C50.7592 63.5453 51.288 63.2277 51.56 62.716L52.5849 60.7866H56.9316V62.055C56.9316 62.9166 57.6325 63.6175 58.4941 63.6175H65.2649C66.1264 63.6175 66.8274 62.9166 66.8274 62.055V60.7866H69.3141C69.9581 60.7866 70.4822 61.3106 70.4822 61.9547V63.7461C70.4822 65.2019 69.2978 66.3864 67.842 66.3864H30.8672C30.4356 66.3864 30.086 66.7363 30.086 67.1677C30.086 67.5991 30.4356 67.9489 30.8672 67.9489H67.842C70.1594 67.9489 72.0447 66.0636 72.0447 63.7461V61.9547C72.0447 60.4489 70.8197 59.2241 69.3141 59.2241ZM61.8902 29.8113C61.8181 28.8244 61.6135 27.8741 61.2896 26.9796L68.7908 22.7135C69.7758 24.8944 70.3638 27.2913 70.4652 29.8113H61.8902ZM51.2769 21.5102C54.5211 21.5102 57.3719 23.2213 58.9788 25.7871H46.6367C46.2052 25.7871 45.8555 26.1369 45.8555 26.5683C45.8555 26.9997 46.2052 27.3496 46.6367 27.3496H59.7586C60.1453 28.3575 60.3594 29.4502 60.3594 30.5925C60.3594 35.6006 56.285 39.675 51.2769 39.675C46.2688 39.675 42.1946 35.6006 42.1946 30.5925C42.1946 25.5844 46.2688 21.5102 51.2769 21.5102ZM68.0881 21.3156L60.6477 25.5472C58.9639 22.4327 55.7722 20.2505 52.0581 19.9794V11.4044C58.9569 11.6819 64.9299 15.6152 68.0881 21.3156ZM50.4956 11.4044V19.9794C44.9899 20.3811 40.6321 24.986 40.6321 30.5925C40.6321 36.4622 45.4074 41.2375 51.2769 41.2375C56.8835 41.2375 61.4885 36.8797 61.8902 31.3738H70.4652C70.0538 41.6027 61.605 49.798 51.2769 49.798C40.687 49.798 32.0716 41.1824 32.0716 30.5925C32.0716 20.2646 40.2667 11.8158 50.4956 11.4044ZM20.9708 27.3496H30.7628C30.5964 28.4066 30.5091 29.4895 30.5091 30.5925C30.5091 42.0441 39.8255 51.3605 51.2769 51.3605C56.6763 51.3605 61.6005 49.2888 65.2977 45.8992V55.3416H18.495V29.8253C18.495 28.4602 19.6058 27.3496 20.9708 27.3496ZM25.2803 62.0549H18.5085V60.7864H25.2797L25.2803 62.0549ZM51.205 60.0535L50.18 61.9827H33.6127L32.5875 60.0531C32.3156 59.5416 31.7869 59.2238 31.2077 59.2238H18.495V56.9039H65.2977V59.2238H52.5849C52.0058 59.2241 51.4771 59.5417 51.205 60.0535ZM58.4941 62.055V60.7866H65.2653L65.266 62.055H58.4941Z" fill="#2626BC"/>
<path d="M43.2512 58.6176H40.5415C40.11 58.6176 39.7603 58.9674 39.7603 59.3988C39.7603 59.8302 40.11 60.1801 40.5415 60.1801H43.2512C43.6828 60.1801 44.0325 59.8302 44.0325 59.3988C44.0325 58.9674 43.6826 58.6176 43.2512 58.6176Z" fill="#2626BC"/>
<path d="M27.4966 34.647C27.4966 33.2156 26.3321 32.0513 24.9008 32.0513C23.4696 32.0513 22.305 33.2158 22.305 34.647C22.305 35.353 22.5891 35.9931 23.048 36.4616C22.5892 36.93 22.305 37.5702 22.305 38.2761C22.305 38.7075 22.6547 39.0574 23.0863 39.0574C23.5178 39.0574 23.8675 38.7075 23.8675 38.2761C23.8675 37.7064 24.3311 37.2428 24.9008 37.2428C25.4705 37.2428 25.9341 37.7064 25.9341 38.2761C25.9341 38.7075 26.2838 39.0574 26.7153 39.0574C27.1469 39.0574 27.4966 38.7075 27.4966 38.2761C27.4966 37.5702 27.2125 36.93 26.7536 36.4616C27.2124 35.9933 27.4966 35.353 27.4966 34.647ZM24.9006 33.6138C25.4703 33.6138 25.9339 34.0774 25.9339 34.647C25.9339 35.2167 25.4703 35.6803 24.9006 35.6803C24.331 35.6803 23.8674 35.2167 23.8674 34.647C23.8674 34.0774 24.331 33.6138 24.9006 33.6138Z" fill="#FF7EB8"/>
<path d="M15.0741 24.0504C14.4899 24.0504 13.9055 23.8281 13.4606 23.3832C12.5711 22.4934 12.5711 21.0459 13.4606 20.1563C14.3503 19.2668 15.798 19.267 16.6874 20.1563C17.5769 21.0459 17.5769 22.4935 16.6875 23.3831H16.6874C16.2427 23.8281 15.6583 24.0504 15.0741 24.0504ZM16.135 22.8309H16.1366H16.135ZM15.0741 21.051C14.8899 21.051 14.7056 21.1212 14.5653 21.2613C14.285 21.5417 14.285 21.9979 14.5655 22.2784C14.8456 22.5587 15.3022 22.5587 15.5827 22.2784C15.863 21.9981 15.863 21.5417 15.5827 21.2613C15.4424 21.121 15.2581 21.051 15.0741 21.051Z" fill="#01ECA5"/>
<path d="M72.5528 46.0226H72.045V45.5148C72.045 45.0834 71.6953 44.7335 71.2638 44.7335C70.8322 44.7335 70.4825 45.0834 70.4825 45.5148V46.0226H69.9747C69.5431 46.0226 69.1935 46.3724 69.1935 46.8038C69.1935 47.2352 69.5431 47.5851 69.9747 47.5851H70.4825V48.0929C70.4825 48.5243 70.8322 48.8741 71.2638 48.8741C71.6953 48.8741 72.045 48.5243 72.045 48.0929V47.5851H72.5528C72.9844 47.5851 73.3341 47.2352 73.3341 46.8038C73.3341 46.3724 72.9844 46.0226 72.5528 46.0226Z" fill="#FF7EB8"/>
<path d="M11.3144 27.5732H10.8066V27.0654C10.8066 26.634 10.4569 26.2842 10.0253 26.2842C9.59377 26.2842 9.24408 26.634 9.24408 27.0654V27.5732H8.73627C8.3047 27.5732 7.95502 27.9231 7.95502 28.3545C7.95502 28.7859 8.3047 29.1357 8.73627 29.1357H9.24408V29.6436C9.24408 30.075 9.59377 30.4248 10.0253 30.4248C10.4569 30.4248 10.8066 30.075 10.8066 29.6436V29.1357H11.3144C11.746 29.1357 12.0956 28.7859 12.0956 28.3545C12.0956 27.9231 11.746 27.5732 11.3144 27.5732Z" fill="#8399FE"/>
<path d="M74.0531 56.1219C73.4689 56.1219 72.8845 55.8995 72.4398 55.4547C71.5502 54.565 71.5502 53.1175 72.4398 52.2278C73.3294 51.3383 74.7769 51.3383 75.6664 52.2278C76.5561 53.1175 76.5561 54.565 75.6664 55.4547C75.2217 55.8994 74.6375 56.1219 74.0531 56.1219ZM74.0531 53.1224C73.8689 53.1224 73.6848 53.1925 73.5445 53.3327C73.2642 53.613 73.2642 54.0694 73.5445 54.3497C73.825 54.6302 74.2813 54.6302 74.5617 54.3497C74.842 54.0694 74.842 53.613 74.5617 53.3327C74.4216 53.1925 74.2373 53.1224 74.0531 53.1224Z" fill="#01ECA5"/>
<path d="M65.5419 11.1841C64.9576 11.1841 64.3733 10.9617 63.9286 10.5169C63.0391 9.6272 63.0391 8.1797 63.9286 7.29001C64.8181 6.40032 66.2656 6.40048 67.1551 7.29001C68.0447 8.17954 68.0447 9.6272 67.1553 10.5167H67.1551C66.7103 10.9617 66.1261 11.1841 65.5419 11.1841ZM66.6028 9.96438H66.6044H66.6028ZM65.5419 8.18454C65.3576 8.18454 65.1736 8.2547 65.0333 8.39485C64.753 8.67517 64.753 9.13157 65.0334 9.41204C65.3136 9.69235 65.77 9.69235 66.0505 9.41204C66.3308 9.13173 66.3308 8.67532 66.0505 8.39501C65.9101 8.2547 65.7259 8.18454 65.5419 8.18454Z" fill="#FF7EB8"/>
</g>
<defs>
<linearGradient id="paint0_linear" x1="65.7584" y1="12.7556" x2="28.4147" y2="70.7243" gradientUnits="userSpaceOnUse">
<stop offset="0.0112" stop-color="#DCFDEE"/>
<stop offset="0.3814" stop-color="#E8F1EE"/>
<stop offset="1" stop-color="#FFDBED"/>
</linearGradient>
<clipPath id="clip0">
<rect width="80" height="80" fill="white"/>
</clipPath>
</defs>
</svg>
