<svg xmlns="http://www.w3.org/2000/svg" width="199" height="131" viewBox="0 0 199 131">
  <g id="ARP" transform="translate(-242 -146)">
    <rect id="Rectangle_59" data-name="Rectangle 59" width="199" height="131" rx="20" transform="translate(242 146)" fill="#6f6fbd"/>
    <g id="ARP_1" transform="translate(292.006 192)">
      <g id="Layer_1" data-name="Layer 1" transform="translate(-0.006 0)">
        <path id="Path_50" data-name="Path 50" d="M31.4,33.121,21.905,2.9A4.147,4.147,0,0,0,17.95,0H13.643A4.141,4.141,0,0,0,9.689,2.9L.188,33.109a4.143,4.143,0,0,0,3.954,5.386h0a4.145,4.145,0,0,0,4.013-3.108l.757-2.927a4.136,4.136,0,0,1,4.013-3.1h5.39a4.136,4.136,0,0,1,4.013,3.1l.757,2.944A4.152,4.152,0,0,0,27.1,38.52h.354A4.154,4.154,0,0,0,31.4,33.121Zm-17.566-9.5a.91.91,0,0,1-1.006.914.926.926,0,0,1-.814-.929V19.569a.926.926,0,0,1,.814-.93.91.91,0,0,1,1.006.914Zm2.851.036a.91.91,0,0,1-.91.91h0a.91.91,0,0,1-.91-.91V17.106a.91.91,0,0,1,.91-.91h0a.91.91,0,0,1,.91.91Zm2.79-.036a.91.91,0,0,1-1.006.914.926.926,0,0,1-.814-.929V14.273a.926.926,0,0,1,.814-.928.91.91,0,0,1,1.006.91Z" transform="translate(0.006 0)" fill="#fff"/>
        <path id="Path_51" data-name="Path 51" d="M591.868,25.793a2.418,2.418,0,0,1,.625-3.094c2.755-2.123,4.489-5.382,4.489-9.972,0-9.58-7.093-12.417-15.368-12.417H569.5a2.426,2.426,0,0,0-2.426,2.426V36.309a2.426,2.426,0,0,0,2.426,2.426h5.316a2.426,2.426,0,0,0,2.426-2.426V28.274a2.426,2.426,0,0,1,2.427-2.426h0a2.426,2.426,0,0,1,2.157,1.317L586.8,36.87a3.428,3.428,0,0,0,3.051,1.863h3.408a3.428,3.428,0,0,0,2.992-5.1Zm-14.63-10.411V10.775a2.427,2.427,0,0,1,2.427-2.426H580.9c4.02,0,6.148,1.065,6.148,4.375s-2.128,5.084-6.148,5.084h-1.24A2.426,2.426,0,0,1,577.238,15.382Z" transform="translate(-532.671 -0.291)" fill="#fff"/>
        <path id="Path_52" data-name="Path 52" d="M1134,3.739A3.429,3.429,0,0,1,1137.429.31h10.644c8.394,0,15.606,3.074,15.606,12.769,0,9.4-7.33,13.478-15.37,13.478h-.71a3.429,3.429,0,0,0-3.428,3.429v5.321a3.429,3.429,0,0,1-3.429,3.429h-3.31A3.429,3.429,0,0,1,1134,35.306Zm13.831,14.779c4.02,0,5.911-2.01,5.911-5.438s-2.245-4.732-6.148-4.732h0a3.429,3.429,0,0,0-3.429,3.429v3.311a3.429,3.429,0,0,0,3.428,3.429Z" transform="translate(-1065.21 -0.291)" fill="#fff"/>
      </g>
    </g>
  </g>
</svg>
