<svg xmlns="http://www.w3.org/2000/svg" xmlns:xlink="http://www.w3.org/1999/xlink" width="199" height="131" viewBox="0 0 199 131">
  <defs>
    <linearGradient id="linear-gradient" x1="0.03" y1="0.037" x2="1.084" y2="1.027" gradientUnits="objectBoundingBox">
      <stop offset="0" stop-color="#662d91"/>
      <stop offset="1" stop-color="#0071bc"/>
    </linearGradient>
  </defs>
  <g id="Boost" transform="translate(-925 -146)">
    <g id="Group_29" data-name="Group 29" transform="translate(228 -162)">
      <rect id="Rectangle_64" data-name="Rectangle 64" width="199" height="131" rx="20" transform="translate(697 308)" fill="url(#linear-gradient)"/>
      <g id="Boost-2" data-name="Boost" transform="translate(751.997 343.01)">
        <g id="Layer_1" data-name="Layer 1" transform="translate(0.003 -0.01)">
          <path id="Path_64" data-name="Path 64" d="M334.26,58.66V3.061A2.249,2.249,0,0,1,336.609.83h17.41c7.1,0,12.633,1.326,16.606,4.1s5.965,6.865,5.965,12.333a13.127,13.127,0,0,1-2.153,7.4,11.908,11.908,0,0,1-2.311,2.582,2.327,2.327,0,0,0,.475,3.815,11.612,11.612,0,0,1,4.027,3.407,14.65,14.65,0,0,1,2.863,8.986c0,5.772-1.9,10.178-5.714,13.148s-9.21,4.493-16.2,4.493H336.609A2.42,2.42,0,0,1,334.26,58.66Zm12.187-35.041a2.3,2.3,0,0,0,2.257,2.388h5.722c3.23,0,5.716-.679,7.455-2.009a6.857,6.857,0,0,0,2.61-5.8c0-2.79-.877-4.829-2.63-6.16s-4.37-1.97-7.849-1.97H348.7a2.235,2.235,0,0,0-2.257,2.31Zm0,13.075V49.382a2.377,2.377,0,0,0,2.257,2.472h8.871c3.2,0,5.646-.755,7.331-2.151a7.63,7.63,0,0,0,2.527-6.222,8.782,8.782,0,0,0-2.486-6.713c-1.657-1.574-4.152-2.324-7.5-2.324H348.7A2.185,2.185,0,0,0,346.447,36.694Z" transform="translate(-289.496 -0.718)" fill="#fff"/>
          <path id="Path_65" data-name="Path 65" d="M40.423,264.54a2.195,2.195,0,0,0,2.2-2.153V238.02a2.289,2.289,0,0,0-2.376-2.19H1.461a1.383,1.383,0,0,0-1.029,2.377l25.981,25.926a2.368,2.368,0,0,0,1.781.431Z" transform="translate(-0.003 -204.246)" fill="#fff"/>
          <path id="Path_66" data-name="Path 66" d="M40.45.032a2.195,2.195,0,0,1,2.2,2.153V26.559A2.419,2.419,0,0,1,40.276,28.9H1.488A1.434,1.434,0,0,1,.46,26.449L26.591.326c.463-.469,1.059-.316,1.628-.3Z" transform="translate(-0.03 0.01)" fill="#fff"/>
        </g>
      </g>
    </g>
  </g>
</svg>
