<svg xmlns="http://www.w3.org/2000/svg" xmlns:xlink="http://www.w3.org/1999/xlink" width="199" height="131" viewBox="0 0 199 131">
  <defs>
    <linearGradient id="linear-gradient" x1="0.127" y1="0.118" x2="1" y2="1" gradientUnits="objectBoundingBox">
      <stop offset="0" stop-color="#0fc79e"/>
      <stop offset="1" stop-color="#19b1d1"/>
    </linearGradient>
  </defs>
  <g id="Box" transform="translate(-4550 294)">
    <rect id="Rectangle_108" data-name="Rectangle 108" width="199" height="131" rx="20" transform="translate(4550 -294)" fill="url(#linear-gradient)"/>
    <g id="Box-2" data-name="Box" transform="translate(4591.001 -248)">
      <g id="Layer_1" data-name="Layer 1" transform="translate(-0.002 0)">
        <path id="Path_53" data-name="Path 53" d="M276.967,25.12c4.9,4.9,9.932,9.964,14.356,9.175,2.861-.516,5.47-3.432,8.009-8.934.583-1.261,1.118-2.442,1.625-3.546C304.09,15,305.827,11.249,307.32,9.1c1.078-1.561,2.118-2.366,3.408-2.5V3.615A2.663,2.663,0,0,0,307.96,1H273.611A2.531,2.531,0,0,0,271,3.615v18.8C272.806,22.142,274.9,23.048,276.967,25.12Z" transform="translate(-236.045 -0.871)" fill="#fff"/>
        <path id="Path_54" data-name="Path 54" d="M309.18,63.668c-1.379,1.992-3.185,5.9-6.162,12.383q-.762,1.656-1.638,3.548c-2.872,6.224-6.042,9.564-9.686,10.214a7.624,7.624,0,0,1-1.341.117c-5.126,0-10.1-5.037-14.984-9.922-1.66-1.661-3.208-2.331-4.369-2V91.345a2.689,2.689,0,0,0,2.611,2.8H307.96a2.82,2.82,0,0,0,2.768-2.8V62.18A3.889,3.889,0,0,0,309.18,63.668Z" transform="translate(-236.045 -54.16)" fill="#fff"/>
        <path id="Path_55" data-name="Path 55" d="M0,2.733A2.7,2.7,0,0,1,2.688,0h11.2q8.138,0,12.083,2.418a8.193,8.193,0,0,1,3.944,7.524,9.533,9.533,0,0,1-1.719,5.735A7.572,7.572,0,0,1,23.83,18.7c-.079.021-.1.089-.1.17h0c0,.08.018.15.1.17a9.16,9.16,0,0,1,5.23,3.241,9.888,9.888,0,0,1,1.656,5.953,10.253,10.253,0,0,1-4.086,8.59c-2.722,2.083-6.435,3.159-11.131,3.159H2.688A2.748,2.748,0,0,1,0,37.2ZM10.833,14.642a.635.635,0,0,0,.593.707h2.568a5.873,5.873,0,0,0,3.591-.969,3.259,3.259,0,0,0,1.269-2.8c0-2.238-1.694-3.321-5.079-3.321H11.427a.541.541,0,0,0-.593.595Zm0,9.252v7.021a.616.616,0,0,0,.593.686H14.54q5.052,0,5.052-4.257a3.664,3.664,0,0,0-1.352-3.058,6.236,6.236,0,0,0-3.919-1.069h-2.9A.608.608,0,0,0,10.833,23.895Z" transform="translate(0.002 0)" fill="#fff"/>
        <path id="Path_56" data-name="Path 56" d="M650.686,39.985h-8.663a1.579,1.579,0,0,1-1.314-.76L634.7,29.579a1.548,1.548,0,0,0-2.633,0l-5.933,9.646a1.575,1.575,0,0,1-1.316.761h-8.492a1.571,1.571,0,0,1-1.3-2.421l11.151-17.213a1.562,1.562,0,0,0,.006-1.683L615.794,2.387A1.548,1.548,0,0,1,617.1,0h8.245a1.548,1.548,0,0,1,1.338.774l5.4,9.242a1.548,1.548,0,0,0,2.687-.022l5.168-9.2A1.548,1.548,0,0,1,641.281,0h8.624a1.548,1.548,0,0,1,1.314,2.368L640.586,19.477a1.548,1.548,0,0,0,.043,1.7l11.326,16.345A1.569,1.569,0,0,1,650.686,39.985Z" transform="translate(-535.481 0)" fill="#fff"/>
      </g>
    </g>
  </g>
</svg>
