<svg width="80" height="80" viewBox="0 0 80 80" fill="none" xmlns="http://www.w3.org/2000/svg">
<g clip-path="url(#clip0)">
<path d="M57.4379 7.44454C46.6943 3.09922 31.7318 4.53329 23.3876 11.9788C17.4959 17.2358 21.9916 18.8044 25.8563 28.5906C28.6534 35.6734 0.146166 34.3784 0.00116569 47.1177C-0.166491 61.8453 20.5202 59.2886 28.1659 61.0617C39.8555 63.7727 49.9694 73.5313 62.5051 72.4027C73.4182 71.4202 77.6712 62.9136 79.2987 53.1247C82.3307 34.8877 75.6223 14.7992 57.4379 7.44454Z" fill="url(#paint0_linear)"/>
<path d="M29.3114 45.4789C24.4881 41.4734 20.6633 36.3641 19.1609 30.1085C17.9057 24.8825 19.313 18.5146 24.067 15.4791C29.467 12.0312 36.9485 14.2406 39.9956 19.753C43.0503 14.2267 50.5139 12.0505 55.9241 15.4791C60.6855 18.4965 62.082 24.8971 60.8303 30.1085C59.3323 36.3457 55.5256 41.4433 50.7223 45.4435L29.3114 45.4789Z" fill="#FFA8CF"/>
<path d="M55.9241 15.4792C53.404 13.8822 50.4382 13.5012 47.6803 14.1085C48.8243 14.3696 49.9383 14.8211 50.9767 15.4792C55.7381 18.4967 57.1345 24.8972 55.8828 30.1087C54.3848 36.3458 50.5781 41.4434 45.7749 45.4436H50.7224C55.5256 41.4434 59.3323 36.3458 60.8303 30.1087C62.082 24.8972 60.6856 18.4967 55.9241 15.4792Z" fill="#FF8CCC"/>
<path d="M45.2947 40.9902C45.2715 40.9806 45.2475 40.9712 45.2242 40.9617C43.8198 42.1952 41.9915 42.9556 39.9954 42.9556C37.9936 42.9556 36.1618 42.1916 34.7566 40.9531C34.7343 40.9656 34.7117 40.977 34.6896 40.9897C32.502 41.9573 30.6307 43.506 29.2644 45.4391C32.1703 47.8599 35.441 49.8792 38.7862 51.5058C39.5508 51.8776 40.4409 51.8776 41.2055 51.5058C44.5489 49.8801 47.8178 47.8623 50.7225 45.4433C49.3559 43.5085 47.4835 41.9585 45.2947 40.9902Z" fill="#02FFB3"/>
<path d="M39.9954 31.4883C41.7435 34.0078 45.042 35.1489 47.9704 34.2323C47.9704 33.9738 47.9643 33.7193 47.9524 33.4687C47.7103 28.3942 43.8071 25.6104 39.9256 25.6611C36.044 25.7118 32.1841 28.5969 32.0288 33.6749C32.0232 33.8583 32.0203 34.0441 32.0203 34.2322C34.9478 35.1486 38.2462 34.0091 39.9954 31.4883Z" fill="#ED9443"/>
<path d="M47.9704 34.2324C45.042 35.1489 41.7435 34.0079 39.9953 31.4884C38.2463 34.0091 34.9479 35.1487 32.0203 34.2324C31.6251 38.7983 35.4125 42.9557 39.9953 42.9557C44.5767 42.9557 48.3655 38.799 47.9704 34.2324Z" fill="#FFDBD3"/>
<path d="M47.9706 34.2324C46.3199 34.749 44.5516 34.6118 43.0097 33.9426L43.0231 34.2324C43.3441 37.9419 40.9042 41.3807 37.5215 42.541C38.3032 42.8092 39.1353 42.9556 39.9955 42.9556C44.5769 42.9556 48.3656 38.799 47.9706 34.2324Z" fill="#FFD1C7"/>
<path d="M43.0238 65.0351C46.8441 64.4565 50.524 62.829 53.1663 60.0847C55.2451 57.8814 58.6601 61.1016 56.5896 63.3136C49.4756 70.9142 37.4366 71.3556 28.4253 67.4952H21.2694V59.4884H28.289C29.69 57.5911 32.4346 57.116 34.2511 58.7352C36.4635 60.7077 39.6277 60.8337 42.4163 60.3425C45.3501 59.8258 46.2729 64.376 43.3184 64.9636" fill="#FFDBD3"/>
<path d="M53.1662 60.0847C52.8427 60.4206 52.5038 60.7397 52.151 61.0423C52.4098 61.7569 52.32 62.5893 51.642 63.3136C47.9227 67.2872 42.8574 69.3041 37.5824 69.7725C44.5247 70.3691 51.7137 68.5228 56.5895 63.3136C58.66 61.1016 55.245 57.8814 53.1662 60.0847Z" fill="#FFD1C7"/>
<path d="M21.3515 70.7263C19.6131 70.7263 18.2039 69.3171 18.2039 67.5788V59.4551C18.2039 57.7168 19.6131 56.3076 21.3514 56.3076H21.3515C23.0898 56.3076 24.499 57.7168 24.499 59.4551V67.5788C24.499 69.3171 23.0898 70.7263 21.3515 70.7263Z" fill="#B8B7FF"/>
<path d="M65.7363 24.2509C65.2255 24.2806 64.8346 24.7185 64.8643 25.2305C64.894 25.724 65.3021 26.1038 65.7895 26.1038C65.808 26.1038 65.8266 26.1038 65.8451 26.1025C66.3559 26.0716 66.7468 25.6337 66.7171 25.1217C66.6862 24.6109 66.2483 24.22 65.7363 24.2509Z" fill="#2626BC"/>
<path d="M43.2439 54.5654C42.785 54.793 42.5982 55.3508 42.8258 55.8097C43.0415 56.2429 43.6376 56.4442 44.0689 56.2265C44.5277 55.9989 44.7145 55.4423 44.4869 54.9834C44.2592 54.5246 43.7026 54.3378 43.2439 54.5654Z" fill="#2626BC"/>
<path d="M64.2781 21.5088C64.3881 21.9256 64.7642 22.2002 65.1748 22.2002C65.7219 22.2002 66.2167 21.5805 66.0728 21.0375C65.9429 20.5416 65.4358 20.2461 64.9398 20.3758C64.445 20.5057 64.1482 21.0127 64.2781 21.5088Z" fill="#2626BC"/>
<path d="M61.5444 15.2502C62.2916 15.2502 62.7408 14.2729 62.2382 13.7067C61.8993 13.3231 61.3131 13.2872 60.9296 13.6274C60.5462 13.9675 60.5103 14.5538 60.8505 14.9373C61.0337 15.1439 61.2885 15.2502 61.5444 15.2502Z" fill="#2626BC"/>
<path d="M49.7065 51.9123C50.1054 52.3487 50.5358 52.4253 50.9978 52.1424C51.4183 51.8492 51.521 51.2716 51.2291 50.8511C50.9359 50.4307 50.3571 50.328 49.9365 50.6211H49.9378C49.5172 50.9128 49.4133 51.4918 49.7065 51.9123Z" fill="#2626BC"/>
<path d="M46.6663 52.715C46.2235 52.9748 46.0763 53.5424 46.336 53.9853C46.5855 54.4074 47.1837 54.5609 47.6063 54.3143C48.0479 54.0545 48.1951 53.4869 47.9353 53.0453C47.6756 52.6025 47.1079 52.4553 46.6663 52.715Z" fill="#2626BC"/>
<path d="M55.8773 45.6612C55.5161 46.0248 55.5174 46.6112 55.881 46.9735C56.319 47.3346 56.7564 47.3329 57.1933 46.9685C57.5545 46.6049 57.552 46.0174 57.1884 45.6573C56.8247 45.2951 56.2384 45.2975 55.8773 45.6612Z" fill="#2626BC"/>
<path d="M53.0211 48.2722C52.6278 48.5999 52.5746 49.185 52.9024 49.5783C53.3213 49.9797 53.7567 50.0193 54.2085 49.6971C54.6019 49.3694 54.655 48.7843 54.3273 48.391C53.9994 47.9976 53.4143 47.9432 53.0211 48.2722Z" fill="#2626BC"/>
<path d="M29.0062 10.2014C29.4886 10.2014 29.9568 9.70203 29.9327 9.2267C29.9067 8.71451 29.4713 8.32131 28.9592 8.34729C28.4472 8.37326 28.0539 8.80988 28.0798 9.3207C28.1058 9.81669 28.5152 10.2014 29.0062 10.2014Z" fill="#2626BC"/>
<path d="M63.7697 18.5107C64.4004 18.5107 64.8928 17.7374 64.5935 17.1575C64.3584 16.7012 63.7994 16.523 63.343 16.7581C62.8878 16.993 62.7097 17.5522 62.9447 18.0074C63.1092 18.3275 63.4331 18.5107 63.7697 18.5107Z" fill="#2626BC"/>
<path d="M54.7158 10.9088C55.1648 11.0584 55.7379 10.7699 55.8872 10.3176C56.0467 9.83042 55.782 9.30586 55.2947 9.14631C54.8086 8.98675 54.2842 9.25144 54.1234 9.73753C53.9638 10.2249 54.2285 10.7493 54.7158 10.9088Z" fill="#2626BC"/>
<path d="M58.0516 12.5155C58.4728 12.7386 59.0163 12.7374 59.3367 12.2484C59.6172 11.8203 59.4988 11.2453 59.0696 10.9645C58.6416 10.6836 58.0665 10.8024 57.7857 11.2303C57.5049 11.6596 57.6237 12.2348 58.0516 12.5155Z" fill="#2626BC"/>
<path d="M51.0721 10.2137C51.0906 10.215 51.1104 10.2163 51.1289 10.2163C51.615 10.2163 52.0244 9.8366 52.0541 9.34421C52.085 8.83338 51.6954 8.39318 51.1846 8.36226C50.6725 8.33133 50.2335 8.72082 50.2025 9.23165C50.1716 9.74372 50.56 10.1828 51.0721 10.2137Z" fill="#2626BC"/>
<path d="M36.305 11.6323C36.7396 11.837 37.3335 11.6208 37.5369 11.1833C37.7534 10.7182 37.553 10.1666 37.088 9.95013C36.6241 9.73368 36.0725 9.93529 35.856 10.3991C35.6396 10.8642 35.84 11.4158 36.305 11.6323Z" fill="#2626BC"/>
<path d="M32.7638 10.4734C33.222 10.5674 33.7626 10.201 33.8535 9.74374C33.9537 9.24145 33.6272 8.75301 33.125 8.65393C32.6216 8.55375 32.1343 8.88028 32.0341 9.38257C31.9339 9.88586 32.2604 10.3733 32.7638 10.4734Z" fill="#2626BC"/>
<path d="M47.187 10.4672C47.7109 10.4672 48.1985 9.8898 48.0998 9.3676C48.0045 8.86419 47.5197 8.53271 47.0163 8.62795C46.5129 8.72331 46.1814 9.20804 46.2766 9.71157C46.3607 10.1568 46.7491 10.4672 47.187 10.4672Z" fill="#2626BC"/>
<path d="M40.0515 13.7116C40.7683 13.7116 41.2337 12.786 40.78 12.2099C40.4621 11.8079 39.8783 11.7386 39.4764 12.0553C39.0744 12.3731 39.0051 12.9569 39.323 13.3589C39.506 13.5902 39.7769 13.7116 40.0515 13.7116Z" fill="#2626BC"/>
<path d="M43.4243 11.6596C43.6803 11.4725 43.8082 11.4449 43.8077 11.5768C44.274 11.3639 44.4806 10.8135 44.2678 10.3473C44.0563 9.88089 43.5059 9.67445 43.0396 9.88719C42.1294 10.3024 42.4796 11.6596 43.4243 11.6596Z" fill="#2626BC"/>
<path d="M25.1224 10.9051C25.6883 10.9051 26.1839 10.2493 26.0068 9.69546C25.8509 9.20702 25.329 8.93726 24.8417 9.09323C24.3531 9.24908 24.0835 9.77091 24.2393 10.2584C24.3655 10.6527 24.7303 10.9051 25.1224 10.9051Z" fill="#2626BC"/>
<path d="M14.4408 29.9047C14.9492 29.8416 15.3091 29.3778 15.246 28.8694C15.1817 28.3611 14.7179 27.9999 14.2095 28.0642C13.7012 28.1273 13.3413 28.5911 13.4056 29.1007C13.4056 29.0995 13.4056 29.0995 13.4056 29.0995C13.4637 29.5695 13.8632 29.912 14.3246 29.912C14.3629 29.912 14.4012 29.9096 14.4408 29.9047Z" fill="#2626BC"/>
<path d="M15.8595 18.2768C16.3404 18.5302 16.8325 18.3136 17.1136 17.8896C17.3524 17.4357 17.178 16.8755 16.7253 16.6354C16.2726 16.3967 15.711 16.5698 15.4723 17.0238C15.2324 17.4765 15.4068 18.038 15.8595 18.2768Z" fill="#2626BC"/>
<path d="M14.1477 25.9602C14.6133 25.9896 15.1046 25.5542 15.1347 25.0944C15.1681 24.5835 14.781 24.1421 14.2702 24.1086C13.7581 24.0752 13.3165 24.4623 13.2831 24.9731C13.2497 25.484 13.6369 25.9257 14.1477 25.9602Z" fill="#2626BC"/>
<path d="M17.4192 36.1582C17.2077 35.6919 16.6573 35.4865 16.191 35.6993C15.7247 35.9121 15.5193 36.4624 15.7321 36.9287C15.8879 37.2701 16.2244 37.4717 16.5769 37.4717C17.1891 37.4718 17.6818 36.7335 17.4192 36.1582Z" fill="#2626BC"/>
<path d="M14.6103 22.0308C15.064 22.1543 15.6239 21.8355 15.7482 21.3789C15.8831 20.8842 15.5899 20.3746 15.0964 20.2397C14.6017 20.1062 14.0921 20.398 13.9585 20.8927C13.8237 21.3864 14.1156 21.896 14.6103 22.0308Z" fill="#2626BC"/>
<path d="M16.0649 32.575H16.0636C15.9152 32.0852 15.3982 31.8082 14.9072 31.9566C14.4174 32.1063 14.1403 32.6233 14.2887 33.1143C14.4099 33.5149 14.7785 33.7722 15.1768 33.7722C15.7382 33.7722 16.2317 33.1268 16.0649 32.575Z" fill="#2626BC"/>
<path d="M65.0461 32.0952C64.5563 31.9431 64.0381 32.2176 63.8859 32.7074C63.735 33.1972 64.0096 33.7154 64.4994 33.8676C64.9498 34.0093 65.5194 33.7055 65.6596 33.2541C65.8105 32.7656 65.5358 32.2461 65.0461 32.0952Z" fill="#2626BC"/>
<path d="M65.7683 28.2063C65.2612 28.1383 64.7949 28.4957 64.7269 29.0041C64.6601 29.5113 65.0175 29.9775 65.5246 30.0455C65.9877 30.1001 66.5041 29.7149 66.5661 29.2477C66.6341 28.7395 66.2767 28.2731 65.7683 28.2063Z" fill="#2626BC"/>
<path d="M59.7548 42.6456C59.3566 42.3253 58.7715 42.3884 58.4512 42.7879C58.1296 43.1873 58.1939 43.7711 58.5934 44.0915C59.0472 44.4061 59.4817 44.3591 59.8971 43.9504C60.2187 43.551 60.1543 42.9671 59.7548 42.6456Z" fill="#2626BC"/>
<path d="M39.9959 57.2878C40.5082 57.2878 40.9235 56.8724 40.9235 56.3601C40.9235 55.8478 40.5082 55.4324 39.9959 55.4324C39.4835 55.4324 39.0682 55.8478 39.0682 56.3601C39.0682 56.8724 39.4835 57.2878 39.9959 57.2878Z" fill="#2626BC"/>
<path d="M63.7449 35.8305C63.2798 35.6153 62.7282 35.818 62.5142 36.2832C62.299 36.7482 62.5018 37.2999 62.9669 37.5151C63.4032 37.716 63.9955 37.5022 64.1976 37.0611C64.4128 36.596 64.21 36.0456 63.7449 35.8305Z" fill="#2626BC"/>
<path d="M61.9626 39.3618C61.5284 39.0896 60.9558 39.222 60.6849 39.6561H60.6837C60.4116 40.0903 60.5439 40.6617 60.978 40.9338C61.3944 41.1959 61.9963 41.0543 62.257 40.6407C62.5278 40.2065 62.3967 39.6339 61.9626 39.3618Z" fill="#2626BC"/>
<path d="M31.9389 52.9735C31.6779 53.414 31.8239 53.9828 32.2654 54.2439C32.6869 54.4933 33.2868 54.3388 33.5357 53.9173C33.7967 53.4769 33.6507 52.908 33.2092 52.647C32.7688 52.386 32.1997 52.5319 31.9389 52.9735Z" fill="#2626BC"/>
<path d="M28.6512 50.7693C28.3568 51.1888 28.4582 51.7675 28.8775 52.0619C29.3394 52.3458 29.7703 52.2704 30.1701 51.8355C30.4632 51.4162 30.3618 50.8375 29.9425 50.543C29.5232 50.2486 28.9443 50.3502 28.6512 50.7693Z" fill="#2626BC"/>
<path d="M35.3847 54.9216C35.1558 55.3805 35.3414 55.9371 35.8002 56.166C36.2318 56.3835 36.8278 56.1867 37.0445 55.7516C37.2733 55.2927 37.0878 54.7361 36.6289 54.5073C36.1714 54.2783 35.6136 54.4638 35.3847 54.9216Z" fill="#2626BC"/>
<path d="M25.5578 48.2994C25.2288 48.6927 25.2807 49.2777 25.6728 49.6068C26.1245 49.9297 26.5602 49.8912 26.9802 49.4916C27.3092 49.0983 27.2572 48.5134 26.8651 48.1843C26.4718 47.8553 25.8868 47.9073 25.5578 48.2994Z" fill="#2626BC"/>
<path d="M20.1515 42.5342C19.7507 42.8547 19.6852 43.4372 20.0043 43.8379C20.4186 44.2489 20.8532 44.298 21.308 43.9851C21.7087 43.6659 21.7743 43.0821 21.4551 42.6814C21.1348 42.2806 20.551 42.2152 20.1515 42.5342Z" fill="#2626BC"/>
<path d="M18.4471 40.956C19.1122 40.956 19.5975 40.1245 19.2337 39.5397C18.9641 39.1044 18.3914 38.9708 17.9573 39.2404C17.5219 39.5113 17.3883 40.0829 17.6579 40.5181C17.8336 40.8013 18.1366 40.956 18.4471 40.956Z" fill="#2626BC"/>
<path d="M23.3587 47.1441C23.5937 47.1441 23.8287 47.0551 24.0105 46.8757C24.3754 46.5158 24.3791 45.9296 24.0192 45.5646C23.6593 45.1998 23.0717 45.1961 22.7069 45.556C22.1195 46.1354 22.5505 47.1441 23.3587 47.1441Z" fill="#2626BC"/>
<path d="M21.554 12.5873C22.227 12.5873 22.7089 11.7398 22.3333 11.1562C22.055 10.727 21.4811 10.6033 21.0506 10.8804C20.6202 11.1587 20.4965 11.7327 20.7748 12.163C20.9517 12.4376 21.2498 12.5873 21.554 12.5873Z" fill="#2626BC"/>
<path d="M17.9264 14.905C18.3722 15.2443 18.8088 15.222 19.2362 14.8382C19.5801 14.4586 19.5504 13.8711 19.1695 13.5284C18.7897 13.1847 18.2035 13.2142 17.8596 13.5952C17.5158 13.975 17.5454 14.5613 17.9264 14.905Z" fill="#2626BC"/>
<path d="M22.3301 16.8162C21.9398 16.4843 21.3542 16.5314 21.0225 16.9219C18.1446 20.3053 17.0856 25.4412 18.2587 30.3252C19.4198 35.1598 21.986 39.6236 25.8859 43.5928C29.1796 46.9451 33.3197 49.8568 38.1937 52.249C39.3709 52.8269 40.6253 52.8263 41.7931 52.2509C46.6688 49.8583 50.8103 46.9461 54.1049 43.5928C58.0048 39.6236 60.571 35.1598 61.7322 30.3251C62.9633 25.1989 61.8263 18.1213 56.4205 14.6956C53.6746 12.9553 50.3502 12.4605 47.06 13.3025C44.1896 14.037 41.6839 15.7292 39.9953 18.0344C36.7951 13.6683 30.8117 11.7373 25.7228 13.6246C24.5984 14.0421 25.2433 15.7805 26.3681 15.3642C31.0872 13.6135 36.7165 15.7386 39.1835 20.2017C39.5302 20.8291 40.4606 20.829 40.8073 20.2017C42.192 17.6966 44.6386 15.8371 47.5199 15.0998C50.3094 14.386 53.1177 14.7989 55.4273 16.2626C58.677 18.3219 61.4714 23.4654 59.9281 29.8917C58.8465 34.3944 56.4421 38.5666 52.7814 42.2925C52.1735 42.9113 51.5347 43.5147 50.866 44.1019C49.7234 42.7069 48.3276 41.545 46.7556 40.6798C48.5438 38.5749 49.0066 36.1078 48.8785 33.4244C48.7531 30.7957 47.7297 28.5566 45.9191 26.949C44.3063 25.5172 42.22 24.7326 40.0326 24.7326C39.9928 24.7326 39.9529 24.7328 39.913 24.7334C37.6835 24.7625 35.5653 25.6038 33.9487 27.1023C32.1663 28.7547 31.1815 31.0177 31.1011 33.6464C31.0216 36.2585 31.4929 38.6288 33.2316 40.6769C31.6595 41.5415 30.2633 42.7029 29.1201 44.0979C28.4531 43.5118 27.8158 42.9099 27.2093 42.2924C23.5485 38.5665 21.144 34.3944 20.0626 29.8916C19.0412 25.6386 19.9726 21.0195 22.4357 18.1235C22.7676 17.7336 22.7203 17.1481 22.3301 16.8162ZM39.9374 26.5886C39.9681 26.5882 39.9984 26.588 40.0292 26.588C43.3571 26.588 46.808 28.9512 47.0254 33.5129C44.6062 33.6394 42.2126 33.0573 40.7572 30.9593C40.3945 30.4366 39.5891 30.4459 39.2329 30.9593C37.8671 32.9277 35.3287 33.9648 32.9633 33.5142C33.1923 29.0234 36.6209 26.632 39.9374 26.5886ZM33.1359 35.4178C35.641 35.7338 38.256 34.7835 39.995 32.9533C41.7863 34.8384 44.4734 35.772 47.0509 35.3912C46.9314 36.9542 46.2671 38.478 45.1532 39.6924C42.3357 42.7643 37.6549 42.7653 34.8367 39.6925C33.7227 38.4781 33.0586 36.9541 32.9391 35.3913C33.0046 35.4009 33.0702 35.4097 33.1359 35.4178ZM30.5451 45.2861C31.6592 43.9232 33.05 42.8167 34.6229 42.0439C37.7923 44.4742 42.1938 44.4742 45.3637 42.0461C46.9366 42.8196 48.3275 43.9269 49.4409 45.29C46.9885 47.2407 44.1891 48.9977 41.1035 50.5224C40.3264 50.9057 39.6551 50.9023 38.8748 50.5163C35.7924 48.9923 32.9955 47.2359 30.5451 45.2861Z" fill="#2626BC"/>
<path d="M57.0653 59.3642C55.8813 58.2515 53.93 57.9233 52.4977 59.4413C50.7937 61.211 48.5282 62.5503 45.9978 63.3798C46.4029 61.1521 44.5657 59.0228 42.2551 59.4291C40.0333 59.8205 36.9484 59.8977 34.8681 58.043C32.8204 56.2176 29.6416 56.5517 27.8485 58.561H25.3274C24.9186 56.7427 23.291 55.3801 21.3511 55.3801C19.1041 55.3801 17.276 57.2082 17.276 59.4552V67.579C17.276 69.826 19.1041 71.6541 21.3512 71.6541C23.309 71.6541 24.9485 70.2665 25.3384 68.423H28.2363C31.9579 69.9883 36.0233 70.8077 40.0607 70.8077C43.652 70.8077 47.1177 70.1432 50.1416 68.8687C51.2469 68.403 50.5261 66.6922 49.4211 67.1591C46.351 68.453 42.7744 69.0672 39.08 68.9347C35.5543 68.8086 31.9962 68.016 28.7904 66.6427C28.6749 66.5932 28.5507 66.5677 28.425 66.5677H25.4264V60.4163H28.2887C28.5831 60.4163 28.86 60.2765 29.0349 60.0397C30.0917 58.6087 32.2592 58.2025 33.6335 59.428C35.719 61.2872 38.8114 61.9192 42.5769 61.2565C44.6981 60.8816 44.7757 63.8618 42.9556 64.11C40.5834 64.4333 38.1097 64.4361 35.714 63.9195C35.2136 63.8111 34.7197 64.1297 34.6116 64.6307C34.5036 65.1315 34.822 65.625 35.3228 65.733C38.4785 66.4137 41.9764 66.3489 45.1721 65.5508C48.6332 64.6866 51.6284 63.0188 53.8405 60.7214C54.7356 59.7726 55.6888 60.6168 55.7945 60.7162C55.901 60.8163 56.8088 61.7214 55.9118 62.6798C55.2231 63.4154 54.4662 64.0998 53.662 64.7139C52.6929 65.4539 53.8599 66.8975 54.788 66.1885C55.6737 65.5122 56.5075 64.7583 57.2663 63.9477C58.7032 62.4127 58.2527 60.4801 57.0653 59.3642ZM23.5712 67.5789C23.5712 68.8029 22.5754 69.7987 21.3514 69.7987C20.1274 69.7987 19.1316 68.8029 19.1316 67.5789V59.4551C19.1316 58.2311 20.1274 57.2353 21.3515 57.2353C22.5755 57.2353 23.5713 58.2311 23.5713 59.4551V67.5789H23.5712Z" fill="#2626BC"/>
</g>
<defs>
<linearGradient id="paint0_linear" x1="39.6023" y1="79.7633" x2="40.5393" y2="0.419068" gradientUnits="userSpaceOnUse">
<stop offset="0.0112" stop-color="#DCFDEE"/>
<stop offset="0.3814" stop-color="#E8F1EE"/>
<stop offset="1" stop-color="#FFDBED"/>
</linearGradient>
<clipPath id="clip0">
<rect width="80" height="80" fill="white"/>
</clipPath>
</defs>
</svg>
