<svg width="40" height="22" viewBox="0 0 40 22" fill="none" xmlns="http://www.w3.org/2000/svg">
<rect x="1" y="1" width="38" height="20" fill="#F7F9FF" stroke="#C4D7E7" stroke-width="0.5"/>
<path d="M12.9357 11.0554C12.7866 10.1222 12.0558 9.5767 11.1332 9.5767C10.0039 9.5767 9.17081 10.4226 9.17081 11.8182C9.17081 13.2138 9.99964 14.0597 11.1332 14.0597C12.092 14.0597 12.793 13.4588 12.9357 12.5959L12.271 12.5938C12.158 13.152 11.6893 13.4588 11.1374 13.4588C10.3896 13.4588 9.82493 12.8857 9.82493 11.8182C9.82493 10.7592 10.3874 10.1776 11.1396 10.1776C11.6957 10.1776 12.1623 10.4908 12.271 11.0554H12.9357ZM14.3095 12.0568C14.3095 11.5348 14.6397 11.2365 15.0936 11.2365C15.5325 11.2365 15.7946 11.5156 15.7946 11.995V14H16.4316V11.9183C16.4316 11.1023 15.9842 10.6847 15.3109 10.6847C14.8017 10.6847 14.4949 10.9062 14.3414 11.2599H14.301V9.63636H13.6724V14H14.3095V12.0568ZM18.6923 14.0661C19.4061 14.0661 19.911 13.7145 20.0559 13.1818L19.4529 13.0732C19.3379 13.3821 19.0609 13.5398 18.6987 13.5398C18.1532 13.5398 17.7868 13.1861 17.7697 12.5554H20.0964V12.3295C20.0964 11.147 19.389 10.6847 18.6475 10.6847C17.7356 10.6847 17.1348 11.3793 17.1348 12.3849C17.1348 13.4013 17.7271 14.0661 18.6923 14.0661ZM17.7718 12.0781C17.7974 11.6136 18.1341 11.2109 18.6518 11.2109C19.1461 11.2109 19.47 11.5774 19.4721 12.0781H17.7718ZM23.6499 15.2273V10.7273H23.0277V11.2578H22.9744C22.8615 11.0554 22.642 10.6847 22.0348 10.6847C21.2443 10.6847 20.6605 11.3089 20.6605 12.37C20.6605 13.429 21.2358 14.0639 22.0284 14.0639C22.625 14.0639 22.8594 13.6996 22.9744 13.4908H23.0128V15.2273H23.6499ZM23.0256 12.3636C23.0256 13.0518 22.7188 13.5206 22.1712 13.5206C21.6023 13.5206 21.304 13.0199 21.304 12.3636C21.304 11.7138 21.5938 11.2259 22.1712 11.2259C22.7273 11.2259 23.0256 11.6797 23.0256 12.3636ZM26.5795 12.6428C26.5817 13.1989 26.1683 13.4631 25.8104 13.4631C25.4162 13.4631 25.1435 13.1776 25.1435 12.7322V10.7273H24.5064V12.8089C24.5064 13.6207 24.9517 14.0426 25.5803 14.0426C26.0724 14.0426 26.407 13.7827 26.5582 13.4332H26.5923V14H27.2188V10.7273H26.5795V12.6428ZM29.4853 14.0661C30.199 14.0661 30.704 13.7145 30.8489 13.1818L30.2459 13.0732C30.1309 13.3821 29.8539 13.5398 29.4917 13.5398C28.9462 13.5398 28.5797 13.1861 28.5627 12.5554H30.8894V12.3295C30.8894 11.147 30.182 10.6847 29.4405 10.6847C28.5286 10.6847 27.9277 11.3793 27.9277 12.3849C27.9277 13.4013 28.5201 14.0661 29.4853 14.0661ZM28.5648 12.0781C28.5904 11.6136 28.927 11.2109 29.4448 11.2109C29.9391 11.2109 30.263 11.5774 30.2651 12.0781H28.5648Z" fill="#153059"/>
</svg>
