<svg xmlns="http://www.w3.org/2000/svg" width="199" height="131" viewBox="0 0 199 131">
  <g id="Clicko" transform="translate(-1661 -1454)">
    <rect id="Rectangle_61" data-name="Rectangle 61" width="199" height="131" rx="20" transform="translate(1661 1454)" fill="#0074ff"/>
    <g id="Group_46" data-name="Group 46" transform="translate(1714.562 1482.396)">
      <path id="Path_114" data-name="Path 114" d="M13.59.15A13.861,13.861,0,0,1,7.38-1.155,9.4,9.4,0,0,1,3.33-4.86a10.811,10.811,0,0,1-1.41-5.58,17.669,17.669,0,0,1,1.665-7.83,12.942,12.942,0,0,1,4.515-5.3,11.271,11.271,0,0,1,6.33-1.875,6.7,6.7,0,0,1,4.92,1.665,5.912,5.912,0,0,1,1.68,4.4,5.824,5.824,0,0,1-.645,2.94,2.027,2.027,0,0,1-1.845,1.11,2.036,2.036,0,0,1-1.32-.39,1.383,1.383,0,0,1-.48-1.14,7.252,7.252,0,0,1,.12-.99,7.744,7.744,0,0,0,.18-1.44q0-2.73-2.91-2.73a6.391,6.391,0,0,0-3.78,1.29,9.019,9.019,0,0,0-2.91,3.8A14.618,14.618,0,0,0,6.33-10.98,7.428,7.428,0,0,0,8.34-5.415Q10.35-3.45,14.28-3.45a16.336,16.336,0,0,0,3.945-.5A30.669,30.669,0,0,0,22.65-5.46a2.111,2.111,0,0,1,.75-.18.808.808,0,0,1,.72.36,1.646,1.646,0,0,1,.24.93,2.853,2.853,0,0,1-1.98,2.7A20.619,20.619,0,0,1,17.955-.285,23.465,23.465,0,0,1,13.59.15Zm21-6.84a.693.693,0,0,1,.615.36,1.861,1.861,0,0,1,.225.99,2.759,2.759,0,0,1-.57,1.86A12.925,12.925,0,0,1,32.054-.87,6.009,6.009,0,0,1,28.619.15,4.165,4.165,0,0,1,24.7-2.25a13.2,13.2,0,0,1-1.275-6.21,42.654,42.654,0,0,1,.945-8.34,28.3,28.3,0,0,1,2.79-8.04q1.845-3.36,4.395-3.36a2.545,2.545,0,0,1,2.265,1.335,7.318,7.318,0,0,1,.825,3.825,21.849,21.849,0,0,1-1.98,8.28A45.855,45.855,0,0,1,27.3-5.43a3.482,3.482,0,0,0,.69,1.755,1.627,1.627,0,0,0,1.26.525,3.477,3.477,0,0,0,2.16-.7,16.461,16.461,0,0,0,2.37-2.415A1.053,1.053,0,0,1,34.589-6.69ZM30.9-25.23q-.69,0-1.56,2.49a40.921,40.921,0,0,0-1.53,6.18,44.737,44.737,0,0,0-.72,7.08,38.662,38.662,0,0,0,3.39-7.035,19.284,19.284,0,0,0,1.26-6.435Q31.739-25.23,30.9-25.23Zm7.229,9.27a2.691,2.691,0,0,1-1.89-.585,2.121,2.121,0,0,1-.63-1.635,2.216,2.216,0,0,1,.825-1.755,3.053,3.053,0,0,1,2.055-.7,2.837,2.837,0,0,1,1.8.54,1.83,1.83,0,0,1,.69,1.53,2.44,2.44,0,0,1-.78,1.9A2.969,2.969,0,0,1,38.128-15.96ZM37.888.15a3.118,3.118,0,0,1-2.835-1.38,6.7,6.7,0,0,1-.885-3.66,22.4,22.4,0,0,1,.345-3.465A32.353,32.353,0,0,1,35.4-12.3a2.542,2.542,0,0,1,.72-1.32,2.307,2.307,0,0,1,1.44-.36q1.53,0,1.53,1.02a23.521,23.521,0,0,1-.57,3.48,25.945,25.945,0,0,0-.72,4.47,3.164,3.164,0,0,0,.24,1.38.835.835,0,0,0,.81.48A2.258,2.258,0,0,0,40.2-3.9a26.851,26.851,0,0,0,2.16-2.37,1.053,1.053,0,0,1,.81-.42.693.693,0,0,1,.615.36,1.861,1.861,0,0,1,.225.99,2.758,2.758,0,0,1-.57,1.86Q40.468.15,37.888.15Zm10.619,0a6.12,6.12,0,0,1-4.575-1.665A6,6,0,0,1,42.3-5.91a9.042,9.042,0,0,1,.96-4.26,7.312,7.312,0,0,1,2.49-2.82,5.819,5.819,0,0,1,3.21-.99,3.346,3.346,0,0,1,2.565.975,3.514,3.514,0,0,1,.915,2.505,3.881,3.881,0,0,1-.555,2.13,1.668,1.668,0,0,1-1.455.87,1.444,1.444,0,0,1-.915-.27.9.9,0,0,1-.345-.75,2.242,2.242,0,0,1,.06-.48q.06-.27.09-.39a2.666,2.666,0,0,0,.15-.84.85.85,0,0,0-.195-.6.72.72,0,0,0-.555-.21,1.787,1.787,0,0,0-1.29.615,4.378,4.378,0,0,0-.96,1.665,7.084,7.084,0,0,0-.36,2.31q0,3.48,3.03,3.48A5.355,5.355,0,0,0,51.792-3.8,10.822,10.822,0,0,0,54.6-6.27a1.053,1.053,0,0,1,.81-.42.693.693,0,0,1,.615.36,1.861,1.861,0,0,1,.225.99,2.906,2.906,0,0,1-.57,1.86A9.731,9.731,0,0,1,52.3-.8,8.74,8.74,0,0,1,48.507.15ZM72.356-6.69a.693.693,0,0,1,.615.36,1.861,1.861,0,0,1,.225.99,2.759,2.759,0,0,1-.57,1.86A14.574,14.574,0,0,1,69.9-.84a5.461,5.461,0,0,1-3.27.99,5.223,5.223,0,0,1-3.72-1.32A4.58,4.58,0,0,1,61.5-4.68a1.735,1.735,0,0,1,1.2-1.68,5.354,5.354,0,0,0,1.89-1.215,2.294,2.294,0,0,0,.57-1.575,1.242,1.242,0,0,0-.225-.81.7.7,0,0,0-.555-.27,2.6,2.6,0,0,0-1.785,1.17,13.34,13.34,0,0,0-1.815,3.015,21.6,21.6,0,0,0-1.32,3.8,4.678,4.678,0,0,1-.765,1.9,1.726,1.726,0,0,1-1.365.5,1.507,1.507,0,0,1-1.365-.675,4.914,4.914,0,0,1-.585-2.085q-.15-1.41-.15-4.14a51.96,51.96,0,0,1,.945-9.63,28.939,28.939,0,0,1,2.79-8.415q1.845-3.4,4.425-3.4a2.636,2.636,0,0,1,2.235,1.185,5.133,5.133,0,0,1,.855,3.075,13.146,13.146,0,0,1-1.77,6.285,40.64,40.64,0,0,1-5.76,7.605q-.09,1.56-.09,3.21a14.206,14.206,0,0,1,3.3-5.445,5.382,5.382,0,0,1,3.48-1.695,3.088,3.088,0,0,1,2.415,1.02,3.636,3.636,0,0,1,.915,2.52,5.717,5.717,0,0,1-.84,3.03,7.184,7.184,0,0,1-2.88,2.46,1.987,1.987,0,0,0,.735,1.305,2.294,2.294,0,0,0,1.485.5,2.8,2.8,0,0,0,1.8-.72,19.822,19.822,0,0,0,2.28-2.4A1.053,1.053,0,0,1,72.356-6.69Zm-9.6-18.54q-.54,0-1.2,1.545a26.18,26.18,0,0,0-1.275,4.17A55.687,55.687,0,0,0,59.276-13.8a21.469,21.469,0,0,0,3.075-4.77,11.139,11.139,0,0,0,1.215-4.68,4.016,4.016,0,0,0-.21-1.47Q63.146-25.23,62.756-25.23ZM77.036.15a5.068,5.068,0,0,1-3.015-.885A5.5,5.5,0,0,1,72.146-3.06a7.624,7.624,0,0,1-.63-3.09,9.3,9.3,0,0,1,.855-4.065,6.9,6.9,0,0,1,2.325-2.79,5.713,5.713,0,0,1,3.3-1,5.137,5.137,0,0,1,3.03.885,5.455,5.455,0,0,1,1.89,2.325,7.624,7.624,0,0,1,.63,3.09,9.162,9.162,0,0,1-.87,4.065,6.966,6.966,0,0,1-2.355,2.79A5.734,5.734,0,0,1,77.036.15Zm.33-3.24A2.033,2.033,0,0,0,79.091-4.2a6.087,6.087,0,0,0,.7-3.24,4.275,4.275,0,0,0-.6-2.49,1.741,1.741,0,0,0-1.44-.84,2.076,2.076,0,0,0-1.785,1.1,6.074,6.074,0,0,0-.705,3.255,4.253,4.253,0,0,0,.6,2.52A1.8,1.8,0,0,0,77.366-3.09Z" transform="translate(3 58.834)" fill="#fff"/>
      <rect id="Rectangle_1" data-name="Rectangle 1" width="6.063" height="18.03" rx="3.031" transform="translate(30.114 8.106) rotate(-23.01)" fill="#fff"/>
      <rect id="Rectangle_2" data-name="Rectangle 2" width="6.063" height="18.03" rx="3.031" transform="translate(60.497 24.808) rotate(-157.027)" fill="#fff"/>
      <rect id="Rectangle_3" data-name="Rectangle 3" width="6.264" height="24.447" rx="3.132" transform="translate(45.869 0.03) rotate(-0.27)" fill="#fff"/>
    </g>
  </g>
</svg>
