<svg width="80" height="80" viewBox="0 0 80 80" fill="none" xmlns="http://www.w3.org/2000/svg">
<path d="M75.428 39.3782C73.6106 24.7642 63.4471 39.7732 60.6976 30.7173C59.0307 25.2271 65.9254 18.4809 63.5863 12.4685C61.6312 7.44311 56.1856 6.09352 51.0397 7.10244C46.8973 7.91455 43.2116 12.1974 38.8576 11.4825C34.2475 10.7254 32.8075 4.65155 28.2215 3.05234C16.4421 -1.05528 10.9179 13.6705 7.98236 22.1589C4.25189 32.9459 0.707475 47.0405 12.1595 54.211C24.2196 61.7621 32.3282 51.1162 40.065 66.2964C55.3226 96.2331 77.9712 59.8281 75.428 39.3782Z" fill="url(#paint0_linear)"/>
<path d="M57.287 32.9252H40V17.2476C40 12.4739 43.8698 8.60406 48.6435 8.60406C53.4172 8.60406 57.287 12.4739 57.287 17.2476V32.9252Z" fill="#7776D0"/>
<path d="M57.287 32.9252H40V17.2476C40 12.4739 43.8698 8.60406 48.6435 8.60406C53.4172 8.60406 57.287 12.4739 57.287 17.2476V32.9252Z" fill="#F1B279"/>
<path d="M26.159 29.7958H11.1172C9.72098 29.7958 8.58918 28.664 8.58918 27.2678V11.1321C8.58918 9.73587 9.72098 8.60406 11.1172 8.60406H26.159C27.5553 8.60406 28.6871 9.73587 28.6871 11.1321V27.2678C28.6871 28.664 27.5553 29.7958 26.159 29.7958Z" fill="#02FFB3"/>
<path d="M21.1258 71.4258L18.5977 56.6279H61.4025L58.8744 71.4258H21.1258Z" fill="#D9DDFF"/>
<path d="M28.7686 71.4258L27.8838 64.673H52.116L51.2312 71.4258H28.7686Z" fill="#C7CDFF"/>
<path d="M61.4025 56.6279L53.7419 64.6326C52.7065 65.7731 51.2377 66.4236 49.6974 66.4236H30.3028C28.7623 66.4236 27.2935 65.7731 26.2583 64.6326L18.5977 56.6279H61.4025Z" fill="#7776D0"/>
<path d="M21.4651 52.8812C21.4651 43.9255 28.7251 36.6655 37.6808 36.6655H42.3192C51.2749 36.6655 58.5349 43.9255 58.5349 52.8812H21.4651Z" fill="#FF7EB8"/>
<path d="M42.3192 36.6655H37.6807C37.6111 36.6655 37.5415 36.6658 37.4719 36.6667C46.3314 36.7785 53.4788 43.9951 53.4788 52.8812H58.5349C58.5349 43.9255 51.2749 36.6655 42.3192 36.6655Z" fill="#F05FA0"/>
<path d="M52.3913 25.3917C52.3913 25.3917 47.4436 30.0285 40.0165 30.0285C32.5894 30.0285 27.6082 25.3917 27.6082 25.3917C27.6082 18.3197 33.4569 12.7137 39.8913 12.7137C46.3189 12.7138 52.3913 18.2228 52.3913 25.3917Z" fill="#F1B279"/>
<path d="M39.8914 12.7137C39.0391 12.7137 38.197 12.8122 37.3774 12.9993C42.7763 14.2145 47.3353 19.1801 47.3353 25.3917C47.3353 25.3917 43.4888 28.9965 37.4878 29.8493C38.2938 29.9637 39.138 30.0286 40.0165 30.0286C47.4436 30.0286 52.3914 25.3919 52.3914 25.3919C52.3914 18.2227 46.3189 12.7137 39.8914 12.7137Z" fill="#ED9443"/>
<path d="M39.9998 21.1359C37.2822 25.0455 32.1572 26.8129 27.6083 25.3918C26.9867 32.5598 32.7877 38.9215 39.9998 38.9215C47.2057 38.9215 53.0131 32.5664 52.3914 25.3918C47.8412 26.8132 42.7161 25.0434 39.9998 21.1359Z" fill="#FFDBD3"/>
<path d="M28.3125 25.5861C28.0765 25.5299 27.8416 25.4653 27.6082 25.3925C27.5984 25.5055 27.5903 25.6182 27.5836 25.7308C27.8282 25.6905 28.0714 25.6422 28.3125 25.5861Z" fill="#FFD1C7"/>
<path d="M52.3913 25.3917C50.7423 25.9068 49.0178 26.0028 47.3599 25.7299C47.7233 31.9062 43.3452 37.4053 37.4715 38.6558C38.2882 38.8296 39.1338 38.9213 39.9998 38.9213C47.2057 38.9213 53.0131 32.5662 52.3913 25.3917Z" fill="#FFD1C7"/>
<path d="M62.2393 51.5798H61.5159H56.6736H23.3263H18.4839H17.7605C16.3666 51.5798 15.2364 52.7099 15.2364 54.1039C15.2364 55.4979 16.3665 56.6279 17.7605 56.6279H18.4839H23.3263H56.6736H61.5159H62.2393C63.6333 56.6279 64.7635 55.4979 64.7635 54.1039C64.7633 52.7099 63.6333 51.5798 62.2393 51.5798Z" fill="#FFC919"/>
<path d="M25.7152 52.728H20.9371C19.8169 52.728 18.9087 51.8199 18.9087 50.6996C18.9087 49.5795 19.8168 48.6713 20.9371 48.6713H25.7152C26.8354 48.6713 27.7436 49.5793 27.7436 50.6996C27.7436 51.8198 26.8354 52.728 25.7152 52.728Z" fill="#FFDBD3"/>
<path d="M59.0626 52.7237H54.2845C53.1644 52.7237 52.2562 51.8156 52.2562 50.6953C52.2562 49.5751 53.1642 48.6669 54.2845 48.6669H59.0626C60.1828 48.6669 61.091 49.575 61.091 50.6953C61.0909 51.8155 60.1828 52.7237 59.0626 52.7237Z" fill="#FFDBD3"/>
<path d="M30.9403 51.5798H49.0596V56.6279H30.9403V51.5798Z" fill="white"/>
<path d="M63.607 13.9H68.8828C70.279 13.9 71.4108 15.0318 71.4108 16.428V26.8146C71.4108 28.2108 70.279 29.3426 68.8828 29.3426H63.607C62.2108 29.3426 61.079 28.2108 61.079 26.8146V16.428C61.079 15.0318 62.2108 13.9 63.607 13.9Z" fill="#FFD54D"/>
<path d="M24.1252 12.9716H13.0267C12.5031 12.9716 12.0786 13.3961 12.0786 13.9196C12.0786 14.4432 12.5031 14.8676 13.0267 14.8676H24.1251C24.6487 14.8676 25.0731 14.4432 25.0731 13.9196C25.0731 13.3961 24.6488 12.9716 24.1252 12.9716Z" fill="#2626BC"/>
<path d="M21.3531 18.2518H13.0267C12.5031 18.2518 12.0786 18.6763 12.0786 19.1998C12.0786 19.7234 12.5031 20.1479 13.0267 20.1479H21.353C21.8766 20.1479 22.301 19.7234 22.301 19.1998C22.301 18.6763 21.8767 18.2518 21.3531 18.2518Z" fill="#2626BC"/>
<path d="M21.3531 23.5323H13.0267C12.5031 23.5323 12.0786 23.9567 12.0786 24.4803C12.0786 25.0039 12.5031 25.4283 13.0267 25.4283H21.353C21.8766 25.4283 22.301 25.0039 22.301 24.4803C22.301 23.9567 21.8767 23.5323 21.3531 23.5323Z" fill="#2626BC"/>
<path d="M62.2393 50.6317H62.0383C62.0044 49.0197 60.6825 47.7189 59.0627 47.7189H58.6928C57.1108 42.6912 53.2996 38.683 48.4117 36.8298C49.4458 35.9829 50.3536 34.9833 51.0981 33.8731H57.2869C57.8105 33.8731 58.2349 33.4487 58.2349 32.9251V17.2475C58.2349 15.2558 57.6299 13.3455 56.4852 11.7234C55.7786 10.7218 54.2292 11.815 54.936 12.8164C55.8537 14.117 56.3388 15.6493 56.3388 17.2475V31.9771H52.1605C53.1103 29.9098 53.5289 27.6269 53.3391 25.3514C53.3283 21.7126 51.8647 18.2818 49.2148 15.6871C47.4265 13.9359 45.217 12.7097 42.8883 12.1352C44.3359 10.4984 46.4069 9.55216 48.6434 9.55216C49.6626 9.55216 50.6524 9.74796 51.5849 10.1341C52.7176 10.6027 53.4427 8.85114 52.3102 8.38231C51.1464 7.90047 49.9126 7.65613 48.6432 7.65613C45.4594 7.65613 42.5447 9.19457 40.7501 11.7964C40.464 11.7761 40.1775 11.7658 39.8911 11.7658C35.807 11.7658 32.0837 13.7893 29.6348 16.8956V11.1321C29.6348 9.2153 28.0755 7.65601 26.1588 7.65601H11.1169C9.20044 7.65601 7.64114 9.21543 7.64114 11.1321V27.2678C7.64114 29.1845 9.20044 30.7438 11.1172 30.7438H26.159C26.5424 30.7438 26.9219 30.6797 27.2812 30.5571C28.0856 33.0034 29.5961 35.1985 31.5878 36.8298C26.6984 38.6836 22.8868 42.6933 21.3057 47.7232H20.9374C19.3189 47.7232 17.9981 49.0218 17.9619 50.6316C13.344 50.4348 13.1717 57.6028 17.7888 57.5758L20.1918 71.296C20.4034 72.5033 22.2709 72.1763 22.0594 70.9689L20.0653 59.5835L22.0009 61.5881C22.8522 62.4699 24.2163 61.1529 23.3649 60.2711L20.8308 57.6467H59.1692L53.0599 63.9738C53.053 63.9808 53.0466 63.9879 53.04 63.9951C52.186 64.9358 50.9676 65.4752 49.6973 65.4752H30.3027C28.9084 65.4752 27.6688 64.8047 26.7583 63.7852C25.9068 62.9035 24.5428 64.2202 25.3942 65.1021C25.9024 65.6781 26.5028 66.1796 27.1744 66.5548L27.8288 71.5487C27.9849 72.7391 29.8698 72.5311 29.7088 71.3024L29.1806 67.2719C29.5487 67.3376 29.9241 67.3714 30.3027 67.3714H49.6973C50.076 67.3714 50.4514 67.3376 50.8194 67.2719L50.2913 71.3024C50.1366 72.4838 52.0092 72.7851 52.1712 71.5487L52.8256 66.555C53.4212 66.2221 53.9656 65.7938 54.4336 65.2807L59.9347 59.5834L57.9406 70.9688C57.735 72.1427 59.5936 72.5221 59.8082 71.2959L62.2112 57.5756C66.7262 57.6023 66.7405 50.6317 62.2393 50.6317ZM60.143 50.6952C60.143 51.2908 59.6584 51.7754 59.0627 51.7754H54.2847C53.689 51.7754 53.2043 51.2908 53.2043 50.6952C53.2043 50.0995 53.689 49.6148 54.2847 49.6148H59.0628C59.6584 49.6148 60.143 50.0995 60.143 50.6952ZM32.01 17.0681C34.1568 14.9033 37.0294 13.6616 39.8914 13.6616C42.7801 13.6616 45.695 14.8935 47.8885 17.0416C50.0055 19.1147 51.2442 21.8024 51.4213 24.6744C50.6693 24.8507 49.9066 24.9364 49.1476 24.9364C45.8836 24.9361 42.695 23.3521 40.7783 20.5946C40.2594 20.0521 39.7404 20.0521 39.2215 20.5946C36.8589 23.9934 32.5656 25.6094 28.5781 24.6744C28.7509 21.8195 29.9541 19.1413 32.01 17.0681ZM26.159 28.8478H11.1172C10.2459 28.8478 9.53717 28.139 9.53717 27.2678V11.1321C9.53717 10.2608 10.2459 9.55203 11.1172 9.55203H26.159C27.0303 9.55203 27.739 10.2608 27.739 11.1321V19.907C27.739 19.9616 27.7437 20.0151 27.7526 20.0672C27.0565 21.7003 26.666 23.4886 26.6603 25.3504C26.5663 26.4761 26.6213 27.6036 26.8158 28.706C26.612 28.7994 26.3901 28.8478 26.159 28.8478ZM28.5127 26.6001C32.7288 27.4451 37.1766 25.9255 39.9998 22.6767C42.3058 25.3305 45.6948 26.8308 49.1572 26.8305C49.9338 26.8305 50.7142 26.7551 51.4868 26.6001C51.4436 29.3815 50.358 32.1063 48.4234 34.2158C46.2335 36.6037 43.1632 37.9732 39.9998 37.9732C36.8363 37.9732 33.7661 36.6039 31.5766 34.2163C29.6416 32.1063 28.5558 29.3811 28.5127 26.6001ZM33.5619 38.1751C35.5253 39.2733 37.7412 39.8691 39.9998 39.8691C42.2582 39.8691 44.4741 39.2733 46.4377 38.175C51.2116 39.5081 55.0311 43.0847 56.6928 47.7188H54.2847C52.6648 47.7188 51.3429 49.0197 51.3091 50.6316H28.6908C28.6546 49.0216 27.3338 47.7232 25.7153 47.7232H23.3056C24.9664 43.0872 28.7863 39.5089 33.5619 38.1751ZM31.8884 55.6799V52.5278H48.1117V55.6799H31.8884ZM20.9372 49.6194C22.5299 49.6195 24.1227 49.6194 25.7153 49.6194C26.3109 49.6194 26.7956 50.104 26.7956 50.6997C26.7956 51.2954 26.3109 51.78 25.7153 51.78H20.9372C20.3416 51.78 19.857 51.2954 19.857 50.6997C19.857 50.1039 20.3416 49.6194 20.9372 49.6194ZM16.1846 54.1039C16.1846 53.2349 16.8916 52.5278 17.7606 52.5278C18.0263 52.5311 18.3193 52.5508 18.5859 52.5223C19.1308 53.2239 19.9823 53.676 20.9374 53.676H25.7155C26.668 53.676 27.5175 53.2261 28.0626 52.5278H29.9924V55.6799H17.7606C16.8916 55.6799 16.1846 54.9729 16.1846 54.1039ZM62.2393 55.6799H50.0076V52.5278H51.9408C52.4861 53.2236 53.334 53.6716 54.2846 53.6716H59.0627C60.0159 53.6716 60.8658 53.2211 61.411 52.522C62.4294 52.6341 63.3789 52.4921 63.7076 53.7063C63.9709 54.6789 63.3243 55.6799 62.2393 55.6799Z" fill="#2626BC"/>
<path d="M12.1726 45.392C12.6961 45.392 13.1206 44.9676 13.1206 44.444C13.1206 43.9204 12.6961 43.496 12.1726 43.496C11.649 43.496 11.2245 43.9204 11.2245 44.444C11.2245 44.9676 11.649 45.392 12.1726 45.392Z" fill="#2626BC"/>
<path d="M17.2287 45.392C17.7523 45.392 18.1767 44.9676 18.1767 44.444C18.1767 43.9204 17.7523 43.496 17.2287 43.496C16.7051 43.496 16.2807 43.9204 16.2807 44.444C16.2807 44.9676 16.7051 45.392 17.2287 45.392Z" fill="#2626BC"/>
<path d="M12.1145 35.3367C12.638 35.3367 13.0625 34.9123 13.0625 34.3887C13.0625 33.8651 12.638 33.4407 12.1145 33.4407C11.5909 33.4407 11.1664 33.8651 11.1664 34.3887C11.1664 34.9123 11.5909 35.3367 12.1145 35.3367Z" fill="#2626BC"/>
<path d="M12.1145 40.3928C12.638 40.3928 13.0625 39.9683 13.0625 39.4448C13.0625 38.9212 12.638 38.4968 12.1145 38.4968C11.5909 38.4968 11.1664 38.9212 11.1664 39.4448C11.1664 39.9683 11.5909 40.3928 12.1145 40.3928Z" fill="#2626BC"/>
<path d="M68.8828 12.9518H63.607C61.6904 12.9518 60.1309 14.5111 60.1309 16.4278V26.8144C60.1309 28.7312 61.6904 30.2905 63.607 30.2905H68.8828C70.7994 30.2905 72.3588 28.7312 72.3588 26.8144V16.4278C72.3588 14.5111 70.7994 12.9518 68.8828 12.9518ZM70.4628 26.8144C70.4628 27.6857 69.7541 28.3944 68.8828 28.3944H63.607C62.7357 28.3944 62.027 27.6857 62.027 26.8144V16.4278C62.027 15.5565 62.7357 14.8478 63.607 14.8478H68.8828C69.7541 14.8478 70.4628 15.5565 70.4628 16.4278V26.8144Z" fill="#2626BC"/>
<path d="M67.1608 23.2467H65.0888C64.5651 23.2467 64.1408 23.6712 64.1408 24.1947C64.1408 24.7183 64.5651 25.1427 65.0888 25.1427H67.1608C67.6845 25.1427 68.1088 24.7183 68.1088 24.1947C68.1088 23.6712 67.6845 23.2467 67.1608 23.2467Z" fill="#2626BC"/>
<path d="M67.1608 18.5005H65.0888C64.5651 18.5005 64.1408 18.925 64.1408 19.4486C64.1408 19.9721 64.5651 20.3966 65.0888 20.3966H67.1608C67.6845 20.3966 68.1088 19.9721 68.1088 19.4486C68.1088 18.925 67.6845 18.5005 67.1608 18.5005Z" fill="#2626BC"/>
<path d="M62.3428 40.5723C62.8663 40.5723 63.2908 40.1479 63.2908 39.6243C63.2908 39.1007 62.8663 38.6763 62.3428 38.6763C61.8192 38.6763 61.3947 39.1007 61.3947 39.6243C61.3947 40.1479 61.8192 40.5723 62.3428 40.5723Z" fill="#2626BC"/>
<path d="M57.2867 40.5723C57.8103 40.5723 58.2347 40.1479 58.2347 39.6243C58.2347 39.1007 57.8103 38.6763 57.2867 38.6763C56.7631 38.6763 56.3387 39.1007 56.3387 39.6243C56.3387 40.1479 56.7631 40.5723 57.2867 40.5723Z" fill="#2626BC"/>
<path d="M67.3205 40.4939C67.844 40.4939 68.2685 40.0695 68.2685 39.5459C68.2685 39.0223 67.844 38.5979 67.3205 38.5979C66.7969 38.5979 66.3725 39.0223 66.3725 39.5459C66.3725 40.0695 66.7969 40.4939 67.3205 40.4939Z" fill="#2626BC"/>
<path d="M67.3205 35.4379C67.844 35.4379 68.2685 35.0135 68.2685 34.4899C68.2685 33.9663 67.844 33.5419 67.3205 33.5419C66.7969 33.5419 66.3725 33.9663 66.3725 34.4899C66.3725 35.0135 66.7969 35.4379 67.3205 35.4379Z" fill="#2626BC"/>
<defs>
<linearGradient id="paint0_linear" x1="62.9411" y1="9.52414" x2="18.0741" y2="64.9765" gradientUnits="userSpaceOnUse">
<stop offset="0.0112" stop-color="#DCFDEE"/>
<stop offset="0.3814" stop-color="#E8F1EE"/>
<stop offset="1" stop-color="#FFDBED"/>
</linearGradient>
</defs>
</svg>
