<svg width="80" height="80" viewBox="0 0 80 80" fill="none" xmlns="http://www.w3.org/2000/svg">
<g clip-path="url(#clip0)">
<path d="M78.4177 21.2944C74.9244 12.4056 64.1636 7.07515 55.0495 10.6026C44.6461 14.6291 48.0955 31.1766 38.6459 34.5227C33.5414 36.3302 25.9955 29.5783 20.8383 28.5428C11.335 26.635 2.73188 33.3405 0.613439 42.6262C-1.54781 52.0997 1.91859 64.7528 12.327 67.3241C24.7255 70.3869 31.1838 59.2414 41.5847 56.0411C52.2581 52.7569 64.1258 60.5133 72.9619 51.0761C79.49 44.1042 81.8767 30.0962 78.4177 21.2944Z" fill="url(#paint0_linear)"/>
<path opacity="0.11" d="M33.4566 18.2232C33.1571 14.0369 29.6686 10.733 25.4059 10.733C20.9468 10.733 17.3319 14.3479 17.3319 18.807C17.3319 21.6225 18.7738 24.1001 20.9587 25.545V39.3414C20.9587 39.8784 21.5244 40.2244 22.0025 39.9817L23.5114 39.2123V62.12H19.1389C18.346 62.12 17.7032 62.7627 17.7032 63.5557V66.0079C17.7032 67.6604 19.0427 69 20.6938 69H50.9245C50.893 69 50.8624 68.9963 50.8309 68.9953C52.445 68.9528 53.7407 67.6343 53.7407 66.0101V21.2139C53.7407 19.5628 55.0817 18.2232 56.7342 18.2232H33.4566Z" fill="#2626BC"/>
<path d="M54.6861 18.1981V25.7387H61.2273C62.0203 25.7387 62.663 25.096 62.663 24.303V18.1981C62.663 16.873 61.8002 15.7474 60.6042 15.3568C60.3099 15.2592 59.9969 15.2075 59.671 15.2075H51.6955C53.3466 15.2075 54.6861 16.5471 54.6861 18.1981Z" fill="#FF5BA8"/>
<path opacity="0.11" d="M51.2404 21.6439V29.1845H57.7816C58.5745 29.1845 59.2173 28.5417 59.2173 27.7488V21.6439C59.2173 20.3187 58.3544 19.1931 57.1585 18.8026C56.8641 18.7049 56.5512 18.6533 56.2252 18.6533H48.2498C49.9008 18.6533 51.2404 19.9928 51.2404 21.6439Z" fill="#2626BC"/>
<path d="M54.6861 18.1981V25.7387H58.5454V18.1981C58.5454 16.873 59.4082 15.7474 60.6042 15.3568C60.3099 15.2592 59.9969 15.2075 59.671 15.2075H51.6955C53.3466 15.2075 54.6861 16.5471 54.6861 18.1981Z" fill="#FF248B"/>
<path d="M59.7493 15.2082C58.0968 15.2082 56.7558 16.5478 56.7558 18.1988V62.9951C56.7558 64.6462 55.4177 65.9843 53.7666 65.9843H26.5265V18.1988C26.5265 16.5478 27.8646 15.2082 29.5171 15.2082H59.7493Z" fill="#FFC7E0"/>
<path d="M46.3325 44.9108H33.8619C33.4655 44.9108 33.144 45.2322 33.144 45.6286V65.7814H47.0504V45.6286C47.0504 45.2322 46.7289 44.9108 46.3325 44.9108Z" fill="#FFDBED"/>
<path d="M56.7558 33.6918V44.8833C56.5404 44.9092 56.3207 44.9221 56.0982 44.9221C52.9855 44.9221 50.463 42.3995 50.463 39.2869C50.463 36.1756 52.9855 33.653 56.0982 33.653C56.3207 33.653 56.5404 33.666 56.7558 33.6918Z" fill="#B7C5FF"/>
<path d="M36.4948 18.1055C36.4948 20.921 35.0533 23.3991 32.8681 24.8434V38.6393C32.8681 39.1763 32.3024 39.5223 31.8243 39.2797L28.4217 37.5439L26.5265 38.5101V18.1988C26.5265 16.5478 27.8646 15.2082 29.5171 15.2082H35.9592C36.3052 16.107 36.4948 17.0847 36.4948 18.1055Z" fill="#B7C5FF"/>
<path d="M53.9395 65.985H23.7088C22.0577 65.985 20.7182 64.6454 20.7182 62.9929V60.5407C20.7182 59.7477 21.361 59.1049 22.1539 59.1049H49.5132C50.3061 59.1049 50.9489 59.7477 50.9489 60.5407V62.9929C50.9489 64.6454 52.2885 65.985 53.9395 65.985Z" fill="#FF5BA8"/>
<path d="M56.0979 42.964C59.2096 42.964 61.7322 40.4415 61.7322 37.3298C61.7322 34.2181 59.2096 31.6956 56.0979 31.6956C52.9862 31.6956 50.4637 34.2181 50.4637 37.3298C50.4637 40.4415 52.9862 42.964 56.0979 42.964Z" fill="#02FFB3"/>
<path d="M32.8681 19.3704V36.3264C32.8681 36.8633 32.3024 37.2093 31.8243 36.9667L28.4216 35.2309L25.0175 36.9667C24.5394 37.2093 23.9738 36.8633 23.9738 36.3264V19.3704H32.8681Z" fill="#FFC300"/>
<path d="M32.8681 19.3704V24.5189C31.5329 25.2038 30.021 25.5885 28.4216 25.5885C26.8208 25.5885 25.309 25.2023 23.9738 24.5189V19.3704H32.8681Z" fill="#DBA504"/>
<path d="M28.4209 23.866C32.88 23.866 36.4949 20.2511 36.4949 15.792C36.4949 11.3329 32.88 7.71802 28.4209 7.71802C23.9618 7.71802 20.3469 11.3329 20.3469 15.792C20.3469 20.2511 23.9618 23.866 28.4209 23.866Z" fill="#FFD54D"/>
<path d="M38.0771 29.1708H50.7198C51.1929 29.1708 51.5765 28.7874 51.5765 28.3141V23.7933C51.5765 23.3202 51.1931 22.9366 50.7198 22.9366H38.0771C37.604 22.9366 37.2204 23.3201 37.2204 23.7933V28.3141C37.2204 28.7874 37.604 29.1708 38.0771 29.1708Z" fill="#FFDBED"/>
<path d="M39.3906 23.6546H36.992C36.5954 23.6546 36.2741 23.3331 36.2741 22.9367C36.2741 22.5403 36.5954 22.2189 36.992 22.2189H39.3906C39.7872 22.2189 40.1085 22.5403 40.1085 22.9367C40.1085 23.3331 39.7872 23.6546 39.3906 23.6546Z" fill="#97FFD2"/>
<path d="M44.4303 28.1378H36.9918C36.5952 28.1378 36.2739 27.8164 36.2739 27.42C36.2739 27.0235 36.5952 26.7021 36.9918 26.7021H44.4303C44.8269 26.7021 45.1482 27.0235 45.1482 27.42C45.1482 27.8164 44.8269 28.1378 44.4303 28.1378Z" fill="#9FB0FE"/>
<path d="M47.978 30.5619H36.9918C36.5952 30.5619 36.2739 30.2405 36.2739 29.8441C36.2739 29.4477 36.5952 29.1262 36.9918 29.1262H47.978C48.3745 29.1262 48.6959 29.4477 48.6959 29.8441C48.6959 30.2405 48.3745 30.5619 47.978 30.5619Z" fill="#9FB0FE"/>
<path d="M42.205 41.6295H32.9081C32.5115 41.6295 32.1902 41.3081 32.1902 40.9117C32.1902 40.5152 32.5115 40.1938 32.9081 40.1938H42.205C42.6015 40.1938 42.9228 40.5152 42.9228 40.9117C42.9228 41.3081 42.6015 41.6295 42.205 41.6295Z" fill="#9FB0FE"/>
<path d="M51.176 45.7459H32.9081C32.5115 45.7459 32.1902 45.4245 32.1902 45.028C32.1902 44.6316 32.5115 44.3102 32.9081 44.3102H51.1758C51.5724 44.3102 51.8937 44.6316 51.8937 45.028C51.8937 45.4245 51.5724 45.7459 51.176 45.7459Z" fill="#02FFB3"/>
<path d="M51.176 48.4767H32.9081C32.5115 48.4767 32.1902 48.1552 32.1902 47.7588C32.1902 47.3624 32.5115 47.041 32.9081 47.041H51.1758C51.5724 47.041 51.8937 47.3624 51.8937 47.7588C51.8937 48.1552 51.5724 48.4767 51.176 48.4767Z" fill="#02FFB3"/>
<path d="M51.176 51.2074H32.9081C32.5115 51.2074 32.1902 50.886 32.1902 50.4896C32.1902 50.0932 32.5115 49.7717 32.9081 49.7717H51.1758C51.5724 49.7717 51.8937 50.0932 51.8937 50.4896C51.8937 50.886 51.5724 51.2074 51.176 51.2074Z" fill="#02FFB3"/>
<path d="M37.2974 34.5782C37.7407 34.5782 38.1 34.2189 38.1 33.7757C38.1 33.3324 37.7407 32.9731 37.2974 32.9731C36.8542 32.9731 36.4949 33.3324 36.4949 33.7757C36.4949 34.2189 36.8542 34.5782 37.2974 34.5782Z" fill="#6583FE"/>
<path d="M39.7254 34.5782C40.1687 34.5782 40.528 34.2189 40.528 33.7757C40.528 33.3324 40.1687 32.9731 39.7254 32.9731C39.2822 32.9731 38.9229 33.3324 38.9229 33.7757C38.9229 34.2189 39.2822 34.5782 39.7254 34.5782Z" fill="#6583FE"/>
<path d="M42.1533 34.5782C42.5965 34.5782 42.9559 34.2189 42.9559 33.7757C42.9559 33.3324 42.5965 32.9731 42.1533 32.9731C41.71 32.9731 41.3507 33.3324 41.3507 33.7757C41.3507 34.2189 41.71 34.5782 42.1533 34.5782Z" fill="#6583FE"/>
<path d="M28.4209 30.211C28.0245 30.211 27.7031 29.8897 27.7031 29.4932V27.8382C27.7031 27.4416 28.0245 27.1203 28.4209 27.1203C28.8173 27.1203 29.1388 27.4416 29.1388 27.8382V29.4932C29.1388 29.8897 28.8173 30.211 28.4209 30.211Z" fill="#DBA504"/>
<path d="M59.7717 14.4921C59.7636 14.4918 52.4954 14.4896 52.4954 14.4896C52.0988 14.4896 51.7775 14.811 51.7775 15.2075C51.7775 15.6041 52.0988 15.9254 52.4954 15.9254H56.8188C56.3302 16.5536 56.0386 17.3427 56.0386 18.1986V30.9793C52.5633 31.0113 49.7455 33.8472 49.7455 37.33C49.7455 40.8127 52.5633 43.6486 56.0386 43.6806V62.9939C56.0386 64.2179 55.0655 65.2164 53.8526 65.2628C52.6397 65.2164 51.6665 64.2179 51.6665 62.9939V60.541C51.6665 59.3535 50.7004 58.3874 49.513 58.3874H27.2441V36.6374L28.4211 36.0374L31.4988 37.6062C31.7059 37.7117 31.9291 37.7643 32.1515 37.7641C32.4111 37.7641 32.6697 37.6929 32.9008 37.5512C33.3301 37.2882 33.5864 36.8305 33.5864 36.3271V22.9001C35.7483 21.3247 37.1664 18.7894 37.2095 15.9255H48.4611C48.8577 15.9255 49.179 15.6042 49.179 15.2076C49.179 14.8111 48.8577 14.4898 48.4611 14.4898H37.1157C36.4844 10.2574 32.8262 7.00015 28.4209 7.00015C23.573 7.00015 19.6291 10.9442 19.6291 15.792C19.6291 18.7105 21.0598 21.3 23.2555 22.9001V27.0454C23.2555 27.4419 23.5769 27.7633 23.9733 27.7633C24.3697 27.7633 24.6912 27.4419 24.6912 27.0454V23.751C25.8243 24.284 27.088 24.5837 28.4209 24.5837C29.7539 24.5837 31.0176 24.284 32.1507 23.751V36.3268L28.747 34.5919C28.5421 34.4875 28.2998 34.4875 28.095 34.5919L24.6912 36.3268V31.0798C24.6912 30.6832 24.3697 30.3619 23.9733 30.3619C23.5769 30.3619 23.2555 30.6832 23.2555 31.0798V36.327C23.2555 36.8305 23.5117 37.288 23.941 37.5511C24.3704 37.8142 24.8945 37.8346 25.3432 37.6062L25.8082 37.3691V58.3874H22.154C20.9665 58.3874 20.0004 59.3535 20.0004 60.541V62.9938C20.0004 65.039 21.6642 66.7028 23.7093 66.7028H53.9399C53.9896 66.7028 54.0381 66.6978 54.0849 66.6882C55.9809 66.5255 57.4744 64.9313 57.4744 62.9938V43.53C60.317 42.8991 62.4497 40.3596 62.4497 37.3298C62.4497 34.3 60.317 31.7605 57.4744 31.1296V26.4565H61.2269C62.4144 26.4565 63.3805 25.4903 63.3805 24.3029V18.1984C63.3807 16.187 61.7708 14.5455 59.7717 14.4921ZM21.0648 15.792C21.0648 11.7358 24.3647 8.43588 28.4209 8.43588C32.4771 8.43588 35.777 11.7358 35.777 15.792C35.777 19.8482 32.4771 23.1481 28.4209 23.1481C24.3648 23.1481 21.0648 19.8482 21.0648 15.792ZM49.2939 65.2671H23.7096C22.4562 65.2671 21.4364 64.2472 21.4364 62.9938V60.541C21.4364 60.1451 21.7584 59.8231 22.1543 59.8231H49.5132C49.9091 59.8231 50.2311 60.1451 50.2311 60.541V62.9938C50.2311 63.8498 50.5224 64.6387 51.0114 65.2671H49.2939ZM61.0143 37.3298C61.0143 40.0408 58.8089 42.2462 56.0979 42.2462C53.387 42.2462 51.1816 40.0408 51.1816 37.3298C51.1816 34.6189 53.387 32.4134 56.0979 32.4134C58.8089 32.4134 61.0143 34.6189 61.0143 37.3298ZM61.9449 24.303C61.9449 24.6988 61.6229 25.0209 61.2271 25.0209H57.4745V18.1986C57.4745 16.9575 58.4746 15.9472 59.7111 15.9272C60.9462 15.9486 61.9449 16.9584 61.9449 18.1986V24.303Z" fill="#2626BC"/>
<path d="M28.4209 21.3468C25.3579 21.3468 22.8661 18.855 22.8661 15.792C22.8661 12.729 25.3579 10.2372 28.4209 10.2372C31.4839 10.2372 33.9759 12.729 33.9759 15.792C33.9759 18.855 31.4841 21.3468 28.4209 21.3468ZM28.4209 11.6727C26.1496 11.6727 24.3018 13.5205 24.3018 15.7918C24.3018 18.0632 26.1497 19.911 28.4209 19.911C30.6923 19.911 32.5402 18.0632 32.5402 15.7918C32.5402 13.5205 30.6923 11.6727 28.4209 11.6727Z" fill="#FFC300"/>
<path d="M28.6733 18.4952C28.2769 18.4952 27.9554 18.1739 27.9554 17.7773V14.6097H27.8917C27.4953 14.6097 27.1738 14.2884 27.1738 13.8918C27.1738 13.4953 27.4953 13.174 27.8917 13.174H28.6733C29.0697 13.174 29.3912 13.4953 29.3912 13.8918V17.7773C29.3912 18.1737 29.0697 18.4952 28.6733 18.4952Z" fill="#DBA504"/>
<path d="M53.9617 22.9368C53.9617 21.6216 52.8916 20.5516 51.5765 20.5516C50.2614 20.5516 49.1913 21.6216 49.1913 22.9368C49.1913 23.5854 49.4524 24.1736 49.874 24.6041C49.4524 25.0345 49.1913 25.6229 49.1913 26.2714C49.1913 26.6679 49.5127 26.9892 49.9092 26.9892C50.3058 26.9892 50.6271 26.6679 50.6271 26.2714C50.6271 25.7479 51.0531 25.3219 51.5765 25.3219C52.1 25.3219 52.526 25.7479 52.526 26.2714C52.526 26.6679 52.8473 26.9892 53.2438 26.9892C53.6404 26.9892 53.9617 26.6679 53.9617 26.2714C53.9617 25.6227 53.7007 25.0345 53.279 24.6041C53.7005 24.1738 53.9617 23.5854 53.9617 22.9368ZM51.5764 21.9873C52.0998 21.9873 52.5258 22.4133 52.5258 22.9368C52.5258 23.4602 52.0998 23.8862 51.5764 23.8862C51.0529 23.8862 50.6269 23.4602 50.6269 22.9368C50.6269 22.4133 51.0529 21.9873 51.5764 21.9873Z" fill="#6984FF"/>
<path d="M67.197 37.4451H66.7303V36.9785C66.7303 36.5819 66.409 36.2606 66.0125 36.2606C65.6159 36.2606 65.2946 36.5819 65.2946 36.9785V37.4451H64.828C64.4315 37.4451 64.1101 37.7664 64.1101 38.163C64.1101 38.5595 64.4315 38.8808 64.828 38.8808H65.2946V39.3474C65.2946 39.744 65.6159 40.0653 66.0125 40.0653C66.409 40.0653 66.7303 39.744 66.7303 39.3474V38.8808H67.197C67.5935 38.8808 67.9148 38.5595 67.9148 38.163C67.9148 37.7664 67.5935 37.4451 67.197 37.4451Z" fill="#8399FE"/>
<path d="M17.942 30.0323H17.4754V29.5657C17.4754 29.1691 17.1539 28.8478 16.7575 28.8478C16.3611 28.8478 16.0396 29.1691 16.0396 29.5657V30.0323H15.573C15.1766 30.0323 14.8552 30.3536 14.8552 30.7502C14.8552 31.1467 15.1766 31.468 15.573 31.468H16.0396V31.9346C16.0396 32.3312 16.3611 32.6525 16.7575 32.6525C17.1539 32.6525 17.4754 32.3312 17.4754 31.9346V31.468H17.942C18.3384 31.468 18.6598 31.1467 18.6598 30.7502C18.6598 30.3536 18.3384 30.0323 17.942 30.0323Z" fill="#8399FE"/>
<path d="M62.5681 63.207H62.1014V62.7404C62.1014 62.3438 61.7801 62.0225 61.3836 62.0225C60.987 62.0225 60.6657 62.3438 60.6657 62.7404V63.207H60.1991C59.8025 63.207 59.4812 63.5283 59.4812 63.9248C59.4812 64.3214 59.8025 64.6427 60.1991 64.6427H60.6657V65.1093C60.6657 65.5059 60.987 65.8272 61.3836 65.8272C61.7801 65.8272 62.1014 65.5059 62.1014 65.1093V64.6427H62.5681C62.9646 64.6427 63.2859 64.3214 63.2859 63.9248C63.2859 63.5283 62.9646 63.207 62.5681 63.207Z" fill="#01ECA5"/>
<path d="M14.1237 26.2599C13.9144 26.2599 13.704 26.2282 13.4986 26.1643C12.9639 25.9982 12.5259 25.6335 12.2653 25.1379C12.0047 24.6421 11.9529 24.0747 12.1191 23.5398C12.2854 23.0051 12.6499 22.5672 13.1457 22.3065C13.6416 22.046 14.209 21.994 14.7437 22.1603C15.8476 22.5037 16.4664 23.6812 16.123 24.785C15.9567 25.3196 15.5922 25.7575 15.0964 26.0181C14.7913 26.1785 14.459 26.2599 14.1237 26.2599ZM14.1203 23.5011C14.0146 23.5011 13.9099 23.5268 13.8137 23.5772C13.6575 23.6593 13.5425 23.7975 13.4901 23.966C13.4377 24.1347 13.4541 24.3136 13.5362 24.4698C13.6183 24.626 13.7563 24.7409 13.9249 24.7933C14.0934 24.8458 14.2724 24.8293 14.4287 24.7473C14.5849 24.6652 14.6997 24.5271 14.7521 24.3587C14.7521 24.3585 14.7521 24.3585 14.7521 24.3585C14.8604 24.0107 14.6653 23.6395 14.3172 23.5313C14.2526 23.511 14.1863 23.5011 14.1203 23.5011Z" fill="#FF7EB8"/>
<path d="M45.4399 13.1952C45.2306 13.1952 45.0204 13.1635 44.8148 13.0996C44.2798 12.9333 43.8421 12.5686 43.5814 12.073C43.3209 11.5773 43.2689 11.0099 43.4352 10.4749C43.7785 9.37127 44.9555 8.75218 46.0597 9.09561C47.1635 9.43903 47.7823 10.6163 47.439 11.7201C47.2729 12.2549 46.9082 12.6928 46.4126 12.9534C46.1077 13.1136 45.7752 13.1952 45.4399 13.1952ZM45.4379 10.4366C45.1562 10.4366 44.8945 10.6185 44.8065 10.9013C44.7541 11.0699 44.7704 11.2486 44.8524 11.405C44.9345 11.5612 45.0727 11.6762 45.2414 11.7286C45.5894 11.8368 45.9604 11.6417 46.0685 11.2939C46.0685 11.2939 46.0685 11.2939 46.0685 11.2937C46.1767 10.9458 45.9818 10.5747 45.6337 10.4664C45.5686 10.4462 45.5027 10.4366 45.4379 10.4366Z" fill="#01ECA5"/>
<path d="M56.0979 39.6646C55.9074 39.6646 55.7246 39.5889 55.5901 39.4541L53.9508 37.8135C53.6705 37.5331 53.6708 37.0786 53.9512 36.7983C54.2316 36.5181 54.686 36.5181 54.9664 36.7987L56.0981 37.9312L61.8291 32.1991C62.1095 31.9187 62.5639 31.9188 62.8443 32.199C63.1247 32.4793 63.1247 32.9338 62.8444 33.2142L56.6056 39.4543C56.4709 39.5889 56.2883 39.6646 56.0979 39.6646Z" fill="#2626BC"/>
</g>
<defs>
<linearGradient id="paint0_linear" x1="5.10719" y1="32.4342" x2="62.4509" y2="43.0592" gradientUnits="userSpaceOnUse">
<stop offset="0.0112" stop-color="#DCFDEE"/>
<stop offset="0.3814" stop-color="#E8F1EE"/>
<stop offset="1" stop-color="#FFDBED"/>
</linearGradient>
<clipPath id="clip0">
<rect width="80" height="80" fill="white"/>
</clipPath>
</defs>
</svg>
