<svg width="80" height="80" viewBox="0 0 80 80" fill="none" xmlns="http://www.w3.org/2000/svg">
<g clip-path="url(#clip0)">
<path d="M49.6797 0.0664078C34.7081 1.41828 33.2594 30.1333 26.8022 44.8456C23.6025 52.1359 16.0565 59.6572 17.3869 68.2491C18.8876 77.942 28.777 80.7608 36.3998 79.8334C55.2628 77.5389 63.4153 57.7939 64.6494 39.0833C65.4101 27.5475 67.8214 -1.57172 49.6797 0.0664078Z" fill="url(#paint0_linear)"/>
<path opacity="0.11" d="M68.1367 21.77H27.2842V17.9092C27.2842 17.0462 26.5847 16.3467 25.7217 16.3467H13.5429C12.68 16.3467 11.9804 17.0462 11.9804 17.9092V21.77H7.88043C6.06793 21.77 4.59918 23.2387 4.59918 25.0512V61.6793C4.59918 63.4918 6.06793 64.9606 7.88043 64.9606H48.5322V68.3679C48.5322 69.2309 49.2317 69.9304 50.0947 69.9304H62.2734C63.1364 69.9304 63.8359 69.2309 63.8359 68.3679V64.9606H68.1368C69.9493 64.9606 71.4181 63.4918 71.4181 61.6793V25.0512C71.4179 23.2387 69.9492 21.77 68.1367 21.77Z" fill="#2626BC"/>
<path d="M74.6198 21.6859V58.3141C74.6198 60.1266 73.1511 61.5953 71.3386 61.5953H11.0823C9.26984 61.5953 7.80109 60.1266 7.80109 58.3141V21.6859C7.80109 19.8734 9.26984 18.4047 11.0823 18.4047H71.3386C73.1511 18.4047 74.6198 19.8734 74.6198 21.6859Z" fill="#FFA8CF"/>
<path d="M62.8492 46.4112H74.62V40.5705H62.8492C62.4178 40.5705 62.068 40.9203 62.068 41.3517V45.63C62.068 46.0616 62.4177 46.4112 62.8492 46.4112Z" fill="#D2DEFF"/>
<path d="M7.80109 26.5625H74.6198V37.1172H7.80109V26.5625Z" fill="#FF7EB8"/>
<path d="M30.4855 26.5625V29.4234C30.4855 30.2859 29.787 30.9859 28.923 30.9859H16.7448C15.8823 30.9859 15.1823 30.2859 15.1823 29.4234V26.5625H30.4855Z" fill="#2D58E0"/>
<path d="M28.9238 28.2852H16.745C15.8821 28.2852 15.1825 27.5856 15.1825 26.7227V14.5439C15.1825 13.6809 15.8821 12.9814 16.745 12.9814H28.9238C29.7867 12.9814 30.4863 13.6809 30.4863 14.5439V26.7227C30.4863 27.5856 29.7866 28.2852 28.9238 28.2852Z" fill="#02FFB3"/>
<path d="M30.4857 14.5442V26.7223C30.4857 27.5848 29.7872 28.2848 28.9232 28.2848H26.3153C27.1794 28.2848 27.8778 27.5848 27.8778 26.7223V14.5442C27.8778 13.6802 27.1794 12.9817 26.3153 12.9817H28.9232C29.7872 12.9817 30.4857 13.6802 30.4857 14.5442Z" fill="#97FFD2"/>
<path d="M65.4753 66.5652H53.2965C52.4336 66.5652 51.734 65.8656 51.734 65.0027V52.8239C51.734 51.9609 52.4336 51.2614 53.2965 51.2614H65.4753C66.3383 51.2614 67.0378 51.9609 67.0378 52.8239V65.0027C67.0378 65.8656 66.3383 66.5652 65.4753 66.5652Z" fill="#FFC919"/>
<path d="M67.0372 52.8244V65.0025C67.0372 65.865 66.3387 66.565 65.4747 66.565H62.8669C63.7309 66.565 64.4294 65.865 64.4294 65.0025V52.8244C64.4294 51.9603 63.7309 51.2619 62.8669 51.2619H65.4747C66.3387 51.2619 67.0372 51.9603 67.0372 52.8244Z" fill="#FFD54D"/>
<path d="M15.5591 50.7341H12.9778C12.5463 50.7341 12.1966 50.3842 12.1966 49.9528C12.1966 49.5214 12.5463 49.1716 12.9778 49.1716H15.5591C15.9906 49.1716 16.3403 49.5214 16.3403 49.9528C16.3403 50.3842 15.9905 50.7341 15.5591 50.7341Z" fill="#FFC4DF"/>
<path d="M34.4284 54.7966H12.9778C12.5463 54.7966 12.1966 54.4467 12.1966 54.0153C12.1966 53.5839 12.5463 53.2341 12.9778 53.2341H34.4284C34.86 53.2341 35.2097 53.5839 35.2097 54.0153C35.2097 54.4467 34.86 54.7966 34.4284 54.7966Z" fill="#02FFB3"/>
<path d="M34.4284 57.7778H12.9778C12.5463 57.7778 12.1966 57.428 12.1966 56.9966C12.1966 56.5652 12.5463 56.2153 12.9778 56.2153H34.4284C34.86 56.2153 35.2097 56.5652 35.2097 56.9966C35.2097 57.428 34.86 57.7778 34.4284 57.7778Z" fill="#02FFB3"/>
<path d="M51.9764 32.7136C52.4588 32.7136 52.8499 32.3225 52.8499 31.8401C52.8499 31.3578 52.4588 30.9667 51.9764 30.9667C51.494 30.9667 51.103 31.3578 51.103 31.8401C51.103 32.3225 51.494 32.7136 51.9764 32.7136Z" fill="#B7C5FF"/>
<path d="M54.6186 32.7136C55.101 32.7136 55.492 32.3225 55.492 31.8401C55.492 31.3578 55.101 30.9667 54.6186 30.9667C54.1362 30.9667 53.7451 31.3578 53.7451 31.8401C53.7451 32.3225 54.1362 32.7136 54.6186 32.7136Z" fill="#B7C5FF"/>
<path d="M57.2608 32.7136C57.7432 32.7136 58.1342 32.3225 58.1342 31.8401C58.1342 31.3578 57.7432 30.9667 57.2608 30.9667C56.7784 30.9667 56.3873 31.3578 56.3873 31.8401C56.3873 32.3225 56.7784 32.7136 57.2608 32.7136Z" fill="#B7C5FF"/>
<path d="M23.8575 19.852H23.6156V18.2456H24.633C25.0644 18.2456 25.4142 17.8958 25.4142 17.4644C25.4142 17.033 25.0644 16.6831 24.633 16.6831H23.6156V16.2845C23.6156 15.8531 23.2658 15.5033 22.8344 15.5033C22.403 15.5033 22.0531 15.8531 22.0531 16.2845V16.6831H21.8112C20.5069 16.6831 19.4456 17.7444 19.4456 19.0489C19.4456 20.3533 20.5069 21.4145 21.8112 21.4145H22.0531V23.021H21.0358C20.6044 23.021 20.2545 23.3708 20.2545 23.8022C20.2545 24.2336 20.6044 24.5835 21.0358 24.5835H22.0531V24.982C22.0531 25.4135 22.403 25.7633 22.8344 25.7633C23.2658 25.7633 23.6156 25.4135 23.6156 24.982V24.5835H23.8575C25.162 24.5835 26.2233 23.5222 26.2233 22.2177C26.2233 20.9133 25.162 19.852 23.8575 19.852ZM21.8111 19.852C21.3683 19.852 21.008 19.4917 21.008 19.0489C21.008 18.6061 21.3683 18.2456 21.8111 18.2456H22.053V19.852H21.8111ZM23.8575 23.0208H23.6156V21.4144H23.8575C24.3003 21.4144 24.6608 21.7747 24.6608 22.2175C24.6608 22.6603 24.3003 23.0208 23.8575 23.0208Z" fill="white"/>
<path d="M71.3383 17.623H31.2675V14.5439C31.2675 13.2516 30.2161 12.2002 28.9238 12.2002H16.745C15.4527 12.2002 14.4013 13.2516 14.4013 14.5439V17.6231H11.0827C8.8427 17.6231 7.0202 19.4456 7.0202 21.6856V50.461C7.0202 50.8924 7.37005 51.2422 7.80145 51.2422C8.23286 51.2422 8.5827 50.8924 8.5827 50.461V37.8991H73.8385V58.3145C73.8385 59.693 72.7169 60.8145 71.3385 60.8145H67.8193V52.8239C67.8193 51.5316 66.7679 50.4802 65.4755 50.4802H53.2968C52.0044 50.4802 50.953 51.5316 50.953 52.8239V60.8145H11.0827C9.70427 60.8145 8.5827 59.693 8.5827 58.3145V54.8516C8.5827 54.4202 8.23286 54.0703 7.80145 54.0703C7.37005 54.0703 7.0202 54.4202 7.0202 54.8516V58.3147C7.0202 60.5547 8.8427 62.3772 11.0827 62.3772H50.9529V65.0028C50.9529 66.2952 52.0043 67.3466 53.2966 67.3466H65.4754C66.7677 67.3466 67.8191 66.2952 67.8191 65.0028V62.3772H71.3383C73.5785 62.3772 75.4008 60.5547 75.4008 58.3147V21.6855C75.4008 19.4455 73.5785 17.623 71.3383 17.623ZM66.2566 65.0027C66.2566 65.4335 65.9061 65.7839 65.4754 65.7839H53.2966C52.8658 65.7839 52.5154 65.4335 52.5154 65.0027V52.8239C52.5154 52.3931 52.8658 52.0427 53.2966 52.0427H65.4754C65.9061 52.0427 66.2566 52.3931 66.2566 52.8239V65.0027ZM15.9638 14.5439C15.9638 14.1131 16.3143 13.7627 16.745 13.7627H28.9238C29.3546 13.7627 29.705 14.1131 29.705 14.5439V26.7227C29.705 27.1534 29.3546 27.5039 28.9238 27.5039H16.745C16.3143 27.5039 15.9638 27.1534 15.9638 26.7227V14.5439ZM11.0827 19.1855H14.4013V25.7813H8.5827V21.6855C8.5827 20.307 9.70411 19.1855 11.0827 19.1855ZM8.5827 36.3367V27.3438H14.4875C14.7608 28.3352 15.668 29.0664 16.745 29.0664H28.9238C30.2161 29.0664 31.2675 28.015 31.2675 26.7227V19.1855H71.3385C72.7169 19.1855 73.8385 20.307 73.8385 21.6855V25.7813H35.2097C34.7783 25.7813 34.4285 26.1311 34.4285 26.5625C34.4285 26.9939 34.7783 27.3438 35.2097 27.3438H73.8383V36.3367H8.5827Z" fill="#2626BC"/>
<path d="M56.7039 58.2642C55.5829 58.2642 54.6709 57.3523 54.6709 56.2312C54.6709 55.1102 55.5829 54.1983 56.7039 54.1983C57.8248 54.1983 58.7368 55.1102 58.7368 56.2312C58.7368 57.3523 57.8248 58.2642 56.7039 58.2642ZM56.7039 55.7609C56.4445 55.7609 56.2334 55.972 56.2334 56.2314C56.2334 56.4908 56.4445 56.7019 56.7039 56.7019C56.9632 56.7019 57.1743 56.4908 57.1743 56.2314C57.1743 55.972 56.9632 55.7609 56.7039 55.7609Z" fill="white"/>
<path d="M62.0678 63.6283C60.9469 63.6283 60.0348 62.7164 60.0348 61.5953C60.0348 60.4742 60.9469 59.5623 62.0678 59.5623C63.1887 59.5623 64.1008 60.4742 64.1008 61.5953C64.1008 62.7164 63.1887 63.6283 62.0678 63.6283ZM62.0678 61.1248C61.8084 61.1248 61.5973 61.3359 61.5973 61.5953C61.5973 61.8547 61.8084 62.0658 62.0678 62.0658C62.3272 62.0658 62.5383 61.8547 62.5383 61.5953C62.5383 61.3359 62.3272 61.1248 62.0678 61.1248Z" fill="white"/>
<path d="M57.1683 61.9122C56.9685 61.9122 56.7683 61.8359 56.616 61.6834C56.3108 61.3783 56.3108 60.8836 56.616 60.5786L61.0513 56.1433C61.3561 55.8383 61.8511 55.8383 62.156 56.1433C62.4611 56.4484 62.4611 56.9431 62.156 57.2481L57.7207 61.6834C57.5682 61.8359 57.3682 61.9122 57.1683 61.9122Z" fill="white"/>
<path d="M14.9203 46.6689H14.0872C13.0703 46.6689 12.243 45.8416 12.243 44.8247V42.2533C12.243 41.2364 13.0703 40.4091 14.0872 40.4091H14.9203C15.9372 40.4091 16.7645 41.2364 16.7645 42.2533V44.8247C16.7645 45.8416 15.9372 46.6689 14.9203 46.6689ZM14.0874 41.9717C13.932 41.9717 13.8056 42.0981 13.8056 42.2534V44.8248C13.8056 44.9801 13.932 45.1066 14.0874 45.1066H14.9205C15.0758 45.1066 15.2022 44.9801 15.2022 44.8248V42.2534C15.2022 42.0981 15.0758 41.9717 14.9205 41.9717H14.0874Z" fill="#F73F95"/>
<path d="M20.7175 43.993H18.5261C18.0947 43.993 17.7448 43.6431 17.7448 43.2117V41.1905C17.7448 40.7591 18.0947 40.4092 18.5261 40.4092C18.9575 40.4092 19.3073 40.7591 19.3073 41.1905V42.4305H20.7175C21.1489 42.4305 21.4987 42.7803 21.4987 43.2117C21.4987 43.6431 21.1489 43.993 20.7175 43.993Z" fill="#F73F95"/>
<path d="M20.967 46.5726C20.5356 46.5726 20.1858 46.2228 20.1858 45.7914V41.1905C20.1858 40.7591 20.5356 40.4092 20.967 40.4092C21.3984 40.4092 21.7483 40.7591 21.7483 41.1905V45.7914C21.7483 46.2228 21.3986 46.5726 20.967 46.5726Z" fill="#F73F95"/>
<path d="M25.5991 46.6689H24.766C23.7491 46.6689 22.9218 45.8416 22.9218 44.8247V42.2533C22.9218 41.2364 23.7491 40.4091 24.766 40.4091H25.5991C26.616 40.4091 27.4432 41.2364 27.4432 42.2533V44.8247C27.4433 45.8416 26.616 46.6689 25.5991 46.6689ZM24.7661 41.9717C24.6108 41.9717 24.4844 42.0981 24.4844 42.2534V44.8248C24.4844 44.9801 24.6108 45.1066 24.7661 45.1066H25.5993C25.7546 45.1066 25.8808 44.9801 25.8808 44.8248V42.2534C25.8808 42.0981 25.7544 41.9717 25.5993 41.9717H24.7661Z" fill="#F73F95"/>
<path d="M31.3961 43.993H29.2047C28.7732 43.993 28.4234 43.6431 28.4234 43.2117V41.1905C28.4234 40.7591 28.7732 40.4092 29.2047 40.4092C29.6361 40.4092 29.9859 40.7591 29.9859 41.1905V42.4305H31.3961C31.8275 42.4305 32.1773 42.7803 32.1773 43.2117C32.1773 43.6431 31.8276 43.993 31.3961 43.993Z" fill="#F73F95"/>
<path d="M31.6458 46.5726C31.2144 46.5726 30.8646 46.2228 30.8646 45.7914V41.1905C30.8646 40.7591 31.2144 40.4092 31.6458 40.4092C32.0772 40.4092 32.4271 40.7591 32.4271 41.1905V45.7914C32.4271 46.2228 32.0772 46.5726 31.6458 46.5726Z" fill="#F73F95"/>
<path d="M40.6686 43.993H38.4773C38.0459 43.993 37.6961 43.6431 37.6961 43.2117V41.1905C37.6961 40.7591 38.0459 40.4092 38.4773 40.4092C38.9087 40.4092 39.2586 40.7591 39.2586 41.1905V42.4305H40.6686C41.1001 42.4305 41.4498 42.7803 41.4498 43.2117C41.4498 43.6431 41.1001 43.993 40.6686 43.993Z" fill="#F73F95"/>
<path d="M40.9185 46.5726C40.4869 46.5726 40.1372 46.2228 40.1372 45.7914V41.1905C40.1372 40.7591 40.4869 40.4092 40.9185 40.4092C41.35 40.4092 41.6997 40.7591 41.6997 41.1905V45.7914C41.6997 46.2228 41.35 46.5726 40.9185 46.5726Z" fill="#F73F95"/>
<path d="M45.8417 43.993H43.6504C43.2189 43.993 42.8692 43.6431 42.8692 43.2117V41.1905C42.8692 40.7591 43.2189 40.4092 43.6504 40.4092C44.082 40.4092 44.4317 40.7591 44.4317 41.1905V42.4305H45.8417C46.2732 42.4305 46.6229 42.7803 46.6229 43.2117C46.6229 43.6431 46.2731 43.993 45.8417 43.993Z" fill="#F73F95"/>
<path d="M46.0912 46.5726C45.6597 46.5726 45.31 46.2228 45.31 45.7914V41.1905C45.31 40.7591 45.6597 40.4092 46.0912 40.4092C46.5228 40.4092 46.8725 40.7591 46.8725 41.1905V45.7914C46.8725 46.2228 46.5228 46.5726 46.0912 46.5726Z" fill="#F73F95"/>
<path d="M51.0147 43.993H48.8233C48.3917 43.993 48.042 43.6431 48.042 43.2117V41.1905C48.042 40.7591 48.3917 40.4092 48.8233 40.4092C49.2548 40.4092 49.6045 40.7591 49.6045 41.1905V42.4305H51.0147C51.4462 42.4305 51.7959 42.7803 51.7959 43.2117C51.7959 43.6431 51.4462 43.993 51.0147 43.993Z" fill="#F73F95"/>
<path d="M51.2643 46.5726C50.8328 46.5726 50.4831 46.2228 50.4831 45.7914V41.1905C50.4831 40.7591 50.8328 40.4092 51.2643 40.4092C51.6959 40.4092 52.0456 40.7591 52.0456 41.1905V45.7914C52.0456 46.2228 51.6957 46.5726 51.2643 46.5726Z" fill="#F73F95"/>
<path d="M56.1879 43.993H53.9965C53.5649 43.993 53.2152 43.6431 53.2152 43.2117V41.1905C53.2152 40.7591 53.5649 40.4092 53.9965 40.4092C54.428 40.4092 54.7777 40.7591 54.7777 41.1905V42.4305H56.1879C56.6194 42.4305 56.9691 42.7803 56.9691 43.2117C56.9691 43.6431 56.6193 43.993 56.1879 43.993Z" fill="#F73F95"/>
<path d="M56.4373 46.5726C56.0058 46.5726 55.6561 46.2228 55.6561 45.7914V41.1905C55.6561 40.7591 56.0058 40.4092 56.4373 40.4092C56.8689 40.4092 57.2186 40.7591 57.2186 41.1905V45.7914C57.2186 46.2228 56.8689 46.5726 56.4373 46.5726Z" fill="#F73F95"/>
<path d="M35.6627 8.28125H35.1549V7.77344C35.1549 7.34203 34.805 6.99219 34.3736 6.99219C33.9422 6.99219 33.5924 7.34203 33.5924 7.77344V8.28125H33.0846C32.6532 8.28125 32.3033 8.63109 32.3033 9.0625C32.3033 9.49391 32.6532 9.84375 33.0846 9.84375H33.5924V10.3516C33.5924 10.783 33.9422 11.1328 34.3736 11.1328C34.805 11.1328 35.1549 10.783 35.1549 10.3516V9.84375H35.6627C36.0941 9.84375 36.4439 9.49391 36.4439 9.0625C36.4439 8.63109 36.0941 8.28125 35.6627 8.28125Z" fill="#01ECA5"/>
<path d="M71.0998 70.1562H70.592V69.6484C70.592 69.217 70.2423 68.8672 69.8107 68.8672C69.3792 68.8672 69.0295 69.217 69.0295 69.6484V70.1562H68.5217C68.0901 70.1562 67.7404 70.5061 67.7404 70.9375C67.7404 71.3689 68.0901 71.7188 68.5217 71.7188H69.0295V72.2266C69.0295 72.658 69.3792 73.0078 69.8107 73.0078C70.2423 73.0078 70.592 72.658 70.592 72.2266V71.7188H71.0998C71.5314 71.7188 71.881 71.3689 71.881 70.9375C71.881 70.5061 71.5314 70.1562 71.0998 70.1562Z" fill="#01ECA5"/>
<path d="M33.2608 68.5531H32.753V68.0453C32.753 67.6139 32.4031 67.2641 31.9717 67.2641C31.5403 67.2641 31.1905 67.6139 31.1905 68.0453V68.5531H30.6826C30.2512 68.5531 29.9014 68.903 29.9014 69.3344C29.9014 69.7658 30.2512 70.1156 30.6826 70.1156H31.1905V70.6234C31.1905 71.0548 31.5403 71.4047 31.9717 71.4047C32.4031 71.4047 32.753 71.0548 32.753 70.6234V70.1156H33.2608C33.6922 70.1156 34.042 69.7658 34.042 69.3344C34.042 68.903 33.6922 68.5531 33.2608 68.5531Z" fill="#FF7EB8"/>
<path d="M38.7438 74.6602C38.5199 74.6602 38.2924 74.6269 38.0677 74.557C36.8664 74.1834 36.1928 72.902 36.5664 71.7008C36.7474 71.1188 37.1441 70.6422 37.6836 70.3586C38.2231 70.0752 38.8408 70.0184 39.4227 70.1995C40.0045 70.3805 40.4813 70.7772 40.7649 71.3167C41.0483 71.8563 41.1049 72.4739 40.9239 73.0559C40.6202 74.0325 39.7166 74.6602 38.7438 74.6602ZM38.7442 71.6588C38.6292 71.6588 38.5152 71.6867 38.4105 71.7417C38.2405 71.8311 38.1153 71.9814 38.0583 72.1649C37.9406 72.5434 38.1528 72.9473 38.5316 73.0652C38.91 73.1828 39.3139 72.9706 39.4319 72.5919C39.4889 72.4086 39.4711 72.2139 39.3817 72.0439C39.2924 71.8739 39.142 71.7488 38.9586 71.6917C38.8883 71.6697 38.8161 71.6588 38.7442 71.6588Z" fill="#FF7EB8"/>
<path d="M69.8094 15.2637C69.5855 15.2637 69.358 15.2305 69.1333 15.1606C67.9321 14.787 67.2587 13.5058 67.6321 12.3044C68.006 11.103 69.2865 10.4295 70.4885 10.8031C71.6898 11.1767 72.3632 12.458 71.9896 13.6594C71.6858 14.6359 70.7822 15.2637 69.8094 15.2637ZM69.8113 12.2625C69.5046 12.2625 69.2199 12.4603 69.1241 12.7683C69.0065 13.1469 69.2187 13.5508 69.5974 13.6686C69.9765 13.7866 70.3799 13.5739 70.4977 13.1953C70.6154 12.8166 70.4032 12.4128 70.0246 12.295C69.9537 12.273 69.8818 12.2625 69.8113 12.2625ZM71.2437 13.4273H71.2452H71.2437Z" fill="#8399FE"/>
</g>
<defs>
<linearGradient id="paint0_linear" x1="63.2144" y1="4.67156" x2="37.7976" y2="58.9425" gradientUnits="userSpaceOnUse">
<stop stop-color="#C7D3FF"/>
<stop offset="0.593" stop-color="#E7D8F5"/>
<stop offset="0.997" stop-color="#FFDBED"/>
</linearGradient>
<clipPath id="clip0">
<rect width="80" height="80" fill="white"/>
</clipPath>
</defs>
</svg>
