<svg width="80" height="80" viewBox="0 0 80 80" fill="none" xmlns="http://www.w3.org/2000/svg">
<g clip-path="url(#clip0)">
<path d="M73.6681 19.9327C63.4467 12.0744 53.5327 18.4787 42.4744 16.2144C31.3361 13.9337 26.8986 6.33927 14.2125 9.84474C2.97469 12.9499 -3.84406 25.3996 2.33375 35.8226C4.09422 38.7927 7.09328 41.0335 8.3189 44.3568C10.2959 49.7179 7.28656 53.8338 7.87359 59.1024C10.313 80.9933 43.7445 72.514 56.0459 65.7032C75.3381 55.0219 88.3894 31.2505 73.6681 19.9327Z" fill="url(#paint0_linear)"/>
<path d="M59.3104 20.7935C53.0397 20.7935 47.9562 25.8759 47.9562 32.1455C47.9562 35.4514 49.3698 38.4267 51.6254 40.5014V43.4946L54.3327 42.3509C55.8358 43.0851 57.5247 43.4977 59.3103 43.4977C65.581 43.4977 70.6645 38.4153 70.6645 32.1457C70.6645 25.8759 65.5811 20.7935 59.3104 20.7935Z" fill="#A6F5CF"/>
<path d="M59.3104 20.7935C58.4489 20.7935 57.6097 20.8895 56.803 21.0713C61.8674 22.2126 65.6498 26.7375 65.6498 32.1457C65.6498 37.5536 61.8676 42.0783 56.8035 43.2198C57.6099 43.4017 58.4489 43.4977 59.3103 43.4977C65.5811 43.4977 70.6644 38.4153 70.6644 32.1457C70.6646 25.8759 65.5812 20.7935 59.3104 20.7935Z" fill="#8AEDBD"/>
<path d="M9.16589 25.955C9.16589 16.5408 16.8631 8.90894 26.358 8.90894C35.853 8.90894 43.5502 16.5408 43.5502 25.955V43.3618H9.05544L9.16589 25.955Z" fill="#F1B279"/>
<path d="M26.3587 8.90894C25.507 8.90894 24.6698 8.97037 23.8513 9.08897C32.1578 10.2924 38.5361 17.3852 38.5361 25.955V43.3618H43.5508V25.955C43.5508 16.5408 35.8536 8.90894 26.3587 8.90894Z" fill="#ED9443"/>
<path d="M8.9089 61.5257V58.9071C8.9089 49.3517 16.7214 41.6055 26.3587 41.6055C35.996 41.6055 43.8085 49.3517 43.8085 58.9071V61.5257H8.9089Z" fill="#FFA8CF"/>
<path d="M20.0552 41.6055L14.4616 46.252L21.6793 51.1898L26.3795 45.8226L20.0552 41.6055Z" fill="#F4F4F4"/>
<path d="M32.7039 41.6055L38.2975 46.252L31.0797 51.1898L26.3795 45.8226L32.7039 41.6055Z" fill="#F4F4F4"/>
<path d="M15.1068 30.1714C14.6907 31.3742 14.4616 32.6632 14.4616 34.0059C14.4616 40.532 19.7974 45.8226 26.3794 45.8226C32.9615 45.8226 38.2973 40.5322 38.2973 34.0059C38.2973 32.6631 37.652 30.1714 37.652 30.1714C31.519 28.7418 29.3087 22.4158 29.3087 22.4158C25.8079 31.6756 15.1068 30.1714 15.1068 30.1714Z" fill="#FFDBD3"/>
<path d="M13.4217 36.6857H13.4009C12.0544 36.6857 10.9629 35.5943 10.9629 34.2478V31.1796C10.9629 29.8332 12.0544 28.7417 13.4009 28.7417H13.4217C14.7681 28.7417 15.8596 29.8332 15.8596 31.1796V34.2478C15.8595 35.5943 14.768 36.6857 13.4217 36.6857Z" fill="#7776D0"/>
<path d="M39.2045 36.6857H39.1837C37.8372 36.6857 36.7458 35.5943 36.7458 34.2478V31.1796C36.7458 29.8332 37.8372 28.7417 39.1837 28.7417H39.2045C40.551 28.7417 41.6424 29.8332 41.6424 31.1796V34.2478C41.6424 35.5943 40.551 36.6857 39.2045 36.6857Z" fill="#7776D0"/>
<path d="M26.6784 42.6193C27.9177 42.6193 28.9224 41.6232 28.9224 40.3944C28.9224 39.1656 27.9177 38.1694 26.6784 38.1694C25.4391 38.1694 24.4344 39.1656 24.4344 40.3944C24.4344 41.6232 25.4391 42.6193 26.6784 42.6193Z" fill="#7776D0"/>
<path d="M14.0942 57.5371H21.2914V61.1423H14.0942V57.5371Z" fill="#FFD54D"/>
<path d="M61.9557 71.0909H25.7931C24.7084 71.0909 23.8291 70.2116 23.8291 69.1269V67.5066H63.9197V69.1269C63.9197 70.2116 63.0404 71.0909 61.9557 71.0909Z" fill="#D4D9FF"/>
<path d="M65.2282 71.0909H38.5475C37.384 71.0909 36.5095 70.0291 36.7327 68.8871L40.1875 51.2073C40.4094 50.0721 41.4041 49.2529 42.5607 49.2529H69.2414C70.405 49.2529 71.2794 50.3148 71.0563 51.4568L67.6015 69.1366C67.3797 70.2718 66.3849 71.0909 65.2282 71.0909Z" fill="#D4D9FF"/>
<path d="M69.2413 49.2529H64.2265C65.3901 49.2529 66.2645 50.3148 66.0414 51.4568L62.5866 69.1366C62.3647 70.2718 61.37 71.0909 60.2133 71.0909H65.2281C66.3848 71.0909 67.3796 70.2718 67.6013 69.1366L71.0561 51.4568C71.2793 50.3148 70.4048 49.2529 69.2413 49.2529Z" fill="#C7CDFF"/>
<path d="M53.8942 63.1107C55.5171 63.1107 56.8328 61.795 56.8328 60.172C56.8328 58.5491 55.5171 57.2334 53.8942 57.2334C52.2712 57.2334 50.9555 58.5491 50.9555 60.172C50.9555 61.795 52.2712 63.1107 53.8942 63.1107Z" fill="white"/>
<path d="M50.6852 40.9043V43.4946C50.6852 45.3845 53.6389 43.6647 54.3137 43.3796C55.8884 44.0822 57.5671 44.4378 59.3103 44.4378C66.0894 44.4378 71.6047 38.9236 71.6047 32.1455C71.6047 25.3674 66.0894 19.853 59.3103 19.853C52.5312 19.853 47.016 25.3674 47.016 32.1455C47.016 35.4331 48.3484 38.6015 50.6852 40.9043ZM59.3105 21.7337C65.0527 21.7337 69.7243 26.4045 69.7243 32.1456C69.7243 37.8867 65.0526 42.5574 59.3105 42.5574C57.7095 42.5574 56.1737 42.2038 54.7456 41.506C54.4876 41.3864 54.2281 41.3792 53.967 41.4846L52.5657 42.0766V40.5015C52.5657 40.2385 52.4555 39.9875 52.2619 39.8095C50.1231 37.842 48.8965 35.0486 48.8965 32.1456C48.8965 26.4045 53.5682 21.7337 59.3105 21.7337Z" fill="#2626BC"/>
<path d="M56.3604 30.5138C56.8799 30.5138 57.3007 30.0929 57.3007 29.5735C57.3007 28.4796 58.2599 27.5476 59.3526 27.564C60.4002 27.5851 61.2635 28.4203 61.3178 29.4653C61.3768 30.6017 60.45 31.5836 59.3106 31.5836C58.7912 31.5836 58.3704 32.0044 58.3704 32.5238V35.6088C58.3704 36.1282 58.7912 36.5491 59.3106 36.5491C59.83 36.5491 60.2509 36.1282 60.2509 35.6088V33.3475C62.0355 32.9001 63.2912 31.207 63.1958 29.3679C63.0906 27.343 61.4191 25.7247 59.3904 25.684C57.2384 25.6386 55.4201 27.4236 55.4201 29.5735C55.4202 30.0929 55.841 30.5138 56.3604 30.5138Z" fill="#2626BC"/>
<path d="M59.3112 37.552C58.1011 37.552 58.0991 39.4325 59.3112 39.4325C60.5213 39.4325 60.5233 37.552 59.3112 37.552Z" fill="#2626BC"/>
<path d="M21.2914 56.5969H14.0942C13.5748 56.5969 13.1539 57.0178 13.1539 57.5372V61.1423C13.1539 61.6617 13.5748 62.0826 14.0942 62.0826H21.2914C21.8108 62.0826 22.2317 61.6617 22.2317 61.1423V57.5372C22.2317 57.0178 21.8108 56.5969 21.2914 56.5969ZM20.3511 60.2021H15.0345V58.4775H20.3511V60.2021Z" fill="#2626BC"/>
<path d="M71.3946 49.329C70.8628 48.6832 70.078 48.3128 69.2413 48.3128H42.5606C42.1786 48.3128 41.8088 48.3777 41.4631 48.4978C40.3368 46.8919 38.9554 45.4721 37.3815 44.3023H43.5506C44.07 44.3023 44.4909 43.8814 44.4909 43.362V25.9551C44.4909 16.0374 36.3566 7.96875 26.3584 7.96875C23.6215 7.96875 20.991 8.55874 18.54 9.72229C17.4418 10.2437 18.2482 11.9425 19.3467 11.4212C21.5435 10.3782 23.9026 9.84929 26.3584 9.84929C35.3197 9.84929 42.6103 17.0743 42.6103 25.9551V42.4218H36.0412C37.3773 40.9104 38.371 39.1098 38.7448 37.5976C38.8979 37.6121 39.0516 37.6216 39.2054 37.6261C41.0682 37.6261 42.5836 36.1107 42.5836 34.2481V31.1798C42.5836 29.6395 41.5473 28.3366 40.1353 27.9318V26.3183C40.1353 18.7518 33.9304 12.5959 26.3034 12.5959C18.6764 12.5959 12.4714 18.7516 12.4714 26.3182V27.9317C11.2487 28.2822 10.3076 29.3062 10.0773 30.5746L10.1067 25.9551C10.1067 21.4144 12.0562 17.0612 15.4553 14.0116C16.3602 13.1995 15.1045 11.8 14.1994 12.6117C10.4032 16.0175 8.22601 20.8809 8.22601 25.9491V43.356C8.27691 43.9322 8.48001 44.2477 9.05583 44.3023H15.3362C10.7487 47.712 7.96875 53.1875 7.96875 58.9071V61.5258C7.96875 62.7415 9.84929 62.7415 9.84929 61.5258V58.9071C9.84929 54.646 11.5684 50.4908 14.5614 47.4597L21.1483 51.9659C21.5809 52.2283 21.9936 52.1761 22.3866 51.8093L25.439 48.3238V61.5257C25.439 62.7414 27.3195 62.7414 27.3195 61.5257V48.3238L30.372 51.8094C30.765 52.1763 31.1778 52.2284 31.6103 51.966L38.1729 47.4765C38.8139 48.1276 39.4017 48.8328 39.9294 49.5863C39.6036 49.9963 39.3703 50.4863 39.2646 51.0273L36.228 66.5664H23.8292C23.3098 66.5664 22.889 66.9873 22.889 67.5067V69.127C22.889 70.7283 24.1919 72.0313 25.7933 72.0313H65.2281C66.8306 72.0313 68.2168 70.8898 68.5241 69.317L69.0669 66.5396C69.3002 65.3467 67.4545 64.9853 67.2213 66.1789L66.6785 68.9563C66.5432 69.6485 65.9333 70.1507 65.2281 70.1507H38.5474C37.9797 70.1507 37.5465 69.6247 37.6553 69.0675L41.1102 51.3878C41.2454 50.6957 41.8555 50.1933 42.5607 50.1933H69.2413C69.809 50.1933 70.2422 50.7195 70.1334 51.2766L68.1812 61.2671C67.9479 62.4601 69.7935 62.8211 70.0267 61.6277L71.979 51.6373C72.1395 50.8163 71.9265 49.9749 71.3946 49.329ZM26.3792 44.8824C26.3774 44.8824 26.3756 44.8824 26.3737 44.8824C21.358 44.8799 16.9684 41.4703 15.7412 36.7019C16.3928 36.0857 16.8 35.2135 16.8 34.2479V31.2013C19.8246 31.1929 26.0741 30.4217 29.3168 24.6282C30.3679 26.4932 32.4172 29.2418 35.8569 30.5948C35.8236 30.7849 35.8062 30.9803 35.8062 31.1798V34.2481C35.8062 35.2728 36.2649 36.1925 36.9879 36.8126C36.9858 36.8206 36.9836 36.8287 36.9814 36.8367C35.7165 38.5406 33.7018 39.5671 31.5264 39.5671H29.7524C29.3855 38.2218 28.1463 37.2293 26.6785 37.2293C24.9227 37.2293 23.4944 38.6493 23.4944 40.3945C23.4944 42.1398 24.9228 43.5597 26.6785 43.5597C28.063 43.5597 29.2441 42.6768 29.6816 41.4476H31.5264C32.7496 41.4476 33.9333 41.1929 35.0129 40.7218C32.9474 43.3291 29.7088 44.8824 26.3792 44.8824ZM26.6788 41.6791C25.96 41.6791 25.3752 41.1028 25.3752 40.3944C25.3752 39.6861 25.96 39.1098 26.6788 39.1098C27.3976 39.1098 27.9825 39.6861 27.9825 40.3944C27.9825 41.1028 27.3976 41.6791 26.6788 41.6791ZM40.703 31.1798V34.2481C40.703 35.0739 40.0311 35.7456 39.2053 35.7456C38.4127 35.7141 37.6869 35.115 37.6869 34.2481V31.1798C37.6869 30.354 38.3587 29.6822 39.1845 29.6822H39.2053C40.0311 29.6821 40.703 30.354 40.703 31.1798ZM26.3033 14.4763C32.8932 14.4763 38.2546 19.7886 38.2546 26.3182V27.9317C37.6469 28.106 37.109 28.4465 36.6931 28.9006C32.0269 27.144 30.2143 22.1563 30.1962 22.1057C29.9155 21.3019 28.7323 21.2815 28.429 22.0832C27.2715 25.1451 25.1391 27.2745 22.0911 28.4124C19.7962 29.269 17.5447 29.3579 16.236 29.3126C15.7967 28.6526 15.1315 28.1552 14.3518 27.9316V26.3181C14.3519 19.7886 19.7132 14.4763 26.3033 14.4763ZM11.9035 31.1798C11.9035 30.354 12.5753 29.6822 13.4011 29.6822H13.4219C14.2478 29.6822 14.9195 30.354 14.9195 31.1798V34.2481C14.9195 35.0739 14.2478 35.7456 13.4219 35.7456H13.4011C12.5753 35.7456 11.9035 35.0739 11.9035 34.2481V31.1798ZM10.0513 34.6855C10.2665 36.3422 11.6867 37.626 13.4013 37.626H13.4221C13.6297 37.626 13.833 37.6071 14.0304 37.5711C14.5658 39.3985 15.5001 41.0445 16.7249 42.4216H10.0513V34.6855ZM21.5216 49.9428L15.9995 46.1651C16.8796 45.4616 17.8332 44.8473 18.8473 44.3332C20.4781 45.5044 22.3872 46.3028 24.4351 46.6155L21.5216 49.9428ZM31.2371 49.9428L28.3235 46.6156C30.3326 46.3096 32.2519 45.5338 33.9047 44.3506C34.9133 44.8648 35.8616 45.4784 36.7371 46.1801L31.2371 49.9428ZM25.7933 70.1507C25.2287 70.1507 24.7695 69.6915 24.7695 69.127V68.447H35.8606C35.7169 69.004 35.7204 69.6036 35.9092 70.1507H25.7933Z" fill="#2626BC"/>
<path d="M50.0153 60.172C50.0153 62.311 51.7553 64.0508 53.8941 64.0508C56.0329 64.0508 57.7729 62.3108 57.7729 60.172C57.7729 58.0332 56.0329 56.2932 53.8941 56.2932C51.7553 56.2932 50.0153 58.0331 50.0153 60.172ZM55.8924 60.172C55.8924 61.2739 54.9961 62.1703 53.8942 62.1703C52.7923 62.1703 51.8959 61.2739 51.8959 60.172C51.8959 59.0701 52.7923 58.1738 53.8942 58.1738C54.9961 58.1738 55.8924 59.07 55.8924 60.172Z" fill="#2626BC"/>
</g>
<defs>
<linearGradient id="paint0_linear" x1="59.0372" y1="79.5585" x2="34.4291" y2="23.5457" gradientUnits="userSpaceOnUse">
<stop offset="0.0112" stop-color="#DCFDEE"/>
<stop offset="0.3814" stop-color="#E8F1EE"/>
<stop offset="1" stop-color="#FFDBED"/>
</linearGradient>
<clipPath id="clip0">
<rect width="80" height="80" fill="white"/>
</clipPath>
</defs>
</svg>
