<svg width="298" height="264" viewBox="0 0 298 264" fill="none" xmlns="http://www.w3.org/2000/svg">
<g clip-path="url(#clip0)">
<g opacity="0.4">
<g opacity="0.4">
<path opacity="0.4" d="M206.667 17.7721L201.607 10.5493C200.2 8.53688 197.486 7.95795 195.352 9.18013C188.691 12.9753 182.785 17.763 177.725 23.4695C176.106 25.2982 176.106 28.055 177.762 29.8469L183.834 36.3897C185.251 37.9151 185.508 40.1941 184.423 41.9768C182.574 45.0093 181.028 48.2072 179.814 51.5245C179.17 53.2797 177.486 54.4375 175.61 54.511L165.407 54.9062C163.144 54.9889 161.277 56.6797 160.918 58.9127C159.676 66.6226 159.74 74.5438 161.084 82.2168C161.498 84.5417 163.549 86.2234 165.913 86.1407L175.334 85.8191C177.33 85.7547 179.179 86.931 179.869 88.7964C180.485 90.4597 181.203 92.1137 182.003 93.7494C182.758 95.284 183.576 96.7543 184.45 98.1787C185.462 99.8236 185.306 101.928 184.128 103.453L178.112 111.2C176.695 113.029 176.815 115.602 178.379 117.302C183.632 123.036 189.869 127.915 196.722 131.637C198.774 132.749 201.341 132.225 202.767 130.36L208.608 122.714C209.804 121.143 211.865 120.481 213.742 121.088C217.32 122.236 221.018 123.017 224.772 123.413C226.897 123.633 228.599 125.26 228.921 127.364L230.246 135.974C230.623 138.419 232.831 140.146 235.296 139.963C243.033 139.411 250.558 137.582 257.761 134.504C259.804 133.631 261.018 131.499 260.632 129.312L258.782 118.873C258.47 117.1 259.169 115.262 260.659 114.242C263.511 112.284 266.133 110.079 268.506 107.68C269.978 106.192 272.26 105.879 274.09 106.89L281.873 111.182C284.008 112.358 286.694 111.715 288.065 109.702C292.416 103.343 295.737 96.2306 297.807 88.7964C298.423 86.6001 297.402 84.2661 295.351 83.2552L286.353 78.826C284.652 77.9898 283.584 76.207 283.741 74.3232C284.017 70.8772 283.962 67.3761 283.566 63.8933C283.336 61.8809 284.468 59.9603 286.317 59.1425L294.762 55.3657C296.942 54.3916 298.046 51.9472 297.347 49.6591C296.243 46.0293 294.835 42.4822 293.152 39.073C291.441 35.5994 289.435 32.2637 287.191 29.121C285.792 27.1728 283.152 26.5663 281.045 27.7242L273.023 32.1442C271.229 33.1367 268.994 32.8518 267.513 31.4367C264.762 28.7901 261.763 26.4652 258.562 24.4803C256.805 23.396 255.986 21.2825 256.519 19.2884L258.893 10.4942C259.518 8.1693 258.295 5.75251 256.05 4.86115C248.921 2.04922 241.313 0.39514 233.668 0.00918837C231.276 -0.110273 229.16 1.56218 228.746 3.92384L227.173 12.9845C226.823 14.997 225.213 16.5683 223.18 16.8256C219.445 17.3127 215.72 18.204 212.058 19.5089C210.099 20.2165 207.882 19.4997 206.667 17.7721ZM242.49 36.2519C283.446 57.1116 264.523 112.679 219.326 104.271C218.838 104.179 218.351 104.014 217.909 103.793C176.98 82.9244 195.895 27.3842 241.073 35.774C241.561 35.8659 242.049 36.0313 242.49 36.2519Z" fill="#FEF5F4"/>
<path opacity="0.4" d="M98.4717 83.1449L94.3963 77.3281C93.2647 75.7108 91.0752 75.2421 89.3549 76.2254C83.9824 79.2854 79.2263 83.1358 75.1509 87.7396C73.8446 89.2099 73.8446 91.4337 75.1877 92.8856L80.0818 98.1603C81.2226 99.3917 81.4342 101.23 80.5602 102.663C79.0699 105.107 77.8279 107.68 76.8436 110.355C76.3284 111.77 74.9669 112.698 73.4582 112.762L65.2338 113.075C63.4123 113.148 61.9036 114.508 61.6092 116.309C60.6064 122.521 60.6616 128.908 61.7472 135.083C62.0784 136.958 63.7343 138.308 65.6386 138.244L73.2282 137.987C74.8381 137.932 76.3284 138.887 76.8804 140.385C77.3772 141.727 77.9475 143.059 78.6007 144.373C79.2079 145.605 79.8702 146.799 80.5786 147.948C81.3974 149.271 81.2686 150.971 80.3118 152.203L75.4637 158.451C74.3229 159.922 74.4241 161.998 75.6753 163.368C79.907 167.99 84.93 171.923 90.4589 174.919C92.1148 175.819 94.1847 175.387 95.3254 173.889L100.036 167.723C101.002 166.455 102.657 165.922 104.175 166.409C107.055 167.337 110.035 167.972 113.062 168.284C114.773 168.459 116.144 169.773 116.402 171.463L117.469 178.401C117.772 180.368 119.548 181.756 121.544 181.618C127.781 181.177 133.844 179.706 139.649 177.216C141.295 176.508 142.28 174.799 141.967 173.035L140.477 164.617C140.219 163.184 140.789 161.704 141.995 160.887C144.294 159.306 146.41 157.532 148.315 155.594C149.501 154.39 151.341 154.142 152.822 154.959L159.096 158.415C160.817 159.361 162.979 158.847 164.092 157.229C167.597 152.102 170.274 146.377 171.948 140.385C172.445 138.612 171.617 136.737 169.97 135.919L162.721 132.354C161.35 131.683 160.495 130.249 160.614 128.724C160.844 125.94 160.798 123.128 160.476 120.316C160.292 118.698 161.203 117.145 162.694 116.484L169.501 113.442C171.258 112.661 172.151 110.685 171.589 108.847C170.697 105.925 169.566 103.067 168.213 100.311C166.833 97.5079 165.223 94.8246 163.411 92.2883C162.28 90.7169 160.154 90.2299 158.462 91.158L151.994 94.7235C150.55 95.523 148.747 95.2932 147.56 94.1537C145.343 92.0218 142.924 90.1472 140.348 88.5483C138.931 87.6753 138.269 85.9661 138.701 84.3579L140.615 77.273C141.121 75.3983 140.127 73.4502 138.324 72.7334C132.574 70.4637 126.447 69.1312 120.284 68.8188C118.352 68.7177 116.65 70.0685 116.319 71.9707L115.049 79.2671C114.764 80.8936 113.467 82.1525 111.829 82.3638C108.821 82.759 105.813 83.4758 102.869 84.5325C101.232 85.1206 99.4468 84.5417 98.4717 83.1449ZM127.34 98.0408C160.348 114.848 145.095 159.637 108.674 152.855C108.288 152.782 107.892 152.644 107.533 152.469C74.5529 135.653 89.7965 90.8915 126.199 97.6549C126.585 97.7284 126.981 97.857 127.34 98.0408Z" fill="#FEF5F4"/>
</g>
</g>
<path d="M160.228 16.6878C160.228 14.8224 158.71 13.3062 156.843 13.3062C154.975 13.3062 153.457 14.8224 153.457 16.6878C153.457 18.5533 154.975 20.0695 156.843 20.0695C158.719 20.0695 160.228 18.5533 160.228 16.6878Z" stroke="#39194B" stroke-width="1.1068" stroke-miterlimit="10"/>
<path d="M139.915 142.508C142.161 142.508 143.982 140.69 143.982 138.446C143.982 136.203 142.161 134.385 139.915 134.385C137.67 134.385 135.849 136.203 135.849 138.446C135.849 140.69 137.67 142.508 139.915 142.508Z" fill="#FD769C"/>
<path d="M264.514 20.0695C266.759 20.0695 268.58 18.251 268.58 16.0078C268.58 13.7646 266.759 11.9462 264.514 11.9462C262.268 11.9462 260.448 13.7646 260.448 16.0078C260.448 18.251 262.268 20.0695 264.514 20.0695Z" fill="#FD769C"/>
<path d="M260.448 22.7803C262.693 22.7803 264.514 20.9619 264.514 18.7187C264.514 16.4755 262.693 14.657 260.448 14.657C258.202 14.657 256.381 16.4755 256.381 18.7187C256.381 20.9619 258.202 22.7803 260.448 22.7803Z" stroke="#39194B" stroke-width="1.1068" stroke-miterlimit="10"/>
<path d="M21.4165 160.767C23.6622 160.767 25.4827 158.949 25.4827 156.705C25.4827 154.462 23.6622 152.644 21.4165 152.644C19.1708 152.644 17.3503 154.462 17.3503 156.705C17.3503 158.949 19.1708 160.767 21.4165 160.767Z" fill="#FD769C"/>
<path d="M21.4165 154.004C21.4165 152.138 19.8986 150.622 18.0311 150.622C16.1636 150.622 14.6456 152.138 14.6456 154.004C14.6456 155.869 16.1636 157.386 18.0311 157.386C19.8986 157.386 21.4165 155.869 21.4165 154.004Z" stroke="#39194B" stroke-width="1.1068" stroke-miterlimit="10"/>
<path d="M256.722 30.0306H242.315V44.4211H256.722V30.0306Z" fill="#FEF2FB"/>
<path d="M256.722 53.3623H242.315V67.7528H256.722V53.3623Z" fill="#FEF2FB"/>
<path d="M256.722 78.394H242.315V92.7845H256.722V78.394Z" fill="#FEF2FB"/>
<path d="M251.984 74.314H237.578V88.7045H251.984V74.314Z" stroke="#39194B" stroke-width="1.1068" stroke-miterlimit="10"/>
<path d="M251.984 26.0057H237.578V40.3962H251.984V26.0057Z" stroke="#39194B" stroke-width="1.1068" stroke-miterlimit="10"/>
<path d="M251.984 49.6499H237.578V64.0404H251.984V49.6499Z" stroke="#39194B" stroke-width="1.1068" stroke-miterlimit="10"/>
<path d="M240.411 55.724L245.167 60.4841L257.264 48.4001" stroke="#766AD9" stroke-width="2.523" stroke-miterlimit="10"/>
<path d="M253.336 217.925H198.489V222.997H253.336V217.925Z" fill="#39194B"/>
<path d="M245.213 222.997L263.953 262.226" stroke="#39194B" stroke-width="1.1068" stroke-miterlimit="10"/>
<path d="M251.312 236.469L193.641 234.943" stroke="#39194B" stroke-width="1.1068" stroke-miterlimit="10"/>
<path d="M259.886 253.147L193.641 251.631" stroke="#39194B" stroke-width="1.1068" stroke-miterlimit="10"/>
<path d="M77.7267 183.933C84.6172 183.933 90.8084 186.837 95.2058 191.46V153.829H203.696V262.199H168.259C171.571 258.073 173.567 252.844 173.567 247.147C173.567 233.85 162.776 223.062 149.455 223.062C136.144 223.062 125.343 233.841 125.343 247.147C125.343 252.844 127.34 258.073 130.652 262.199H95.2058V224.569C90.8084 229.2 84.6172 232.095 77.7267 232.095C64.415 232.095 53.6148 221.316 53.6148 208.009C53.6148 194.713 64.415 183.933 77.7267 183.933Z" fill="#39194B"/>
<path d="M244.505 198.085L239.583 201.301L241.782 204.352C242.665 202.248 243.566 200.153 244.505 198.085Z" fill="#39194B"/>
<path d="M250.503 209.645L252.398 210.371L255.13 200.631L254.707 200.162C253.217 203.277 251.837 206.447 250.503 209.645Z" fill="#39194B"/>
<path d="M242.849 206.098C242.849 206.098 247.062 217.373 248.267 216.85L275.682 202.551C275.682 202.551 271.174 198.655 265.434 200.566C256.768 203.442 255.471 199.417 255.471 199.417L251.791 209.268L242.849 206.098Z" fill="#FEF2FB"/>
<path d="M210.329 157.11C211.699 156.889 238.783 201.687 238.783 201.687C238.783 201.687 251.607 193.564 251.653 193.399C251.653 193.399 241.699 154.555 228.626 134.045C226.253 130.323 220.954 129.533 218.921 129.533C203.383 129.533 193.411 134.89 184.276 136.076L189.519 152.818" fill="#7667DA"/>
<path d="M191.212 144.53C221.175 140.643 221.773 146.368 224.56 152.818L247.412 196.275" stroke="white" stroke-width="0.2841" stroke-miterlimit="10"/>
<path d="M217.9 205.924L217.283 197.947L205.204 199.041L204.818 206.254L210.908 213.238L217.9 205.924Z" fill="#FFAA06"/>
<path d="M255.139 200.63L249.73 194.667L239.583 201.301L243.741 207.072L252.407 210.362L255.139 200.63Z" fill="#FFAA06"/>
<path d="M217.9 205.924L217.283 197.947L205.204 199.041L204.818 206.254L210.908 213.238L217.9 205.924Z" fill="#FFAA06"/>
<path d="M244.505 198.085L239.583 201.301L241.782 204.352C242.665 202.248 243.566 200.153 244.505 198.085Z" fill="#39194B"/>
<path d="M250.503 209.645L252.398 210.371L255.13 200.631L254.707 200.162C253.217 203.277 251.837 206.447 250.503 209.645Z" fill="#39194B"/>
<path d="M244.505 198.085L239.583 201.301L241.782 204.352C242.665 202.248 243.566 200.153 244.505 198.085Z" fill="#39194B"/>
<path d="M250.503 209.645L252.398 210.371L255.13 200.631L254.707 200.162C253.217 203.277 251.837 206.447 250.503 209.645Z" fill="#39194B"/>
<path d="M209.188 203.626C211.745 201.66 213.889 199.592 216.308 198.039L205.195 199.041L204.809 206.254L205.195 206.705C206.529 205.675 207.863 204.646 209.188 203.626Z" fill="#39194B"/>
<path d="M204.487 204.977C204.487 204.977 202.895 216.905 204.202 217.015L235.13 217.263C235.13 217.263 232.987 211.713 227.026 210.693C218.029 209.158 218.765 205.005 218.765 205.005L210.881 211.97L204.487 204.977Z" fill="#FEF2FB"/>
<path d="M154.552 132.924C154.552 145.053 164.303 154.877 176.318 154.877H200.025C201.405 154.877 202.417 156.2 202.058 157.551L203.981 201.458C203.907 201.724 204.11 201.99 204.386 201.99H212.628C212.794 201.99 217.633 202.349 217.697 202.202L224.119 146.055C226.575 140.496 219.068 131.113 213.033 130.994L154.552 132.924Z" fill="#8B7EED"/>
<path d="M168.314 133.558C168.314 133.558 166.171 146.827 178.599 146.395C185.508 146.156 196.649 146.312 205.186 146.505C211.249 146.643 215.554 152.469 213.889 158.295L210.779 201.65" stroke="white" stroke-width="0.2841" stroke-miterlimit="10"/>
<path d="M236.74 86.6644L243.226 76.6389L238.185 71.3642C238.185 71.3642 240.521 64.7387 240.273 63.636C239.739 61.2284 228.212 80.5535 228.212 80.5535L219.813 88.8882L229.878 98.6657L236.74 86.6644Z" fill="#FFAA06"/>
<path d="M232.886 73.5604C233.613 73.9096 234.33 74.268 235.057 74.6172C235.425 74.7918 236.74 75.2237 236.096 75.8026C235.857 76.0232 235.489 76.0691 235.177 76.1334C234.763 76.2162 234.349 76.2805 233.935 76.3264C233.143 76.4091 232.352 76.4091 231.552 76.3448C231.193 76.3172 231.202 76.8686 231.552 76.8962C232.499 76.9697 233.456 76.9421 234.404 76.8226C234.855 76.7583 235.305 76.694 235.738 76.5745C236.106 76.4735 236.464 76.2989 236.667 75.968C236.86 75.6648 236.878 75.2697 236.667 74.9664C236.455 74.654 236.078 74.5069 235.756 74.3507C234.891 73.928 234.027 73.5053 233.153 73.0826C232.849 72.9264 232.564 73.4042 232.886 73.5604Z" fill="#39194B"/>
<path d="M237.789 71.4377C237.108 72.3382 236.52 73.2939 236.023 74.3047C235.958 74.4426 235.986 74.608 236.124 74.6815C236.244 74.755 236.437 74.7183 236.501 74.5804C236.998 73.5696 237.587 72.6047 238.268 71.7133C238.36 71.5939 238.286 71.4009 238.166 71.3366C238.028 71.2539 237.881 71.3182 237.789 71.4377Z" fill="#39194B"/>
<path d="M235.406 76.3447C235.287 76.8869 235.701 77.3739 236.225 77.4842C236.832 77.6036 237.375 77.1993 237.789 76.8042C238.691 75.9496 239.427 74.9204 239.96 73.8085C240.117 73.4868 239.638 73.2111 239.482 73.5328C239.059 74.4241 238.507 75.2512 237.835 75.9771C237.532 76.308 237.191 76.7031 236.759 76.8869C236.566 76.9696 236.363 76.988 236.17 76.8961C236.032 76.8226 235.894 76.6755 235.931 76.5101C236.023 76.1425 235.489 75.9955 235.406 76.3447Z" fill="#39194B"/>
<path d="M236.575 77.328C236.63 77.7048 236.731 78.0723 236.869 78.4215C236.989 78.7156 237.136 79.0464 237.357 79.2853C237.872 79.8183 238.608 79.3772 239.077 79.0005C239.592 78.5778 239.979 78.008 240.356 77.4659C240.834 76.795 241.303 76.1242 241.782 75.4534C241.984 75.1593 241.506 74.8837 241.303 75.1777C240.917 75.7291 240.531 76.2712 240.144 76.8226C239.795 77.3096 239.473 77.8242 239.059 78.2561C238.829 78.5043 238.056 79.2762 237.725 78.8718C237.357 78.4215 237.182 77.7507 237.099 77.181C237.053 76.8226 236.52 76.9788 236.575 77.328Z" fill="#39194B"/>
<path d="M238.636 78.9086C238.737 79.5242 239.243 80.1491 239.868 80.287C240.181 80.3513 240.475 80.094 240.687 79.901C241.377 79.2669 241.947 78.4858 242.509 77.7415C242.637 77.5669 242.766 77.3923 242.904 77.2177C242.95 77.1534 242.996 77.0891 243.051 77.0247C243.07 76.9972 243.088 76.9696 243.107 76.942C243.153 76.8777 243.079 76.9788 243.116 76.9237C243.208 76.8042 243.226 76.648 243.116 76.5285C243.024 76.4274 242.812 76.4091 242.72 76.5285C242.297 77.0615 241.911 77.6221 241.487 78.1458C241.211 78.4858 240.935 78.8258 240.641 79.1475C240.521 79.2761 240.393 79.4048 240.255 79.5242C240.144 79.6161 240.107 79.6529 239.979 79.7264C239.933 79.7448 240.025 79.708 239.96 79.7356C239.896 79.7632 239.997 79.7356 239.988 79.7356C240.006 79.7264 240.025 79.754 239.969 79.7264C239.933 79.708 239.887 79.6988 239.85 79.6805C239.785 79.6529 239.712 79.6069 239.657 79.5702C239.381 79.3772 239.215 79.0831 239.169 78.7523C239.142 78.6053 238.958 78.5226 238.829 78.5594C238.672 78.6053 238.617 78.7615 238.636 78.9086Z" fill="#39194B"/>
<path d="M197.56 131.922C197.56 131.922 189.501 76.455 187.449 72.9998C187.449 72.9998 192.215 70.4819 198.572 83.8248C204.928 97.1769 205.821 101.036 205.821 101.036L219.813 86.6919L231.239 98.6472L206.603 126.739C205.591 127.888 204.22 128.65 202.711 128.908L198.388 129.643" fill="#FEF2FB"/>
<path d="M225.591 92.7477L219.813 86.7012L216.879 89.7153C219.823 90.5974 222.73 91.6267 225.591 92.7477Z" fill="#39194B"/>
<path d="M166.107 69.4436C166.107 69.4436 151.139 74.2129 149.244 88.8698C147.358 103.536 155.959 141.148 155.959 141.148C155.959 141.148 165.113 137.27 168.885 136.232C174.469 134.697 178.645 134.614 182.62 134.55L199.16 131.325L193.263 84.5417C192.39 80.8016 191.93 75.4259 188.517 73.2756L182.758 69.7928L171.359 66.8706L166.107 69.4436Z" fill="#FEF2FB"/>
<path d="M199.602 131.416C195.26 122.742 160.311 76.9237 160.909 73.1653C156.337 75.7934 150.449 79.5059 149.244 88.8698C147.358 103.536 155.959 141.148 155.959 141.148C155.959 141.148 165.113 137.27 168.885 136.232C174.469 134.697 178.645 134.614 182.62 134.55L193.742 132.684C194.183 132.262 199.814 131.848 199.602 131.416Z" fill="#39194B"/>
<path d="M203.3 111.907L209.547 90.5882C209.832 89.6141 210.531 88.8239 211.469 88.4195L223.99 83.007C225.545 82.327 226.731 83.926 226.179 85.5341L220.586 103.04C220.218 104.207 219.399 105.153 218.332 105.677L204.892 112.431C204.478 112.624 203.162 112.358 203.3 111.907Z" fill="#FEF2FB"/>
<path d="M204.496 112.67L210.991 90.5423C211.212 89.7979 211.755 89.1914 212.463 88.879L225.02 83.5676C225.959 83.1724 226.704 84.22 226.428 85.2033L220.586 103.38C220.145 104.611 219.832 105.19 218.673 105.778C214.597 107.846 204.386 113.029 204.496 112.67Z" fill="#FD769C"/>
<path d="M223.328 87.3903C223.19 87.6843 223.236 87.9968 223.438 88.0978C223.64 88.1897 223.916 88.0335 224.054 87.7395C224.192 87.4454 224.137 87.133 223.944 87.0319C223.742 86.94 223.466 87.0962 223.328 87.3903Z" fill="#212661"/>
<path d="M223.18 87.3168C222.987 87.7303 223.061 88.1806 223.346 88.3092C223.631 88.4471 224.027 88.2173 224.22 87.8038C224.413 87.3903 224.339 86.94 224.054 86.8114C223.769 86.6827 223.374 86.9033 223.18 87.3168Z" stroke="#212661" stroke-width="0.0662" stroke-miterlimit="10"/>
<path d="M210.099 91.5899L210.062 91.5623C209.887 91.4153 209.611 91.498 209.547 91.7185L208.774 94.4202C208.737 94.5397 208.783 94.6775 208.875 94.751C209.05 94.8981 209.317 94.8154 209.381 94.5948L210.191 91.9207C210.237 91.8012 210.2 91.6726 210.099 91.5899Z" stroke="#3A6C8A" stroke-width="0.1324" stroke-miterlimit="10"/>
<path d="M208.976 95.431L208.939 95.4034C208.765 95.2564 208.489 95.3391 208.424 95.5596L207.652 98.2613C207.615 98.3807 207.661 98.5186 207.753 98.5921C207.928 98.7391 208.194 98.6564 208.259 98.4359L209.068 95.7618C209.114 95.6423 209.077 95.5137 208.976 95.431Z" stroke="#3A6C8A" stroke-width="0.1324" stroke-miterlimit="10"/>
<path d="M207.21 98.3348L207.974 104.06L205.425 103.628L207.21 98.3348Z" fill="#03182B"/>
<path d="M193.411 129.652C206.005 117.063 215.747 107.147 217.21 105.778C218.047 104.997 220.328 102.378 220.135 101.946C219.703 100.945 215.057 106.109 215.177 105.769C215.296 105.429 221.156 100.09 220.825 99.2721C220.328 98.0499 213.889 104.124 213.778 104.216C212.067 105.686 220.154 98.6472 220.006 97.7191C219.859 96.791 215.959 99.7316 215.821 99.8327C215.821 99.8327 212.619 102.562 212.38 102.36C212.141 102.158 217.596 94.4293 216.63 94.2823C215.664 94.1353 211.994 98.6656 210.89 99.7591C209.786 100.862 205.342 104.501 205.637 103.609L207.891 97.1678C207.891 97.1678 203.217 101.726 202.408 104.225C201.985 105.539 201.727 107.202 201.727 107.202L182.886 121.235" fill="#FFAA06"/>
<path d="M169.805 81.9319C169.805 81.9319 165.269 68.8831 156.907 74.5069C148.131 80.4157 148.388 103.775 166.677 131.701C170.826 138.042 179.639 138.887 188.811 133.741L203.567 123.449L194.763 110.713L186.161 116.842L169.805 81.9319Z" fill="#FEF2FB"/>
<path d="M200.807 119.452L194.763 110.713L190.228 113.948C193.751 115.785 197.284 117.614 200.807 119.452Z" fill="#39194B"/>
<path d="M173.126 55.9629L170.936 66.3284L174.929 70.8588C181.139 77.5486 182.003 73.1193 183.162 72.5588L182.362 60.4013L176.576 58.0948L173.126 55.9629Z" fill="#FFAA06"/>
<path d="M176.585 58.0856L182.371 61.2835C182.371 61.2835 182.997 66.8706 181.304 67.0543C179.887 67.2014 175.03 62.6802 175.527 59.2434" fill="#38194B"/>
<path d="M173.42 57.3597C173.42 57.3597 172.638 53.0591 173.622 54.2629L176.217 44.6233C176.217 44.6233 177.845 46.4887 179.437 47.5823C181.028 48.6758 184.754 48.0601 185.738 47.6282C186.723 47.1963 186.318 42.7119 186.318 42.7119C186.318 42.7119 191.451 39.6887 190.798 38.4205C190.145 37.1524 189.243 37.4373 189.243 37.4373C189.243 37.4373 192.758 35.3972 191.129 34.368C190.706 28.9831 170.899 38.0897 170.044 43.1714C170.044 43.1714 170.476 52.8845 172.169 53.9872" fill="#38194B"/>
<path d="M186.29 42.5557C188.231 57.1115 187.689 61.4305 186.327 62.5608C184.368 64.1873 180.807 63.2041 179.078 62.5424C176.235 61.4673 174.23 58.4532 173.604 57.5526C173.301 57.1115 169.713 57.8467 170.2 54.4466C170.559 51.938 171.893 52.7374 172.574 53.3347C172.767 53.5093 173.08 53.4266 173.163 53.1785C173.669 51.699 175.297 46.1027 175.83 44.3108C176.06 43.5297 179.473 43.6584 179.814 43.6032C182.758 43.1713 185.398 43.254 186.152 42.6567L186.29 42.5557Z" fill="#FFAA06"/>
<path d="M170.725 54.1802L172.693 55.5035C172.693 55.4943 171.838 52.1402 170.725 54.1802Z" fill="#FF7FA2"/>
<path d="M184.294 51.7084C184.312 52.1127 184.165 52.4527 183.963 52.4619C183.76 52.4711 183.576 52.1494 183.558 51.7451C183.54 51.3408 183.687 51.0008 183.898 50.9916C184.092 50.9732 184.276 51.2948 184.294 51.7084Z" fill="#012A39"/>
<path d="M186.677 51.2397C186.695 51.644 186.548 51.984 186.336 51.9932C186.134 52.0024 185.95 51.6808 185.931 51.2764C185.913 50.8721 186.06 50.5321 186.263 50.5229C186.474 50.5137 186.658 50.8353 186.677 51.2397Z" fill="#012A39"/>
<path d="M181.083 49.0894C180.55 49.4846 181.332 47.7662 182.068 47.5456C182.804 47.3251 183.549 47.6651 183.742 48.29C183.742 48.29 182.353 48.1337 181.083 49.0894Z" fill="#38194B"/>
<path d="M186.989 48.2531C186.207 48.1888 185.646 48.345 185.646 48.345C185.72 47.7385 186.281 47.2883 186.962 47.2423" fill="#38194B"/>
<path d="M185.545 51.2672L186.805 54.3365C186.824 54.3824 186.796 54.4467 186.741 54.4467L185.426 54.6029C185.38 54.6121 185.343 54.5662 185.343 54.5202L185.407 51.2948C185.398 51.2121 185.508 51.1845 185.545 51.2672Z" fill="#FF7FA2"/>
<path d="M40.9654 84.22C40.9654 84.22 50.5329 116.226 55.9607 114.582L55.6847 98.6289C55.4915 98.9505 46.8255 80.3881 46.8255 80.3881C46.8255 80.3881 47.6351 71.4928 46.4852 70.9139C45.3536 70.3534 45.5836 75.7659 44.9028 76.0967C44.2221 76.4367 41.7382 63.9208 40.3859 64.6008C39.6591 64.9684 42.0786 72.1545 41.2874 72.715C40.8735 73.0091 37.1936 66.8614 36.5497 66.7419C34.7466 66.4019 40.4963 73.8453 39.9351 73.8453C39.3739 73.8453 35.5377 67.5322 34.857 68.6625C34.4338 69.3609 38.3528 74.5253 38.0216 74.9756C37.6812 75.4259 35.7677 72.0442 34.6362 71.9339C33.5046 71.8236 37.1201 76.6664 37.2304 77.2362C37.3592 77.7875 38.822 81.7389 40.9654 84.22Z" fill="#FFAA06"/>
<path d="M81.9033 76.9789C81.9033 76.9789 72.7498 82.6579 69.622 85.8466C66.5033 89.0261 55.3719 97.6916 55.3719 97.6916L55.0775 115.629C55.0775 115.629 93.3383 92.1505 81.9033 76.9789Z" fill="#80FFF9"/>
<path d="M81.9033 76.9789C81.9033 76.9789 72.7498 82.6579 69.622 85.8466C66.5033 89.0261 55.3719 97.6916 55.3719 97.6916L55.0775 115.629C55.0775 115.629 93.3383 92.1505 81.9033 76.9789Z" fill="#FEF2FB"/>
<path d="M81.9033 76.9789C81.9033 76.9789 80.9649 77.5578 79.5942 78.4492C79.539 78.6146 79.4654 78.78 79.3918 78.9454C75.8316 86.5909 70.5787 93.5472 66.2825 100.798C63.9274 104.777 61.6184 108.792 59.3369 112.817C68.9688 106.127 90.928 88.9618 81.9033 76.9789Z" fill="#39194B"/>
<path d="M68.0672 63.8565C67.3865 62.5057 67.2301 57.6997 68.9044 55.6045C71.7838 52.0023 78.4719 49.6223 83.964 51.8553C83.964 51.8553 88.5914 53.3164 90.3945 56.1375C91.5352 57.9202 91.8572 60.4197 92.8783 62.0003C93.8903 63.5808 96.9445 64.5917 96.2638 66.9625C95.583 69.3334 93.0991 70.0042 95.0218 72.2647C96.9445 74.5161 99.4192 75.5361 99.7596 78.2378L92.6483 79.1384L90.6153 76.3172L90.3853 78.9086H76.862" fill="#39194B"/>
<path d="M91.02 47.8028C91.02 44.8438 88.6189 42.4546 85.6659 42.4546C82.7036 42.4546 80.3118 44.853 80.3118 47.8028C80.3118 50.7617 82.7128 53.151 85.6659 53.151C88.6189 53.151 91.02 50.7617 91.02 47.8028Z" fill="#39194B"/>
<path d="M82.4828 65.2533C82.5472 65.4463 83.2372 63.9668 83.4212 63.9025C84.2124 63.6176 85.9695 62.7997 86.963 64.7663C87.9658 66.7603 86.4018 68.635 85.2243 69.1312C84.8839 69.269 83.7984 70.0226 83.6236 70.3442C82.1517 73.2112 84.0928 79.2946 84.3043 81.6195C84.7643 86.7563 88.9317 81.1232 88.9317 81.1232C88.9317 81.1232 75.0128 92.0585 72.9613 85.9476C74.6449 83.0071 75.6844 73.7626 74.2125 74.314C72.2806 75.0399 68.2052 72.6047 67.7176 63.8014C69.9715 57.2586 72.7958 56.2478 72.8234 55.7332C73.0165 60.3186 75.62 63.3603 82.4828 65.2533Z" fill="#FFAA06"/>
<path d="M86.2823 65.6852C86.2823 65.6852 84.1112 63.5165 83.7892 67.5781L86.2823 65.6852Z" fill="#FF7FA2"/>
<path d="M76.1168 66.1354C75.0864 66.4754 74.5253 67.5873 74.8657 68.6165C75.206 69.6457 76.3192 70.2063 77.3495 69.8663C78.3799 69.5263 78.9411 68.4144 78.6007 67.3852C78.2603 66.3468 77.1471 65.7862 76.1168 66.1354Z" fill="#FD769C"/>
<path d="M68.6468 69.5723C69.438 69.1128 69.8335 68.1479 69.5299 67.2474C69.3 66.549 68.7204 66.0712 68.0488 65.9425C68.0488 65.9425 67.9844 68.2766 68.6468 69.5723Z" fill="#FD769C"/>
<path d="M71.2871 65.2441L71.5631 67.4128L70.4223 67.3301C70.2107 67.3117 70.1003 67.082 70.2107 66.9074L71.2871 65.2441Z" fill="#FF7FA2"/>
<path d="M74.6449 63.1949C75.0129 63.4522 74.4425 62.3036 73.9457 62.1749C73.4489 62.0463 72.943 62.2852 72.8326 62.7171C72.8326 62.7263 73.7617 62.5884 74.6449 63.1949Z" fill="black"/>
<path d="M68.6008 63.0846C68.2328 63.3419 68.794 62.1932 69.2908 62.0554C69.7875 61.9175 70.2935 62.1565 70.4039 62.5884C70.4039 62.5976 69.4748 62.4689 68.6008 63.0846Z" fill="black"/>
<path d="M73.5501 65.2624C73.5317 65.6484 73.3661 65.9516 73.1822 65.9516C72.9982 65.9424 72.8602 65.6208 72.8694 65.2349C72.8878 64.8489 73.0534 64.5457 73.2373 64.5457C73.4213 64.5548 73.5593 64.8765 73.5501 65.2624Z" fill="black"/>
<path d="M70.4867 64.95C70.4683 65.3176 70.3119 65.6116 70.1371 65.6024C69.9623 65.5932 69.8243 65.29 69.8427 64.9224C69.8611 64.5549 70.0175 64.2608 70.1923 64.27C70.3671 64.2792 70.4959 64.5824 70.4867 64.95Z" fill="black"/>
<path d="M74.6541 74.2956C74.6541 74.2956 77.3771 73.3307 79.1158 72.5864C80.8546 71.842 76.5584 78.9821 74.6541 74.2956Z" fill="#39194B"/>
<path d="M78.2327 243.756L76.8712 253.395C76.8712 253.395 74.6909 259.791 72.667 257.319C70.6431 254.847 68.6376 253.533 68.6376 253.533L67.9753 243.508L78.2327 243.756Z" fill="#FFAA06"/>
<path d="M110.495 243.011L113.504 252.633C113.504 252.633 115.794 254.636 116.613 254.581C118.113 254.489 118.904 251.898 118.904 251.898L119.152 243.011H110.495Z" fill="#FFAA06"/>
<path d="M77.4967 248.994L78.2327 243.756L68.7756 243.526C71.6459 245.401 74.5621 247.211 77.4967 248.994Z" fill="#39194B"/>
<path d="M119.014 247.836L119.152 243.021H110.955C113.678 244.555 116.374 246.154 119.014 247.836Z" fill="#39194B"/>
<path d="M67.966 253.487L59.8797 260.03C59.4657 260.333 59.7601 260.857 60.3488 260.857L72.2806 260.958C72.5658 260.958 72.8234 260.83 72.9246 260.637L73.8261 258.79C74.0837 258.257 74.6081 258.211 74.5529 258.78L74.9945 260.563C74.9669 260.848 77.8279 260.765 77.8463 260.508C78.0027 258.927 77.6715 253.754 77.3864 252.311C77.3496 252.109 77.138 251.943 76.8528 251.898C76.5952 251.861 76.3376 251.934 76.1812 252.081C75.3717 252.862 72.7958 255.206 71.4251 254.728C70.5051 254.406 69.3092 253.837 68.9412 253.515C68.7112 253.285 68.242 253.285 67.966 253.487Z" fill="#FD769C"/>
<path d="M119.014 251.576L123.605 259.258C124.092 260.003 123.826 260.894 122.933 261.427C121.498 262.281 120.321 263.981 119.419 264.009C117.791 264.055 115.252 262.337 113.77 261.693C112.777 261.261 112.004 260.627 112.124 259.8L113.264 252.091C113.283 251.999 113.448 251.962 113.531 252.035L115.288 253.625C115.868 254.149 117.432 254.075 117.818 253.451C118.094 253.009 118.747 251.567 118.747 251.567C118.812 251.493 118.959 251.493 119.014 251.576Z" fill="#FD769C"/>
<path d="M91.756 114.095C95.4634 120.637 100.33 127.63 102.455 135.956C104.93 145.605 119.051 227.619 120.219 245.171C117.174 245.906 112.611 245.428 110.689 245.327C104.571 227.803 86.0707 163.634 83.4488 152.598C83.044 150.898 80.4222 151.275 80.6246 153.002C82.1149 165.61 78.3155 212.135 78.3155 246.715C76.7148 247.524 69.7783 246.945 67.9384 246.715C65.9329 225.092 54.8291 142.297 70.9007 115.767C78.2419 114.747 84.3044 113.874 91.756 114.095Z" fill="#FD769C"/>
<path d="M72.7958 116.796C72.7958 116.796 65.3074 134.807 65.3074 157.643C65.3074 180.478 71.5079 245.925 71.5079 245.925" stroke="white" stroke-width="0.3114" stroke-miterlimit="10"/>
<path d="M115.997 245.171L91.0384 117.89" stroke="white" stroke-width="0.3114" stroke-miterlimit="10"/>
<path d="M74.5069 80.3605C73.7893 80.9394 66.7241 97.6732 66.9725 102.764C67.2301 107.883 69.7507 117.651 69.7507 117.651C69.7507 117.651 72.8694 120.766 94.8102 117.311C100.229 105.64 99.2076 87.8865 91.986 80.6178C91.986 80.6178 86.1719 78.3848 84.3136 78.2469C84.3136 78.2469 79.355 81.4448 76.6412 81.4081C75.3992 81.3805 74.3597 82.18 74.5069 80.3605Z" fill="#FEF2FB"/>
<path d="M94.0743 90.8731C92.722 97.8203 89.9069 104.427 87.9658 111.227C87.2758 113.635 86.6227 116.043 85.9787 118.459C88.5178 118.202 91.434 117.835 94.801 117.302C99.088 108.066 99.3456 95.0175 95.6842 86.3704C95.1506 87.8774 94.6171 89.3753 94.0743 90.8731Z" fill="#39194B"/>
<path d="M131.82 82.7498C131.82 82.7498 118.37 117.044 113.255 114.6L99.3824 104.749L105.5 92.4261L112.694 97.71C112.841 98.0592 128.996 78.0173 128.996 78.0173C128.996 78.0173 138.766 75.4994 141.489 74.415C141.636 74.3599 141.755 74.5161 141.673 74.654L138.03 80.333C137.312 81.0773 131.82 82.7498 131.82 82.7498Z" fill="#FFAA06"/>
<path d="M87.3494 80.0757C87.3494 80.0757 93.1083 78.9179 95.7118 82.5385C98.3153 86.1591 112.593 97.3976 112.593 97.3976L105.767 110.116C105.767 110.125 73.7433 93.3451 87.3494 80.0757Z" fill="#FEF2FB"/>
<path d="M110.229 95.5137C110.035 97.9121 109.851 100.301 109.769 102.672L112.593 97.4067C112.593 97.4067 111.664 96.6623 110.229 95.5137Z" fill="#39194B"/>
<path d="M128.775 78.1275C128.775 78.1275 135.509 72.3382 135.656 73.395C135.766 74.1853 134.193 76.6664 134.193 76.6664L128.775 78.1275Z" fill="#FFAA06"/>
<path d="M60.7141 130.566H87.9722V127.378H60.7141V130.566Z" fill="#000307"/>
<path d="M87.9658 127.364H70.1555L71.563 130.562H87.9658V127.364Z" fill="#8B7EED"/>
<path d="M26.6326 130.562H69.6036L59.2265 100.963H16.2647L26.6326 130.562Z" fill="#8B7EED"/>
<path d="M43.0997 119.287C44.5884 119.287 45.7952 118.081 45.7952 116.594C45.7952 115.107 44.5884 113.902 43.0997 113.902C41.6111 113.902 40.4043 115.107 40.4043 116.594C40.4043 118.081 41.6111 119.287 43.0997 119.287Z" fill="#000307"/>
<path d="M-0.00213623 134.833H95.4797V130.551H-0.00213623V134.833Z" fill="#39194B"/>
<path opacity="0.55" d="M40.1559 61.2192C40.1559 57.4332 37.0832 54.3547 33.2838 54.3547C29.4936 54.3547 26.4118 57.424 26.4118 61.2192C26.4118 65.0052 29.4844 68.0836 33.2838 68.0836C37.0832 68.0836 40.1559 65.0052 40.1559 61.2192Z" fill="#8B7EED"/>
<g opacity="0.55">
<path opacity="0.55" d="M36.0865 73.3406C42.789 71.7938 46.9672 65.1124 45.4186 58.4173C43.8701 51.7222 37.1813 47.5486 30.4787 49.0955C23.7762 50.6423 19.598 57.3237 21.1466 64.0188C22.6951 70.7139 29.3839 74.8874 36.0865 73.3406Z" stroke="#39194B" stroke-width="1.4036" stroke-miterlimit="10" stroke-dasharray="14.17 14.17"/>
</g>
<path d="M33.2839 83.8801C45.813 83.8801 55.9699 73.7345 55.9699 61.2192C55.9699 48.704 45.813 38.5583 33.2839 38.5583C20.7547 38.5583 10.5978 48.704 10.5978 61.2192C10.5978 73.7345 20.7547 83.8801 33.2839 83.8801Z" stroke="#FEF2FB" stroke-width="1.4036" stroke-miterlimit="10" stroke-dasharray="15.49 15.49"/>
<path d="M160.587 38.641C160.587 28.2479 152.151 19.8213 141.746 19.8213C131.342 19.8213 122.906 28.2479 122.906 38.641C122.906 49.0341 140.835 65.3544 140.835 65.3544C140.835 65.3544 160.587 49.0433 160.587 38.641Z" fill="#FEF2FB"/>
<path d="M155.398 36.3897C155.398 25.9966 146.962 17.5699 136.558 17.5699C126.153 17.5699 117.717 25.9966 117.717 36.3897C117.717 46.7828 135.647 63.103 135.647 63.103C135.647 63.103 155.398 46.7828 155.398 36.3897Z" stroke="#39194B" stroke-width="1.1068" stroke-miterlimit="10"/>
<path d="M132.639 55.0073C131.167 49.8429 129.998 44.5866 129.152 39.2751C129.023 38.4481 128.894 37.6027 129.088 36.794C129.281 35.9854 129.87 35.2135 130.679 35.0389C131.158 34.9378 131.654 35.0572 132.087 35.2778C133.807 36.1324 134.414 38.2459 134.764 40.1298C134.801 40.3503 134.837 40.5892 134.727 40.773C134.543 41.0763 134.055 41.0579 133.789 40.8098C133.531 40.5616 133.448 40.1849 133.402 39.8357C133.218 38.4481 133.421 36.9502 134.295 35.8659C135.169 34.7816 136.834 34.267 138.03 34.9837C139.428 35.82 139.621 37.7681 139.354 39.3762C139.281 39.8081 139.014 40.3503 138.591 40.24C138.085 39.0362 138.168 37.6119 138.802 36.4724C139.483 35.2502 141.019 34.3864 142.298 34.9286C143.108 35.2686 143.632 36.0864 143.834 36.9319C144.037 37.7773 143.972 38.6686 143.871 39.5416C143.218 45.4412 141.452 51.1661 139.704 56.8359C139.658 56.643 139.621 56.4408 139.575 56.2478" stroke="#39194B" stroke-width="0.2767" stroke-miterlimit="10"/>
<path d="M133.393 58.3521C132.151 58.0672 130.955 57.6537 129.787 57.1851C133.025 60.7138 135.647 63.103 135.647 63.103C135.647 63.103 137.597 61.4948 140.265 58.9678C137.947 59.0689 135.638 58.8759 133.393 58.3521Z" fill="#FFD857"/>
<path d="M143.236 58.8575H128.039C126.861 58.8575 125.914 57.9018 125.914 56.7348C125.914 55.5586 126.871 54.6121 128.039 54.6121H143.236C144.414 54.6121 145.362 55.5678 145.362 56.7348C145.371 57.9018 144.414 58.8575 143.236 58.8575Z" fill="#FFAA06"/>
<path d="M135.95 68.5706C131.084 68.5706 127.137 64.6284 127.137 59.7672V58.251H144.764V59.7672C144.764 64.6284 140.817 68.5706 135.95 68.5706Z" fill="#FFAA06"/>
<path d="M139.621 67.7619C142.657 66.3743 144.764 63.3143 144.764 59.7672V58.251H128.324C132.068 61.4489 135.831 64.6192 139.621 67.7619Z" fill="#39194B"/>
</g>
<defs>
<clipPath id="clip0">
<rect width="298" height="264" fill="white"/>
</clipPath>
</defs>
</svg>
