<svg width="40" height="22" viewBox="0 0 40 22" fill="none" xmlns="http://www.w3.org/2000/svg">
<rect x="1" y="1" width="38" height="20" fill="#F7F9FF" stroke="#C4D7E7" stroke-width="0.5"/>
<path d="M5.85733 10H8.6187V9.43324H6.51571V8.0973H8.45037V7.53267H6.51571V6.20312H8.59313V5.63636H5.85733V10ZM10.3738 10.0724C10.915 10.0724 11.2197 9.79759 11.3412 9.55256H11.3667V10H11.9889V7.8267C11.9889 6.87429 11.2389 6.68466 10.719 6.68466C10.1267 6.68466 9.58123 6.9233 9.36816 7.51989L9.96689 7.65625C10.0606 7.42401 10.2993 7.20028 10.7275 7.20028C11.1388 7.20028 11.3497 7.41548 11.3497 7.78622V7.80114C11.3497 8.03338 11.1111 8.02912 10.523 8.0973C9.90297 8.16974 9.26802 8.33168 9.26802 9.07528C9.26802 9.71875 9.75169 10.0724 10.3738 10.0724ZM10.5123 9.56108C10.1523 9.56108 9.89231 9.39915 9.89231 9.08381C9.89231 8.7429 10.1949 8.62145 10.5635 8.57244C10.7702 8.54474 11.2602 8.48935 11.3518 8.39773V8.8196C11.3518 9.20739 11.0429 9.56108 10.5123 9.56108ZM15.2899 7.52628C15.1578 7.01705 14.7593 6.68466 14.0519 6.68466C13.3126 6.68466 12.7884 7.07457 12.7884 7.65412C12.7884 8.11861 13.0697 8.42756 13.6833 8.56392L14.2373 8.68537C14.5526 8.75568 14.6997 8.89631 14.6997 9.10085C14.6997 9.3544 14.4291 9.55256 14.0115 9.55256C13.6301 9.55256 13.385 9.38849 13.3083 9.06676L12.6926 9.16051C12.7991 9.74006 13.2806 10.0661 14.0157 10.0661C14.8062 10.0661 15.3538 9.64631 15.3538 9.05398C15.3538 8.59162 15.0597 8.30611 14.4589 8.16761L13.939 8.0483C13.5789 7.96307 13.4234 7.84162 13.4255 7.62003C13.4234 7.36861 13.6961 7.18963 14.0583 7.18963C14.4546 7.18963 14.6379 7.40909 14.7124 7.62855L15.2899 7.52628ZM16.4569 11.2188C16.9832 11.2188 17.3177 10.9439 17.5052 10.4368L18.8582 6.73366L18.17 6.72727L17.3412 9.26705H17.3071L16.4782 6.72727H15.7964L16.9939 10.0426L16.915 10.2599C16.7531 10.6839 16.5251 10.7223 16.1757 10.6264L16.0223 11.1484C16.099 11.1847 16.2652 11.2188 16.4569 11.2188ZM21.0976 10H23.7332V9.43324H21.7559V5.63636H21.0976V10ZM25.8117 10.0661C26.7343 10.0661 27.3373 9.39062 27.3373 8.37855C27.3373 7.36009 26.7343 6.68466 25.8117 6.68466C24.8891 6.68466 24.2861 7.36009 24.2861 8.37855C24.2861 9.39062 24.8891 10.0661 25.8117 10.0661ZM25.8138 9.53125C25.2108 9.53125 24.9296 9.00497 24.9296 8.37642C24.9296 7.75 25.2108 7.21733 25.8138 7.21733C26.4126 7.21733 26.6938 7.75 26.6938 8.37642C26.6938 9.00497 26.4126 9.53125 25.8138 9.53125ZM29.0008 10.0724C29.542 10.0724 29.8467 9.79759 29.9681 9.55256H29.9937V10H30.6159V7.8267C30.6159 6.87429 29.8659 6.68466 29.346 6.68466C28.7536 6.68466 28.2082 6.9233 27.9951 7.51989L28.5938 7.65625C28.6876 7.42401 28.9262 7.20028 29.3545 7.20028C29.7657 7.20028 29.9767 7.41548 29.9767 7.78622V7.80114C29.9767 8.03338 29.738 8.02912 29.1499 8.0973C28.5299 8.16974 27.895 8.33168 27.895 9.07528C27.895 9.71875 28.3786 10.0724 29.0008 10.0724ZM29.1393 9.56108C28.7792 9.56108 28.5193 9.39915 28.5193 9.08381C28.5193 8.7429 28.8218 8.62145 29.1904 8.57244C29.3971 8.54474 29.8872 8.48935 29.9788 8.39773V8.8196C29.9788 9.20739 29.6698 9.56108 29.1393 9.56108ZM32.1015 8.05682C32.1015 7.5348 32.4211 7.23651 32.8643 7.23651C33.2968 7.23651 33.5589 7.51989 33.5589 7.99503V10H34.1959V7.91832C34.1959 7.10866 33.7506 6.68466 33.0816 6.68466C32.5894 6.68466 32.2677 6.91264 32.1164 7.25994H32.0759V6.72727H31.4644V10H32.1015V8.05682ZM14.6488 14.8182C14.6488 13.4226 13.8136 12.5767 12.6843 12.5767C11.5508 12.5767 10.7177 13.4226 10.7177 14.8182C10.7177 16.2116 11.5508 17.0597 12.6843 17.0597C13.8136 17.0597 14.6488 16.2138 14.6488 14.8182ZM13.9968 14.8182C13.9968 15.8814 13.4343 16.4588 12.6843 16.4588C11.9322 16.4588 11.3718 15.8814 11.3718 14.8182C11.3718 13.755 11.9322 13.1776 12.6843 13.1776C13.4343 13.1776 13.9968 13.755 13.9968 14.8182ZM15.4185 18.2273H16.0556V16.4908H16.0939C16.209 16.6996 16.4434 17.0639 17.04 17.0639C17.8326 17.0639 18.4078 16.429 18.4078 15.37C18.4078 14.3089 17.824 13.6847 17.0336 13.6847C16.4263 13.6847 16.2069 14.0554 16.0939 14.2578H16.0407V13.7273H15.4185V18.2273ZM16.0428 15.3636C16.0428 14.6797 16.3411 14.2259 16.8972 14.2259C17.4746 14.2259 17.7644 14.7138 17.7644 15.3636C17.7644 16.0199 17.4661 16.5206 16.8972 16.5206C16.3496 16.5206 16.0428 16.0518 16.0428 15.3636ZM20.6493 13.7273H19.9782V12.9432H19.3411V13.7273H18.8617V14.2386H19.3411V16.1712C19.339 16.7656 19.7928 17.0533 20.2956 17.0426C20.498 17.0405 20.6344 17.0021 20.709 16.9744L20.5939 16.4482C20.5513 16.4567 20.4725 16.4759 20.3702 16.4759C20.1635 16.4759 19.9782 16.4077 19.9782 16.0391V14.2386H20.6493V13.7273ZM21.354 17H21.9911V13.7273H21.354V17ZM21.6758 13.2223C21.8952 13.2223 22.0785 13.0518 22.0785 12.843C22.0785 12.6342 21.8952 12.4616 21.6758 12.4616C21.4542 12.4616 21.2731 12.6342 21.2731 12.843C21.2731 13.0518 21.4542 13.2223 21.6758 13.2223ZM24.2267 17.0661C25.1493 17.0661 25.7523 16.3906 25.7523 15.3786C25.7523 14.3601 25.1493 13.6847 24.2267 13.6847C23.3042 13.6847 22.7012 14.3601 22.7012 15.3786C22.7012 16.3906 23.3042 17.0661 24.2267 17.0661ZM24.2289 16.5312C23.6259 16.5312 23.3446 16.005 23.3446 15.3764C23.3446 14.75 23.6259 14.2173 24.2289 14.2173C24.8276 14.2173 25.1088 14.75 25.1088 15.3764C25.1088 16.005 24.8276 16.5312 24.2289 16.5312ZM27.1005 15.0568C27.1005 14.5348 27.4201 14.2365 27.8633 14.2365C28.2958 14.2365 28.5579 14.5199 28.5579 14.995V17H29.195V14.9183C29.195 14.1087 28.7496 13.6847 28.0806 13.6847C27.5884 13.6847 27.2667 13.9126 27.1154 14.2599H27.0749V13.7273H26.4634V17H27.1005V15.0568Z" fill="#153059"/>
</svg>
