<svg width="40" height="22" viewBox="0 0 40 22" fill="none" xmlns="http://www.w3.org/2000/svg">
<rect x="1" y="1" width="38" height="20" fill="#F7F9FF" stroke="#C4D7E7" stroke-width="0.5"/>
<path d="M7.55069 10H10.3121V9.43324H8.20907V8.0973H10.1437V7.53267H8.20907V6.20312H10.2865V5.63636H7.55069V10ZM12.0672 10.0724C12.6084 10.0724 12.9131 9.79759 13.0345 9.55256H13.0601V10H13.6823V7.8267C13.6823 6.87429 12.9323 6.68466 12.4124 6.68466C11.82 6.68466 11.2746 6.9233 11.0615 7.51989L11.6602 7.65625C11.754 7.42401 11.9926 7.20028 12.4209 7.20028C12.8321 7.20028 13.0431 7.41548 13.0431 7.78622V7.80114C13.0431 8.03338 12.8044 8.02912 12.2164 8.0973C11.5963 8.16974 10.9614 8.33168 10.9614 9.07528C10.9614 9.71875 11.445 10.0724 12.0672 10.0724ZM12.2057 9.56108C11.8456 9.56108 11.5857 9.39915 11.5857 9.08381C11.5857 8.7429 11.8882 8.62145 12.2568 8.57244C12.4635 8.54474 12.9536 8.48935 13.0452 8.39773V8.8196C13.0452 9.20739 12.7362 9.56108 12.2057 9.56108ZM16.9832 7.52628C16.8511 7.01705 16.4527 6.68466 15.7453 6.68466C15.0059 6.68466 14.4818 7.07457 14.4818 7.65412C14.4818 8.11861 14.7631 8.42756 15.3767 8.56392L15.9307 8.68537C16.246 8.75568 16.393 8.89631 16.393 9.10085C16.393 9.3544 16.1224 9.55256 15.7048 9.55256C15.3234 9.55256 15.0784 9.38849 15.0017 9.06676L14.3859 9.16051C14.4925 9.74006 14.974 10.0661 15.7091 10.0661C16.4996 10.0661 17.0471 9.64631 17.0471 9.05398C17.0471 8.59162 16.7531 8.30611 16.1523 8.16761L15.6324 8.0483C15.2723 7.96307 15.1167 7.84162 15.1189 7.62003C15.1167 7.36861 15.3895 7.18963 15.7517 7.18963C16.148 7.18963 16.3312 7.40909 16.4058 7.62855L16.9832 7.52628ZM18.1503 11.2188C18.6766 11.2188 19.0111 10.9439 19.1986 10.4368L20.5516 6.73366L19.8634 6.72727L19.0345 9.26705H19.0004L18.1716 6.72727H17.4898L18.6872 10.0426L18.6084 10.2599C18.4465 10.6839 18.2185 10.7223 17.8691 10.6264L17.7156 11.1484C17.7923 11.1847 17.9585 11.2188 18.1503 11.2188ZM22.7909 10H25.5523V9.43324H23.4493V8.0973H25.384V7.53267H23.4493V6.20312H25.5267V5.63636H22.7909V10ZM26.4062 5.63636V10H27.0326V6.8402H27.0731L28.36 9.99361H28.8799L30.1668 6.84233H30.2073V10H30.8337V5.63636H30.0347L28.6455 9.02841H28.5944L27.2052 5.63636H26.4062ZM32.4493 5.63636H31.7909V10H32.4493V5.63636ZM12.6838 17.0661C13.6064 17.0661 14.2093 16.3906 14.2093 15.3786C14.2093 14.3601 13.6064 13.6847 12.6838 13.6847C11.7612 13.6847 11.1582 14.3601 11.1582 15.3786C11.1582 16.3906 11.7612 17.0661 12.6838 17.0661ZM12.6859 16.5312C12.0829 16.5312 11.8017 16.005 11.8017 15.3764C11.8017 14.75 12.0829 14.2173 12.6859 14.2173C13.2846 14.2173 13.5659 14.75 13.5659 15.3764C13.5659 16.005 13.2846 16.5312 12.6859 16.5312ZM14.9205 18.2273H15.5575V16.4908H15.5959C15.7109 16.6996 15.9453 17.0639 16.5419 17.0639C17.3345 17.0639 17.9098 16.429 17.9098 15.37C17.9098 14.3089 17.326 13.6847 16.5355 13.6847C15.9283 13.6847 15.7088 14.0554 15.5959 14.2578H15.5426V13.7273H14.9205V18.2273ZM15.5447 15.3636C15.5447 14.6797 15.843 14.2259 16.3991 14.2259C16.9766 14.2259 17.2663 14.7138 17.2663 15.3636C17.2663 16.0199 16.968 16.5206 16.3991 16.5206C15.8516 16.5206 15.5447 16.0518 15.5447 15.3636ZM20.1513 13.7273H19.4801V12.9432H18.843V13.7273H18.3636V14.2386H18.843V16.1712C18.8409 16.7656 19.2947 17.0533 19.7976 17.0426C20 17.0405 20.1364 17.0021 20.2109 16.9744L20.0959 16.4482C20.0533 16.4567 19.9744 16.4759 19.8722 16.4759C19.6655 16.4759 19.4801 16.4077 19.4801 16.0391V14.2386H20.1513V13.7273ZM20.856 17H21.4931V13.7273H20.856V17ZM21.1777 13.2223C21.3972 13.2223 21.5804 13.0518 21.5804 12.843C21.5804 12.6342 21.3972 12.4616 21.1777 12.4616C20.9561 12.4616 20.775 12.6342 20.775 12.843C20.775 13.0518 20.9561 13.2223 21.1777 13.2223ZM23.7287 17.0661C24.6513 17.0661 25.2543 16.3906 25.2543 15.3786C25.2543 14.3601 24.6513 13.6847 23.7287 13.6847C22.8061 13.6847 22.2031 14.3601 22.2031 15.3786C22.2031 16.3906 22.8061 17.0661 23.7287 17.0661ZM23.7308 16.5312C23.1278 16.5312 22.8466 16.005 22.8466 15.3764C22.8466 14.75 23.1278 14.2173 23.7308 14.2173C24.3295 14.2173 24.6108 14.75 24.6108 15.3764C24.6108 16.005 24.3295 16.5312 23.7308 16.5312ZM26.6025 15.0568C26.6025 14.5348 26.9221 14.2365 27.3652 14.2365C27.7978 14.2365 28.0598 14.5199 28.0598 14.995V17H28.6969V14.9183C28.6969 14.1087 28.2516 13.6847 27.5826 13.6847C27.0904 13.6847 26.7686 13.9126 26.6174 14.2599H26.5769V13.7273H25.9654V17H26.6025V15.0568Z" fill="#153059"/>
</svg>
