<svg width="80" height="80" viewBox="0 0 80 80" fill="none" xmlns="http://www.w3.org/2000/svg">
<g clip-path="url(#clip0)">
<path d="M57.0036 8.62743C46.207 4.40321 31.2561 6.00805 22.9939 13.5509C17.1602 18.8766 21.6753 20.3946 25.6527 30.1399C28.5312 37.1931 0 36.2223 0 48.9673C0 63.7015 20.6642 60.9085 28.3327 62.5951C40.057 65.1738 50.2852 74.8204 62.812 73.5487C73.7175 72.4415 77.875 63.8838 79.3916 54.0734C82.2169 35.7959 75.2777 15.7774 57.0036 8.62743Z" fill="url(#paint0_linear)"/>
<path opacity="0.11" d="M64.6052 65.3629H61.3688V35.1838C61.3688 33.391 64.3992 31.9271 64.3992 31.9271V15.1309C64.3992 14.2679 63.6997 13.5684 62.8367 13.5684H45.5625C44.6995 13.5684 44 14.2679 44 15.1309V31.9262H16.2609C14.4625 31.9262 13.0047 33.384 13.0047 35.184V65.363H9.76954C8.69297 65.363 7.82016 66.2359 7.82016 67.3124V69.1038C7.82016 70.9929 9.35094 72.5254 11.2417 72.5254H63.133C65.0238 72.5254 66.5545 70.9929 66.5545 69.1038V67.3124C66.5545 66.2355 65.6817 65.3629 64.6052 65.3629Z" fill="#2626BC"/>
<path d="M64.1813 32.3713V65.0167C64.1813 65.4479 63.8313 65.7979 63.4 65.7979H15.8172V32.3713C15.8172 30.5713 17.275 29.1135 19.0734 29.1135H60.925C62.7235 29.1135 64.1813 30.5713 64.1813 32.3713Z" fill="#9FB0FE"/>
<path d="M37.2028 58.6678H21.2608V38.8657C21.2608 38.4343 21.6106 38.0845 22.0421 38.0845H36.4216C36.853 38.0845 37.2028 38.4343 37.2028 38.8657V58.6678Z" fill="#FFA8CF"/>
<path d="M64.1813 32.3713V47.0557H48.8438C47.9813 47.0557 47.2812 46.3573 47.2812 45.4932V29.1135H60.925C62.7234 29.1135 64.1813 30.5713 64.1813 32.3713Z" fill="#8399FE"/>
<path d="M64.1817 58.6677V65.0162C64.1817 65.4474 63.8317 65.7974 63.4005 65.7974H15.8176V58.6677H64.1817Z" fill="#01ECA5"/>
<path d="M69.367 64.4997V66.2911C69.367 68.1801 67.8363 69.7126 65.9455 69.7126H14.0542C12.1634 69.7126 10.6327 68.1801 10.6327 66.2911V64.4997C10.6327 63.4231 11.5055 62.5503 12.582 62.5503H29.3113C29.6002 62.5503 29.8656 62.7098 30.0013 62.965L31.0263 64.8943C31.1619 65.1495 31.4272 65.309 31.7163 65.309H48.2836C48.5725 65.309 48.838 65.1495 48.9736 64.8943L49.9986 62.965C50.1342 62.7098 50.3995 62.5503 50.6884 62.5503H67.4177C68.4942 62.5503 69.367 63.4229 69.367 64.4997Z" fill="#97FFD2"/>
<path d="M69.3672 64.499V66.2912C69.3672 68.1802 67.836 69.713 65.9453 69.713H63.6453C65.536 69.713 67.0672 68.1802 67.0672 66.2912V64.499C67.0672 63.4224 66.1938 62.5505 65.1172 62.5505H67.4172C68.4938 62.5505 69.3672 63.4224 69.3672 64.499Z" fill="#DCFDEE"/>
<path d="M23.3828 65.3812H16.612C16.1806 65.3812 15.8308 65.0314 15.8308 64.6V62.5503H24.1641V64.6C24.1641 65.0314 23.8142 65.3812 23.3828 65.3812Z" fill="#FF7EB8"/>
<path d="M63.3684 65.3812H56.5977C56.1662 65.3812 55.8164 65.0314 55.8164 64.6V62.5503H64.1497V64.6C64.1497 65.0314 63.7998 65.3812 63.3684 65.3812Z" fill="#FF7EB8"/>
<path d="M66.118 44.4182H48.8437C47.9808 44.4182 47.2812 43.7187 47.2812 42.8557V11.8496C47.2812 10.9866 47.9808 10.2871 48.8437 10.2871H66.118C66.9809 10.2871 67.6805 10.9866 67.6805 11.8496V42.8559C67.6805 43.7187 66.9809 44.4182 66.118 44.4182Z" fill="#FFC4DF"/>
<path d="M57.481 14.2029C56.3996 14.2029 55.523 13.3263 55.523 12.2449V10.2871H59.4388V12.2451C59.4388 13.3263 58.5622 14.2029 57.481 14.2029Z" fill="#9FB0FE"/>
<path d="M33.4447 50.0115H24.9851C24.5536 50.0115 24.2039 49.6616 24.2039 49.2302C24.2039 48.7988 24.5536 48.449 24.9851 48.449H33.4447C33.8762 48.449 34.2259 48.7988 34.2259 49.2302C34.2259 49.6616 33.8762 50.0115 33.4447 50.0115Z" fill="white"/>
<path d="M56.5908 52.7681H24.9853C24.5538 52.7681 24.2041 52.4182 24.2041 51.9868C24.2041 51.5554 24.5538 51.2056 24.9853 51.2056H56.5908C57.0223 51.2056 57.372 51.5554 57.372 51.9868C57.372 52.4182 57.0223 52.7681 56.5908 52.7681Z" fill="#97FFD2"/>
<path d="M56.5908 55.5244H24.9853C24.5538 55.5244 24.2041 55.1746 24.2041 54.7432C24.2041 54.3118 24.5538 53.9619 24.9853 53.9619H56.5908C57.0223 53.9619 57.372 54.3118 57.372 54.7432C57.372 55.1746 57.0223 55.5244 56.5908 55.5244Z" fill="#97FFD2"/>
<path d="M33.3269 25.752C32.7425 25.752 32.1583 25.5296 31.7134 25.0846C30.8239 24.1952 30.8239 22.7476 31.7134 21.8579C32.6033 20.9682 34.0508 20.9684 34.9403 21.8577C35.83 22.7476 35.8298 24.1952 34.9403 25.0846V25.0848C34.4954 25.5295 33.9111 25.752 33.3269 25.752ZM34.3879 24.5323H34.3895H34.3879ZM33.3269 22.7523C33.1426 22.7523 32.9586 22.8223 32.8183 22.9626C32.5379 23.2431 32.5378 23.6995 32.8183 23.9799C33.0986 24.2601 33.5548 24.2602 33.8354 23.9798C34.1158 23.6995 34.1158 23.2431 33.8353 22.9626C33.6951 22.8224 33.5111 22.7523 33.3269 22.7523Z" fill="#8399FE"/>
<path d="M10.6327 56.3806C10.0484 56.3806 9.46407 56.1583 9.01923 55.7133C8.1297 54.8237 8.1297 53.3762 9.01923 52.4867C9.90907 51.5967 11.3564 51.597 12.2461 52.4867C13.1356 53.3762 13.1356 54.8237 12.2461 55.7133C11.8013 56.1583 11.217 56.3806 10.6327 56.3806ZM10.6327 53.3813C10.4486 53.3813 10.2644 53.4514 10.1242 53.5916C9.84392 53.872 9.84392 54.3283 10.1242 54.6087C10.4047 54.8889 10.8608 54.8887 11.1413 54.6087C11.4216 54.3283 11.4216 53.872 11.1413 53.5916C11.0011 53.4514 10.8169 53.3813 10.6327 53.3813Z" fill="#8399FE"/>
<path d="M17.166 27.4825C16.5564 27.4825 15.9835 27.245 15.5525 26.8141C14.663 25.9246 14.663 24.4771 15.5525 23.5875C16.4421 22.6977 17.8897 22.6977 18.7794 23.5875C19.6689 24.4771 19.6689 25.9246 18.7794 26.8141H18.7796C18.7794 26.8141 18.7794 26.8141 18.7794 26.8141C18.3483 27.245 17.7753 27.4825 17.166 27.4825ZM17.166 24.4819C16.9817 24.4819 16.7977 24.5521 16.6574 24.6924C16.3771 24.9727 16.3771 25.429 16.6574 25.7094C16.7933 25.8452 16.9738 25.9202 17.166 25.9202C17.358 25.9202 17.5386 25.8454 17.6744 25.7094C17.9547 25.429 17.9547 24.9727 17.6744 24.6922C17.5342 24.5521 17.3502 24.4819 17.166 24.4819Z" fill="#01ECA5"/>
<path d="M39.7866 19.4243H39.2787V18.9165C39.2787 18.4849 38.9289 18.1353 38.4975 18.1353C38.0661 18.1353 37.7162 18.4849 37.7162 18.9165V19.4243H37.2084C36.777 19.4243 36.4272 19.774 36.4272 20.2056C36.4272 20.6371 36.777 20.9868 37.2084 20.9868H37.7162V21.4946C37.7162 21.9262 38.0661 22.2759 38.4975 22.2759C38.9289 22.2759 39.2787 21.9262 39.2787 21.4946V20.9868H39.7866C40.2181 20.9868 40.5678 20.6371 40.5678 20.2056C40.5678 19.774 40.2181 19.4243 39.7866 19.4243Z" fill="#FF7EB8"/>
<path d="M70.6561 49.4028H70.1483V48.895C70.1483 48.4635 69.7986 48.1138 69.3671 48.1138C68.9355 48.1138 68.5858 48.4635 68.5858 48.895V49.4028H68.078C67.6464 49.4028 67.2968 49.7525 67.2968 50.1841C67.2968 50.6156 67.6464 50.9653 68.078 50.9653H68.5858V51.4731C68.5858 51.9047 68.9355 52.2544 69.3671 52.2544C69.7986 52.2544 70.1483 51.9047 70.1483 51.4731V50.9653H70.6561C71.0877 50.9653 71.4374 50.6156 71.4374 50.1841C71.4374 49.7525 71.0877 49.4028 70.6561 49.4028Z" fill="#FF7EB8"/>
<path d="M67.4178 61.7691H64.9637V45.1994H66.1181C67.4105 45.1994 68.4619 44.148 68.4619 42.8557V11.8496C68.4619 10.5573 67.4105 9.50586 66.1181 9.50586H48.8438C47.5514 9.50586 46.5 10.5573 46.5 11.8496V28.3321H19.0744C16.8477 28.3321 15.0361 30.1437 15.0361 32.3704V41.853C15.0361 42.2846 15.3859 42.6343 15.8173 42.6343C16.2488 42.6343 16.5986 42.2846 16.5986 41.853V32.3704C16.5986 31.0052 17.7092 29.8946 19.0744 29.8946H46.5V42.8557C46.5 44.148 47.5514 45.1994 48.8438 45.1994H59.7919C60.2234 45.1994 60.5731 44.8498 60.5731 44.4182C60.5731 43.9866 60.2234 43.6369 59.7919 43.6369H48.8438C48.413 43.6369 48.0625 43.2865 48.0625 42.8557V11.8496C48.0625 11.4188 48.413 11.0684 48.8438 11.0684H54.7417V12.2449C54.7417 13.7554 55.9705 14.9841 57.4809 14.9841C58.9912 14.9841 60.22 13.7554 60.22 12.2449V11.0684H66.118C66.5487 11.0684 66.8992 11.4188 66.8992 11.8496V42.8557C66.8992 43.2865 66.5487 43.6369 66.118 43.6369H64.1823C63.7508 43.6369 63.4011 43.9866 63.4011 44.4182V57.8866H16.5986V46.2435C16.5986 45.8119 16.2488 45.4623 15.8173 45.4623C15.3859 45.4623 15.0361 45.8119 15.0361 46.2435V61.769H12.582C11.0764 61.769 9.85141 62.994 9.85141 64.4996V66.291C9.85141 68.6083 11.7367 70.4937 14.0541 70.4937H65.9453C68.2628 70.4937 70.1481 68.6083 70.1481 66.291V64.4996C70.1483 62.9941 68.9233 61.7691 67.4178 61.7691ZM58.6575 12.2449C58.6575 12.8937 58.1297 13.4216 57.4809 13.4216C56.8322 13.4216 56.3042 12.8937 56.3042 12.2449V11.0684H58.6577V12.2449H58.6575ZM63.3694 64.5999H56.5975V63.3316H63.3687L63.3694 64.5999ZM63.4012 59.4493V61.7691L50.6886 61.7693C50.1094 61.7693 49.5806 62.0869 49.3086 62.5987L48.2836 64.528H31.7161L30.6911 62.5985C30.4192 62.0871 29.8905 61.7693 29.3113 61.7693L16.5986 61.7691V59.4493H63.4012ZM23.3838 64.5999H16.612V63.3316H23.3831L23.3838 64.5999ZM68.5858 66.2912C68.5858 67.7469 67.4012 68.9313 65.9455 68.9313H14.0542C12.5984 68.9313 11.4141 67.7469 11.4141 66.2912V64.4997C11.4141 63.8557 11.9381 63.3316 12.5822 63.3316H15.0495V64.5999C15.0495 65.4615 15.7505 66.1624 16.612 66.1624H23.3828C24.2444 66.1624 24.9453 65.4615 24.9453 64.5999V63.3315H29.3114L30.3364 65.2607C30.6081 65.7724 31.137 66.0904 31.7164 66.0904H48.2837C48.8631 66.0904 49.3919 65.7726 49.6637 65.2608L50.6887 63.3316H55.0353V64.5999C55.0353 65.4615 55.7362 66.1624 56.5978 66.1624H63.3686C64.2302 66.1624 64.9311 65.4615 64.9311 64.5999V63.3316H67.418C68.062 63.3316 68.5861 63.8557 68.5861 64.4997V66.2912H68.5858Z" fill="#2626BC"/>
<path d="M38.6452 62.7249H41.3547C41.7863 62.7249 42.136 62.3752 42.136 61.9436C42.136 61.512 41.7863 61.1624 41.3547 61.1624H38.6452C38.2138 61.1624 37.8639 61.512 37.8639 61.9436C37.8639 62.3752 38.2136 62.7249 38.6452 62.7249Z" fill="#2626BC"/>
<path d="M64.3996 22.1871C64.2511 22.0097 64.0317 21.9074 63.8005 21.9074H54.6463L54.1428 20.35C54.0386 20.0277 53.7383 19.8091 53.3994 19.8091H51.1614C50.7299 19.8091 50.3802 20.1588 50.3802 20.5903C50.3802 21.0219 50.7299 21.3716 51.1614 21.3716H52.831L54.7278 27.2392H54.5935C54.1619 27.2392 53.8122 27.5889 53.8122 28.0205C53.8122 28.4521 54.1619 28.8017 54.5935 28.8017H62.8488C63.2274 28.8017 63.5513 28.5305 63.6178 28.1578L64.5697 22.826C64.6103 22.5983 64.5478 22.3644 64.3996 22.1871ZM62.1946 27.2392H56.37L55.1514 23.4699H62.8675L62.1946 27.2392Z" fill="#FF7EB8"/>
<path d="M56.2662 33.5999C55.1451 33.5999 54.2331 32.6879 54.2331 31.5668C54.2331 30.4457 55.1451 29.5337 56.2662 29.5337C57.3873 29.5337 58.2993 30.4457 58.2993 31.5668C58.2993 32.6879 57.3873 33.5999 56.2662 33.5999ZM56.2662 31.0963C56.0067 31.0963 55.7956 31.3074 55.7956 31.567C55.7956 31.8265 56.0067 32.0376 56.2662 32.0376C56.5257 32.0376 56.7368 31.8265 56.7368 31.567C56.7368 31.3074 56.5259 31.0963 56.2662 31.0963Z" fill="#FF7EB8"/>
<path d="M62.1 33.5999C60.9789 33.5999 60.0669 32.6879 60.0669 31.5668C60.0669 30.4457 60.9789 29.5337 62.1 29.5337C63.2211 29.5337 64.1333 30.4457 64.1333 31.5668C64.1333 32.6879 63.2211 33.5999 62.1 33.5999ZM62.1 31.0963C61.8405 31.0963 61.6294 31.3074 61.6294 31.567C61.6294 31.8265 61.8405 32.0376 62.1 32.0376C62.3596 32.0376 62.5708 31.8265 62.5708 31.567C62.5708 31.3074 62.3597 31.0963 62.1 31.0963Z" fill="#FF7EB8"/>
<path d="M39.9992 39.8294C40.4816 39.8294 40.8727 39.4383 40.8727 38.956C40.8727 38.4736 40.4816 38.0825 39.9992 38.0825C39.5169 38.0825 39.1258 38.4736 39.1258 38.956C39.1258 39.4385 39.5169 39.8294 39.9992 39.8294Z" fill="#D2DEFF"/>
<path d="M39.9992 40.7249C39.5169 40.7249 39.1258 41.1159 39.1258 41.5983C39.1258 42.0806 39.5169 42.4717 39.9992 42.4717C40.4816 42.4717 40.8727 42.0806 40.8727 41.5983C40.8727 41.1158 40.4816 40.7249 39.9992 40.7249Z" fill="#D2DEFF"/>
<path d="M39.9992 45.1138C40.4816 45.1138 40.8727 44.7228 40.8727 44.2404C40.8727 43.758 40.4816 43.3669 39.9992 43.3669C39.5168 43.3669 39.1258 43.758 39.1258 44.2404C39.1258 44.7228 39.5168 45.1138 39.9992 45.1138Z" fill="#D2DEFF"/>
<path d="M33.8353 35.0657H24.6813L24.1778 33.5082C24.0736 33.1859 23.7733 32.9673 23.4344 32.9673H21.1963C20.7649 32.9673 20.415 33.317 20.415 33.7485C20.415 34.1801 20.7649 34.5298 21.1963 34.5298H22.8659L24.7627 40.3976H24.6283C24.1969 40.3976 23.847 40.7473 23.847 41.1788C23.847 41.6104 24.1969 41.9601 24.6283 41.9601H32.8836C33.262 41.9601 33.5863 41.6888 33.6527 41.3162L34.6045 35.9843C34.6452 35.7567 34.5828 35.5228 34.4344 35.3454C34.2859 35.1681 34.0666 35.0657 33.8353 35.0657ZM32.2294 40.3976H26.4049L25.1864 36.6282H32.9023L32.2294 40.3976Z" fill="#D2DEFF"/>
<path d="M26.3013 42.6919C25.1802 42.6919 24.2681 43.6039 24.2681 44.725C24.2681 45.8461 25.1802 46.7581 26.3013 46.7581C27.4223 46.7581 28.3344 45.8461 28.3344 44.725C28.3344 43.6039 27.4223 42.6919 26.3013 42.6919ZM26.3013 45.1955C26.0417 45.1955 25.8306 44.9844 25.8306 44.7249C25.8306 44.4653 26.0417 44.2542 26.3013 44.2542C26.5608 44.2542 26.7719 44.4653 26.7719 44.7249C26.7719 44.9844 26.5608 45.1955 26.3013 45.1955Z" fill="#D2DEFF"/>
<path d="M32.1352 42.6919C31.0141 42.6919 30.1021 43.6039 30.1021 44.725C30.1021 45.8461 31.0141 46.7581 32.1352 46.7581C33.2563 46.7581 34.1683 45.8461 34.1683 44.725C34.1683 43.6039 33.2561 42.6919 32.1352 42.6919ZM32.1352 45.1955C31.8757 45.1955 31.6646 44.9844 31.6646 44.7249C31.6646 44.4653 31.8757 44.2542 32.1352 44.2542C32.3947 44.2542 32.6058 44.4653 32.6058 44.7249C32.6058 44.9844 32.3946 45.1955 32.1352 45.1955Z" fill="#D2DEFF"/>
<path d="M62.7524 40.8765H52.2094C51.7778 40.8765 51.4281 40.5268 51.4281 40.0952C51.4281 39.6637 51.7778 39.314 52.2094 39.314H62.7525C63.1841 39.314 63.5338 39.6637 63.5338 40.0952C63.5338 40.5268 63.1839 40.8765 62.7524 40.8765Z" fill="#9FB0FE"/>
</g>
<defs>
<linearGradient id="paint0_linear" x1="85.2211" y1="27.7949" x2="22.6461" y2="50.0595" gradientUnits="userSpaceOnUse">
<stop stop-color="#C7D3FF"/>
<stop offset="0.593" stop-color="#E7D8F5"/>
<stop offset="0.997" stop-color="#FFDBED"/>
</linearGradient>
<clipPath id="clip0">
<rect width="80" height="80" fill="white"/>
</clipPath>
</defs>
</svg>
