<svg width="38" height="28" viewBox="0 0 38 28" fill="none" xmlns="http://www.w3.org/2000/svg">
<path opacity="0.3" d="M31 7.67068V20.3211C31.0007 21.0666 30.8545 21.8049 30.5697 22.4939C30.2849 23.1829 29.8671 23.8089 29.3402 24.3363C28.8133 24.8638 28.1877 25.2822 27.499 25.5676C26.8103 25.8531 26.0721 26 25.3266 26H12.6762C11.1715 25.9993 9.72855 25.4014 8.66429 24.3377C7.60004 23.2739 7.00146 21.8313 7 20.3266V7.67618C6.99928 6.9308 7.14551 6.19259 7.43034 5.50378C7.71517 4.81497 8.133 4.18906 8.65993 3.66187C9.18687 3.13468 9.81257 2.71655 10.5012 2.43139C11.1899 2.14623 11.9281 1.99964 12.6734 2H25.3238C26.0689 1.99964 26.8067 2.14603 27.4952 2.43081C28.1836 2.71559 28.8093 3.13319 29.3363 3.65976C29.8634 4.18634 30.2816 4.81157 30.5671 5.49976C30.8525 6.18795 30.9996 6.92563 31 7.67068Z" fill="#E40678"/>
<g style="mix-blend-mode:soft-light" opacity="0.4">
<path d="M19.0569 11.3552L18.4023 14.7956L19.0569 15.3181V11.3552Z" fill="#153059"/>
</g>
<g style="mix-blend-mode:soft-light" filter="url(#filter0_f_5303:10452)">
<path d="M14.1041 14.375H12.0834C11.2434 14.375 10.5625 15.0466 10.5625 15.875C10.5625 16.7034 11.2434 17.375 12.0834 17.375H14.1041C14.9441 17.375 15.625 16.7034 15.625 15.875C15.625 15.0466 14.9441 14.375 14.1041 14.375Z" fill="#C140A3"/>
</g>
<g style="mix-blend-mode:soft-light" filter="url(#filter1_f_5303:10452)">
<path d="M25.7321 14.375H23.7054C22.8671 14.375 22.1875 15.046 22.1875 15.8737V15.8763C22.1875 16.704 22.8671 17.375 23.7054 17.375H25.7321C26.5704 17.375 27.25 16.704 27.25 15.8763V15.8737C27.25 15.046 26.5704 14.375 25.7321 14.375Z" fill="#C140A3"/>
</g>
<path d="M19.1017 20.9375H18.9604C17.1411 20.8966 15.0614 19.9456 14.5158 17.9099C14.5033 17.876 14.4981 17.84 14.5006 17.8041C14.503 17.7681 14.5131 17.7331 14.5301 17.7012C14.547 17.6693 14.5706 17.6413 14.5992 17.6188C14.6279 17.5964 14.6609 17.5801 14.6963 17.571C14.7317 17.5618 14.7687 17.5601 14.8048 17.5658C14.8409 17.5715 14.8755 17.5846 14.9062 17.6041C14.9369 17.6237 14.9631 17.6494 14.9831 17.6795C15.0032 17.7096 15.0166 17.7436 15.0226 17.7791C15.5017 19.5531 17.3515 20.3843 18.9715 20.4197C20.5167 20.4497 22.541 19.6996 23.1835 17.6884C23.2172 17.6409 23.2654 17.6052 23.3211 17.5865C23.3768 17.5678 23.4372 17.567 23.4933 17.5843C23.5495 17.6017 23.5986 17.6361 23.6335 17.6828C23.6685 17.7294 23.6874 17.7858 23.6875 17.8437C23.0977 19.6832 21.306 20.9375 19.1017 20.9375Z" fill="#153059"/>
<g clip-path="url(#clip0_5303:10452)">
<path d="M22.5062 12.6875C22.4742 12.6872 22.4424 12.6816 22.412 12.671C22.372 12.6585 22.3348 12.638 22.3025 12.6108C22.2703 12.5835 22.2437 12.5501 22.2241 12.5123C22.2046 12.4745 22.1926 12.4332 22.1888 12.3906C22.185 12.3481 22.1895 12.3052 22.202 12.2645C22.3545 11.7315 22.6741 11.2642 23.1118 10.9343C23.5495 10.6044 24.0812 10.4299 24.6254 10.4378C25.169 10.4327 25.6995 10.6081 26.1367 10.9377C26.5738 11.2672 26.8941 11.7329 27.0489 12.2645C27.0733 12.3472 27.0646 12.4363 27.0247 12.5125C26.9849 12.5887 26.9171 12.6456 26.8362 12.671C26.7963 12.6841 26.7541 12.689 26.7123 12.6853C26.6705 12.6816 26.6299 12.6694 26.5928 12.6494C26.5556 12.6295 26.5228 12.6021 26.4962 12.569C26.4695 12.536 26.4496 12.4978 26.4377 12.4568C26.3209 12.0571 26.0799 11.7071 25.7511 11.4593C25.4223 11.2116 25.0234 11.0796 24.6147 11.0833C24.2078 11.082 23.8113 11.2151 23.4847 11.4626C23.1581 11.7102 22.9187 12.0589 22.8024 12.4568C22.7825 12.5217 22.7433 12.5788 22.6902 12.6201C22.6372 12.6614 22.5729 12.6849 22.5062 12.6875Z" fill="#153059"/>
<path d="M11.0711 12.6875C11.039 12.6878 11.0071 12.6822 10.9769 12.671C10.9366 12.6588 10.8992 12.6385 10.8667 12.6114C10.8341 12.5843 10.8072 12.5508 10.7874 12.513C10.7676 12.4752 10.7554 12.4338 10.7514 12.3911C10.7474 12.3484 10.7518 12.3054 10.7642 12.2645C10.9175 11.7319 11.2372 11.2652 11.6746 10.9354C12.1121 10.6056 12.6432 10.4308 13.187 10.4377C13.7307 10.4317 14.2614 10.6068 14.6986 10.9365C15.1359 11.2662 15.4558 11.7324 15.6098 12.2645C15.6227 12.3052 15.6275 12.3482 15.6238 12.3908C15.6202 12.4335 15.6082 12.4749 15.5887 12.5128C15.5691 12.5507 15.5423 12.5842 15.5099 12.6113C15.4775 12.6385 15.4401 12.6588 15.3999 12.671C15.3188 12.6968 15.2311 12.6887 15.1559 12.6486C15.0807 12.6084 15.0241 12.5394 14.9988 12.4567C14.8821 12.0576 14.6416 11.7078 14.3135 11.4601C13.9853 11.2124 13.5871 11.0802 13.179 11.0832C12.7717 11.0814 12.3748 11.2142 12.0477 11.4618C11.7206 11.7094 11.4809 12.0585 11.3645 12.4567C11.3451 12.5215 11.3064 12.5785 11.2538 12.6198C11.2013 12.6611 11.1374 12.6848 11.0711 12.6875Z" fill="#153059"/>
</g>
<g clip-path="url(#clip1_5303:10452)">
<path fill-rule="evenodd" clip-rule="evenodd" d="M19.0125 0.79248C12.1253 0.79248 6.5437 1.6732 6.5437 2.76259C6.5437 3.85197 12.1253 4.72998 19.0125 4.72998C25.8996 4.72998 31.4812 3.84926 31.4812 2.76259C31.4812 1.67591 25.8968 0.79248 19.0125 0.79248ZM19.0125 4.04437C13.8696 4.03895 9.7079 3.38045 9.7079 2.58373C9.7079 1.78702 13.8696 1.0987 19.0125 1.0987C24.1553 1.0987 28.3225 1.77076 28.3225 2.58373C28.3225 3.3967 24.1526 4.03895 19.0125 4.03895V4.04437Z" fill="url(#paint0_linear_5303:10452)"/>
<path d="M19 4.8125C10.8319 4.8125 6.4375 3.73548 6.4375 2.75C6.4375 1.76452 10.8401 0.6875 19 0.6875C27.1599 0.6875 31.5625 1.76452 31.5625 2.75C31.5625 3.73548 27.1599 4.8125 19 4.8125ZM19 0.89752C11.6106 0.89752 6.64987 1.85607 6.64987 2.75C6.64987 3.64393 11.6106 4.59979 19 4.59979C26.3894 4.59979 31.3501 3.64931 31.3501 2.75C31.3501 1.85069 26.3867 0.89752 19 0.89752ZM19 4.12859C14.4395 4.12859 9.5931 3.59008 9.5931 2.56421C9.5931 1.53835 14.4395 0.997144 19 0.997144C23.5605 0.997144 28.4069 1.54104 28.4069 2.57229C28.4069 3.60354 23.5605 4.1232 19 4.1232V4.12859ZM19 1.20716C13.5818 1.20716 9.80547 1.92069 9.80547 2.55344C9.80547 3.18619 13.5818 3.89972 19 3.89972C24.4182 3.89972 28.1945 3.19966 28.1945 2.57229C28.1945 1.94492 24.4073 1.20178 19 1.20178V1.20716Z" fill="url(#paint1_linear_5303:10452)"/>
</g>
<defs>
<filter id="filter0_f_5303:10452" x="0.5625" y="4.375" width="25.0625" height="23" filterUnits="userSpaceOnUse" color-interpolation-filters="sRGB">
<feFlood flood-opacity="0" result="BackgroundImageFix"/>
<feBlend mode="normal" in="SourceGraphic" in2="BackgroundImageFix" result="shape"/>
<feGaussianBlur stdDeviation="5" result="effect1_foregroundBlur_5303:10452"/>
</filter>
<filter id="filter1_f_5303:10452" x="12.1875" y="4.375" width="25.0625" height="23" filterUnits="userSpaceOnUse" color-interpolation-filters="sRGB">
<feFlood flood-opacity="0" result="BackgroundImageFix"/>
<feBlend mode="normal" in="SourceGraphic" in2="BackgroundImageFix" result="shape"/>
<feGaussianBlur stdDeviation="5" result="effect1_foregroundBlur_5303:10452"/>
</filter>
<linearGradient id="paint0_linear_5303:10452" x1="19.0125" y1="4.72998" x2="19.0125" y2="0.79248" gradientUnits="userSpaceOnUse">
<stop offset="0.28" stop-color="#95DBF5"/>
<stop offset="0.37" stop-color="#8CCFEA"/>
<stop offset="0.53" stop-color="#75AFCE"/>
<stop offset="0.75" stop-color="#4F7AA0"/>
<stop offset="1" stop-color="#0071BC"/>
</linearGradient>
<linearGradient id="paint1_linear_5303:10452" x1="19" y1="4.8125" x2="19" y2="0.6875" gradientUnits="userSpaceOnUse">
<stop offset="0.28" stop-color="#56AFCE"/>
<stop offset="0.37" stop-color="#51A5C2"/>
<stop offset="0.53" stop-color="#4489A2"/>
<stop offset="0.74" stop-color="#2F5C6D"/>
<stop offset="1" stop-color="#121D25"/>
</linearGradient>
<clipPath id="clip0_5303:10452">
<rect width="16.3988" height="5.61843" fill="white" transform="translate(10.75 9.125)"/>
</clipPath>
<clipPath id="clip1_5303:10452">
<rect width="25.125" height="4.125" fill="white" transform="translate(6.4375 0.6875)"/>
</clipPath>
</defs>
</svg>
