<svg width="24" height="24" viewBox="0 0 24 24" fill="none" xmlns="http://www.w3.org/2000/svg">
<path opacity="0.3" d="M24 5.67068V18.3211C24.0007 19.0666 23.8545 19.8049 23.5697 20.4939C23.2849 21.1829 22.8671 21.8089 22.3402 22.3363C21.8133 22.8638 21.1877 23.2822 20.499 23.5676C19.8103 23.8531 19.0721 24 18.3266 24H5.67618C4.17146 23.9993 2.72855 23.4014 1.66429 22.3377C0.60004 21.2739 0.00145984 19.8313 2.66829e-06 18.3266V5.67618C-0.000720386 4.9308 0.145514 4.19259 0.43034 3.50378C0.715167 2.81497 1.133 2.18906 1.65993 1.66187C2.18687 1.13468 2.81257 0.716551 3.50124 0.431391C4.18991 0.146231 4.92805 -0.000361166 5.67343 6.68205e-07H18.3238C19.0689 -0.000360566 19.8067 0.146029 20.4952 0.430812C21.1836 0.715595 21.8093 1.13319 22.3363 1.65976C22.8634 2.18634 23.2816 2.81157 23.5671 3.49976C23.8525 4.18795 23.9996 4.92563 24 5.67068Z" fill="#1C9B9B"/>
<g style="mix-blend-mode:soft-light">
<path d="M12.0569 9.35522L11.4023 12.7956L12.0569 13.3181V9.35522Z" fill="#153059"/>
</g>
<path fill-rule="evenodd" clip-rule="evenodd" d="M18.75 13.5C18.75 13.5303 18.75 13.5607 18.75 13.591C18.7474 14.0804 18.6903 14.568 18.5797 15.0447C18.4039 15.7971 18.0765 16.5053 17.6177 17.1258C17.159 17.7463 16.5785 18.2659 15.9121 18.6526C13.5605 20.0622 10.2473 20.0318 7.94508 18.5616C7.29868 18.1616 6.73973 17.6342 6.30202 17.0112C5.8643 16.3883 5.5569 15.6827 5.39839 14.9371C5.29824 14.4647 5.24851 13.983 5.25003 13.5C9.53574 15.155 13.8846 15.155 18.2885 13.6683L18.75 13.5Z" fill="#153059" stroke="#153059" stroke-width="0.5" stroke-linecap="round" stroke-linejoin="round"/>
<path fill-rule="evenodd" clip-rule="evenodd" d="M18.75 13.5895C18.7474 14.0705 18.6903 14.5497 18.5797 15.0181C14.6747 17.5474 9.30607 17.4742 5.39832 14.9124C5.29822 14.4481 5.24851 13.9747 5.25003 13.5C9.53399 15.1265 13.8811 15.1265 18.2832 13.6654L18.75 13.5895Z" fill="white"/>
<path fill-rule="evenodd" clip-rule="evenodd" d="M16.125 18.6535C13.6898 20.0619 10.259 20.0315 7.875 18.5625C10.5997 19.0465 13.3896 19.0773 16.125 18.6535Z" fill="white"/>
<path fill-rule="evenodd" clip-rule="evenodd" d="M18.8561 13.3473C18.9071 13.3832 18.9375 13.4419 18.9375 13.5045C18.9375 15.6226 18.0676 17.2218 16.7584 18.2876C15.454 19.3495 13.7228 19.875 12 19.875C10.2772 19.875 8.546 19.3495 7.24155 18.2876C5.93239 17.2218 5.0625 15.6226 5.0625 13.5045C5.0625 13.4413 5.09345 13.3821 5.14527 13.3463C5.19708 13.3105 5.26313 13.3026 5.32186 13.3252C9.71889 15.0164 14.1608 14.9713 18.6813 13.324C18.7399 13.3027 18.8051 13.3114 18.8561 13.3473ZM5.45001 13.7836C5.52239 15.6445 6.31879 17.0422 7.4821 17.9892C8.70756 18.9868 10.3496 19.491 12 19.491C13.6504 19.491 15.2924 18.9868 16.5179 17.9892C17.6823 17.0413 18.4791 15.642 18.5502 13.7785C14.1292 15.331 9.76711 15.3763 5.45001 13.7836Z" fill="#153059"/>
<g style="mix-blend-mode:soft-light">
<path d="M9.0025 20.071C9.84666 21.0388 13.6959 21.1028 14.6275 20.071C12.775 20.4896 10.855 20.4896 9.0025 20.071Z" fill="#153059"/>
</g>
<path fill-rule="evenodd" clip-rule="evenodd" d="M7.28547 13.1277C5.84993 12.4483 3.28685 11.3427 2.73133 9.38713C2.70202 9.29717 2.67904 9.20526 2.66258 9.11209C2.32157 7.18681 4.36488 5.82811 6.21844 7.14555C7.30198 5.56682 9.16653 5.72909 9.93381 6.96678C10.0832 7.21133 10.1849 7.48197 10.2336 7.76439C10.6103 9.88495 8.45151 11.9395 7.28547 13.1277Z" fill="#CE0F0F"/>
<path opacity="0.2" fill-rule="evenodd" clip-rule="evenodd" d="M7.01872 12.4896C5.74818 11.8872 3.59486 10.9521 2.73133 9.38713C2.70202 9.29717 2.67904 9.20526 2.66258 9.11209C2.32157 7.18681 4.36488 5.82811 6.21844 7.14555C7.30197 5.56682 9.16653 5.72909 9.93381 6.96678C9.93381 7.01903 9.95856 7.07129 9.96681 7.12355C10.3353 9.24686 8.18475 11.2904 7.01872 12.4896Z" fill="white"/>
<path opacity="0.4" fill-rule="evenodd" clip-rule="evenodd" d="M2.99258 8.81493C3.09709 8.00356 4.81039 6.9474 5.51991 7.14818C4.13937 6.76588 3.18509 7.42047 2.99258 8.81493Z" fill="white"/>
<path fill-rule="evenodd" clip-rule="evenodd" d="M16.8318 13.1277C18.2674 12.4483 20.8304 11.3427 21.386 9.38713C21.4153 9.29717 21.4382 9.20526 21.4547 9.11209C21.7957 7.18681 19.7524 5.82811 17.8988 7.14555C16.8153 5.56682 14.9507 5.72909 14.1835 6.96678C14.0341 7.21133 13.9324 7.48197 13.8837 7.76439C13.5042 9.88495 15.6658 11.9395 16.8318 13.1277Z" fill="#CE0F0F"/>
<path opacity="0.2" fill-rule="evenodd" clip-rule="evenodd" d="M17.0986 12.4896C18.3691 11.8872 20.5224 10.9521 21.3859 9.38713C21.4153 9.29717 21.4382 9.20526 21.4547 9.11209C21.7957 7.18681 19.7524 5.82811 17.8988 7.14555C16.8153 5.56682 14.9507 5.72909 14.1835 6.96678C14.1835 7.01903 14.1587 7.07129 14.1505 7.12355C13.771 9.24686 15.9325 11.2904 17.0986 12.4896Z" fill="white"/>
<path opacity="0.4" fill-rule="evenodd" clip-rule="evenodd" d="M21.1219 8.81493C21.0202 8.00356 19.3041 6.9474 18.5946 7.14818C19.9779 6.76588 20.9432 7.42047 21.1219 8.81493Z" fill="white"/>
</svg>
