<svg width="38" height="26" viewBox="0 0 38 26" fill="none" xmlns="http://www.w3.org/2000/svg">
<path opacity="0.3" d="M31 5.67068V18.3211C31.0007 19.0666 30.8545 19.8049 30.5697 20.4939C30.2849 21.1829 29.8671 21.8089 29.3402 22.3363C28.8133 22.8638 28.1877 23.2822 27.499 23.5676C26.8103 23.8531 26.0721 24 25.3266 24H12.6762C11.1715 23.9993 9.72855 23.4014 8.66429 22.3377C7.60004 21.2739 7.00146 19.8313 7 18.3266V5.67618C6.99928 4.9308 7.14551 4.19259 7.43034 3.50378C7.71517 2.81497 8.133 2.18906 8.65993 1.66187C9.18687 1.13468 9.81257 0.716551 10.5012 0.431391C11.1899 0.146231 11.9281 -0.000361166 12.6734 6.68205e-07H25.3238C26.0689 -0.000360566 26.8067 0.146029 27.4952 0.430812C28.1836 0.715595 28.8093 1.13319 29.3363 1.65976C29.8634 2.18634 30.2816 2.81157 30.5671 3.49976C30.8525 4.18795 30.9996 4.92563 31 5.67068Z" fill="#5B5AAB"/>
<g style="mix-blend-mode:soft-light">
<path d="M19.0569 9.35522L18.4023 12.7956L19.0569 13.3181V9.35522Z" fill="#153059"/>
</g>
<g style="mix-blend-mode:soft-light" filter="url(#filter0_f_5303:10872)">
<path d="M14.1041 12.375H12.0834C11.2434 12.375 10.5625 13.0466 10.5625 13.875C10.5625 14.7034 11.2434 15.375 12.0834 15.375H14.1041C14.9441 15.375 15.625 14.7034 15.625 13.875C15.625 13.0466 14.9441 12.375 14.1041 12.375Z" fill="#C140A3"/>
</g>
<g style="mix-blend-mode:soft-light" filter="url(#filter1_f_5303:10872)">
<path d="M25.7321 12.375H23.7054C22.8671 12.375 22.1875 13.046 22.1875 13.8737V13.8763C22.1875 14.704 22.8671 15.375 23.7054 15.375H25.7321C26.5704 15.375 27.25 14.704 27.25 13.8763V13.8737C27.25 13.046 26.5704 12.375 25.7321 12.375Z" fill="#C140A3"/>
</g>
<path fill-rule="evenodd" clip-rule="evenodd" d="M12.25 13.5C12.25 21.75 25.75 21.75 25.75 13.5C21.1951 15.1627 16.6951 15.2123 12.25 13.5Z" fill="white"/>
<path fill-rule="evenodd" clip-rule="evenodd" d="M13.5625 17.25C16.253 20.2123 21.6905 20.2504 24.4375 17.3591C20.8467 18.0799 17.137 18.0427 13.5625 17.25Z" fill="#DDDBDB"/>
<path d="M19.0068 19.8738C17.2884 19.9049 15.6111 19.3454 14.2531 18.2882C12.8265 17.1313 12.0625 15.477 12.0625 13.5122C12.0628 13.4803 12.0707 13.449 12.0854 13.4208C12.1002 13.3926 12.1214 13.3684 12.1474 13.3501C12.1737 13.3325 12.2038 13.3214 12.2352 13.3176C12.2665 13.3137 12.2984 13.3173 12.3281 13.3281C16.6245 14.9769 21.1126 14.9769 25.6637 13.3281C25.6938 13.3153 25.7266 13.3103 25.7591 13.3134C25.7917 13.3165 25.8229 13.3277 25.8501 13.346C25.8772 13.3642 25.8995 13.389 25.9147 13.418C25.93 13.447 25.9378 13.4794 25.9375 13.5122C25.9375 15.477 25.1845 17.1313 23.7468 18.2882C22.3922 19.3417 20.7204 19.9009 19.0068 19.8738ZM12.4705 13.798C12.6239 17.7001 15.929 19.4836 19.0068 19.4836C22.0847 19.4836 25.4035 17.7001 25.5432 13.7925C21.0852 15.3506 16.6902 15.3533 12.4705 13.798Z" fill="#153059"/>
<g style="mix-blend-mode:soft-light">
<path d="M16.1875 20.0625C17.0317 21.0302 20.8809 21.0943 21.8125 20.0625C19.9597 20.4794 18.0403 20.4794 16.1875 20.0625Z" fill="#153059"/>
</g>
<g clip-path="url(#clip0_5303:10872)">
<path d="M22.5062 10.6875C22.4742 10.6872 22.4424 10.6816 22.412 10.671C22.372 10.6585 22.3348 10.638 22.3025 10.6108C22.2703 10.5835 22.2437 10.5501 22.2241 10.5123C22.2046 10.4745 22.1926 10.4332 22.1888 10.3906C22.185 10.3481 22.1895 10.3052 22.202 10.2645C22.3545 9.7315 22.6741 9.26424 23.1118 8.9343C23.5495 8.60436 24.0812 8.42993 24.6254 8.43775C25.169 8.43266 25.6995 8.60813 26.1367 8.93767C26.5738 9.26721 26.8941 9.73292 27.0489 10.2645C27.0733 10.3472 27.0646 10.4363 27.0247 10.5125C26.9849 10.5887 26.9171 10.6456 26.8362 10.671C26.7963 10.6841 26.7541 10.689 26.7123 10.6853C26.6705 10.6816 26.6299 10.6694 26.5928 10.6494C26.5556 10.6295 26.5228 10.6021 26.4962 10.569C26.4695 10.536 26.4496 10.4978 26.4377 10.4568C26.3209 10.0571 26.0799 9.70706 25.7511 9.45932C25.4223 9.21159 25.0234 9.07961 24.6147 9.08328C24.2078 9.08199 23.8113 9.21507 23.4847 9.46263C23.1581 9.7102 22.9187 10.0589 22.8024 10.4568C22.7825 10.5217 22.7433 10.5788 22.6902 10.6201C22.6372 10.6614 22.5729 10.6849 22.5062 10.6875Z" fill="#153059"/>
<path d="M11.0711 10.6875C11.039 10.6878 11.0071 10.6822 10.9769 10.671C10.9366 10.6588 10.8992 10.6385 10.8667 10.6114C10.8341 10.5843 10.8072 10.5508 10.7874 10.513C10.7676 10.4752 10.7554 10.4338 10.7514 10.3911C10.7474 10.3484 10.7518 10.3054 10.7642 10.2645C10.9175 9.73195 11.2372 9.2652 11.6746 8.93539C12.1121 8.60557 12.6432 8.43079 13.187 8.4377C13.7307 8.4317 14.2614 8.60683 14.6986 8.93651C15.1359 9.26619 15.4558 9.73242 15.6098 10.2645C15.6227 10.3052 15.6275 10.3482 15.6238 10.3908C15.6202 10.4335 15.6082 10.4749 15.5887 10.5128C15.5691 10.5507 15.5423 10.5842 15.5099 10.6113C15.4775 10.6385 15.4401 10.6588 15.3999 10.671C15.3188 10.6968 15.2311 10.6887 15.1559 10.6486C15.0807 10.6084 15.0241 10.5394 14.9988 10.4567C14.8821 10.0576 14.6416 9.70782 14.3135 9.46012C13.9853 9.21242 13.5871 9.08016 13.179 9.08324C12.7717 9.08136 12.3748 9.21416 12.0477 9.46177C11.7206 9.70938 11.4809 10.0585 11.3645 10.4567C11.3451 10.5215 11.3064 10.5785 11.2538 10.6198C11.2013 10.6611 11.1374 10.6848 11.0711 10.6875Z" fill="#153059"/>
</g>
<defs>
<filter id="filter0_f_5303:10872" x="0.5625" y="2.375" width="25.0625" height="23" filterUnits="userSpaceOnUse" color-interpolation-filters="sRGB">
<feFlood flood-opacity="0" result="BackgroundImageFix"/>
<feBlend mode="normal" in="SourceGraphic" in2="BackgroundImageFix" result="shape"/>
<feGaussianBlur stdDeviation="5" result="effect1_foregroundBlur_5303:10872"/>
</filter>
<filter id="filter1_f_5303:10872" x="12.1875" y="2.375" width="25.0625" height="23" filterUnits="userSpaceOnUse" color-interpolation-filters="sRGB">
<feFlood flood-opacity="0" result="BackgroundImageFix"/>
<feBlend mode="normal" in="SourceGraphic" in2="BackgroundImageFix" result="shape"/>
<feGaussianBlur stdDeviation="5" result="effect1_foregroundBlur_5303:10872"/>
</filter>
<clipPath id="clip0_5303:10872">
<rect width="16.3988" height="5.61843" fill="white" transform="translate(10.75 7.125)"/>
</clipPath>
</defs>
</svg>
