<svg width="24" height="24" viewBox="0 0 24 24" fill="none" xmlns="http://www.w3.org/2000/svg">
<path opacity="0.3" d="M24 5.67068V18.3211C24.0007 19.0666 23.8545 19.8049 23.5697 20.4939C23.2849 21.1829 22.8671 21.8089 22.3402 22.3363C21.8133 22.8638 21.1877 23.2822 20.499 23.5676C19.8103 23.8531 19.0721 24 18.3266 24H5.67618C4.17146 23.9993 2.72855 23.4014 1.66429 22.3377C0.60004 21.2739 0.00145984 19.8313 2.66829e-06 18.3266V5.67618C-0.000720386 4.9308 0.145514 4.19259 0.43034 3.50378C0.715167 2.81497 1.133 2.18906 1.65993 1.66187C2.18687 1.13468 2.81257 0.716551 3.50124 0.431391C4.18991 0.146231 4.92805 -0.000361166 5.67343 6.68205e-07H18.3238C19.0689 -0.000360566 19.8067 0.146029 20.4952 0.430812C21.1836 0.715595 21.8093 1.13319 22.3363 1.65976C22.8634 2.18634 23.2816 2.81157 23.5671 3.49976C23.8525 4.18795 23.9996 4.92563 24 5.67068Z" fill="#90409C"/>
<g style="mix-blend-mode:soft-light" opacity="0.4">
<path d="M12.0569 9.35522L11.4023 12.7956L12.0569 13.3181V9.35522Z" fill="#153059"/>
</g>
<path fill-rule="evenodd" clip-rule="evenodd" d="M5.25 14.0625C7.17073 20.1899 16.8238 19.9337 18.75 14.0625C14.3015 15.0402 9.69846 15.0402 5.25 14.0625Z" fill="#153059"/>
<path d="M11.9406 18.75H11.8197C8.55485 18.7047 5.90563 16.8848 5.07019 14.1112C5.06124 14.0805 5.06008 14.0481 5.06682 14.0168C5.07356 13.9856 5.08796 13.9567 5.10866 13.9329C5.13032 13.9098 5.15732 13.8927 5.18712 13.8833C5.21692 13.8739 5.24855 13.8725 5.27905 13.8791C9.7104 14.8628 14.2944 14.8628 18.7258 13.8791C18.7561 13.8725 18.7875 13.8742 18.817 13.8842C18.8464 13.8941 18.8728 13.9119 18.8934 13.9357C18.9136 13.9604 18.9275 13.9899 18.9338 14.0215C18.94 14.0532 18.9384 14.086 18.9291 14.1168C17.9865 16.9443 15.2548 18.75 11.9406 18.75ZM5.4989 14.3065C6.38655 16.7688 8.82966 18.3453 11.8197 18.3877C14.9251 18.433 17.4891 16.8396 18.4784 14.3065C14.1966 15.2117 9.78077 15.2117 5.4989 14.3065Z" fill="#153059"/>
<g style="mix-blend-mode:soft-light" opacity="0.4">
<path d="M8.62881 19.9189C9.58034 20.9667 13.9255 21.0355 14.976 19.9189C12.8848 20.3741 10.7201 20.3741 8.62881 19.9189Z" fill="#422715"/>
<path d="M8.62881 19.9189C9.58034 20.9667 13.9255 21.0355 14.976 19.9189C12.8848 20.3741 10.7201 20.3741 8.62881 19.9189Z" stroke="#153059" stroke-width="1.58" stroke-miterlimit="10"/>
</g>
<path fill-rule="evenodd" clip-rule="evenodd" d="M12.1563 21.75H11.6424C11.1405 21.75 10.6592 21.5518 10.3043 21.199C9.94938 20.8462 9.75 20.3677 9.75 19.8687V16.9741C9.75 16.6171 10.2749 16.2354 10.6644 16.326C11.482 16.5178 12.3333 16.5178 13.1508 16.326C13.5017 16.2546 14.0625 16.6171 14.0625 16.9741V19.8687C14.0625 20.1169 14.0131 20.3627 13.9171 20.5918C13.8212 20.821 13.6805 21.029 13.5033 21.2038C13.3262 21.3787 13.1159 21.517 12.8847 21.6107C12.6535 21.7044 12.4059 21.7518 12.1563 21.75Z" fill="url(#paint0_linear_5303:10440)"/>
<path fill-rule="evenodd" clip-rule="evenodd" d="M11.6759 16.5C11.8546 17.2031 11.7374 18.9375 11.8868 18.9375C12.0363 18.9375 11.9865 17.2474 12.1447 16.5H11.6759Z" fill="#A00707"/>
<path d="M18.2645 12H17.0293C15.2094 12 15.2094 12.0137 15.2094 10.1801V9.41427C15.2091 9.11377 15.268 8.81614 15.3827 8.53841C15.4975 8.26068 15.6658 8.00829 15.8782 7.79568C16.0905 7.58306 16.3427 7.41439 16.6203 7.29931C16.8979 7.18423 17.1955 7.125 17.496 7.125H17.7979C18.0984 7.125 18.396 7.18423 18.6736 7.29931C18.9512 7.41439 19.2033 7.58306 19.4157 7.79568C19.6281 8.00829 19.7964 8.26068 19.9112 8.53841C20.0259 8.81614 20.0848 9.11377 20.0844 9.41427V10.1938C20.0789 12.0137 20.0789 12 18.2645 12Z" fill="#153059"/>
<path d="M16.8513 8.91247C17.0883 8.91247 17.2803 8.72039 17.2803 8.48346C17.2803 8.24652 17.0883 8.05444 16.8513 8.05444C16.6144 8.05444 16.4223 8.24652 16.4223 8.48346C16.4223 8.72039 16.6144 8.91247 16.8513 8.91247Z" fill="white"/>
<path opacity="0.1" d="M17.6461 10.5654C18.1974 10.5654 18.6444 10.1185 18.6444 9.56713C18.6444 9.01579 18.1974 8.56885 17.6461 8.56885C17.0948 8.56885 16.6478 9.01579 16.6478 9.56713C16.6478 10.1185 17.0948 10.5654 17.6461 10.5654Z" fill="white"/>
<path d="M4.09069 10.6875C4.05861 10.6872 4.0268 10.6816 3.99644 10.671C3.95642 10.6585 3.91923 10.638 3.88699 10.6108C3.85475 10.5835 3.82811 10.5501 3.80859 10.5123C3.78907 10.4745 3.77707 10.4332 3.77326 10.3906C3.76945 10.3481 3.77392 10.3052 3.78641 10.2645C3.93891 9.7315 4.25852 9.26424 4.69625 8.9343C5.13398 8.60436 5.66569 8.42993 6.20989 8.43775C6.75347 8.43266 7.2839 8.60813 7.7211 8.93767C8.1583 9.26721 8.47851 9.73292 8.63338 10.2645C8.65774 10.3472 8.64905 10.4363 8.60919 10.5125C8.56933 10.5887 8.50156 10.6456 8.42065 10.671C8.38071 10.6841 8.3386 10.689 8.29679 10.6853C8.25498 10.6816 8.21432 10.6694 8.1772 10.6494C8.14008 10.6295 8.10724 10.6021 8.08061 10.569C8.05398 10.536 8.03409 10.4978 8.02212 10.4568C7.90534 10.0571 7.66438 9.70706 7.33556 9.45932C7.00674 9.21159 6.60788 9.07961 6.19912 9.08328C5.7922 9.08199 5.39579 9.21507 5.06914 9.46263C4.7425 9.7102 4.50315 10.0589 4.38689 10.4568C4.36692 10.5217 4.32772 10.5788 4.27468 10.6201C4.22165 10.6614 4.15737 10.6849 4.09069 10.6875Z" fill="#153059"/>
<defs>
<linearGradient id="paint0_linear_5303:10440" x1="11.8993" y1="21.75" x2="11.8993" y2="16.3123" gradientUnits="userSpaceOnUse">
<stop stop-color="#EF0A0A"/>
<stop offset="0.5" stop-color="#ED0A0A"/>
<stop offset="0.67" stop-color="#E60A0A"/>
<stop offset="0.8" stop-color="#DB0A0A"/>
<stop offset="0.9" stop-color="#CA0A0A"/>
<stop offset="0.99" stop-color="#B40A0A"/>
<stop offset="1" stop-color="#B10A0A"/>
</linearGradient>
</defs>
</svg>
