<svg width="38" height="26" viewBox="0 0 38 26" fill="none" xmlns="http://www.w3.org/2000/svg">
<path opacity="0.3" d="M31 5.67068V18.3211C31.0007 19.0666 30.8545 19.8049 30.5697 20.4939C30.2849 21.1829 29.8671 21.8089 29.3402 22.3363C28.8133 22.8638 28.1877 23.2822 27.499 23.5676C26.8103 23.8531 26.0721 24 25.3266 24H12.6762C11.1715 23.9993 9.72855 23.4014 8.66429 22.3377C7.60004 21.2739 7.00146 19.8313 7 18.3266V5.67618C6.99928 4.9308 7.14551 4.19259 7.43034 3.50378C7.71517 2.81497 8.133 2.18906 8.65993 1.66187C9.18687 1.13468 9.81257 0.716551 10.5012 0.431391C11.1899 0.146231 11.9281 -0.000361166 12.6734 6.68205e-07H25.3238C26.0689 -0.000360566 26.8067 0.146029 27.4952 0.430812C28.1836 0.715595 28.8093 1.13319 29.3363 1.65976C29.8634 2.18634 30.2816 2.81157 30.5671 3.49976C30.8525 4.18795 30.9996 4.92563 31 5.67068Z" fill="#E85A45"/>
<g style="mix-blend-mode:soft-light">
<path d="M19.0569 9.35522L18.4023 12.7956L19.0569 13.3181V9.35522Z" fill="#153059"/>
</g>
<g style="mix-blend-mode:soft-light" filter="url(#filter0_f_5303:10836)">
<path d="M14.1041 12.375H12.0834C11.2434 12.375 10.5625 13.0466 10.5625 13.875C10.5625 14.7034 11.2434 15.375 12.0834 15.375H14.1041C14.9441 15.375 15.625 14.7034 15.625 13.875C15.625 13.0466 14.9441 12.375 14.1041 12.375Z" fill="#C140A3"/>
</g>
<g style="mix-blend-mode:soft-light" filter="url(#filter1_f_5303:10836)">
<path d="M25.7321 12.375H23.7054C22.8671 12.375 22.1875 13.046 22.1875 13.8737V13.8763C22.1875 14.704 22.8671 15.375 23.7054 15.375H25.7321C26.5704 15.375 27.25 14.704 27.25 13.8763V13.8737C27.25 13.046 26.5704 12.375 25.7321 12.375Z" fill="#C140A3"/>
</g>
<path fill-rule="evenodd" clip-rule="evenodd" d="M12.6304 20.2585C12.6304 11.2585 25.7554 11.2585 25.7554 20.2585H12.6304Z" fill="#153059"/>
<path fill-rule="evenodd" clip-rule="evenodd" d="M14.7096 15.5132C16.9346 13.0034 21.2625 13.023 23.7096 15.5132H14.7096Z" fill="white"/>
<path d="M12.8155 18.8999H25.5589C25.6189 19.3343 25.6462 19.7732 25.6406 20.2124H12.7039C12.7026 19.7721 12.7399 19.3326 12.8155 18.8999Z" fill="white"/>
<path d="M25.7442 20.4375H12.6305C12.5793 20.4375 12.5302 20.4171 12.494 20.3809C12.4578 20.3446 12.4375 20.2955 12.4375 20.2442C12.4375 15.4897 15.9354 13.3125 19.1887 13.3125C22.442 13.3125 25.9372 15.4897 25.9372 20.2361C25.9387 20.2622 25.9348 20.2884 25.9257 20.313C25.9167 20.3375 25.9026 20.36 25.8845 20.3789C25.8664 20.3978 25.8446 20.4127 25.8205 20.4228C25.7963 20.4329 25.7704 20.4379 25.7442 20.4375ZM12.8262 20.051H25.5377C25.4969 18.1133 24.812 16.4885 23.5536 15.34C22.3492 14.2687 20.7887 13.6863 19.1778 13.7071C16.1664 13.7098 12.9213 15.6966 12.8262 20.051Z" fill="#153059"/>
<path d="M22.5062 10.6875C22.4742 10.6872 22.4424 10.6816 22.412 10.671C22.372 10.6585 22.3348 10.638 22.3025 10.6108C22.2703 10.5835 22.2437 10.5501 22.2241 10.5123C22.2046 10.4745 22.1926 10.4332 22.1888 10.3906C22.185 10.3481 22.1895 10.3052 22.202 10.2645C22.3545 9.7315 22.6741 9.26424 23.1118 8.9343C23.5495 8.60436 24.0812 8.42993 24.6254 8.43775C25.169 8.43266 25.6995 8.60813 26.1367 8.93767C26.5738 9.26721 26.8941 9.73292 27.0489 10.2645C27.0733 10.3472 27.0646 10.4363 27.0247 10.5125C26.9849 10.5887 26.9171 10.6456 26.8362 10.671C26.7963 10.6841 26.7541 10.689 26.7123 10.6853C26.6705 10.6816 26.6299 10.6694 26.5928 10.6494C26.5556 10.6295 26.5228 10.6021 26.4962 10.569C26.4695 10.536 26.4496 10.4978 26.4377 10.4568C26.3209 10.0571 26.0799 9.70706 25.7511 9.45932C25.4223 9.21159 25.0234 9.07961 24.6147 9.08328C24.2078 9.08199 23.8113 9.21507 23.4847 9.46263C23.1581 9.7102 22.9187 10.0589 22.8024 10.4568C22.7825 10.5217 22.7433 10.5788 22.6902 10.6201C22.6372 10.6614 22.5729 10.6849 22.5062 10.6875Z" fill="#153059"/>
<path d="M11.0711 10.6875C11.039 10.6878 11.0071 10.6822 10.9769 10.671C10.9366 10.6588 10.8992 10.6385 10.8667 10.6114C10.8341 10.5843 10.8072 10.5508 10.7874 10.513C10.7676 10.4752 10.7554 10.4338 10.7514 10.3911C10.7474 10.3484 10.7518 10.3054 10.7642 10.2645C10.9175 9.73195 11.2372 9.2652 11.6746 8.93539C12.1121 8.60557 12.6432 8.43079 13.187 8.4377C13.7307 8.4317 14.2614 8.60683 14.6986 8.93651C15.1359 9.26619 15.4558 9.73242 15.6098 10.2645C15.6227 10.3052 15.6275 10.3482 15.6238 10.3908C15.6202 10.4335 15.6082 10.4749 15.5887 10.5128C15.5691 10.5507 15.5423 10.5842 15.5099 10.6113C15.4775 10.6385 15.4401 10.6588 15.3999 10.671C15.3188 10.6968 15.2311 10.6887 15.1559 10.6486C15.0807 10.6084 15.0241 10.5394 14.9988 10.4567C14.8821 10.0576 14.6416 9.70782 14.3135 9.46012C13.9853 9.21242 13.5871 9.08016 13.179 9.08324C12.7717 9.08136 12.3748 9.21416 12.0477 9.46177C11.7206 9.70938 11.4809 10.0585 11.3645 10.4567C11.3451 10.5215 11.3064 10.5785 11.2538 10.6198C11.2013 10.6611 11.1374 10.6848 11.0711 10.6875Z" fill="#153059"/>
<path d="M10.8186 14.5368C10.7708 14.6934 10.6927 14.839 10.5885 14.9653C10.4843 15.0916 10.3563 15.196 10.2116 15.2727C10.067 15.3494 9.90862 15.3967 9.74563 15.412C9.58264 15.4273 9.41823 15.4103 9.26185 15.3619C8.95804 15.2338 8.7174 14.9905 8.59264 14.6853C8.46788 14.3802 8.46918 14.038 8.59625 13.7338C8.92355 12.829 9.79543 12.6778 10.7031 11.3962C10.5133 12.9088 11.1816 13.5496 10.8186 14.5368Z" fill="#4ABCF4"/>
<path d="M26.9002 14.537C26.9461 14.6934 27.0237 14.8387 27.1282 14.9638C27.2327 15.0889 27.3619 15.1911 27.5076 15.2642C27.6533 15.3373 27.8125 15.3796 27.9753 15.3885C28.1381 15.3974 28.3009 15.3727 28.4537 15.316C28.6066 15.2592 28.7461 15.1716 28.8636 15.0587C28.9811 14.9457 29.0741 14.8098 29.1369 14.6594C29.1996 14.5089 29.2307 14.3472 29.2282 14.1842C29.2257 14.0212 29.1897 13.8605 29.1225 13.712C28.7952 12.821 27.9233 12.6697 27.0074 11.3882C27.2055 12.909 26.5371 13.5498 26.9002 14.537Z" fill="#4ABCF4"/>
<defs>
<filter id="filter0_f_5303:10836" x="0.5625" y="2.375" width="25.0625" height="23" filterUnits="userSpaceOnUse" color-interpolation-filters="sRGB">
<feFlood flood-opacity="0" result="BackgroundImageFix"/>
<feBlend mode="normal" in="SourceGraphic" in2="BackgroundImageFix" result="shape"/>
<feGaussianBlur stdDeviation="5" result="effect1_foregroundBlur_5303:10836"/>
</filter>
<filter id="filter1_f_5303:10836" x="12.1875" y="2.375" width="25.0625" height="23" filterUnits="userSpaceOnUse" color-interpolation-filters="sRGB">
<feFlood flood-opacity="0" result="BackgroundImageFix"/>
<feBlend mode="normal" in="SourceGraphic" in2="BackgroundImageFix" result="shape"/>
<feGaussianBlur stdDeviation="5" result="effect1_foregroundBlur_5303:10836"/>
</filter>
</defs>
</svg>
