<svg width="38" height="26" viewBox="0 0 38 26" fill="none" xmlns="http://www.w3.org/2000/svg">
<path opacity="0.3" d="M31 5.67068V18.3211C31.0007 19.0666 30.8545 19.8049 30.5697 20.4939C30.2849 21.1829 29.8671 21.8089 29.3402 22.3363C28.8133 22.8638 28.1877 23.2822 27.499 23.5676C26.8103 23.8531 26.0721 24 25.3266 24H12.6762C11.1715 23.9993 9.72855 23.4014 8.66429 22.3377C7.60004 21.2739 7.00146 19.8313 7 18.3266V5.67618C6.99928 4.9308 7.14551 4.19259 7.43034 3.50378C7.71517 2.81497 8.133 2.18906 8.65993 1.66187C9.18687 1.13468 9.81257 0.716551 10.5012 0.431391C11.1899 0.146231 11.9281 -0.000361166 12.6734 6.68205e-07H25.3238C26.0689 -0.000360566 26.8067 0.146029 27.4952 0.430812C28.1836 0.715595 28.8093 1.13319 29.3363 1.65976C29.8634 2.18634 30.2816 2.81157 30.5671 3.49976C30.8525 4.18795 30.9996 4.92563 31 5.67068Z" fill="#1A83B3"/>
<g style="mix-blend-mode:soft-light">
<path d="M19.0569 9.35522L18.4023 12.7956L19.0569 13.3181V9.35522Z" fill="#153059"/>
</g>
<g style="mix-blend-mode:soft-light" filter="url(#filter0_f_5303:10860)">
<path d="M14.1041 12.375H12.0834C11.2434 12.375 10.5625 13.0466 10.5625 13.875C10.5625 14.7034 11.2434 15.375 12.0834 15.375H14.1041C14.9441 15.375 15.625 14.7034 15.625 13.875C15.625 13.0466 14.9441 12.375 14.1041 12.375Z" fill="#C140A3"/>
</g>
<g style="mix-blend-mode:soft-light" filter="url(#filter1_f_5303:10860)">
<path d="M25.7321 12.375H23.7054C22.8671 12.375 22.1875 13.046 22.1875 13.8737V13.8763C22.1875 14.704 22.8671 15.375 23.7054 15.375H25.7321C26.5704 15.375 27.25 14.704 27.25 13.8763V13.8737C27.25 13.046 26.5704 12.375 25.7321 12.375Z" fill="#C140A3"/>
</g>
<path fill-rule="evenodd" clip-rule="evenodd" d="M25.75 13.5C25.75 13.5303 25.75 13.5607 25.75 13.591C25.7474 14.0804 25.6903 14.568 25.5797 15.0447C25.4039 15.7971 25.0765 16.5053 24.6177 17.1258C24.159 17.7463 23.5785 18.2659 22.9121 18.6526C20.5605 20.0622 17.2473 20.0318 14.9451 18.5616C14.2987 18.1616 13.7397 17.6342 13.302 17.0112C12.8643 16.3883 12.5569 15.6827 12.3984 14.9371C12.2982 14.4647 12.2485 13.983 12.25 13.5C16.5357 15.155 20.8846 15.155 25.2885 13.6683L25.75 13.5Z" fill="#153059" stroke="#153059" stroke-width="0.5" stroke-linecap="round" stroke-linejoin="round"/>
<path fill-rule="evenodd" clip-rule="evenodd" d="M25.75 13.5895C25.7474 14.0705 25.6903 14.5497 25.5797 15.0181C21.6747 17.5474 16.3061 17.4742 12.3983 14.9124C12.2982 14.4481 12.2485 13.9747 12.25 13.5C16.534 15.1265 20.8811 15.1265 25.2832 13.6654L25.75 13.5895Z" fill="white"/>
<path fill-rule="evenodd" clip-rule="evenodd" d="M23.125 18.6535C20.6898 20.0619 17.259 20.0315 14.875 18.5625C17.5997 19.0465 20.3896 19.0773 23.125 18.6535Z" fill="white"/>
<path fill-rule="evenodd" clip-rule="evenodd" d="M25.8561 13.3473C25.9071 13.3832 25.9375 13.4419 25.9375 13.5045C25.9375 15.6226 25.0676 17.2218 23.7584 18.2876C22.454 19.3495 20.7228 19.875 19 19.875C17.2772 19.875 15.546 19.3495 14.2416 18.2876C12.9324 17.2218 12.0625 15.6226 12.0625 13.5045C12.0625 13.4413 12.0935 13.3821 12.1453 13.3463C12.1971 13.3105 12.2631 13.3026 12.3219 13.3252C16.7189 15.0164 21.1608 14.9713 25.6813 13.324C25.7399 13.3027 25.8051 13.3114 25.8561 13.3473ZM12.45 13.7836C12.5224 15.6445 13.3188 17.0422 14.4821 17.9892C15.7076 18.9868 17.3496 19.491 19 19.491C20.6504 19.491 22.2924 18.9868 23.5179 17.9892C24.6823 17.0413 25.4791 15.642 25.5502 13.7785C21.1292 15.331 16.7671 15.3763 12.45 13.7836Z" fill="#153059"/>
<g style="mix-blend-mode:soft-light">
<path d="M16.0025 20.071C16.8467 21.0388 20.6959 21.1028 21.6275 20.071C19.775 20.4896 17.855 20.4896 16.0025 20.071Z" fill="#153059"/>
</g>
<path d="M25.2704 11.985H24.0329C22.2096 11.985 22.2096 11.9987 22.2096 10.1617V9.54291C22.2103 8.89545 22.4678 8.27472 22.9257 7.8169C23.3835 7.35908 24.0042 7.10156 24.6517 7.10083C25.2991 7.10156 25.9199 7.35908 26.3777 7.8169C26.8355 8.27472 27.093 8.89545 27.0938 9.54291V10.1754C27.0882 11.9987 27.0883 11.985 25.2704 11.985Z" fill="#153059"/>
<path d="M23.8317 8.9094C24.0682 8.9094 24.2599 8.71768 24.2599 8.48119C24.2599 8.24469 24.0682 8.05298 23.8317 8.05298C23.5952 8.05298 23.4035 8.24469 23.4035 8.48119C23.4035 8.71768 23.5952 8.9094 23.8317 8.9094Z" fill="white"/>
<path opacity="0.1" d="M24.625 10.559C25.1753 10.559 25.6214 10.1129 25.6214 9.56257C25.6214 9.01227 25.1753 8.56616 24.625 8.56616C24.0747 8.56616 23.6286 9.01227 23.6286 9.56257C23.6286 10.1129 24.0747 10.559 24.625 10.559Z" fill="white"/>
<path d="M13.8329 11.985H12.5954C10.7721 11.985 10.7721 11.9987 10.7721 10.1617V9.54291C10.7728 8.89545 11.0303 8.27472 11.4882 7.8169C11.946 7.35908 12.5667 7.10156 13.2142 7.10083C13.8616 7.10156 14.4824 7.35908 14.9402 7.8169C15.398 8.27472 15.6555 8.89545 15.6562 9.54291V10.1754C15.6507 11.9987 15.6507 11.985 13.8329 11.985Z" fill="#153059"/>
<path d="M12.4138 8.91271C12.6508 8.91271 12.8428 8.72064 12.8428 8.4837C12.8428 8.24676 12.6508 8.05469 12.4138 8.05469C12.1769 8.05469 11.9848 8.24676 11.9848 8.4837C11.9848 8.72064 12.1769 8.91271 12.4138 8.91271Z" fill="white"/>
<path opacity="0.1" d="M13.2086 10.5654C13.7599 10.5654 14.2069 10.1185 14.2069 9.56713C14.2069 9.01579 13.7599 8.56885 13.2086 8.56885C12.6573 8.56885 12.2103 9.01579 12.2103 9.56713C12.2103 10.1185 12.6573 10.5654 13.2086 10.5654Z" fill="white"/>
<defs>
<filter id="filter0_f_5303:10860" x="0.5625" y="2.375" width="25.0625" height="23" filterUnits="userSpaceOnUse" color-interpolation-filters="sRGB">
<feFlood flood-opacity="0" result="BackgroundImageFix"/>
<feBlend mode="normal" in="SourceGraphic" in2="BackgroundImageFix" result="shape"/>
<feGaussianBlur stdDeviation="5" result="effect1_foregroundBlur_5303:10860"/>
</filter>
<filter id="filter1_f_5303:10860" x="12.1875" y="2.375" width="25.0625" height="23" filterUnits="userSpaceOnUse" color-interpolation-filters="sRGB">
<feFlood flood-opacity="0" result="BackgroundImageFix"/>
<feBlend mode="normal" in="SourceGraphic" in2="BackgroundImageFix" result="shape"/>
<feGaussianBlur stdDeviation="5" result="effect1_foregroundBlur_5303:10860"/>
</filter>
</defs>
</svg>
