<svg width="9" height="17" viewBox="0 0 9 17" fill="none" xmlns="http://www.w3.org/2000/svg">
<path d="M7.12719 3.67027C7.8674 3.67027 8.84961 3.67027 8.84961 3.67027V0.976074C8.84961 0.976074 7.81521 0.976074 6.4107 0.976074C5.00619 0.976074 3.17938 1.92053 3.17938 4.66443C3.17938 5.17643 3.17938 5.92703 3.17938 6.80189H0.849609V9.59053H3.17938C3.17938 13.0651 3.17938 16.8479 3.17938 16.8479H4.21378H5.03466H5.95993C5.95993 16.8479 5.95993 12.9309 5.95993 9.59053H8.27547L8.65981 6.80189H5.95993C5.95993 5.88726 5.95993 5.22117 5.95993 5.0273C5.95993 4.11267 6.38698 3.67027 7.12719 3.67027Z" fill="#3F65AE"/>
</svg>
