<svg width="265" height="265" viewBox="0 0 265 265" fill="none" xmlns="http://www.w3.org/2000/svg">
<path d="M132.737 234.579C189.244 234.579 235.053 188.771 235.053 132.264C235.053 75.7567 189.244 29.9486 132.737 29.9486C76.2299 29.9486 30.4217 75.7567 30.4217 132.264C30.4217 188.771 76.2299 234.579 132.737 234.579Z" fill="#F4F7FA"/>
<path opacity="0.5" d="M169.549 202.234C166.789 200.417 173.474 184.09 179.502 173.292C184.452 164.425 190.277 156.927 191.959 157.793C193.246 158.456 191.633 163.776 192.801 164.2C194.365 164.768 197.656 155.362 200.855 155.678C202.826 155.873 204.529 159.735 204.593 163.286C204.708 169.691 199.466 173.932 188.065 185.057C173.453 199.313 170.969 203.168 169.549 202.234Z" fill="url(#paint0_linear_2:343)"/>
<path opacity="0.5" d="M174.253 191.682C175.789 187.076 175.657 184.137 178.453 181.159C180.895 178.558 182.403 179.301 185.283 176.294C188.545 172.888 187.404 171.106 190.136 168.468C193.93 164.806 197.579 166.842 200.797 163.55C201.814 162.51 202.862 160.86 203.374 158.094C204.09 159.545 204.559 161.457 204.592 163.286C204.708 169.691 199.466 173.933 188.064 185.057C173.453 199.313 170.969 203.169 169.549 202.234C169.333 202.092 169.175 201.861 169.07 201.551C171.838 197.785 173.358 194.363 174.253 191.682Z" fill="url(#paint1_linear_2:343)"/>
<path d="M164.268 210.59C170.163 197.416 176.844 187.997 181.857 181.862C193.136 168.056 198.627 167.621 201.036 167.805C204.245 168.05 208.368 169.882 209.002 172.957C210.187 178.71 198.639 186.268 199.9 188.44C200.552 189.564 203.743 187.709 205.031 189.182C206.793 191.195 203.376 197.577 202.457 199.116C195.354 211.01 171.846 210.861 164.268 210.59Z" fill="url(#paint2_linear_2:343)"/>
<path d="M175.634 200.52C180.922 197.13 182.502 197.469 185.342 194.332C190.577 188.547 188.66 183.575 193.512 179.868C196.971 177.225 198.982 178.961 203.837 176.167C205.813 175.03 207.432 173.618 208.752 172.168C208.86 172.421 208.945 172.684 209.002 172.957C210.188 178.71 198.639 186.268 199.9 188.44C200.553 189.564 203.744 187.71 205.032 189.182C206.793 191.195 203.376 197.577 202.458 199.116C195.355 211.01 171.847 210.86 164.269 210.59C164.376 210.349 164.484 210.113 164.593 209.875C168.817 205.304 172.718 202.39 175.634 200.52Z" fill="url(#paint3_linear_2:343)"/>
<path d="M123.896 130.135C121.211 130.828 118.183 129.975 116.275 127.759L89.3665 96.5133C86.9167 93.6681 87.2426 89.4336 90.1068 87.0315C92.9914 84.6133 98.6805 84.4862 101.177 87.3546L128.604 118.865C131.19 121.836 130.782 126.144 127.706 128.465C126.948 129.037 124.782 129.907 123.896 130.135Z" fill="url(#paint4_linear_2:343)"/>
<path opacity="0.3" d="M90.1067 87.0315C92.9913 84.6133 98.6804 84.4862 101.177 87.3546L126.255 116.166C123.691 116.333 120.91 117.304 117.452 115.828C111.694 113.37 112.249 107.623 107.238 104.307C104.948 102.792 101.243 101.619 94.927 102.969L89.3671 96.5133C86.9166 93.6681 87.2425 89.4336 90.1067 87.0315Z" fill="url(#paint5_linear_2:343)"/>
<path d="M78.6896 82.8216C78.8189 82.7795 78.9509 82.7472 79.0837 82.7226L88.3611 79.5718L96.2886 103.781L87.2577 106.601C87.0456 106.736 86.8208 106.844 86.582 106.922C83.3912 107.967 79.0373 103.419 76.8586 96.7634C74.6785 90.1086 75.4988 83.8667 78.6896 82.8216Z" fill="url(#paint6_linear_2:343)"/>
<path d="M88.3614 79.5718C87.4743 88.7881 90.1047 96.8203 96.2889 103.781L172.838 103.369L151.303 35.1883L88.3614 79.5718Z" fill="url(#paint7_linear_2:343)"/>
<path d="M148.137 73.5447C154.491 92.9495 167.185 106.21 176.489 103.163C185.793 100.116 188.185 81.9161 181.83 62.5114C175.476 43.1066 162.782 29.8461 153.478 32.8929C144.174 35.939 141.783 54.14 148.137 73.5447Z" fill="url(#paint8_linear_2:343)"/>
<path d="M176.098 101.971C178.073 101.324 179.743 99.86 181.06 97.6194C182.401 95.3389 183.318 92.3742 183.787 88.8083C184.772 81.3128 183.654 72.1119 180.638 62.9018C177.622 53.6918 173.082 45.6119 167.854 40.1503C165.367 37.5523 162.874 35.7051 160.443 34.6586C158.055 33.631 155.843 33.4379 153.868 34.0848C151.893 34.7316 150.223 36.1961 148.906 38.4366C147.565 40.7171 146.647 43.6818 146.178 47.2477C145.767 50.3816 145.723 53.814 146.031 57.4206C146.46 62.439 151.222 66.2661 152.977 71.6251C154.843 77.3241 153.644 84.1187 156.479 88.5997C158.225 91.3607 160.119 93.8239 162.112 95.9064C164.599 98.5044 167.093 100.352 169.523 101.398C171.91 102.425 174.123 102.618 176.098 101.971Z" fill="url(#paint9_linear_2:343)"/>
<mask id="mask0_2:343" style="mask-type:alpha" maskUnits="userSpaceOnUse" x="145" y="34" width="39" height="68">
<path d="M149.125 73.2817C155.071 91.3949 166.949 103.773 175.655 100.929C184.361 98.0847 186.599 81.0959 180.653 62.9828C174.707 44.8696 162.829 32.4917 154.123 35.3357C145.416 38.1791 143.179 55.1686 149.125 73.2817Z" fill="url(#paint10_linear_2:343)"/>
</mask>
<g mask="url(#mask0_2:343)">
<path d="M166.519 68.035C169.433 76.9367 165.854 85.9346 158.626 88.102C151.511 90.2358 143.526 84.926 140.692 76.2715C137.858 67.6178 141.185 58.6999 148.219 56.321C155.365 53.9042 163.604 59.1333 166.519 68.035Z" fill="url(#paint11_linear_2:343)"/>
<path d="M165.338 68.2612C167.503 74.8711 166.35 81.0603 162.813 82.0702C159.331 83.0648 154.842 78.6498 152.737 72.2239C150.633 65.798 151.663 59.6474 155.085 58.471C158.561 57.2749 163.174 61.6506 165.338 68.2612Z" fill="url(#paint12_linear_2:343)"/>
</g>
<path opacity="0.3" d="M170.557 66.9633L192.579 60.7369C194.374 60.2291 196.231 60.975 196.7 62.4099C197.17 63.8449 196.065 65.3936 194.258 65.8634L172.084 71.6277C170.608 72.0112 169.089 71.287 168.671 70.0144C168.256 68.7417 169.091 67.3777 170.557 66.9633Z" fill="url(#paint13_linear_2:343)"/>
<path d="M165.419 54.2514L190.49 45.5772C192.591 44.8503 194.816 45.7528 195.422 47.6064C196.029 49.4592 194.771 51.5094 192.649 52.1738L167.335 60.102C165.695 60.6155 163.964 59.7354 163.442 58.1439C162.921 56.5523 163.795 54.8133 165.419 54.2514Z" fill="url(#paint14_linear_2:343)"/>
<path d="M177.042 61.3093L197.822 55.2002C199.512 54.7036 201.269 55.4256 201.726 56.8191C202.182 58.2126 201.155 59.7213 199.454 60.1827L178.53 65.8543C177.134 66.2328 175.685 65.5305 175.279 64.2901C174.873 63.0497 175.654 61.7174 177.042 61.3093Z" fill="url(#paint15_linear_2:343)"/>
<path d="M196.396 47.2465C197.006 49.1078 199.152 50.1009 201.226 49.4533C203.341 48.7931 204.574 46.6853 203.942 44.7573C203.311 42.8294 201.073 41.8664 198.98 42.5941C196.927 43.3084 195.787 45.386 196.396 47.2465Z" fill="url(#paint16_linear_2:343)"/>
<path d="M170.929 73.5344L197.542 67.039C199.777 66.4933 202.12 67.57 202.737 69.4523C203.354 71.3346 201.992 73.2577 199.736 73.7388L172.872 79.4658C171.135 79.836 169.32 78.8239 168.792 77.2105C168.263 75.5972 169.208 73.9544 170.929 73.5344Z" fill="url(#paint17_linear_2:343)"/>
<path d="M195.696 71.0895C196.159 72.5026 197.906 73.3504 199.622 72.9788C201.363 72.6017 202.408 71.1155 201.933 69.6644C201.457 68.2133 199.652 67.3782 197.924 67.794C196.221 68.2035 195.233 69.6763 195.696 71.0895Z" fill="#F4F7FA"/>
<path d="M229.427 211.052L38.0792 209.386V214.317C38.0792 215.655 38.9136 216.794 40.0444 216.996L94.152 226.707C94.794 226.822 95.4451 226.853 96.0933 226.798L227.348 215.727C228.52 215.628 229.428 214.487 229.428 213.112V211.052H229.427Z" fill="url(#paint18_linear_2:343)"/>
<path d="M167.83 203.059L40.185 212.08C37.901 212.241 36.0439 210.526 36.0439 208.248V116.998C36.0439 114.72 37.901 112.874 40.185 112.874H167.83C169.711 112.874 171.233 114.543 171.233 116.602V199.091C171.233 201.15 169.711 202.927 167.83 203.059Z" fill="url(#paint19_linear_2:343)"/>
<path d="M169.865 203.059L42.2203 212.08C39.9363 212.241 38.0792 210.526 38.0792 208.248V116.998C38.0792 114.72 39.9363 112.873 42.2203 112.873H169.865C171.747 112.873 173.268 114.542 173.268 116.602V199.091C173.268 201.149 171.747 202.926 169.865 203.059Z" fill="url(#paint20_linear_2:343)"/>
<path d="M165.886 197.244L46.9984 205.079C45.14 205.202 43.6292 203.794 43.6292 201.935V122.044C43.6292 120.185 45.14 118.672 46.9984 118.664L165.886 118.172C167.438 118.165 168.694 119.533 168.694 121.226V193.992C168.694 195.686 167.438 197.141 165.886 197.244Z" fill="white"/>
<path d="M110.548 115.37C110.548 116.217 109.891 116.907 109.08 116.909C108.268 116.912 107.609 116.225 107.609 115.375C107.609 114.525 108.268 113.836 109.08 113.836C109.891 113.834 110.548 114.521 110.548 115.37Z" fill="white"/>
<path d="M166.68 202.65L38.0792 212.145L94.1513 222.207C94.7933 222.323 95.4444 222.353 96.0927 222.299L229.427 211.053L168.726 202.715C168.046 202.621 167.362 202.6 166.68 202.65Z" fill="url(#paint21_linear_2:343)"/>
<path opacity="0.3" d="M56.8444 212.383L163.908 204.361L197.044 208.876L90.9018 217.451L56.8444 212.383Z" fill="url(#paint22_linear_2:343)"/>
<path d="M168.711 133.619L43.6173 135.173V121.042C43.6173 119.457 44.9019 118.172 46.4864 118.172H165.842C167.426 118.172 168.711 119.457 168.711 121.042V133.619Z" fill="url(#paint23_linear_2:343)"/>
<path d="M122.039 171.478L51.3135 174.4V140.992L122.039 139.805V171.478Z" fill="#D8DEE8"/>
<path d="M162.281 169.815L126.211 171.305V139.736L162.281 139.131V169.815Z" fill="#D8DEE8"/>
<path d="M162.28 192.591L51.3135 199.199V178.763L162.28 173.822V192.591Z" fill="#D8DEE8"/>
<path d="M52.586 126.07C52.586 126.959 51.8113 127.686 50.8547 127.693C49.8966 127.7 49.1191 126.983 49.1191 126.091C49.1191 125.199 49.8966 124.472 50.8547 124.467C51.8113 124.463 52.586 125.18 52.586 126.07Z" fill="url(#paint24_linear_2:343)"/>
<path d="M58.845 126.034C58.845 126.903 58.0773 127.613 57.1299 127.62C56.1803 127.626 55.4098 126.925 55.4098 126.053C55.4098 125.182 56.1803 124.472 57.1299 124.467C58.0773 124.463 58.845 125.164 58.845 126.034Z" fill="url(#paint25_linear_2:343)"/>
<path d="M65.0482 125.997C65.0482 126.863 64.2876 127.57 63.3485 127.576C62.4081 127.582 61.6446 126.885 61.6446 126.017C61.6446 125.149 62.4081 124.442 63.3485 124.438C64.2876 124.434 65.0482 125.132 65.0482 125.997Z" fill="url(#paint26_linear_2:343)"/>
<path opacity="0.48" d="M139.111 178.032C129.271 172.738 121.533 179.447 114.066 172.827C109.539 168.814 111.762 165.822 106.191 159.824C100.022 153.182 96.0049 155.415 89.8044 149.437C81.9647 141.878 85.8853 135.997 79.1321 130.57C70.9398 123.986 62.1041 130.08 54.3058 123.766C50.9422 121.043 49.0964 117.084 48.1328 112.873H40.5024C39.1651 112.873 38.0792 113.957 38.0792 115.295V209.884C38.0792 211.221 39.1651 212.228 40.5024 212.133L170.593 202.899C171.232 202.853 171.798 202.481 172.161 201.94C162.638 201.593 156.788 198.401 153.048 195.101C145.731 188.644 147 182.277 139.111 178.032Z" fill="white"/>
<path d="M220.343 130.974L206.104 154.27L162.666 153.781L143.401 191.052L93.6653 192.792L67.8578 232.56C67.3985 233.268 66.6371 233.724 65.7957 233.795L62.4258 234.08C60.896 234.321 57.6287 233.855 58.1273 232.389L75.6076 192.842L89.9828 186.41L138.337 184.561L156.632 147.919L201.066 147.428L215.959 124.807L220.343 130.974Z" fill="url(#paint27_linear_2:343)"/>
<path d="M193.855 132.541L185.87 128.87L194.768 127.058L193.855 132.541Z" fill="url(#paint28_linear_2:343)"/>
<path d="M224.269 124.807L228.446 130.974H219.178L216.045 127.058L224.269 124.807Z" fill="url(#paint29_linear_2:343)"/>
<path d="M229.427 103.428L225.554 100.559L223.878 123.795L225.554 126.781L228.447 130.974L229.427 103.428Z" fill="url(#paint30_linear_2:343)"/>
<path d="M120.608 181.875L140.663 187.355L159.928 150.084L139.873 144.604L120.608 181.875Z" fill="url(#paint31_linear_2:343)"/>
<path d="M43.73 229.753L58.7436 233.856C60.331 234.29 62.0166 233.647 62.9128 232.267L90.9285 189.095L70.8734 183.616L42.6947 227.037C42.031 228.06 42.5543 229.433 43.73 229.753Z" fill="url(#paint32_linear_2:343)"/>
<path d="M70.8732 183.615L90.9283 189.095L140.664 187.355L120.609 181.875L70.8732 183.615Z" fill="url(#paint33_linear_2:343)"/>
<path d="M139.875 144.604L159.93 150.084L203.368 150.573L183.313 145.093L139.875 144.604Z" fill="url(#paint34_linear_2:343)"/>
<path d="M185.87 128.87L193.472 128.47L183.312 145.093L203.367 150.573L217.655 127.197L225.554 126.781V100.559L185.87 128.87Z" fill="url(#paint35_linear_2:343)"/>
<g opacity="0.3">
<path opacity="0.3" d="M127.607 180.524C133.37 175.897 138.6 178.713 142.286 174.932C145.438 171.699 142.175 169.065 145.78 161.092C148.716 154.599 153.021 151.609 153.888 151.026C155.001 150.279 156.071 149.72 157.033 149.293L139.872 144.604L120.607 181.875L125.08 183.097C125.744 182.246 126.572 181.354 127.607 180.524Z" fill="url(#paint36_linear_2:343)"/>
</g>
<path opacity="0.3" d="M162.419 145.573C158.751 145.824 158.093 145.963 158.085 146.133C158.061 146.647 163.951 147.654 169.968 147.81C175.323 147.95 176.259 147.298 181.991 147.671C185.722 147.913 188.221 148.377 188.283 148.09C188.356 147.746 184.887 146.479 181.153 145.713C176.066 144.671 171.448 144.957 162.419 145.573Z" fill="url(#paint37_linear_2:343)"/>
<path opacity="0.3" d="M60.5045 211.14C63.6068 206.08 64.751 200.923 70.1507 198.418C74.2862 196.499 77.0991 197.907 80.7753 195.482C83.6374 193.594 85.1882 190.591 86.0683 187.768L70.8727 183.616L43.8109 225.316C53.1536 220.786 57.8896 215.406 60.5045 211.14Z" fill="url(#paint38_linear_2:343)"/>
<path d="M108.29 151.988C109.99 151.491 112.263 154.614 114.153 157.21C116.98 161.094 120.283 165.631 119.393 171.08C118.518 176.44 113.922 180.616 112.612 180.018C111.492 179.508 113.646 175.902 111.996 171.08C110.664 167.189 108.458 167.187 106.979 163.372C105.143 158.638 106.198 152.599 108.29 151.988Z" fill="#29B0B0"/>
<path d="M109.132 176.679C117.891 178.805 123.661 182.219 127.03 184.633C128.856 185.942 129.7 186.758 130.155 187.948C132.75 194.728 119.419 204.979 117.999 206.052C117.378 204.605 116.758 203.158 116.137 201.711C117.515 194.15 119.808 191.779 121.727 191.073C122.264 190.876 123.165 190.665 123.148 190.41C123.106 189.81 118.043 190.666 113.204 188.895C108.379 187.13 103.531 182.663 104.397 179.709C104.555 179.171 105.217 177.612 109.132 176.679Z" fill="url(#paint39_linear_2:343)"/>
<path d="M117.625 226.234C117.625 226.234 116.81 226.525 116.807 227.17C116.804 227.814 117.633 230.655 118.533 231.664C119.434 232.673 119.514 231.167 119.458 230.197C119.403 229.228 119.167 227.057 118.944 226.636C118.721 226.216 117.625 226.234 117.625 226.234Z" fill="url(#paint40_linear_2:343)"/>
<path d="M117.152 223.494C117.2 224.488 117.285 225.319 117.361 225.935C117.529 227.3 117.684 227.84 117.895 228.332C118.08 228.761 118.542 229.696 118.763 229.631C118.987 229.565 118.757 228.529 118.582 225.648C118.556 225.23 118.479 223.898 118.479 223.898L117.152 223.494Z" fill="url(#paint41_linear_2:343)"/>
<path d="M104.08 177.248C109.126 180.29 112.403 183.75 114.308 186.086C116.556 188.844 119.976 193.04 121.215 199.295C121.875 202.629 121.55 205.62 120.873 211.466C120.201 217.272 119.238 221.999 118.484 225.227C118.096 225.383 117.708 225.539 117.321 225.694C116.281 223.785 114.921 220.761 114.434 216.895C113.637 210.57 116.002 208.56 114.867 204.074C113.883 200.189 111.032 197.806 105.331 193.041C100.646 189.126 96.3272 186.803 94.7237 181.92C94.4512 181.09 94.2201 180.073 94.664 179.142C95.6206 177.134 99.2806 176.434 104.08 177.248Z" fill="url(#paint42_linear_2:343)"/>
<path d="M100.053 152.349C101.363 152.068 103.517 152.124 105.571 150.506C106.189 150.019 108.38 148.294 108.113 145.826C107.879 143.654 105.82 142.486 105.567 142.347C104.109 141.545 102.656 141.723 101.045 141.943C98.9546 142.229 98.2607 142.8 96.8082 143.191C93.2156 144.16 92.0006 142.138 88.3827 142.309C83.7591 142.527 83.3594 145.942 79.4691 146.027C75.1018 146.122 74.2653 141.848 69.9535 141.124C63.9687 140.119 54.9139 146.562 55.0965 153.988C55.2019 158.278 58.3962 163.194 62.4755 164.67C64.8537 165.53 67.4194 165.257 68.152 166.804C68.6731 167.904 67.5016 168.752 67.6118 170.669C67.7544 173.142 69.8826 174.877 70.226 175.156C73.4161 177.757 80.5697 176.443 85.4539 172.763C94.2643 166.128 92.9312 153.882 100.053 152.349Z" fill="url(#paint43_linear_2:343)"/>
<path d="M89.9338 151.468C92.9006 151.103 96.3225 150.824 100.125 150.772C108.16 150.664 109.31 151.682 109.604 152.436C110.153 153.842 109.213 154.547 109.747 156.998C110.066 158.464 109.764 159.132 110.381 160.707C110.982 162.241 110.511 163.067 109.979 166.665C109.299 171.267 108.986 173.606 110.273 175.462C111.168 176.751 112.169 176.86 112.074 177.473C111.871 178.777 107.361 178.058 101.65 180.562C99.9965 181.287 98.4752 182.181 97.199 182.93C94.2112 184.684 93.6584 185.355 92.2748 186.15C87.8991 188.663 81.3257 188.906 77.8806 185.866C76.596 184.732 75.6598 183.066 76.0812 182.457C76.655 181.626 79.22 183.512 81.5736 182.362C83.1329 181.6 82.8365 180.366 84.6394 178.914C86.809 177.166 88.3177 178.082 89.794 176.944C92.0978 175.169 91.0499 170.92 90.403 163.796C90.1354 160.847 89.8664 156.636 89.9338 151.468Z" fill="#29B0B0"/>
<path d="M98.6306 149.812C97.5349 150.492 95.7636 151.38 95.5683 151.621C95.3731 151.862 100.935 152.815 104.396 151.068C104.396 151.068 104.932 150.77 102.846 150.353C102.402 150.264 102.489 149.399 102.548 148.505L102.131 147.73C102.13 147.731 99.7263 149.132 98.6306 149.812Z" fill="url(#paint44_linear_2:343)"/>
<path d="M101.396 147.204C101.396 147.204 100.966 149.028 102.572 149.929C104.01 150.736 106.443 147.428 105.988 146.199C105.837 145.788 105.295 145.262 104.729 145.084C104.331 144.959 102.825 145.007 102.179 146.275C102.01 145.904 101.708 145.71 101.504 145.771C101.247 145.848 101.209 146.317 101.2 146.424C101.171 146.793 101.32 147.079 101.396 147.204Z" fill="url(#paint45_linear_2:343)"/>
<path d="M103.884 176.438C102.23 177.124 102.006 178.606 99.7187 179.447C97.5365 180.249 96.8039 179.244 94.6273 179.91C91.3578 180.91 90.1076 184.065 89.6132 183.767C89.1594 183.495 89.5949 180.477 91.6964 178.521C94.1097 176.276 96.7091 177.304 98.2536 174.973C98.8548 174.066 99.3176 172.617 98.7937 171.501C98.0836 169.99 96.228 170.514 95.2454 169.264C93.4789 167.019 97.6123 162.968 96.4794 159.544C96.0271 158.178 94.588 156.465 89.9454 155.319C90.0086 158.751 90.2059 161.619 90.404 163.797C91.0509 170.921 92.0988 175.17 89.7951 176.945C88.318 178.083 86.81 177.166 84.6405 178.915C82.8375 180.367 83.1339 181.601 81.5747 182.363C79.2211 183.513 76.6553 181.627 76.0822 182.457C75.6608 183.067 76.597 184.733 77.8817 185.867C81.3267 188.907 87.9001 188.664 92.2758 186.151C93.6594 185.356 94.2122 184.685 97.2 182.932C98.4762 182.182 99.9975 181.289 101.651 180.564C105.659 178.807 109.073 178.636 110.824 178.241C107.346 175.92 105.227 175.881 103.884 176.438Z" fill="#149E9E"/>
<path d="M119.855 178.765L98.8635 179.786C98.5749 179.8 98.3108 179.956 98.1584 180.201L97.5775 181.133C97.2881 181.597 97.6358 182.195 98.1822 182.174L120.417 181.327L119.855 178.765Z" fill="url(#paint46_linear_2:343)"/>
<path d="M139.126 167.168L117.44 167.588C116.798 167.601 116.211 167.95 115.894 168.508L108.384 181.721L131.287 180.809C131.916 180.784 132.49 180.444 132.813 179.904L139.77 168.28C140.066 167.784 139.703 167.157 139.126 167.168Z" fill="url(#paint47_linear_2:343)"/>
<path opacity="0.3" d="M115.893 168.508C116.211 167.951 116.798 167.601 117.44 167.588L117.915 167.579C117.986 168.279 118.201 168.919 118.63 169.437C119.967 171.051 122.189 170.056 123.845 171.764C125.664 173.64 123.983 175.874 125.61 177.62C127.321 179.458 130.089 177.961 133.272 179.138L132.814 179.903C132.491 180.444 131.917 180.784 131.288 180.809L108.385 181.721L115.893 168.508Z" fill="url(#paint48_linear_2:343)"/>
<path d="M102.303 178.777C102.54 178.153 102.777 177.528 103.012 176.903C100.398 176.187 96.7826 175.128 93.0741 173.802C92.1575 173.475 91.8225 173.051 91.5774 172.726C89.6761 170.205 94.5147 165.756 94.4283 159.984C94.3686 155.983 91.9426 151.405 89.8046 151.353C85.4598 151.248 75.8797 169.684 83.9484 177.552C87.9532 181.458 95.4354 181.911 102.303 178.777Z" fill="#29B0B0"/>
<path d="M103.01 176.902C104.652 176.031 106.616 176.924 106.743 176.984C107.104 177.154 107.628 177.457 108.159 177.999C108.218 178.08 108.931 179.067 108.671 179.383C108.464 179.637 107.659 179.427 106.691 178.825C106.285 178.768 105.681 178.716 104.958 178.782C103.63 178.905 103.021 179.325 102.539 178.962C102.186 178.698 102.066 178.136 102.193 177.72C102.328 177.272 102.732 177.05 103.01 176.902Z" fill="url(#paint49_linear_2:343)"/>
<defs>
<linearGradient id="paint0_linear_2:343" x1="182.995" y1="169.472" x2="195.839" y2="220.074" gradientUnits="userSpaceOnUse">
<stop stop-color="#3496B9"/>
<stop offset="0.9964" stop-color="#176F8E"/>
</linearGradient>
<linearGradient id="paint1_linear_2:343" x1="183.092" y1="171.179" x2="194.757" y2="219.427" gradientUnits="userSpaceOnUse">
<stop stop-color="#3496B9"/>
<stop offset="0.9964" stop-color="#176F8E"/>
</linearGradient>
<linearGradient id="paint2_linear_2:343" x1="198.794" y1="183.243" x2="184.129" y2="218.876" gradientUnits="userSpaceOnUse">
<stop offset="0.00359712" stop-color="#F96EBB"/>
<stop offset="1" stop-color="#2C9EC6"/>
</linearGradient>
<linearGradient id="paint3_linear_2:343" x1="198.794" y1="186.049" x2="186.636" y2="218.961" gradientUnits="userSpaceOnUse">
<stop offset="0.00359712" stop-color="#F96EBB"/>
<stop offset="1" stop-color="#2C9EC6"/>
</linearGradient>
<linearGradient id="paint4_linear_2:343" x1="115.226" y1="92.4434" x2="102.73" y2="123.122" gradientUnits="userSpaceOnUse">
<stop stop-color="#FFC444"/>
<stop offset="0.9964" stop-color="#F36F56"/>
</linearGradient>
<linearGradient id="paint5_linear_2:343" x1="112.022" y1="91.1382" x2="99.5252" y2="121.817" gradientUnits="userSpaceOnUse">
<stop stop-color="#FFC444"/>
<stop offset="0.9964" stop-color="#F36F56"/>
</linearGradient>
<linearGradient id="paint6_linear_2:343" x1="75.4693" y1="86.5883" x2="98.2501" y2="100.588" gradientUnits="userSpaceOnUse">
<stop offset="0.00359712" stop-color="#E38DDD"/>
<stop offset="1" stop-color="#9571F6"/>
</linearGradient>
<linearGradient id="paint7_linear_2:343" x1="88.1939" y1="69.4842" x2="192.178" y2="63.3024" gradientUnits="userSpaceOnUse">
<stop stop-color="#F9867A"/>
<stop offset="1" stop-color="#E40678"/>
</linearGradient>
<linearGradient id="paint8_linear_2:343" x1="139.043" y1="52.0861" x2="190.925" y2="83.9694" gradientUnits="userSpaceOnUse">
<stop offset="0.00359712" stop-color="#E38DDD"/>
<stop offset="1" stop-color="#9571F6"/>
</linearGradient>
<linearGradient id="paint9_linear_2:343" x1="143.47" y1="74.4708" x2="179.851" y2="63.5745" gradientUnits="userSpaceOnUse">
<stop stop-color="#311944"/>
<stop offset="1" stop-color="#893976"/>
</linearGradient>
<linearGradient id="paint10_linear_2:343" x1="140.615" y1="53.2514" x2="189.097" y2="83.1196" gradientUnits="userSpaceOnUse">
<stop offset="0.00359712" stop-color="#E38DDD"/>
<stop offset="1" stop-color="#9571F6"/>
</linearGradient>
<linearGradient id="paint11_linear_2:343" x1="156.265" y1="58.6854" x2="139.418" y2="96.7039" gradientUnits="userSpaceOnUse">
<stop stop-color="#FFC444"/>
<stop offset="0.9964" stop-color="#F56D59"/>
</linearGradient>
<linearGradient id="paint12_linear_2:343" x1="160.451" y1="60.4271" x2="145.73" y2="84.6204" gradientUnits="userSpaceOnUse">
<stop stop-color="#F2B42E"/>
<stop offset="0.9964" stop-color="#EE5943"/>
</linearGradient>
<linearGradient id="paint13_linear_2:343" x1="188.285" y1="56.6915" x2="168.496" y2="90.41" gradientUnits="userSpaceOnUse">
<stop offset="0.00359712" stop-color="#E38DDD"/>
<stop offset="1" stop-color="#9571F6"/>
</linearGradient>
<linearGradient id="paint14_linear_2:343" x1="193.948" y1="38.1637" x2="174.89" y2="57.5776" gradientUnits="userSpaceOnUse">
<stop stop-color="#FF9085"/>
<stop offset="1" stop-color="#FB6FBB"/>
</linearGradient>
<linearGradient id="paint15_linear_2:343" x1="193.864" y1="51.4384" x2="174.915" y2="83.7244" gradientUnits="userSpaceOnUse">
<stop offset="0.00359712" stop-color="#E38DDD"/>
<stop offset="1" stop-color="#9571F6"/>
</linearGradient>
<linearGradient id="paint16_linear_2:343" x1="201.576" y1="44.5698" x2="180.536" y2="66.003" gradientUnits="userSpaceOnUse">
<stop stop-color="#FF9085"/>
<stop offset="1" stop-color="#FB6FBB"/>
</linearGradient>
<linearGradient id="paint17_linear_2:343" x1="183.557" y1="69.9951" x2="185.139" y2="84.3385" gradientUnits="userSpaceOnUse">
<stop stop-color="#50AFD1"/>
<stop offset="0.9964" stop-color="#3A9EC1"/>
</linearGradient>
<linearGradient id="paint18_linear_2:343" x1="32.4321" y1="217.904" x2="167.095" y2="313.461" gradientUnits="userSpaceOnUse">
<stop stop-color="#025378"/>
<stop offset="0.9964" stop-color="#013041"/>
</linearGradient>
<linearGradient id="paint19_linear_2:343" x1="32.0542" y1="161.34" x2="173.998" y2="173.848" gradientUnits="userSpaceOnUse">
<stop stop-color="#0D6993"/>
<stop offset="0.9964" stop-color="#084E66"/>
</linearGradient>
<linearGradient id="paint20_linear_2:343" x1="34.0895" y1="161.34" x2="176.033" y2="173.848" gradientUnits="userSpaceOnUse">
<stop stop-color="#0D6993"/>
<stop offset="0.9964" stop-color="#084E66"/>
</linearGradient>
<linearGradient id="paint21_linear_2:343" x1="32.4321" y1="212.248" x2="177.623" y2="303.44" gradientUnits="userSpaceOnUse">
<stop stop-color="#0D6993"/>
<stop offset="0.9964" stop-color="#084E66"/>
</linearGradient>
<linearGradient id="paint22_linear_2:343" x1="56.8441" y1="210.906" x2="197.043" y2="210.906" gradientUnits="userSpaceOnUse">
<stop stop-color="#40447E"/>
<stop offset="0.9964" stop-color="#3C3B6B"/>
</linearGradient>
<linearGradient id="paint23_linear_2:343" x1="52.1233" y1="102.534" x2="64.9583" y2="177.362" gradientUnits="userSpaceOnUse">
<stop stop-color="#FFC444"/>
<stop offset="0.9964" stop-color="#E85A45"/>
</linearGradient>
<linearGradient id="paint24_linear_2:343" x1="49.1189" y1="126.08" x2="52.5861" y2="126.08" gradientUnits="userSpaceOnUse">
<stop stop-color="#444B8C"/>
<stop offset="0.9964" stop-color="#26264F"/>
</linearGradient>
<linearGradient id="paint25_linear_2:343" x1="55.4097" y1="126.044" x2="58.845" y2="126.044" gradientUnits="userSpaceOnUse">
<stop stop-color="#444B8C"/>
<stop offset="0.9964" stop-color="#26264F"/>
</linearGradient>
<linearGradient id="paint26_linear_2:343" x1="61.6445" y1="126.007" x2="65.0483" y2="126.007" gradientUnits="userSpaceOnUse">
<stop stop-color="#444B8C"/>
<stop offset="0.9964" stop-color="#26264F"/>
</linearGradient>
<linearGradient id="paint27_linear_2:343" x1="160.463" y1="140.835" x2="100.647" y2="241.773" gradientUnits="userSpaceOnUse">
<stop stop-color="#AB316D"/>
<stop offset="1" stop-color="#792D3D"/>
</linearGradient>
<linearGradient id="paint28_linear_2:343" x1="183.669" y1="141.235" x2="185.533" y2="138.066" gradientUnits="userSpaceOnUse">
<stop stop-color="#AB316D"/>
<stop offset="1" stop-color="#792D3D"/>
</linearGradient>
<linearGradient id="paint29_linear_2:343" x1="224.84" y1="106.528" x2="222.603" y2="125.913" gradientUnits="userSpaceOnUse">
<stop stop-color="#AB316D"/>
<stop offset="1" stop-color="#792D3D"/>
</linearGradient>
<linearGradient id="paint30_linear_2:343" x1="225.868" y1="124.072" x2="230.342" y2="91.2658" gradientUnits="userSpaceOnUse">
<stop stop-color="#AB316D"/>
<stop offset="1" stop-color="#792D3D"/>
</linearGradient>
<linearGradient id="paint31_linear_2:343" x1="151.433" y1="145.461" x2="129.625" y2="185.537" gradientUnits="userSpaceOnUse">
<stop stop-color="#FF9085"/>
<stop offset="1" stop-color="#FB6FBB"/>
</linearGradient>
<linearGradient id="paint32_linear_2:343" x1="83.8216" y1="181.799" x2="43.1694" y2="244.575" gradientUnits="userSpaceOnUse">
<stop stop-color="#FF9085"/>
<stop offset="1" stop-color="#FB6FBB"/>
</linearGradient>
<linearGradient id="paint33_linear_2:343" x1="135.031" y1="180.304" x2="49.7541" y2="195.402" gradientUnits="userSpaceOnUse">
<stop stop-color="#FF9085"/>
<stop offset="1" stop-color="#FB6FBB"/>
</linearGradient>
<linearGradient id="paint34_linear_2:343" x1="172.498" y1="139.017" x2="170.82" y2="155.42" gradientUnits="userSpaceOnUse">
<stop stop-color="#FF9085"/>
<stop offset="1" stop-color="#FB6FBB"/>
</linearGradient>
<linearGradient id="paint35_linear_2:343" x1="194.576" y1="141.983" x2="229.619" y2="97.4334" gradientUnits="userSpaceOnUse">
<stop stop-color="#FF9085"/>
<stop offset="1" stop-color="#FB6FBB"/>
</linearGradient>
<linearGradient id="paint36_linear_2:343" x1="149.758" y1="144.55" x2="127.949" y2="184.625" gradientUnits="userSpaceOnUse">
<stop stop-color="#FF9085"/>
<stop offset="1" stop-color="#FB6FBB"/>
</linearGradient>
<linearGradient id="paint37_linear_2:343" x1="176.36" y1="141.27" x2="170.256" y2="152.486" gradientUnits="userSpaceOnUse">
<stop stop-color="#FF9085"/>
<stop offset="1" stop-color="#FB6FBB"/>
</linearGradient>
<linearGradient id="paint38_linear_2:343" x1="82.0969" y1="180.682" x2="41.4445" y2="243.458" gradientUnits="userSpaceOnUse">
<stop stop-color="#FF9085"/>
<stop offset="1" stop-color="#FB6FBB"/>
</linearGradient>
<linearGradient id="paint39_linear_2:343" x1="104.296" y1="191.365" x2="130.489" y2="191.365" gradientUnits="userSpaceOnUse">
<stop stop-color="#3BA4D5"/>
<stop offset="0.9964" stop-color="#08536C"/>
</linearGradient>
<linearGradient id="paint40_linear_2:343" x1="120.297" y1="220.353" x2="115.434" y2="240.176" gradientUnits="userSpaceOnUse">
<stop offset="0.00359712" stop-color="#E38DDD"/>
<stop offset="1" stop-color="#9571F6"/>
</linearGradient>
<linearGradient id="paint41_linear_2:343" x1="117.973" y1="229.612" x2="121.444" y2="225.607" gradientUnits="userSpaceOnUse">
<stop stop-color="#FCDAC2"/>
<stop offset="0.9964" stop-color="#FFAD61"/>
</linearGradient>
<linearGradient id="paint42_linear_2:343" x1="94.4143" y1="201.305" x2="121.575" y2="201.305" gradientUnits="userSpaceOnUse">
<stop stop-color="#3BA4D5"/>
<stop offset="0.9964" stop-color="#08536C"/>
</linearGradient>
<linearGradient id="paint43_linear_2:343" x1="71.0939" y1="170.832" x2="72.7939" y2="154.576" gradientUnits="userSpaceOnUse">
<stop stop-color="#075375"/>
<stop offset="0.9964" stop-color="#013E53"/>
</linearGradient>
<linearGradient id="paint44_linear_2:343" x1="99.8486" y1="152.081" x2="100.429" y2="147.163" gradientUnits="userSpaceOnUse">
<stop stop-color="#FCDAC2"/>
<stop offset="0.9964" stop-color="#FFAD61"/>
</linearGradient>
<linearGradient id="paint45_linear_2:343" x1="103.532" y1="150.037" x2="104.874" y2="144.641" gradientUnits="userSpaceOnUse">
<stop stop-color="#FCDAC2"/>
<stop offset="0.9964" stop-color="#FFAD61"/>
</linearGradient>
<linearGradient id="paint46_linear_2:343" x1="97.4733" y1="180.47" x2="120.417" y2="180.47" gradientUnits="userSpaceOnUse">
<stop stop-color="#444B8C"/>
<stop offset="0.9964" stop-color="#26264F"/>
</linearGradient>
<linearGradient id="paint47_linear_2:343" x1="108.384" y1="174.444" x2="139.876" y2="174.444" gradientUnits="userSpaceOnUse">
<stop stop-color="#444B8C"/>
<stop offset="0.9964" stop-color="#26264F"/>
</linearGradient>
<linearGradient id="paint48_linear_2:343" x1="132.528" y1="166.09" x2="117.486" y2="181.012" gradientUnits="userSpaceOnUse">
<stop stop-color="#444B8C"/>
<stop offset="0.9964" stop-color="#26264F"/>
</linearGradient>
<linearGradient id="paint49_linear_2:343" x1="105.316" y1="179.478" x2="105.678" y2="176.13" gradientUnits="userSpaceOnUse">
<stop stop-color="#FCDAC2"/>
<stop offset="0.9964" stop-color="#FFAD61"/>
</linearGradient>
</defs>
</svg>
