<svg width="265" height="265" viewBox="0 0 265 265" fill="none" xmlns="http://www.w3.org/2000/svg">
<path d="M136.354 26.3672C80.3658 24.7135 31.8689 65.3385 24.5413 118.643C16.5304 176.924 60.6221 229.363 114.876 237.762C182.359 248.209 247.813 187.773 241.936 122.208C237.508 72.8119 193.266 28.0475 136.354 26.3672Z" fill="#F4F7FA"/>
<path d="M143.221 98.1924C145.205 96.0739 139.711 88.1133 136.771 84.6259C134.202 81.5789 131.562 78.4465 128.32 78.8435C125.473 79.1916 122.703 82.1935 122.537 85.071C122.091 92.8101 140.4 101.204 143.221 98.1924Z" fill="#F31D8B"/>
<path d="M119.395 179.99C119.022 180.293 118.953 181.051 118.908 181.547C118.888 181.768 118.878 181.879 118.903 181.958C119.083 182.528 120.19 182.588 121.924 182.765C124.666 183.046 125.482 183.262 125.697 182.853C125.897 182.471 125.411 181.845 125.356 181.776C125.061 181.405 124.7 181.27 124.001 181.04C122.708 180.614 121.834 180.381 121.569 180.311C119.917 179.869 119.64 179.789 119.395 179.99Z" fill="url(#paint0_linear_2:154)"/>
<path d="M121.025 177.485L121.299 180.609C121.221 180.76 120.292 181.212 119.554 180.824L118.849 177.753L121.025 177.485Z" fill="url(#paint1_linear_2:154)"/>
<path d="M141.136 179.588C140.688 180.083 140.586 180.993 140.975 181.442C141.358 181.883 141.934 181.551 143.566 181.6C145.314 181.652 145.771 182.065 146.959 181.738C147.439 181.605 148.286 181.283 148.27 180.941C148.259 180.699 147.827 180.575 146.386 180.092C144.34 179.407 144.349 179.37 143.915 179.298C142.823 179.116 141.727 178.935 141.136 179.588Z" fill="url(#paint2_linear_2:154)"/>
<path d="M142.258 176.737L143.135 179.653C143.068 179.81 142.177 180.331 141.412 180L140.11 177.17L142.258 176.737Z" fill="url(#paint3_linear_2:154)"/>
<path d="M134.468 112.857C134.594 122.659 135.263 133.681 136.868 145.655C138.454 157.489 140.677 168.182 143.102 177.585C141.984 177.886 140.864 178.187 139.746 178.488C136.907 175.842 133.328 171.676 131.6 165.789C130.528 162.135 130.885 160.258 130.205 155.763C129.123 148.608 126.928 144.858 124.662 139.088C122.624 133.903 120.216 126.293 118.925 116.12C124.105 115.032 129.287 113.944 134.468 112.857Z" fill="url(#paint4_linear_2:154)"/>
<path d="M124.368 111.922C123.683 124.388 123.12 137.088 122.694 150.011C122.373 159.709 122.138 169.283 121.982 178.733C120.839 178.874 119.696 179.015 118.554 179.156C117.45 177.1 115.984 173.956 114.979 169.928C113.759 165.035 114.041 162.131 113.506 157.059C112.906 151.371 112.033 150.132 110.489 142.958C107.353 128.397 105.785 121.117 109.283 116.588C110.417 115.118 113.976 111.43 124.368 111.922Z" fill="url(#paint5_linear_2:154)"/>
<path d="M107.712 80.5901C110.388 79.8373 114.311 78.9571 119.114 78.686C125.965 78.299 129.39 78.1051 131.818 79.7366C137.424 83.505 133.083 92.2015 135.378 113.76C135.706 116.839 135.78 119.939 136.017 123.026C136.41 128.137 136.499 128.414 136.143 128.933C133.913 132.18 125.592 127.281 113.398 129.218C106.574 130.302 103.48 132.798 101.61 130.998C99.4296 128.898 101.3 123.251 102.909 118.389C104.757 112.809 105.898 112.738 106.947 108.535C108.044 104.142 107.38 101.881 107.21 94.9537C107.129 91.638 107.147 86.7054 107.712 80.5901Z" fill="#E40678"/>
<path d="M124.296 121.063C121.108 120.814 119.04 122.616 116.289 121.211C112.516 119.286 111.304 113.294 111.544 109.053C111.91 102.61 115.589 100.912 114.955 96.7464C114.612 94.4942 113.003 91.5038 107.23 88.4484C107.153 91.0197 107.168 93.2116 107.211 94.9523C107.382 101.879 108.045 104.141 106.948 108.533C105.899 112.736 104.758 112.808 102.911 118.388C101.301 123.25 99.4307 128.897 101.611 130.996C103.481 132.797 106.575 130.301 113.399 129.217C123.907 127.548 131.534 130.95 134.871 129.847C130.838 123.185 127.18 121.288 124.296 121.063Z" fill="#CE066D"/>
<path d="M112.061 81.0323C109.785 79.1618 105.208 81.2789 103.984 81.8454C97.1601 85.0015 91.0342 93.5071 92.5519 102.495C92.7794 103.844 93.8353 110.148 99.1741 113.203C103.992 115.96 110.496 115.251 115.708 111.347C116.421 110.715 117.133 110.082 117.845 109.451C118.546 108.694 119.247 107.936 119.948 107.179C118.846 106.263 116.975 104.941 114.346 104.093C110.881 102.975 108.358 104.981 106.75 103.456C105.641 102.403 105.638 100.543 105.912 99.4163C106.464 97.145 108.466 96.506 110.137 94.8943C114.064 91.1053 114.787 83.2723 112.061 81.0323Z" fill="#F31D8B"/>
<path d="M144.366 110.303L116.802 109.892L124.132 113.429L144.436 112.1L144.366 110.303Z" fill="#444B8C"/>
<path d="M115.83 110.624C115.83 111.14 116.153 111.6 116.637 111.777L125.445 115.23L125.485 112.836L116.802 109.892C116.315 109.751 115.83 110.117 115.83 110.624Z" fill="#26264F"/>
<path d="M117.884 108.925C117.697 108.883 118.796 106.692 119.66 106.945C120.523 107.198 124.745 109.645 125.129 110.653C125.513 111.66 125.513 111.66 125.513 111.66C125.513 111.66 123.671 111.805 122.529 111.421C121.386 111.036 119.406 109.264 117.884 108.925Z" fill="url(#paint6_linear_2:154)"/>
<path d="M126.215 96.0404L124.272 113.73C124.205 114.341 125.059 115.25 125.673 115.221L154.175 113.472C154.643 113.449 155.033 113.104 155.112 112.642L158.69 95.5563C158.797 94.9349 157.679 94.2921 157.048 94.3104L127.18 95.1502C126.681 95.1647 126.269 95.5441 126.215 96.0404Z" fill="#26264F"/>
<path d="M126.867 96.5558L124.924 114.247C124.857 114.857 125.351 115.383 125.964 115.354L154.827 113.987C155.295 113.965 155.686 113.62 155.765 113.158L158.713 95.9939C158.82 95.3717 158.331 94.8083 157.7 94.8258L127.832 95.6656C127.333 95.6801 126.922 96.0603 126.867 96.5558Z" fill="#26264F"/>
<path opacity="0.3" d="M143.816 109.842C141.295 108.774 142.185 106.737 139.209 104.198C135.283 100.85 131.281 102.302 129.88 99.707C129.444 98.8985 129.236 97.6411 129.996 95.6049L127.833 95.666C127.334 95.6798 126.922 96.06 126.868 96.5555L124.925 114.246C124.858 114.856 125.352 115.382 125.965 115.353L154.828 113.987C155.296 113.964 155.687 113.619 155.766 113.158L156.173 110.789C155.297 110.302 154.251 109.859 153.03 109.611C148.795 108.752 146.717 111.072 143.816 109.842Z" fill="#26264F"/>
<path d="M156.943 111.354C156.995 111.196 156.885 111.033 156.719 111.025C156.043 110.991 154.477 110.977 153.612 111.506C152.489 112.194 151.037 113.45 152.26 114.083L153.402 114.674C153.455 114.702 153.512 114.71 153.569 114.697C153.976 114.608 155.683 114.229 155.87 114.135C156.041 114.05 156.692 112.118 156.943 111.354Z" fill="url(#paint7_linear_2:154)"/>
<path d="M119.628 71.2018C119.644 73.2326 119.418 74.8435 119.204 75.9467C118.958 77.2102 118.782 77.537 118.556 77.8019C118.216 78.2004 117.701 78.5356 114.79 79.257C113.207 79.6494 113.003 79.6387 112.968 79.796C112.798 80.5625 117.116 83.1758 121.577 82.546C124.308 82.1604 126.793 80.603 126.64 79.7846C126.486 78.9616 123.759 79.4028 122.946 77.9133C122.38 76.8773 123.014 75.4062 123.763 74.1877C123.037 72.828 120.353 72.5615 119.628 71.2018Z" fill="url(#paint8_linear_2:154)"/>
<path d="M124.695 72.0037C125.34 71.1479 125.379 69.653 124.637 68.7086C123.998 67.8955 122.993 67.7795 122.391 67.71C120.646 67.5085 118.445 68.2368 117.679 69.8423C117.226 70.7936 118.207 72.771 118.36 73.126C118.534 73.5275 118.85 73.6657 119.142 73.9696C119.547 74.391 120.18 75.0613 121.213 76.1821C121.293 75.8515 121.416 75.4423 121.61 74.998C121.684 74.8269 121.984 74.1604 122.438 73.6069C123.347 72.4992 124.085 72.8152 124.695 72.0037Z" fill="#26264F"/>
<path d="M119.739 75.2404C119.739 75.2404 120.886 77.1216 123.169 76.9735C125.214 76.8406 125.513 72.2561 124.208 71.2827C123.772 70.9582 122.9 70.8231 122.19 71.0223C121.771 71.1399 121.629 71.314 120.941 71.4926C120.306 71.6575 120.126 71.5873 119.935 71.7484C119.695 71.9499 119.519 72.4446 119.919 73.7853C119.529 73.3906 119.061 73.2386 118.729 73.3952C118.676 73.4203 118.536 73.5158 118.457 73.6601C118.171 74.1838 118.65 74.8526 119.739 75.2404Z" fill="url(#paint9_linear_2:154)"/>
<path d="M119.843 71.4735C119.941 71.5468 119.64 71.9148 119.618 72.4354C119.574 73.4463 120.597 74.6594 121.64 74.7617C122.257 74.8228 122.426 74.451 123.446 74.3426C124.078 74.2761 124.604 74.3563 124.934 74.4281C125.255 75.5366 124.954 76.6413 124.212 77.1544C123.414 77.7063 122.396 77.3712 121.97 77.2315C121.685 77.1376 120.772 76.8398 120.295 76.0023C119.798 75.1297 120.286 74.6037 119.715 74.0135C119.428 73.7158 119.05 73.5867 118.682 73.0103C118.582 72.8538 118.515 72.7149 118.474 72.6217C119.002 72.0636 119.7 71.3674 119.843 71.4735Z" fill="#26264F"/>
<path d="M124.192 74.8402C124.192 74.8402 123.751 75.0707 122.987 75.028C122.95 75.0257 122.909 75.0364 122.905 75.0562C122.887 75.1288 123.377 75.4532 123.828 75.3265C124.148 75.2364 124.397 74.9333 124.354 74.8562C124.335 74.8226 124.263 74.8272 124.192 74.8402Z" fill="url(#paint10_linear_2:154)"/>
<path d="M55.8259 173.352C55.932 174.271 56.3786 175.011 56.9673 175.244C58.4377 175.822 60.3394 176.041 62.5634 176.044C64.8217 176.047 66.7494 175.817 68.2313 175.23C68.8016 175.004 69.2398 174.3 69.3612 173.414L73.3044 144.676H52.5125L55.8259 173.352Z" fill="url(#paint11_linear_2:154)"/>
<path d="M62.89 146.219C68.6416 146.219 73.3043 145.47 73.3043 144.546C73.3043 143.622 68.6416 142.872 62.89 142.872C57.1383 142.872 52.4757 143.622 52.4757 144.546C52.4757 145.47 57.1383 146.219 62.89 146.219Z" fill="url(#paint12_linear_2:154)"/>
<path d="M72.803 144.154C72.251 144.491 71.0531 145.618 69.4567 145.744C58.8333 146.58 54.3686 144.389 53.9823 144.071C53.9159 144.017 54.3121 139.482 54.2487 139.425C54.5511 137.775 54.4892 135.99 53.7166 134.212C51.4369 128.964 36.9023 126.45 40.9318 116.438C43.8833 109.103 54.4175 106.604 41.2708 95.6259C28.1249 84.6459 23.7022 60.6864 38.4437 58.1587C46.9043 56.7081 50.1032 70.7411 59.0127 73.1353C67.4794 75.4104 70.5248 82.8037 67.9138 92.1049C65.3028 101.406 70.3385 103.118 76.6676 107.775C84.27 113.369 76.6905 121.968 73.3603 125.593C70.6806 128.512 67.9001 140.585 72.803 144.154Z" fill="url(#paint13_linear_2:154)"/>
<g opacity="0.7">
<g opacity="0.7">
<path opacity="0.7" d="M62.2585 144.935L61.9539 144.896C65.9262 113.479 54.6324 80.2884 32.4792 58.2773L32.6953 58.0597C43.6745 68.9687 52.2122 82.8094 57.3846 98.0845C62.528 113.273 64.213 129.473 62.2585 144.935Z" fill="#FCFDFE"/>
</g>
<g opacity="0.7">
<path opacity="0.7" d="M62.942 127.631L62.6511 127.533C66.6875 115.536 80.0754 109.656 80.2098 109.598L80.3312 109.88C80.1984 109.937 66.9341 115.766 62.942 127.631Z" fill="#FCFDFE"/>
</g>
<g opacity="0.7">
<path opacity="0.7" d="M62.5307 139.058C60.4205 126.779 39.3064 118.027 39.0934 117.94L39.2094 117.656C39.424 117.743 60.6938 126.561 62.833 139.006L62.5307 139.058Z" fill="#FCFDFE"/>
</g>
<g opacity="0.7">
<path opacity="0.7" d="M56.6527 96.9423C55.7892 86.7754 66.1172 75.1343 66.2218 75.0175L66.4501 75.2221C66.347 75.3373 56.1061 86.8823 56.9581 96.9156L56.6527 96.9423Z" fill="#FCFDFE"/>
</g>
<g opacity="0.7">
<path opacity="0.7" d="M48.1716 78.5845C40.9371 69.9109 25.7154 68.248 25.5627 68.232L25.5947 67.9266C25.749 67.9427 41.0929 69.6177 48.4075 78.3875L48.1716 78.5845Z" fill="#FCFDFE"/>
</g>
</g>
<path d="M161.717 185.72C161.568 185.72 161.441 185.606 161.427 185.455L156.142 128.338C156.127 128.178 156.245 128.036 156.405 128.02C156.565 128.008 156.708 128.124 156.723 128.284L161.426 179.112V127.046C161.426 126.885 161.556 126.755 161.717 126.755C161.879 126.755 162.009 126.885 162.009 127.046V185.427C162.009 185.583 161.887 185.711 161.731 185.719C161.726 185.72 161.721 185.72 161.717 185.72Z" fill="#B7C0CE"/>
<path d="M220.65 133.295L162.669 126.942L51.278 132.006L109.617 138.992L220.65 133.295Z" fill="#D8DEE8"/>
<path d="M109.617 138.992L220.649 133.295V136.047L109.617 141.744L51.2772 134.757V132.006L109.617 138.992Z" fill="#B7C0CE"/>
<path d="M110.013 205.641C110.009 205.641 110.005 205.641 110.001 205.641C109.845 205.635 109.721 205.506 109.721 205.349V141.074C109.721 140.913 109.852 140.782 110.013 140.782C110.174 140.782 110.304 140.913 110.304 141.074V197.88L114.748 141.052C114.761 140.891 114.9 140.772 115.062 140.784C115.222 140.797 115.342 140.936 115.33 141.098L110.304 205.373C110.291 205.524 110.165 205.641 110.013 205.641Z" fill="#B7C0CE"/>
<path d="M51.9144 194.222C51.9106 194.222 51.9068 194.222 51.903 194.222C51.7465 194.216 51.6228 194.087 51.6228 193.931V134.605C51.6228 134.444 51.7534 134.313 51.9144 134.313C52.0755 134.313 52.2061 134.444 52.2061 134.605V186.492L56.2822 134.582C56.2951 134.422 56.4379 134.301 56.5959 134.314C56.7563 134.327 56.8761 134.467 56.8639 134.628L52.2061 193.954C52.1931 194.106 52.0656 194.222 51.9144 194.222Z" fill="#B7C0CE"/>
<path d="M220.099 194.223C219.947 194.223 219.821 194.106 219.808 193.955L214.862 134.63C214.848 134.469 214.968 134.328 215.128 134.315C215.29 134.302 215.43 134.421 215.443 134.581L219.807 186.925V136.047C219.807 135.886 219.937 135.756 220.099 135.756C220.26 135.756 220.39 135.886 220.39 136.047V193.932C220.39 194.088 220.267 194.216 220.111 194.223C220.107 194.223 220.102 194.223 220.099 194.223Z" fill="#B7C0CE"/>
<path d="M188.269 134.035L148.431 133.739V134.616C148.431 134.854 148.605 135.057 148.841 135.093L160.105 136.82C160.239 136.84 160.375 136.845 160.509 136.836L187.836 134.866C188.081 134.848 188.269 134.645 188.269 134.401V134.035Z" fill="#26264F"/>
<path d="M173.814 132.586L148.846 134.191C148.399 134.22 148.036 133.914 148.036 133.509V117.276C148.036 116.871 148.399 116.543 148.846 116.543H173.814C174.182 116.543 174.48 116.84 174.48 117.206V131.88C174.48 132.246 174.183 132.562 173.814 132.586Z" fill="#444B8C"/>
<path d="M174.21 132.586L149.241 134.19C148.795 134.219 148.431 133.914 148.431 133.509V117.276C148.431 116.871 148.795 116.542 149.241 116.542H174.21C174.578 116.542 174.876 116.839 174.876 117.206V131.879C174.876 132.246 174.578 132.562 174.21 132.586Z" fill="#26264F"/>
<path d="M173.434 131.551L150.178 132.945C149.815 132.967 149.519 132.716 149.519 132.385V118.174C149.519 117.844 149.815 117.574 150.178 117.573L173.434 117.485C173.738 117.484 173.983 117.727 173.983 118.029V130.972C173.984 131.274 173.738 131.533 173.434 131.551Z" fill="#EFF2F6"/>
<path d="M162.609 116.987C162.609 117.138 162.48 117.26 162.322 117.261C162.163 117.262 162.034 117.14 162.034 116.989C162.034 116.838 162.163 116.715 162.322 116.715C162.48 116.714 162.609 116.837 162.609 116.987Z" fill="white"/>
<path opacity="0.48" d="M168.296 128.142C166.361 127.2 164.84 128.394 163.371 127.215C162.481 126.5 162.919 125.968 161.823 124.9C160.61 123.717 159.821 124.115 158.601 123.051C157.06 121.706 157.831 120.658 156.503 119.692C154.893 118.521 153.156 119.605 151.622 118.482C150.961 117.997 150.597 117.292 150.408 116.542H148.908C148.645 116.542 148.431 116.736 148.431 116.973V133.81C148.431 134.048 148.645 134.227 148.908 134.21L174.486 132.567C174.611 132.558 174.722 132.493 174.794 132.396C172.922 132.334 171.772 131.766 171.037 131.179C169.597 130.03 169.846 128.897 168.296 128.142Z" fill="white"/>
<path d="M175.206 132.541L148.431 134.23L160.105 136.02C160.239 136.041 160.375 136.046 160.509 136.036L188.269 134.036L175.631 132.552C175.49 132.536 175.348 132.532 175.206 132.541Z" fill="#26264F"/>
<path opacity="0.47" d="M152.341 134.244L174.632 132.817L181.53 133.62L159.431 135.145L152.341 134.244Z" fill="#D8DEE8"/>
<path d="M180.28 185.312C180.28 185.312 174.423 185.719 174.338 186.101C174.252 186.484 178.313 187.962 179.732 188.017C181.151 188.072 182.318 187.653 182.189 187.052C182.061 186.451 181.564 184.939 181.564 184.939L180.28 185.312Z" fill="url(#paint14_linear_2:154)"/>
<path d="M180.003 182.71L179.899 185.474C179.899 185.474 180.79 185.977 181.497 185.688L182.284 182.773L180.003 182.71Z" fill="url(#paint15_linear_2:154)"/>
<path d="M163.9 184.198C163.9 184.198 158.044 184.605 157.958 184.987C157.872 185.37 161.934 186.848 163.352 186.903C164.771 186.958 165.939 186.539 165.81 185.938C165.682 185.337 165.185 183.826 165.185 183.826L163.9 184.198Z" fill="url(#paint16_linear_2:154)"/>
<path d="M163.623 181.596L163.519 184.359C163.519 184.359 164.41 184.862 165.117 184.573L165.903 181.658L163.623 181.596Z" fill="url(#paint17_linear_2:154)"/>
<path d="M179.379 183.101C180.473 183.223 181.568 183.345 182.662 183.466C184.14 181.828 186.347 178.972 187.525 174.955C189.799 167.212 186.506 161.632 188.619 160.243C191.611 158.278 198.093 169.594 208.499 169.303C212.768 169.184 218.341 167.093 220.483 162.539C220.807 161.851 222.395 158.253 220.848 154.879C219.251 151.396 211.329 149.88 195.55 146.991C188.777 145.75 185.357 145.132 183.983 145.788C174.244 150.437 178.304 176.725 179.379 183.101Z" fill="url(#paint18_linear_2:154)"/>
<path d="M162.675 183.148C163.807 183.345 164.938 183.542 166.07 183.739C167.445 181.714 169.526 178.541 171.853 174.516C176.703 166.124 176.615 164.419 178.856 163.339C183.6 161.053 187.185 167.228 198.917 168.932C202.755 169.489 211.276 170.726 214.723 166.135C216.121 164.274 216.923 161.138 215.817 158.475C213.834 153.703 207.302 154.276 185.786 150.086C177.395 148.451 176.251 148.16 174.219 148.883C162.867 152.92 162.646 177.635 162.675 183.148Z" fill="url(#paint19_linear_2:154)"/>
<path d="M186.181 117.43C187.298 114.698 189.696 113.127 190.939 112.312C191.561 111.905 192.136 111.598 192.72 111.36C197.223 109.522 201.718 109.649 202.52 109.709C204.464 109.855 209.267 110.214 212.826 113.297C214.548 114.79 215.924 116.873 217.932 128.617C220.732 144.995 218.46 143.316 220.668 149.954C221.837 153.467 223.657 157.498 221.731 160.072C221.109 160.903 220.221 161.142 218.41 161.957C211.644 165.001 205.577 164.477 201.891 164.111C197.835 163.709 195.785 163.48 194.71 162.046C192.992 159.756 194.76 156.847 195.068 151.812C195.29 148.197 194.468 145.332 192.824 139.603C189.002 126.284 184.04 122.663 186.181 117.43Z" fill="#E85A45"/>
<path d="M167.117 133.74L162.793 132.908C162.482 132.849 162.164 132.846 161.852 132.899L158.112 133.542C158.112 133.542 160.544 134.52 162.611 134.213C164.677 133.906 166.936 135.069 166.936 135.069L167.117 133.74Z" fill="url(#paint20_linear_2:154)"/>
<path d="M195.745 106.681C195.018 105.582 196.106 103.469 196.536 102.633C196.551 102.604 196.57 102.567 196.61 102.492C197.272 101.272 197.441 101.105 197.756 100.894L198.195 100.623C198.195 100.623 198.22 100.613 198.246 100.603C198.528 100.503 199.487 100.474 199.682 100.515C200.302 100.648 200.964 103.177 200.775 106.753C200.801 106.889 200.825 107.027 200.85 107.165C200.948 107.73 201.025 108.283 201.085 108.824C201.142 109.342 201.877 109.33 202.396 109.296C204.505 109.162 205.538 109.342 205.628 109.655C205.796 110.244 203.294 112.169 200.203 112.601C196.056 112.633 192.683 112.191 193.046 111.538C193.207 111.248 196.42 110.409 197.323 109.577C198.151 108.815 198.083 108.028 198.152 107.465C197.726 107.489 196.299 107.519 195.745 106.681Z" fill="url(#paint21_linear_2:154)"/>
<path d="M196.91 99.6076C196.569 100.36 197.396 101.87 197.702 102.089C197.736 102.113 197.929 102.266 198.103 102.527C198.127 102.563 198.148 102.604 198.167 102.658C198.41 103.357 197.299 104.178 197.514 104.491C197.67 104.717 198.424 104.414 198.513 104.61C198.598 104.795 197.971 105.175 198.067 105.396C198.139 105.563 198.525 105.411 198.768 105.666C198.956 105.863 198.978 106.143 198.983 106.282C199.013 107.275 196.763 110.859 196.294 112.476C195.797 114.192 196.686 115.824 199.917 120.335C204.513 126.751 206.811 129.959 208.089 130.877C214.332 135.359 221.674 134.81 224.685 134.342C228.302 133.781 235.774 132.62 238.18 126.865C240.946 120.25 235.5 111.198 229.913 109.661C227.357 108.958 225.997 110.026 222.678 108.871C219.013 107.595 219.457 105.34 216.064 104.008C211.538 102.232 208.618 105.408 205.535 103.095C203.857 101.837 204.134 100.455 202.07 99.4473C200.032 98.4525 197.357 98.622 196.91 99.6076Z" fill="#26264F"/>
<path d="M197.909 104.23C198.181 103.856 198.658 104.207 198.66 104.69C198.663 105.173 198.195 105.675 197.742 105.579C197.288 105.484 197.544 104.732 197.909 104.23Z" fill="url(#paint22_linear_2:154)"/>
<path d="M205.392 159.354C204.198 156.978 207.122 153.819 205.212 150.197C203.59 147.12 200.642 147.81 199.287 144.99C197.65 141.584 201.21 139.039 201.083 133.858C200.93 127.664 195.601 121.464 192.464 122.008C190.435 122.36 190.174 125.387 188.746 128.701C190.01 131.472 191.485 134.942 192.823 139.603C194.467 145.333 195.289 148.197 195.067 151.812C194.759 156.848 192.99 159.758 194.709 162.046C195.784 163.479 197.834 163.71 201.89 164.112C205.576 164.476 211.643 165.001 218.409 161.957C219.265 161.572 219.906 161.283 220.429 160.998C209.859 162.586 206.338 161.239 205.392 159.354Z" fill="#D84C37"/>
<path d="M166.014 135.001C166.137 134.449 166.259 133.897 166.382 133.345C174.689 134.834 178.321 133.163 180.075 131.21C181.685 129.418 180.999 128.491 183.576 121.649C186.031 115.133 188.817 113.458 190.22 112.851C191.004 112.513 191.544 112.289 192.195 112.447C195.188 113.179 196.176 120.977 195.337 126.811C194.864 130.099 193.936 136.544 188.649 139.604C188.552 139.66 188.398 139.749 188.195 139.858C187.529 140.214 184.883 141.486 179.672 140.546C173.526 139.438 167.531 135.917 166.014 135.001Z" fill="#E85A45"/>
<path d="M204.476 204.188C214.498 204.188 222.623 200.872 222.623 196.782C222.623 192.692 214.498 189.376 204.476 189.376C194.453 189.376 186.329 192.692 186.329 196.782C186.329 200.872 194.453 204.188 204.476 204.188Z" fill="url(#paint23_linear_2:154)"/>
<path d="M222.624 195.914C222.624 199.775 214.5 202.905 204.477 202.905C194.454 202.905 186.33 199.775 186.33 195.914C186.33 192.052 194.454 185.735 204.477 185.735C214.499 185.735 222.624 192.052 222.624 195.914Z" fill="url(#paint24_linear_2:154)"/>
<path d="M222.626 195.914C222.626 192.052 214.501 185.735 204.478 185.735C199.85 185.735 195.63 187.083 192.424 188.913C192.2 189.383 192.095 189.85 192.138 190.294C192.346 192.467 195.889 193.802 197.923 194.242C203.045 195.352 205.546 192.289 209.769 192.406C212.38 192.477 215.998 193.789 220.289 199.344C221.774 198.331 222.626 197.16 222.626 195.914Z" fill="url(#paint25_linear_2:154)"/>
<path d="M205.469 189.241C204.744 189.421 204.067 189.414 203.431 189.252C202.853 189.106 202.457 188.571 202.457 187.976V167.513H206.493V187.952C206.493 188.566 206.065 189.093 205.469 189.241Z" fill="white"/>
<path d="M205.469 189.241C204.744 189.421 204.067 189.414 203.431 189.252C202.853 189.106 202.457 188.571 202.457 187.976V167.513H206.493V187.952C206.493 188.566 206.065 189.093 205.469 189.241Z" fill="url(#paint26_linear_2:154)"/>
<path d="M183.154 158.902L189.319 155.005C189.576 153.549 192.481 138.32 204.279 133.537C209.077 131.593 214.24 131.823 217.073 131.95C222.73 132.203 226.764 132.383 228.704 135.081C231.196 138.546 227.017 141.687 227.882 151.597C228.235 155.638 229.133 157.433 228.015 160.11C226.676 163.317 223.571 165.095 221.157 166.096C218.271 167.771 213.246 170.159 206.609 170.741C195.43 171.721 187.084 166.925 184.214 165.09C182.938 164.688 181.979 163.627 181.708 162.316C181.43 160.987 182.007 159.627 183.154 158.902Z" fill="url(#paint27_linear_2:154)"/>
<path opacity="0.26" d="M185.989 161.676C186.216 160.306 190.036 161.442 193.648 158.758C199.049 154.747 196.246 147.952 200.943 141.432C205.254 135.45 213.933 132.405 216.628 134.684C220.214 137.718 211.437 149.065 216.628 156.387C219.149 159.944 222.991 159.772 223.011 161.858C223.042 165.154 213.481 168.954 204.409 168.788C194.655 168.61 185.628 163.851 185.989 161.676Z" fill="white"/>
<path opacity="0.82" d="M178.268 62.0633L150.543 108.051H224.916L198.514 63.0138L178.268 62.0633Z" fill="url(#paint28_linear_2:154)"/>
<path d="M188.062 38.4263C187.982 38.4263 187.917 38.3614 187.917 38.2812V36.1428C187.917 36.0626 187.982 35.9977 188.062 35.9977C188.142 35.9977 188.207 36.0626 188.207 36.1428V38.2812C188.207 38.3614 188.142 38.4263 188.062 38.4263Z" fill="url(#paint29_linear_2:154)"/>
<path d="M188.061 53.8317C187.981 53.8317 187.916 53.7668 187.916 53.6867V38.2817C187.916 38.2015 187.981 38.1366 188.061 38.1366C188.142 38.1366 188.206 38.2015 188.206 38.2817V53.6874C188.206 53.7668 188.142 53.8317 188.061 53.8317Z" fill="url(#paint30_linear_2:154)"/>
<path d="M188.061 55.9702C187.981 55.9702 187.916 55.9053 187.916 55.8251V53.6867C187.916 53.6065 187.981 53.5417 188.061 53.5417C188.142 53.5417 188.206 53.6065 188.206 53.6867V55.8251C188.206 55.9053 188.142 55.9702 188.061 55.9702Z" fill="url(#paint31_linear_2:154)"/>
<path d="M188.062 31.8056C187.982 31.8056 187.917 31.7407 187.917 31.6605V29.5221C187.917 29.4419 187.982 29.377 188.062 29.377C188.142 29.377 188.207 29.4419 188.207 29.5221V31.6605C188.207 31.7407 188.142 31.8056 188.062 31.8056Z" fill="url(#paint32_linear_2:154)"/>
<path d="M188.061 32.1896C187.981 32.1896 187.916 32.1247 187.916 32.0445V31.6598C187.916 31.5796 187.981 31.5147 188.061 31.5147C188.142 31.5147 188.206 31.5796 188.206 31.6598V32.0445C188.206 32.1247 188.142 32.1896 188.061 32.1896Z" fill="url(#paint33_linear_2:154)"/>
<path d="M188.061 34.3279C187.981 34.3279 187.916 34.263 187.916 34.1829V32.0452C187.916 31.965 187.981 31.9001 188.061 31.9001C188.142 31.9001 188.206 31.965 188.206 32.0452V34.1836C188.206 34.263 188.142 34.3279 188.061 34.3279Z" fill="url(#paint34_linear_2:154)"/>
<path d="M188.061 28.0006C187.981 28.0006 187.916 27.9357 187.916 27.8555V26.6111C187.916 26.5309 187.981 26.466 188.061 26.466C188.142 26.466 188.206 26.5309 188.206 26.6111V27.8563C188.206 27.9357 188.142 28.0006 188.061 28.0006Z" fill="url(#paint35_linear_2:154)"/>
<path d="M199.121 64.177V60.8003C199.121 58.174 196.973 56.0256 194.347 56.0256H181.77C179.144 56.0256 176.995 58.174 176.995 60.8003V64.177H199.121Z" fill="url(#paint36_linear_2:154)"/>
<path d="M188.075 66.2525C194.193 66.2525 199.153 65.2708 199.153 64.0598C199.153 62.8489 194.193 61.8672 188.075 61.8672C181.957 61.8672 176.997 62.8489 176.997 64.0598C176.997 65.2708 181.957 66.2525 188.075 66.2525Z" fill="url(#paint37_linear_2:154)"/>
<path opacity="0.3" d="M188.078 61.2261C183.31 61.2261 179.306 60.5741 178.341 59.6411C178.306 59.6083 178.306 59.5533 178.338 59.519C178.372 59.4846 178.427 59.4838 178.461 59.5167C179.381 60.4069 183.426 61.0535 188.078 61.0535C192.402 61.0535 196.276 60.4855 197.5 59.6717C197.539 59.6457 197.593 59.6556 197.619 59.6953C197.646 59.735 197.635 59.7885 197.596 59.8152C196.326 60.6588 192.501 61.2261 188.078 61.2261Z" fill="white"/>
<path d="M192.427 56.1955C192.412 55.1717 191.571 54.3388 190.543 54.3388H185.576C184.539 54.3388 183.69 55.187 183.69 56.2245H183.693C183.693 56.2276 183.69 56.2306 183.69 56.2337C183.69 56.7116 185.649 57.0995 188.063 57.0995C190.478 57.0995 192.436 56.7116 192.436 56.2337C192.437 56.2207 192.43 56.2085 192.427 56.1955Z" fill="url(#paint38_linear_2:154)"/>
<path opacity="0.82" d="M67.3435 67.3195L39.6194 113.307H113.992L87.5895 68.27L67.3435 67.3195Z" fill="url(#paint39_linear_2:154)"/>
<path d="M77.1373 37.6684C77.0571 37.6684 76.9922 37.6035 76.9922 37.5234V35.3849C76.9922 35.3048 77.0571 35.2399 77.1373 35.2399C77.2175 35.2399 77.2824 35.3048 77.2824 35.3849V37.5234C77.2816 37.6035 77.2175 37.6684 77.1373 37.6684Z" fill="url(#paint40_linear_2:154)"/>
<path d="M77.1366 59.0875C77.0565 59.0875 76.9916 59.0226 76.9916 58.9424V37.5237C76.9916 37.4436 77.0565 37.3787 77.1366 37.3787C77.2168 37.3787 77.2817 37.4436 77.2817 37.5237V58.9424C77.2809 59.0226 77.2168 59.0875 77.1366 59.0875Z" fill="url(#paint41_linear_2:154)"/>
<path d="M77.1366 61.2252C77.0565 61.2252 76.9916 61.1603 76.9916 61.0801V58.9417C76.9916 58.8615 77.0565 58.7966 77.1366 58.7966C77.2168 58.7966 77.2817 58.8615 77.2817 58.9417V61.0801C77.2809 61.1603 77.2168 61.2252 77.1366 61.2252Z" fill="url(#paint42_linear_2:154)"/>
<path d="M77.1375 33.9331C77.0573 33.9331 76.9924 33.8682 76.9924 33.7881V30.377C76.9924 30.2968 77.0573 30.2319 77.1375 30.2319C77.2176 30.2319 77.2825 30.2968 77.2825 30.377V33.7889C77.2818 33.8682 77.2176 33.9331 77.1375 33.9331Z" fill="url(#paint43_linear_2:154)"/>
<path d="M77.1375 29.1206C77.0573 29.1206 76.9924 29.0557 76.9924 28.9756V27.5464C76.9924 27.4662 77.0573 27.4013 77.1375 27.4013C77.2176 27.4013 77.2825 27.4662 77.2825 27.5464V28.9756C77.2818 29.0557 77.2176 29.1206 77.1375 29.1206Z" fill="url(#paint44_linear_2:154)"/>
<path d="M88.1973 69.4325V66.0558C88.1973 63.4295 86.0489 61.2811 83.4226 61.2811H70.8462C68.22 61.2811 66.0716 63.4295 66.0716 66.0558V69.4325H88.1973Z" fill="url(#paint45_linear_2:154)"/>
<path d="M77.1501 71.508C83.2685 71.508 88.2285 70.5263 88.2285 69.3153C88.2285 68.1044 83.2685 67.1227 77.1501 67.1227C71.0316 67.1227 66.0716 68.1044 66.0716 69.3153C66.0716 70.5263 71.0316 71.508 77.1501 71.508Z" fill="url(#paint46_linear_2:154)"/>
<path opacity="0.3" d="M77.1528 66.4819C72.3851 66.4819 68.3808 65.8299 67.4158 64.8962C67.3814 64.8634 67.3806 64.8084 67.4135 64.7741C67.4471 64.7397 67.502 64.7389 67.5356 64.7718C68.4563 65.662 72.5011 66.3086 77.1528 66.3086C81.4771 66.3086 85.3508 65.7406 86.5739 64.9268C86.6136 64.9008 86.667 64.9107 86.6937 64.9504C86.7205 64.9901 86.7098 65.0436 86.6701 65.0703C85.4012 65.9147 81.5763 66.4819 77.1528 66.4819Z" fill="white"/>
<path d="M81.5023 61.4518C81.487 60.428 80.6457 59.5951 79.6181 59.5951H74.6511C73.6143 59.5951 72.7653 60.4433 72.7653 61.4808H72.7676C72.7676 61.4838 72.7653 61.4869 72.7653 61.49C72.7653 61.9679 74.7236 62.3557 77.1384 62.3557C79.5532 62.3557 81.5114 61.9679 81.5114 61.49C81.5114 61.477 81.5046 61.4648 81.5023 61.4518Z" fill="url(#paint47_linear_2:154)"/>
<path d="M64.6 139.929C64.6 139.929 50.9647 116.319 32.525 156.47C18.1659 187.735 27.4465 222.517 60.6651 232.061C93.8838 241.605 145.767 222.33 129.481 208.746C94.9366 179.931 68.718 154.389 64.6 139.929Z" fill="url(#paint48_linear_2:154)"/>
<g opacity="0.3">
<path d="M47.492 161.145C46.5216 164.005 46.3018 172.151 46.711 181.52C47.0767 189.878 46.3178 194.247 59.6141 200.326C64.1719 202.409 67.3235 209.021 74.3014 212.954C77.4652 214.738 89.3835 221.189 104.775 218.582C114.958 216.858 122.541 211.862 127.648 207.208C94.0153 179.024 68.6458 154.131 64.6017 139.928C64.6017 139.928 59.6194 131.308 51.6078 133.349C53.5515 135.516 54.2111 141.351 47.492 161.145Z" fill="url(#paint49_linear_2:154)"/>
</g>
<g opacity="0.3">
<path d="M113.834 222.563C98.124 231.238 71.8864 236.533 52.339 222.014C34.2397 208.571 32.6266 186.058 32.0234 179.186C30.9691 167.179 33.3152 156.723 36.6973 148.29C35.3384 150.665 33.9466 153.377 32.5266 156.469C18.1675 187.734 27.4481 222.516 60.6667 232.06C93.3639 241.455 144.145 222.927 130.199 209.388C126.235 213.859 120.887 218.669 113.834 222.563Z" fill="url(#paint50_linear_2:154)"/>
</g>
<path opacity="0.3" d="M89.0852 225.14C88.6195 225.14 88.1523 225.134 87.6797 225.124C75.5469 224.853 58.5127 220.822 46.2646 203.163C35.9198 188.247 37.3047 171.414 40.2875 159.919C43.5162 147.478 49.2627 138.437 49.3207 138.347C49.3856 138.246 49.5192 138.218 49.6192 138.282C49.7193 138.347 49.749 138.48 49.6841 138.581C49.6269 138.67 43.9117 147.663 40.7021 160.039C37.7445 171.444 36.3703 188.14 46.6196 202.917C58.7639 220.428 75.6568 224.424 87.6896 224.692C100.746 224.983 111.04 221.083 111.142 221.043C111.253 221 111.378 221.056 111.421 221.167C111.464 221.277 111.408 221.403 111.297 221.445C111.197 221.484 101.546 225.139 89.0852 225.14Z" fill="white"/>
<path d="M154.236 222.906C153.37 221.974 151.818 217.962 154.648 217.138C157.493 216.309 159.074 215.259 162.992 212.118C166.91 208.977 167.917 211.675 162.383 216.775C156.85 221.877 155.467 224.232 154.236 222.906Z" fill="url(#paint51_linear_2:154)"/>
<path d="M150.528 217.047L152.859 219.082C153.346 219.507 154.054 219.562 154.6 219.217C154.854 219.055 155.018 218.784 155.039 218.483C155.061 218.182 154.938 217.89 154.709 217.693L151.303 214.779L150.528 217.047Z" fill="url(#paint52_linear_2:154)"/>
<path d="M80.7259 197.451C76.6078 201.059 85.2036 212.89 98.9358 209.055C115.577 204.408 136.74 206.497 151.006 218.112C151.833 217.376 153.883 216.22 152.946 215.273C140.058 202.24 128.121 194.759 118.234 192.751C103.287 189.717 92.451 187.18 80.7259 197.451Z" fill="#05051C"/>
<g opacity="0.24">
<path d="M129.002 202.407C131.416 203.811 131.931 200.958 133.176 199.082C127.83 195.799 122.811 193.682 118.234 192.753C103.286 189.718 92.4503 187.18 80.7244 197.452C76.6064 201.06 85.2021 212.891 98.9343 209.056C103.901 207.669 109.272 206.898 114.741 206.785C119.141 204.018 122.74 197.671 129.002 202.407Z" fill="#05051C"/>
</g>
<path d="M78.2958 209.776L77.4506 210.099C77.4506 210.099 71.9828 204.936 71.0086 203.621C69.8199 202.016 83.2086 197.923 87.5565 192.569C92.125 186.942 88.5154 199.249 88.5154 199.249L78.2958 209.776Z" fill="#26264F"/>
<path d="M73.3381 159.127C73.3381 159.127 78.1922 159.792 83.515 169.23C87.517 176.327 96.2051 182.205 96.2051 182.205L97.0968 187.789L89.886 189.056L87.3063 187.357L80.2695 172.385L73.3381 159.127Z" fill="#35338F"/>
<path d="M63.927 158.524C63.927 158.524 51.9614 160 51.7048 173.768C51.4674 186.474 56.052 191.396 67.3007 201.991C68.4321 203.056 70.2659 203.057 70.4018 203.21C71.1325 204.034 71.873 204.893 72.622 205.791C82.6889 196.131 94.0399 192.859 94.0399 192.859C94.0399 192.859 83.5416 171.141 78.9289 163.942C74.1725 156.519 66.9991 157.786 63.927 158.524Z" fill="#5B5AAB"/>
<g opacity="0.3">
<path d="M83.7919 190.598C78.7409 193.301 71.5828 192.995 68.9504 189.651C66.9677 187.132 66.6463 186.194 64.233 182.238C62.2915 179.056 61.3464 178.546 57.1039 175.867C55.5029 174.856 53.6859 173.393 51.904 171.199C51.7918 172.005 51.7208 172.858 51.7032 173.768C51.4658 186.475 56.0503 191.397 67.299 201.991C68.4305 203.056 70.2643 203.057 70.4002 203.21C71.1308 204.035 71.8714 204.893 72.6203 205.792C82.6872 196.131 94.0383 192.859 94.0383 192.859C94.0383 192.859 92.2961 189.444 89.9889 184.64C88.3154 187.443 87.032 188.864 83.7919 190.598Z" fill="#2F2E82"/>
</g>
<path d="M75.5428 191.003C75.5428 191.003 77.8102 191.107 79.4211 190.458C81.032 189.809 80.8992 189.661 82.7528 189.425C84.5546 189.196 88.1039 188.127 86.0945 186.3C83.8576 184.266 80.0243 184.836 78.9226 186.186C77.8606 187.488 76.0199 188.315 76.0199 188.315L75.5428 191.003Z" fill="url(#paint53_linear_2:154)"/>
<path d="M55.3154 165.387C55.3154 165.387 48.6703 166.161 52.5479 187.561C54.5588 198.66 64.5005 197.097 76.5051 192.511C77.3174 190.811 76.2722 187.208 76.2722 187.208C76.2722 187.208 61.3574 193.358 60.9718 184.386C60.5389 174.327 59.193 164.325 55.3154 165.387Z" fill="#35338F"/>
<path opacity="0.5" d="M66.7112 163.077C63.8665 163.077 60.9768 160.97 60.8387 160.868C60.7906 160.833 60.7806 160.765 60.8158 160.717C60.8516 160.669 60.9188 160.659 60.9669 160.694C61.0051 160.722 64.8033 163.492 67.8777 162.723C68.7297 162.51 69.3122 162.093 69.6108 161.484C70.1788 160.325 69.5352 158.838 69.5291 158.823C69.5046 158.768 69.5298 158.705 69.584 158.681C69.6398 158.657 69.7024 158.682 69.726 158.736C69.7543 158.801 70.4162 160.33 69.8047 161.579C69.4771 162.248 68.8465 162.703 67.9304 162.932C67.5303 163.033 67.1211 163.077 66.7112 163.077Z" fill="white"/>
<path opacity="0.5" d="M70.9377 202.771C70.908 202.771 70.879 202.758 70.8576 202.735C70.8179 202.691 70.8209 202.623 70.8652 202.582C70.9721 202.485 81.6841 192.897 91.354 190.533C91.4136 190.516 91.4701 190.554 91.4846 190.612C91.4983 190.67 91.4632 190.728 91.4052 190.742C81.7879 193.094 71.1164 202.646 71.0095 202.742C70.9889 202.762 70.9629 202.771 70.9377 202.771Z" fill="white"/>
<path d="M63.3401 152.85C63.3401 152.85 63.7494 157.555 63.3798 158.446C63.0103 159.337 64.1776 160.552 66.484 161.02C68.7904 161.488 66.9643 156.328 66.9643 156.328L63.3401 152.85Z" fill="url(#paint54_linear_2:154)"/>
<path d="M67.4707 151.137C68.6716 148.684 65.0834 143.704 63.7069 144.107C62.9167 144.337 63.697 146.103 62.2334 148.481C61.0936 150.333 59.6774 150.795 59.7621 152.177C59.8018 152.827 60.166 153.567 60.6538 154.064C60.905 154.319 61.2997 154.601 62.1242 155.107C62.8564 155.557 62.8167 155.548 63.0366 155.675C63.5649 155.982 64.5352 156.462 66.0896 156.83C66.0102 156.472 65.9339 156.018 65.911 155.497C65.9018 155.296 65.8751 154.509 66.0507 153.759C66.3706 152.393 67.1264 151.84 67.4707 151.137Z" fill="url(#paint55_linear_2:154)"/>
<path d="M64.2127 156.619C64.2127 156.619 66.2152 157.893 68.3514 156.665C70.2646 155.565 68.3765 150.991 66.6519 150.671C66.0763 150.564 65.1693 150.848 64.5776 151.377C64.2279 151.689 64.1737 151.925 63.5935 152.424C63.0576 152.885 62.8507 152.902 62.7423 153.149C62.6064 153.458 62.6713 154.019 63.695 155.125C63.1301 154.928 62.6056 155.004 62.3598 155.313C62.3208 155.363 62.23 155.522 62.2223 155.699C62.1956 156.342 62.9759 156.761 64.2127 156.619Z" fill="url(#paint56_linear_2:154)"/>
<path d="M77.1342 193.879C77.025 193.895 76.925 193.973 76.8975 194.077C76.8937 194.093 76.9357 194.635 76.9342 194.651C76.9235 194.777 77.0014 194.894 77.1212 194.933L87.2958 198.238L106.31 190.791L97.2756 191.482L77.1342 193.879Z" fill="#26264F"/>
<path d="M77.1293 193.805C77.0041 193.823 76.9079 193.925 76.8972 194.051C76.8865 194.177 76.9644 194.294 77.0843 194.333L87.2588 197.638L106.273 190.191L97.2387 190.882L77.1293 193.805Z" fill="#444B8C"/>
<path d="M86.8098 197.49L88.3253 177.655C88.3497 177.337 88.5894 177.077 88.904 177.028L111.675 173.464C111.879 173.432 112.086 173.494 112.24 173.631C112.393 173.769 112.477 173.969 112.467 174.175L111.613 192.662C111.598 192.981 111.366 193.247 111.052 193.306L87.3961 197.685L86.8098 197.49Z" fill="url(#paint57_linear_2:154)"/>
<path d="M87.2966 198.238L88.8601 177.966C88.8846 177.648 89.1243 177.389 89.4388 177.34L112.21 173.776C112.413 173.744 112.621 173.806 112.775 173.943C112.928 174.081 113.012 174.281 113.002 174.487L112.147 192.977C112.132 193.295 111.901 193.561 111.589 193.621L87.2966 198.238Z" fill="#26264F"/>
<path d="M87.2966 198.238L111.59 193.62C111.902 193.56 112.133 193.295 112.148 192.976L112.406 187.4C105.169 191.51 96.1 192.033 87.6485 193.681L87.2966 198.238Z" fill="#1F1F44"/>
<path d="M128.44 194.083C128.108 192.93 127.375 191.655 129.994 190.726C131.896 190.051 135.2 189.834 138.203 189.68C142.411 189.464 143.378 191.982 137.228 193.584C133.201 194.632 128.913 195.723 128.44 194.083Z" fill="url(#paint58_linear_2:154)"/>
<path d="M131.72 192.318C131.76 192.963 131.349 193.47 130.813 193.546C129.568 193.724 129.801 193.082 129.761 192.437C129.722 191.792 129.219 191.344 130.669 191.209C131.209 191.159 131.681 191.672 131.72 192.318Z" fill="url(#paint59_linear_2:154)"/>
<path d="M118.944 188.606L120.173 188.412C120.173 188.412 122.568 188.636 129.165 190.455C130.578 190.689 132.503 194.812 128.365 194.974C124.226 195.136 119.189 198.218 119.189 198.218L118.944 188.606Z" fill="#26264F"/>
<path d="M75.9746 207.786C75.9746 207.786 76.5769 213.136 89.0159 212.649C101.455 212.162 123.677 199.249 123.536 192.473C123.396 185.697 115.128 188.404 106.565 192.32C99.3386 195.626 88.1761 197.541 85.8888 197.896C82.9609 198.351 75.2669 205.217 75.9746 207.786Z" fill="#26264F"/>
<g opacity="0.2">
<path d="M92.2481 201.082C98.0061 200.496 99.2986 196.364 106.464 195.169C111.107 194.395 112.746 195.766 115.113 194.181C116.981 192.93 117.935 190.748 118.394 188.378C115.219 188.648 110.933 190.322 106.564 192.321C99.5452 195.532 88.8133 197.43 86.1069 197.862C86.0267 197.875 84.212 197.226 84.212 197.226C84.212 197.226 82.8615 197.998 81.8926 198.607C85.6656 200.63 90.1448 201.297 92.2481 201.082Z" fill="#26264F"/>
</g>
<path opacity="0.75" d="M162.571 48.9691C162.571 40.7452 155.57 34.0779 146.933 34.0779C138.296 34.0779 131.294 40.7452 131.294 48.9691C131.294 53.9598 133.873 58.3771 137.831 61.079C139.51 62.2249 140.528 64.1145 140.528 66.1476V67.2874C140.528 69.7633 142.535 71.7704 145.011 71.7704H148.854C151.329 71.7704 153.337 69.7633 153.337 67.2874V66.1476C153.337 64.1145 154.355 62.2249 156.034 61.079C159.992 58.3771 162.571 53.9598 162.571 48.9691Z" fill="#F4F7FA"/>
<path d="M146.934 80.247C148.85 80.247 150.403 79.4246 150.403 78.4101C150.403 77.3956 148.85 76.5732 146.934 76.5732C145.018 76.5732 143.464 77.3956 143.464 78.4101C143.464 79.4246 145.018 80.247 146.934 80.247Z" fill="url(#paint60_linear_2:154)"/>
<path d="M142.324 75.1291V77.0049C142.324 77.6393 142.685 78.2211 143.257 78.4944C144.053 78.8738 145.375 79.2899 147.296 79.2403C148.855 79.2006 149.871 78.9456 150.517 78.6784C151.142 78.4203 151.542 77.8027 151.542 77.127V76.0895L142.324 75.1291Z" fill="url(#paint61_linear_2:154)"/>
<path opacity="0.3" d="M142.324 76.7721C142.464 76.9087 142.627 77.0248 142.81 77.1118C143.702 77.5371 149.545 78.4876 150.955 77.9585C151.138 77.8898 151.302 77.7974 151.446 77.6867C151.508 77.5096 151.542 77.321 151.542 77.1271V76.0895L142.324 75.1299V76.7721Z" fill="url(#paint62_linear_2:154)"/>
<path d="M142.734 73.8525C142.214 73.7983 141.762 74.206 141.762 74.7275V74.7809C141.762 75.4924 142.168 76.1452 142.81 76.4513C143.702 76.8766 149.545 77.8271 150.954 77.298C151.664 77.0316 152.103 76.4223 152.103 75.6642V75.6215C152.103 75.171 151.763 74.7931 151.315 74.7465L142.734 73.8525Z" fill="url(#paint63_linear_2:154)"/>
<path opacity="0.3" d="M151.316 74.7469L142.734 73.8529C142.396 73.8178 142.087 73.9788 141.912 74.2399C142.084 74.6461 142.398 74.9858 142.811 75.1828C143.703 75.608 149.795 76.683 150.956 76.1356C151.408 75.9226 151.762 75.563 151.952 75.1263C151.81 74.9194 151.582 74.7744 151.316 74.7469Z" fill="url(#paint64_linear_2:154)"/>
<path d="M142.398 70.8143C142.046 70.8143 141.762 71.0991 141.762 71.4495V72.9184C141.762 73.63 142.168 74.2827 142.81 74.5889C143.702 75.0141 149.794 76.089 150.954 75.5417C151.64 75.2187 152.103 74.5591 152.103 73.801V71.4488C152.103 71.0976 151.819 70.8136 151.468 70.8136H142.398V70.8143Z" fill="url(#paint65_linear_2:154)"/>
<path d="M151.976 71.2713C151.976 71.9302 149.718 72.4638 146.933 72.4638C144.148 72.4638 141.89 71.9302 141.89 71.2713C141.89 70.6132 144.147 70.0788 146.933 70.0788C149.718 70.0788 151.976 70.6124 151.976 71.2713Z" fill="url(#paint66_linear_2:154)"/>
<path d="M162.571 48.9691C162.571 40.7452 155.57 34.0779 146.933 34.0779C138.296 34.0779 131.294 40.7452 131.294 48.9691C131.294 53.9598 133.873 58.3771 137.831 61.079C139.51 62.2249 140.528 64.1145 140.528 66.1476V67.2874C140.528 69.7633 142.535 71.7704 145.011 71.7704H148.854C151.329 71.7704 153.337 69.7633 153.337 67.2874V66.1476C153.337 64.1145 154.355 62.2249 156.034 61.079C159.992 58.3771 162.571 53.9598 162.571 48.9691Z" fill="url(#paint67_linear_2:154)"/>
<path opacity="0.5" d="M146.934 71.2037C148.972 71.2037 150.624 70.813 150.624 70.3311C150.624 69.8492 148.972 69.4585 146.934 69.4585C144.897 69.4585 143.245 69.8492 143.245 70.3311C143.245 70.813 144.897 71.2037 146.934 71.2037Z" fill="#F4F7FA"/>
<path d="M147.217 60.715C147.552 54.9753 157.227 53.6324 157.186 48.5066C157.161 45.3497 153.315 43.0051 152.495 42.5356C146.445 39.0756 138.998 43.0708 137.461 40.2429C137.078 39.539 137.258 38.7725 137.36 38.3358C137.514 37.6762 137.865 37.0616 138.383 36.4997C134.115 39.1588 131.294 43.7495 131.294 48.9692C131.294 53.9599 133.873 58.3773 137.831 61.0791C139.51 62.2251 140.528 64.1146 140.528 66.1477V67.2875C140.528 69.7634 142.536 71.7705 145.011 71.7705H148.854C151.33 71.7705 153.337 69.7634 153.337 67.2875V66.3767C152.808 66.7821 152.201 67.0646 151.535 67.0593C149.224 67.0394 147.05 63.571 147.217 60.715Z" fill="url(#paint68_linear_2:154)"/>
<path opacity="0.2" d="M147.184 62.5278C154.617 62.5278 160.642 56.7173 160.642 49.5498C160.642 42.3823 154.617 36.5719 147.184 36.5719C139.752 36.5719 133.727 42.3823 133.727 49.5498C133.727 56.7173 139.752 62.5278 147.184 62.5278Z" fill="#F4F7FA"/>
<path d="M145.972 70.8643C145.866 70.8643 145.774 70.7857 145.76 70.678L143.045 49.567C143.03 49.4502 143.112 49.3433 143.229 49.328C143.346 49.312 143.453 49.3952 143.468 49.512L146.183 70.6231C146.198 70.7399 146.116 70.8468 145.999 70.862C145.99 70.8636 145.981 70.8643 145.972 70.8643Z" fill="url(#paint69_linear_2:154)"/>
<path d="M147.658 70.8639C147.649 70.8639 147.64 70.8632 147.631 70.8624C147.514 70.8472 147.431 70.7403 147.447 70.6235L150.162 49.5124C150.177 49.3956 150.283 49.3124 150.401 49.3284C150.517 49.3437 150.6 49.4506 150.585 49.5674L147.87 70.6784C147.855 70.7853 147.764 70.8639 147.658 70.8639Z" fill="url(#paint70_linear_2:154)"/>
<path d="M149.871 49.5495C149.802 49.5495 149.734 49.5159 149.693 49.4533L148.944 48.3165C148.937 48.305 148.924 48.2982 148.914 48.2997C148.895 48.3005 148.887 48.3134 148.885 48.3173L148.39 49.1456C148.308 49.283 148.164 49.367 148.005 49.3708C147.847 49.3762 147.698 49.2975 147.61 49.1647L146.93 48.1462C146.923 48.1355 146.913 48.1294 146.901 48.1294C146.887 48.1325 146.88 48.1348 146.873 48.1447L146.276 49.0074C146.19 49.1319 146.049 49.2067 145.898 49.2067H145.897C145.747 49.2067 145.605 49.1326 145.519 49.0082L144.658 47.776C144.651 47.7645 144.64 47.7607 144.628 47.7599C144.616 47.7607 144.606 47.7668 144.599 47.7783L143.814 49.1334C143.755 49.2349 143.625 49.27 143.522 49.2113C143.42 49.1525 143.386 49.0219 143.444 48.9196L144.229 47.5645C144.309 47.4271 144.451 47.3408 144.609 47.3339C144.765 47.3263 144.916 47.4011 145.006 47.5324L145.867 48.7646C145.874 48.7753 145.884 48.7807 145.896 48.7807C145.907 48.7807 145.917 48.7753 145.924 48.7654L146.521 47.9027C146.608 47.7767 146.752 47.7019 146.904 47.7034C147.056 47.705 147.199 47.7821 147.284 47.9103L147.963 48.9288C147.971 48.9402 147.982 48.9502 147.994 48.9456C148.012 48.9448 148.02 48.9318 148.023 48.928L148.518 48.0997C148.6 47.9622 148.744 47.8775 148.903 47.8737C149.06 47.8699 149.211 47.9485 149.299 48.0821L150.048 49.2189C150.113 49.3174 150.086 49.4495 149.987 49.5143C149.952 49.5388 149.912 49.5495 149.871 49.5495Z" fill="url(#paint71_linear_2:154)"/>
<defs>
<linearGradient id="paint0_linear_2:154" x1="125.709" y1="181.387" x2="118.88" y2="181.584" gradientUnits="userSpaceOnUse">
<stop stop-color="#444B8C"/>
<stop offset="0.9964" stop-color="#26264F"/>
</linearGradient>
<linearGradient id="paint1_linear_2:154" x1="120.03" y1="180.965" x2="121.253" y2="177.396" gradientUnits="userSpaceOnUse">
<stop stop-color="#FCDAC2"/>
<stop offset="0.9964" stop-color="#FFAD61"/>
</linearGradient>
<linearGradient id="paint2_linear_2:154" x1="147.88" y1="179.506" x2="140.882" y2="181.43" gradientUnits="userSpaceOnUse">
<stop stop-color="#444B8C"/>
<stop offset="0.9964" stop-color="#26264F"/>
</linearGradient>
<linearGradient id="paint3_linear_2:154" x1="141.567" y1="180.096" x2="142.53" y2="176.504" gradientUnits="userSpaceOnUse">
<stop stop-color="#FCDAC2"/>
<stop offset="0.9964" stop-color="#FFAD61"/>
</linearGradient>
<linearGradient id="paint4_linear_2:154" x1="118.925" y1="145.673" x2="143.102" y2="145.673" gradientUnits="userSpaceOnUse">
<stop stop-color="#3BA4D5"/>
<stop offset="0.9964" stop-color="#08536C"/>
</linearGradient>
<linearGradient id="paint5_linear_2:154" x1="107.293" y1="145.517" x2="124.368" y2="145.517" gradientUnits="userSpaceOnUse">
<stop stop-color="#3BA4D5"/>
<stop offset="0.9964" stop-color="#08536C"/>
</linearGradient>
<linearGradient id="paint6_linear_2:154" x1="121.549" y1="111.67" x2="122.345" y2="106.351" gradientUnits="userSpaceOnUse">
<stop stop-color="#FCDAC2"/>
<stop offset="0.9964" stop-color="#FFAD61"/>
</linearGradient>
<linearGradient id="paint7_linear_2:154" x1="154.282" y1="114.69" x2="154.986" y2="110.594" gradientUnits="userSpaceOnUse">
<stop stop-color="#FCDAC2"/>
<stop offset="0.9964" stop-color="#FFAD61"/>
</linearGradient>
<linearGradient id="paint8_linear_2:154" x1="119.556" y1="82.6021" x2="122.08" y2="70.0432" gradientUnits="userSpaceOnUse">
<stop stop-color="#FCDAC2"/>
<stop offset="0.9964" stop-color="#FFAD61"/>
</linearGradient>
<linearGradient id="paint9_linear_2:154" x1="121.565" y1="76.9601" x2="123.014" y2="70.3662" gradientUnits="userSpaceOnUse">
<stop stop-color="#FCDAC2"/>
<stop offset="0.9964" stop-color="#FFAD61"/>
</linearGradient>
<linearGradient id="paint10_linear_2:154" x1="123.605" y1="75.3537" x2="123.657" y2="74.7585" gradientUnits="userSpaceOnUse">
<stop stop-color="#FCDAC2"/>
<stop offset="0.9964" stop-color="#FFAD61"/>
</linearGradient>
<linearGradient id="paint11_linear_2:154" x1="70.6048" y1="156.519" x2="44.0607" y2="165.441" gradientUnits="userSpaceOnUse">
<stop stop-color="#AB316D"/>
<stop offset="1" stop-color="#792D3D"/>
</linearGradient>
<linearGradient id="paint12_linear_2:154" x1="73.3042" y1="144.546" x2="52.4761" y2="144.546" gradientUnits="userSpaceOnUse">
<stop stop-color="#FFC444"/>
<stop offset="0.9964" stop-color="#F36F56"/>
</linearGradient>
<linearGradient id="paint13_linear_2:154" x1="29.2256" y1="101.993" x2="91.6993" y2="100.256" gradientUnits="userSpaceOnUse">
<stop stop-color="#3DB9B9"/>
<stop offset="1" stop-color="#1A83B3"/>
</linearGradient>
<linearGradient id="paint14_linear_2:154" x1="177.513" y1="177.018" x2="178.822" y2="193.683" gradientUnits="userSpaceOnUse">
<stop offset="0.003597" stop-color="#26264F"/>
<stop offset="1" stop-color="#444B8C"/>
</linearGradient>
<linearGradient id="paint15_linear_2:154" x1="181.048" y1="185.767" x2="182.037" y2="182.569" gradientUnits="userSpaceOnUse">
<stop stop-color="#FCDAC2"/>
<stop offset="0.9964" stop-color="#FFAD61"/>
</linearGradient>
<linearGradient id="paint16_linear_2:154" x1="161.133" y1="175.903" x2="162.443" y2="192.569" gradientUnits="userSpaceOnUse">
<stop offset="0.003597" stop-color="#26264F"/>
<stop offset="1" stop-color="#444B8C"/>
</linearGradient>
<linearGradient id="paint17_linear_2:154" x1="164.668" y1="184.652" x2="165.656" y2="181.455" gradientUnits="userSpaceOnUse">
<stop stop-color="#FCDAC2"/>
<stop offset="0.9964" stop-color="#FFAD61"/>
</linearGradient>
<linearGradient id="paint18_linear_2:154" x1="177.622" y1="164.494" x2="221.513" y2="164.494" gradientUnits="userSpaceOnUse">
<stop stop-color="#17759F"/>
<stop offset="0.9964" stop-color="#033C50"/>
</linearGradient>
<linearGradient id="paint19_linear_2:154" x1="162.672" y1="166.125" x2="216.335" y2="166.125" gradientUnits="userSpaceOnUse">
<stop stop-color="#3BA4D5"/>
<stop offset="0.9964" stop-color="#08536C"/>
</linearGradient>
<linearGradient id="paint20_linear_2:154" x1="162.451" y1="135.061" x2="162.599" y2="132.549" gradientUnits="userSpaceOnUse">
<stop stop-color="#FCDAC2"/>
<stop offset="0.9964" stop-color="#FFAD61"/>
</linearGradient>
<linearGradient id="paint21_linear_2:154" x1="199.098" y1="112.56" x2="202.125" y2="99.4326" gradientUnits="userSpaceOnUse">
<stop stop-color="#FCDAC2"/>
<stop offset="0.9964" stop-color="#FFAD61"/>
</linearGradient>
<linearGradient id="paint22_linear_2:154" x1="198.059" y1="105.586" x2="198.554" y2="104.008" gradientUnits="userSpaceOnUse">
<stop stop-color="#FCDAC2"/>
<stop offset="0.9964" stop-color="#FFAD61"/>
</linearGradient>
<linearGradient id="paint23_linear_2:154" x1="186.329" y1="196.782" x2="230.459" y2="191.573" gradientUnits="userSpaceOnUse">
<stop stop-color="#1E8F8F"/>
<stop offset="1" stop-color="#0B6C99"/>
</linearGradient>
<linearGradient id="paint24_linear_2:154" x1="186.33" y1="194.32" x2="230.615" y2="189.81" gradientUnits="userSpaceOnUse">
<stop stop-color="#3DB9B9"/>
<stop offset="1" stop-color="#1A83B3"/>
</linearGradient>
<linearGradient id="paint25_linear_2:154" x1="192.129" y1="192.539" x2="229.293" y2="188.527" gradientUnits="userSpaceOnUse">
<stop stop-color="#3DB9B9"/>
<stop offset="1" stop-color="#1A83B3"/>
</linearGradient>
<linearGradient id="paint26_linear_2:154" x1="202.457" y1="178.444" x2="207.432" y2="178.4" gradientUnits="userSpaceOnUse">
<stop stop-color="#79E6E6"/>
<stop offset="1" stop-color="#43A9D8"/>
</linearGradient>
<linearGradient id="paint27_linear_2:154" x1="224.509" y1="174.154" x2="217.11" y2="164.513" gradientUnits="userSpaceOnUse">
<stop stop-color="#311944"/>
<stop offset="1" stop-color="#893976"/>
</linearGradient>
<linearGradient id="paint28_linear_2:154" x1="187.73" y1="62.0633" x2="187.73" y2="108.051" gradientUnits="userSpaceOnUse">
<stop stop-color="white"/>
<stop offset="1" stop-color="white" stop-opacity="0"/>
</linearGradient>
<linearGradient id="paint29_linear_2:154" x1="188.043" y1="36.5927" x2="189.004" y2="36.9772" gradientUnits="userSpaceOnUse">
<stop stop-color="#50AFD1"/>
<stop offset="0.9964" stop-color="#3A9EC1"/>
</linearGradient>
<linearGradient id="paint30_linear_2:154" x1="188.043" y1="41.9818" x2="189.154" y2="42.0506" gradientUnits="userSpaceOnUse">
<stop stop-color="#50AFD1"/>
<stop offset="0.9964" stop-color="#3A9EC1"/>
</linearGradient>
<linearGradient id="paint31_linear_2:154" x1="188.043" y1="54.1366" x2="189.004" y2="54.5212" gradientUnits="userSpaceOnUse">
<stop stop-color="#50AFD1"/>
<stop offset="0.9964" stop-color="#3A9EC1"/>
</linearGradient>
<linearGradient id="paint32_linear_2:154" x1="188.043" y1="29.972" x2="189.004" y2="30.3566" gradientUnits="userSpaceOnUse">
<stop stop-color="#50AFD1"/>
<stop offset="0.9964" stop-color="#3A9EC1"/>
</linearGradient>
<linearGradient id="paint33_linear_2:154" x1="188.043" y1="31.6801" x2="188.406" y2="32.2026" gradientUnits="userSpaceOnUse">
<stop stop-color="#50AFD1"/>
<stop offset="0.9964" stop-color="#3A9EC1"/>
</linearGradient>
<linearGradient id="paint34_linear_2:154" x1="188.043" y1="32.4949" x2="189.004" y2="32.8796" gradientUnits="userSpaceOnUse">
<stop stop-color="#50AFD1"/>
<stop offset="0.9964" stop-color="#3A9EC1"/>
</linearGradient>
<linearGradient id="paint35_linear_2:154" x1="188.043" y1="26.842" x2="188.839" y2="27.346" gradientUnits="userSpaceOnUse">
<stop stop-color="#50AFD1"/>
<stop offset="0.9964" stop-color="#3A9EC1"/>
</linearGradient>
<linearGradient id="paint36_linear_2:154" x1="186.631" y1="58.0227" x2="187.649" y2="67.2695" gradientUnits="userSpaceOnUse">
<stop stop-color="#50AFD1"/>
<stop offset="0.9964" stop-color="#3A9EC1"/>
</linearGradient>
<linearGradient id="paint37_linear_2:154" x1="186.646" y1="62.9416" x2="186.942" y2="67.9588" gradientUnits="userSpaceOnUse">
<stop stop-color="#50AFD1"/>
<stop offset="0.9964" stop-color="#3A9EC1"/>
</linearGradient>
<linearGradient id="paint38_linear_2:154" x1="187.499" y1="55.0151" x2="187.795" y2="58.1568" gradientUnits="userSpaceOnUse">
<stop stop-color="#50AFD1"/>
<stop offset="0.9964" stop-color="#3A9EC1"/>
</linearGradient>
<linearGradient id="paint39_linear_2:154" x1="76.8057" y1="67.3195" x2="76.8057" y2="113.307" gradientUnits="userSpaceOnUse">
<stop stop-color="white"/>
<stop offset="1" stop-color="white" stop-opacity="0"/>
</linearGradient>
<linearGradient id="paint40_linear_2:154" x1="77.1186" y1="35.8349" x2="78.08" y2="36.2194" gradientUnits="userSpaceOnUse">
<stop stop-color="#50AFD1"/>
<stop offset="0.9964" stop-color="#3A9EC1"/>
</linearGradient>
<linearGradient id="paint41_linear_2:154" x1="77.1179" y1="42.6972" x2="78.2309" y2="42.747" gradientUnits="userSpaceOnUse">
<stop stop-color="#50AFD1"/>
<stop offset="0.9964" stop-color="#3A9EC1"/>
</linearGradient>
<linearGradient id="paint42_linear_2:154" x1="77.1179" y1="59.3916" x2="78.0794" y2="59.7761" gradientUnits="userSpaceOnUse">
<stop stop-color="#50AFD1"/>
<stop offset="0.9964" stop-color="#3A9EC1"/>
</linearGradient>
<linearGradient id="paint43_linear_2:154" x1="77.1188" y1="31.1387" x2="78.1622" y2="31.4125" gradientUnits="userSpaceOnUse">
<stop stop-color="#50AFD1"/>
<stop offset="0.9964" stop-color="#3A9EC1"/>
</linearGradient>
<linearGradient id="paint44_linear_2:154" x1="77.1188" y1="27.8225" x2="77.9642" y2="28.3002" gradientUnits="userSpaceOnUse">
<stop stop-color="#50AFD1"/>
<stop offset="0.9964" stop-color="#3A9EC1"/>
</linearGradient>
<linearGradient id="paint45_linear_2:154" x1="75.7073" y1="63.2781" x2="76.7247" y2="72.5249" gradientUnits="userSpaceOnUse">
<stop stop-color="#50AFD1"/>
<stop offset="0.9964" stop-color="#3A9EC1"/>
</linearGradient>
<linearGradient id="paint46_linear_2:154" x1="75.7209" y1="68.197" x2="76.0175" y2="73.2143" gradientUnits="userSpaceOnUse">
<stop stop-color="#50AFD1"/>
<stop offset="0.9964" stop-color="#3A9EC1"/>
</linearGradient>
<linearGradient id="paint47_linear_2:154" x1="76.5743" y1="60.2714" x2="76.8704" y2="63.413" gradientUnits="userSpaceOnUse">
<stop stop-color="#50AFD1"/>
<stop offset="0.9964" stop-color="#3A9EC1"/>
</linearGradient>
<linearGradient id="paint48_linear_2:154" x1="25.9921" y1="183.825" x2="157.046" y2="177.201" gradientUnits="userSpaceOnUse">
<stop stop-color="#F9867A"/>
<stop offset="1" stop-color="#E40678"/>
</linearGradient>
<linearGradient id="paint49_linear_2:154" x1="46.5155" y1="176.115" x2="146.332" y2="171.587" gradientUnits="userSpaceOnUse">
<stop stop-color="#F9867A"/>
<stop offset="1" stop-color="#E40678"/>
</linearGradient>
<linearGradient id="paint50_linear_2:154" x1="25.9937" y1="191.453" x2="156.919" y2="183.666" gradientUnits="userSpaceOnUse">
<stop stop-color="#F9867A"/>
<stop offset="1" stop-color="#E40678"/>
</linearGradient>
<linearGradient id="paint51_linear_2:154" x1="153.634" y1="222.395" x2="164.672" y2="209.718" gradientUnits="userSpaceOnUse">
<stop stop-color="#40447E"/>
<stop offset="0.9964" stop-color="#3C3B6B"/>
</linearGradient>
<linearGradient id="paint52_linear_2:154" x1="152.703" y1="219.426" x2="153.949" y2="214.409" gradientUnits="userSpaceOnUse">
<stop stop-color="#FCDAC2"/>
<stop offset="0.9964" stop-color="#FFAD61"/>
</linearGradient>
<linearGradient id="paint53_linear_2:154" x1="80.9149" y1="190.987" x2="81.7982" y2="184.204" gradientUnits="userSpaceOnUse">
<stop stop-color="#FCDAC2"/>
<stop offset="0.9964" stop-color="#FFAD61"/>
</linearGradient>
<linearGradient id="paint54_linear_2:154" x1="65.4025" y1="161.021" x2="68.9296" y2="153.258" gradientUnits="userSpaceOnUse">
<stop stop-color="#FCDAC2"/>
<stop offset="0.9964" stop-color="#FFAD61"/>
</linearGradient>
<linearGradient id="paint55_linear_2:154" x1="62.1579" y1="154.789" x2="63.5485" y2="149.236" gradientUnits="userSpaceOnUse">
<stop stop-color="#075375"/>
<stop offset="0.9964" stop-color="#013E53"/>
</linearGradient>
<linearGradient id="paint56_linear_2:154" x1="65.5617" y1="157.175" x2="67.1774" y2="150.062" gradientUnits="userSpaceOnUse">
<stop stop-color="#FCDAC2"/>
<stop offset="0.9964" stop-color="#FFAD61"/>
</linearGradient>
<linearGradient id="paint57_linear_2:154" x1="86.1303" y1="186.394" x2="113.118" y2="184.742" gradientUnits="userSpaceOnUse">
<stop stop-color="#40447E"/>
<stop offset="0.9964" stop-color="#3C3B6B"/>
</linearGradient>
<linearGradient id="paint58_linear_2:154" x1="128.524" y1="194.304" x2="140.964" y2="189.244" gradientUnits="userSpaceOnUse">
<stop stop-color="#40447E"/>
<stop offset="0.9964" stop-color="#3C3B6B"/>
</linearGradient>
<linearGradient id="paint59_linear_2:154" x1="130.646" y1="193.568" x2="131.337" y2="191.05" gradientUnits="userSpaceOnUse">
<stop stop-color="#FCDAC2"/>
<stop offset="0.9964" stop-color="#FFAD61"/>
</linearGradient>
<linearGradient id="paint60_linear_2:154" x1="146.608" y1="81.0162" x2="146.885" y2="78.7943" gradientUnits="userSpaceOnUse">
<stop offset="0.003597" stop-color="#26264F"/>
<stop offset="1" stop-color="#444B8C"/>
</linearGradient>
<linearGradient id="paint61_linear_2:154" x1="145.465" y1="78.9907" x2="148.242" y2="73.9912" gradientUnits="userSpaceOnUse">
<stop offset="0.003597" stop-color="#26264F"/>
<stop offset="1" stop-color="#444B8C"/>
</linearGradient>
<linearGradient id="paint62_linear_2:154" x1="142.324" y1="76.6215" x2="151.542" y2="76.6215" gradientUnits="userSpaceOnUse">
<stop offset="0.003597" stop-color="#26264F"/>
<stop offset="1" stop-color="#444B8C"/>
</linearGradient>
<linearGradient id="paint63_linear_2:154" x1="145.73" y1="77.6245" x2="148.472" y2="72.3473" gradientUnits="userSpaceOnUse">
<stop offset="0.003597" stop-color="#26264F"/>
<stop offset="1" stop-color="#444B8C"/>
</linearGradient>
<linearGradient id="paint64_linear_2:154" x1="141.911" y1="75.0681" x2="151.951" y2="75.0681" gradientUnits="userSpaceOnUse">
<stop offset="0.003597" stop-color="#26264F"/>
<stop offset="1" stop-color="#444B8C"/>
</linearGradient>
<linearGradient id="paint65_linear_2:154" x1="141.762" y1="73.2541" x2="152.104" y2="73.2541" gradientUnits="userSpaceOnUse">
<stop offset="0.003597" stop-color="#26264F"/>
<stop offset="1" stop-color="#444B8C"/>
</linearGradient>
<linearGradient id="paint66_linear_2:154" x1="146.676" y1="72.4737" x2="147.695" y2="67.7057" gradientUnits="userSpaceOnUse">
<stop offset="0.003597" stop-color="#26264F"/>
<stop offset="1" stop-color="#444B8C"/>
</linearGradient>
<linearGradient id="paint67_linear_2:154" x1="144.72" y1="45.8688" x2="164.925" y2="77.9468" gradientUnits="userSpaceOnUse">
<stop stop-color="#FCB148"/>
<stop offset="0.0521" stop-color="#FDBA46"/>
<stop offset="0.1424" stop-color="#FFC244"/>
<stop offset="0.3183" stop-color="#FFC444"/>
<stop offset="0.4849" stop-color="#FDB946"/>
<stop offset="0.7754" stop-color="#F99C4D"/>
<stop offset="0.8658" stop-color="#F8924F"/>
<stop offset="1" stop-color="#F8924F"/>
</linearGradient>
<linearGradient id="paint68_linear_2:154" x1="146.711" y1="39.6723" x2="126.896" y2="78.3758" gradientUnits="userSpaceOnUse">
<stop stop-color="#FFC444"/>
<stop offset="0.9964" stop-color="#F56D59"/>
</linearGradient>
<linearGradient id="paint69_linear_2:154" x1="141.03" y1="70.5686" x2="145.15" y2="58.5329" gradientUnits="userSpaceOnUse">
<stop offset="0.494" stop-color="#EBEFF2"/>
<stop offset="1" stop-color="white"/>
</linearGradient>
<linearGradient id="paint70_linear_2:154" x1="144.969" y1="71.9165" x2="149.089" y2="59.8808" gradientUnits="userSpaceOnUse">
<stop offset="0.494" stop-color="#EBEFF2"/>
<stop offset="1" stop-color="white"/>
</linearGradient>
<linearGradient id="paint71_linear_2:154" x1="139.597" y1="70.0776" x2="143.717" y2="58.0419" gradientUnits="userSpaceOnUse">
<stop offset="0.494" stop-color="#EBEFF2"/>
<stop offset="1" stop-color="white"/>
</linearGradient>
</defs>
</svg>
