<svg width="265" height="265" viewBox="0 0 265 265" fill="none" xmlns="http://www.w3.org/2000/svg">
<path d="M81.466 44.269C74.6341 53.8333 82.3616 69.5371 72.2981 76.6784C62.5021 83.63 50.6809 71.9422 41.4553 77.9177C27.7688 86.7825 29.8174 128.025 49.4195 153.842C55.3144 161.607 60.2759 164.655 62.3958 173.389C66.948 192.141 50.1411 203.091 53.2202 212.374C60.1525 233.277 169.948 251.911 214.735 189.782C235.653 160.765 239.18 118.584 221.104 86.329C188.438 28.0447 96.7954 22.8079 81.466 44.269Z" fill="#F4F7FA"/>
<path opacity="0.7" d="M145.806 189.627C146.968 195.671 143.228 200.498 140.026 203.575C139.477 203.443 139.122 203.515 138.535 203.513C133.242 203.485 131.054 202.286 125.888 201.391C124.776 201.199 121.734 199.578 120.535 198.829L118.324 197.395C118.324 197.395 117.312 183.145 124.959 181.179C132.606 179.214 133.287 165.452 134.5 158.157C137.794 138.361 158.335 145.342 164.601 120.243C166.267 113.567 167.213 100.278 174.165 96.36C182.086 91.8955 185.29 99.0033 190.674 94.9617C199.089 88.6446 210.255 88.4043 214.463 98.1048C218.617 107.678 207.158 121.832 185.371 130.08C170.411 137.768 169.419 140.936 168.439 149.009C167.753 154.664 169.432 170.256 160.567 174.112C151.702 177.966 144.477 182.718 145.806 189.627Z" fill="url(#paint0_linear_2:429)"/>
<g opacity="0.5">
<path opacity="0.5" d="M128.478 202.253L128.12 202.114C128.944 199.975 129.801 197.828 130.668 195.732C137.089 180.218 144.726 165.863 153.367 153.069C160.689 142.227 168.833 132.351 177.571 123.715C184.599 116.769 192.049 110.584 199.713 105.332C205.101 101.64 210.538 98.4423 215.873 95.8296C216.803 95.3739 217.779 94.9604 218.724 94.5603C219.982 94.027 221.283 93.4758 222.484 92.8212L222.668 93.1592C221.451 93.8223 220.141 94.3778 218.875 94.9147C217.935 95.3126 216.964 95.7248 216.043 96.1754C210.724 98.7802 205.303 101.968 199.931 105.65C192.286 110.889 184.855 117.06 177.842 123.989C169.122 132.608 160.994 142.464 153.687 153.285C145.06 166.058 137.435 180.389 131.024 195.88C130.158 197.972 129.301 200.116 128.478 202.253Z" fill="#FCFDFE"/>
<path opacity="0.5" d="M167.645 134.934L167.346 134.692C177.76 121.876 178.447 93.5857 178.453 93.3019L178.838 93.3098C178.832 93.595 178.142 122.016 167.645 134.934Z" fill="#FCFDFE"/>
<path opacity="0.5" d="M141.654 173.338L141.33 173.132C147.388 163.594 168.856 160.407 169.072 160.376L169.127 160.756C168.912 160.787 147.618 163.949 141.654 173.338Z" fill="#FCFDFE"/>
<path opacity="0.5" d="M138.684 179.047L138.328 178.902C141.12 172.075 141.279 161.273 138.776 148.486C138.651 147.843 138.651 147.843 138.677 147.775L139.035 147.916L138.856 147.846L139.048 147.844C139.052 147.888 139.099 148.131 139.154 148.412C141.671 161.271 141.504 172.151 138.684 179.047Z" fill="#FCFDFE"/>
<path opacity="0.5" d="M130.039 198.37L129.739 198.129C134.837 191.804 146.886 191.803 147.007 191.804L147.005 192.189C146.886 192.188 135.019 192.19 130.039 198.37Z" fill="#FCFDFE"/>
<path opacity="0.5" d="M127.907 202.142C128.042 195.592 126.3 188.79 122.582 181.346L122.927 181.174C126.673 188.676 128.427 195.537 128.292 202.15L127.907 202.142Z" fill="#FCFDFE"/>
<path opacity="0.5" d="M195.469 108.817L195.185 108.558C201.372 101.755 206.296 93.1744 207.913 90.3549C208.304 89.6725 208.443 89.4322 208.506 89.3573L208.801 89.6041C208.754 89.6618 208.53 90.0526 208.246 90.546C206.624 93.3754 201.685 101.984 195.469 108.817Z" fill="#FCFDFE"/>
<path opacity="0.5" d="M183.771 118.39L183.576 118.058C191 113.671 207.687 118.019 208.394 118.207L208.296 118.579C208.124 118.533 191.056 114.084 183.771 118.39Z" fill="#FCFDFE"/>
</g>
<path d="M126.703 209.178L141.906 218.445C141.906 218.445 149.521 212.391 149.15 204.616C148.394 188.753 162.34 189.198 168.209 188.511C177.06 187.474 183.394 183.024 178.584 174.702C173.142 165.284 187.544 157.828 202.08 158.213C216.304 158.591 225.182 133.524 194.471 129.881C176.13 127.704 169.109 144.277 163.574 151.802C158.039 159.327 145.819 152.78 143.946 164.953C142.347 175.352 145.226 185.4 136.74 188.047C128.255 190.694 123.841 196.771 126.703 209.178Z" fill="url(#paint1_linear_2:429)"/>
<g opacity="0.5">
<path opacity="0.5" d="M132.426 214.6L132.777 214.735C132.86 214.517 141.283 192.785 156.13 173.758C169.807 156.229 191.894 137.477 219.442 147.686L219.573 147.334C207.31 142.789 195.091 143.506 183.257 149.465C173.803 154.225 164.574 162.323 155.829 173.533C140.949 192.604 132.509 214.383 132.426 214.6Z" fill="#BEB8F2"/>
<path opacity="0.5" d="M178.418 152.168L178.761 152.323C183.902 140.918 197.12 128.322 197.252 128.196L196.994 127.923C196.861 128.05 183.59 140.697 178.418 152.168Z" fill="#BEB8F2"/>
<path opacity="0.5" d="M186.412 148.414C201.319 148.269 209.444 157.652 209.524 157.747L209.811 157.504C209.73 157.407 201.498 147.892 186.408 148.038L186.412 148.414Z" fill="#BEB8F2"/>
<path opacity="0.5" d="M147.102 186.726C159.914 173.782 182.757 182.616 182.972 182.721L183.158 182.394C182.956 182.271 159.761 173.402 146.835 186.461L147.102 186.726Z" fill="#BEB8F2"/>
<path opacity="0.5" d="M150.91 180.253L151.264 180.38C155.166 169.433 148.702 156.323 148.637 156.192L148.301 156.36C148.365 156.491 154.758 169.459 150.91 180.253Z" fill="#BEB8F2"/>
<path opacity="0.5" d="M134.176 211.344C138.229 205.737 149.48 206.199 149.593 206.204L149.611 205.829C149.141 205.807 138.043 205.352 133.871 211.125L134.176 211.344Z" fill="#BEB8F2"/>
<path opacity="0.5" d="M136.104 206.171L136.454 206.31C138.474 201.226 134.641 191.855 133.382 188.775C133.203 188.34 133.05 187.964 133.036 187.891L132.666 187.959C132.684 188.06 132.786 188.311 133.034 188.917C134.279 191.962 138.069 201.228 136.104 206.171Z" fill="#BEB8F2"/>
</g>
<path d="M153.552 223.251C153.479 223.266 153.406 223.28 153.333 223.294C148.988 224.12 144.094 224.255 138.628 223.26C137.576 222.991 136.525 222.722 135.472 222.453C135.138 219.741 135.307 217.103 138.748 216.835C144.092 216.42 146.125 207.618 145.425 204.198C144.559 199.963 142.743 190.063 150.995 189.292C157.865 188.649 162.429 189.639 164.672 181.458C166.914 173.277 172.551 169.09 179.952 171.208C187.74 173.436 196.495 164.321 202.206 169.24C212.158 177.81 197.991 193.842 183.131 196.159C168.271 198.475 175.069 205.12 173.972 211.975C172.476 221.333 160.4 216.651 156.311 219.57C154.926 220.557 154.072 221.872 153.552 223.251Z" fill="url(#paint2_linear_2:429)"/>
<g opacity="0.5">
<path opacity="0.5" d="M145.328 223.906L144.979 223.752C156.24 198.22 179.837 178.277 206.562 171.708L206.653 172.079C180.04 178.62 156.542 198.48 145.328 223.906Z" fill="#FCFDFE"/>
<path opacity="0.5" d="M152.659 210.512L152.286 210.43C154.643 199.72 147.311 189.353 147.237 189.25L147.547 189.027C147.622 189.131 155.053 199.633 152.659 210.512Z" fill="#FCFDFE"/>
<path opacity="0.5" d="M147.527 219.265L147.238 219.016C154.497 210.594 174.524 213.583 174.725 213.615L174.667 213.992C174.468 213.961 154.648 211.003 147.527 219.265Z" fill="#FCFDFE"/>
<path opacity="0.5" d="M171.005 190.224L170.695 190.001C175.862 182.853 173.381 169.558 173.355 169.424L173.73 169.352C173.755 169.487 176.267 182.945 171.005 190.224Z" fill="#FCFDFE"/>
<path opacity="0.5" d="M185.661 180.263L185.536 179.903C195.029 176.603 207.356 182.293 207.479 182.35L207.317 182.696C207.196 182.639 195.007 177.015 185.661 180.263Z" fill="#FCFDFE"/>
</g>
<path opacity="0.75" d="M182.991 103.002C182.991 69.8043 154.727 42.8926 119.863 42.8926C84.998 42.8926 56.7344 69.8043 56.7344 103.002C56.7344 123.148 67.1444 140.979 83.122 151.886C89.9004 156.513 94.0112 164.139 94.0112 172.346V176.945C94.0112 186.94 102.114 195.042 112.108 195.042H127.617C137.611 195.042 145.714 186.94 145.714 176.945V172.346C145.714 164.139 149.825 156.513 156.603 151.886C172.581 140.979 182.991 123.148 182.991 103.002Z" fill="#F4F7FA"/>
<path d="M119.864 229.257C127.599 229.257 133.868 225.938 133.868 221.844C133.868 217.749 127.599 214.43 119.864 214.43C112.13 214.43 105.861 217.749 105.861 221.844C105.861 225.938 112.13 229.257 119.864 229.257Z" fill="url(#paint3_linear_2:429)"/>
<path d="M101.259 208.599V216.17C101.259 218.731 102.717 221.079 105.029 222.181C108.239 223.712 113.576 225.392 121.332 225.193C127.624 225.032 131.727 224.005 134.336 222.925C136.855 221.882 138.471 219.39 138.471 216.663V212.474L101.259 208.599Z" fill="url(#paint4_linear_2:429)"/>
<path opacity="0.3" d="M101.259 215.23C101.826 215.781 102.483 216.249 103.221 216.6C106.822 218.317 130.409 222.155 136.099 220.017C136.838 219.739 137.502 219.368 138.085 218.92C138.334 218.205 138.471 217.444 138.471 216.662V212.472L101.259 208.598V215.23Z" fill="url(#paint5_linear_2:429)"/>
<path d="M102.911 203.448C100.815 203.229 98.991 204.873 98.991 206.98V207.195C98.991 210.068 100.626 212.702 103.22 213.938C106.821 215.655 130.408 219.493 136.098 217.355C138.962 216.279 140.737 213.819 140.737 210.759V210.587C140.737 208.768 139.362 207.243 137.553 207.054L102.911 203.448Z" fill="url(#paint6_linear_2:429)"/>
<path opacity="0.3" d="M137.551 207.055L102.908 203.448C101.541 203.305 100.294 203.958 99.589 205.011C100.285 206.651 101.552 208.023 103.218 208.817C106.819 210.534 131.41 214.872 136.096 212.664C137.92 211.805 139.349 210.354 140.116 208.59C139.545 207.753 138.626 207.167 137.551 207.055Z" fill="url(#paint7_linear_2:429)"/>
<path d="M101.555 191.182C100.139 191.182 98.991 192.33 98.991 193.746V199.676C98.991 202.55 100.626 205.183 103.22 206.419C106.821 208.136 131.412 212.474 136.098 210.266C138.866 208.962 140.737 206.301 140.737 203.241V193.746C140.737 192.33 139.589 191.182 138.173 191.182H101.555Z" fill="url(#paint8_linear_2:429)"/>
<path d="M119.864 197.84C131.107 197.84 140.22 195.685 140.22 193.027C140.22 190.369 131.107 188.214 119.864 188.214C108.621 188.214 99.5074 190.369 99.5074 193.027C99.5074 195.685 108.621 197.84 119.864 197.84Z" fill="url(#paint9_linear_2:429)"/>
<path d="M182.991 103.002C182.991 69.8043 154.727 42.8926 119.863 42.8926C84.998 42.8926 56.7344 69.8043 56.7344 103.002C56.7344 123.148 67.1444 140.979 83.122 151.886C89.9004 156.513 94.0112 164.139 94.0112 172.346V176.945C94.0112 186.94 102.114 195.042 112.108 195.042H127.617C137.611 195.042 145.714 186.94 145.714 176.945V172.346C145.714 164.139 149.825 156.513 156.603 151.886C172.581 140.979 182.991 123.148 182.991 103.002Z" fill="url(#paint10_linear_2:429)"/>
<path opacity="0.5" d="M119.863 192.754C128.089 192.754 134.759 191.177 134.759 189.232C134.759 187.287 128.089 185.711 119.863 185.711C111.636 185.711 104.967 187.287 104.967 189.232C104.967 191.177 111.636 192.754 119.863 192.754Z" fill="#F4F7FA"/>
<path d="M115.982 191.384C115.555 191.384 115.184 191.067 115.129 190.633L104.171 105.414C104.11 104.943 104.443 104.512 104.915 104.451C105.388 104.387 105.818 104.723 105.878 105.195L116.837 190.413C116.897 190.885 116.564 191.316 116.092 191.377C116.055 191.382 116.018 191.384 115.982 191.384Z" fill="url(#paint11_linear_2:429)"/>
<path d="M122.788 191.384C122.752 191.384 122.715 191.382 122.678 191.377C122.206 191.316 121.873 190.885 121.933 190.413L132.892 105.194C132.952 104.723 133.383 104.387 133.855 104.451C134.326 104.511 134.659 104.943 134.6 105.414L123.641 190.633C123.585 191.067 123.215 191.384 122.788 191.384Z" fill="url(#paint12_linear_2:429)"/>
<path d="M131.712 105.345C131.433 105.345 131.158 105.209 130.993 104.958L127.969 100.37C127.937 100.323 127.889 100.296 127.846 100.301C127.771 100.303 127.739 100.356 127.729 100.373L125.732 103.717C125.402 104.271 124.821 104.612 124.181 104.628C123.544 104.649 122.942 104.333 122.583 103.794L119.841 99.6836C119.811 99.6394 119.771 99.6158 119.723 99.6158C119.664 99.6265 119.637 99.6365 119.608 99.6786L117.199 103.16C116.851 103.663 116.281 103.964 115.673 103.965H115.67C115.062 103.965 114.491 103.665 114.141 103.163L110.668 98.189C110.637 98.1441 110.593 98.1284 110.546 98.1241C110.496 98.1262 110.457 98.1512 110.43 98.1983L107.261 103.67C107.022 104.08 106.495 104.221 106.084 103.983C105.673 103.744 105.532 103.218 105.771 102.806L108.941 97.3347C109.263 96.7785 109.836 96.4306 110.474 96.4035C111.106 96.3714 111.712 96.6759 112.08 97.2035L115.552 102.178C115.582 102.221 115.622 102.243 115.669 102.243C115.715 102.242 115.754 102.221 115.783 102.18L118.192 98.6988C118.544 98.1897 119.124 97.8866 119.737 97.8938C120.354 97.8995 120.928 98.2111 121.273 98.7288L124.015 102.839C124.045 102.885 124.092 102.924 124.137 102.907C124.212 102.905 124.244 102.852 124.254 102.835L126.25 99.4903C126.582 98.9341 127.164 98.594 127.807 98.5797C128.443 98.5655 129.049 98.8807 129.405 99.4226L132.43 104.01C132.691 104.407 132.581 104.941 132.184 105.203C132.039 105.3 131.875 105.345 131.712 105.345Z" fill="url(#paint13_linear_2:429)"/>
<path opacity="0.3" d="M121.009 150.414C122.361 127.246 161.418 121.824 161.251 101.134C161.148 88.3906 145.628 78.9268 142.314 77.0315C117.893 63.064 87.8349 79.1935 81.6277 67.7781C80.0818 64.9358 80.8069 61.8418 81.2198 60.0798C81.8437 57.4173 83.2556 54.9365 85.3506 52.6683C68.1209 63.4013 56.7354 81.9345 56.7354 103.002C56.7354 123.149 67.1454 140.98 83.123 151.886C89.9013 156.513 94.0122 164.139 94.0122 172.346V176.946C94.0122 186.94 102.115 195.043 112.109 195.043H127.618C137.612 195.043 145.715 186.941 145.715 176.946V173.268C143.58 174.904 141.128 176.045 138.44 176.022C129.112 175.946 120.336 161.943 121.009 150.414Z" fill="url(#paint14_linear_2:429)"/>
<path opacity="0.44" d="M120.874 157.734C150.876 157.734 175.197 134.279 175.197 105.346C175.197 76.4121 150.876 52.9568 120.874 52.9568C90.8717 52.9568 66.5504 76.4121 66.5504 105.346C66.5504 134.279 90.8717 157.734 120.874 157.734Z" fill="#F4F7FA"/>
<path d="M182.991 103.003C182.991 69.8057 154.727 42.8941 119.863 42.8941C84.9984 42.8941 56.7348 69.8057 56.7348 103.003C56.7348 123.15 67.1448 140.981 83.1224 151.887C89.9007 156.514 94.0116 164.14 94.0116 172.347V176.947C94.0116 186.941 102.114 195.044 112.108 195.044H127.618C137.612 195.044 145.714 186.942 145.714 176.947V172.347C145.714 164.14 149.825 156.514 156.604 151.887C172.581 140.981 182.991 123.149 182.991 103.003Z" fill="url(#paint15_linear_2:429)"/>
<path opacity="0.3" d="M92.3244 48.9002C98.3377 48.8203 106.606 49.7459 112.498 55.3427C119.864 62.3378 116.486 69.9533 121.534 80.1908C130.028 97.4148 147.146 91.1898 158.91 108.941C169.608 125.085 165.634 145.606 161.168 148.78C160.768 149.065 156.064 152.266 156.064 152.266L86.4181 122.289L92.3244 48.9002Z" fill="url(#paint16_linear_2:429)"/>
<path d="M92.5673 48.6908C98.5262 48.6111 106.719 49.5354 112.559 55.1246C119.857 62.1101 116.51 69.7152 121.513 79.9387C129.93 97.1392 146.893 90.9226 158.55 108.649C168.111 123.19 165.847 141.286 162.063 147.021C174.569 136.045 182.413 120.261 182.413 102.718C182.413 69.5664 154.405 42.6915 119.856 42.6915C119.856 42.6915 108.539 41.8064 92.5673 48.6908Z" fill="url(#paint17_linear_2:429)"/>
<path d="M119.864 160.874C103.647 160.874 88.4013 154.858 76.9331 143.936C65.4621 133.009 59.1451 118.481 59.1451 103.027C59.1451 87.5736 65.4628 73.045 76.9331 62.1187C88.4006 51.1953 103.647 45.1799 119.864 45.1799C136.08 45.1799 151.326 51.196 162.794 62.1187C174.265 73.045 180.582 87.5736 180.582 103.027C180.582 118.481 174.265 133.009 162.794 143.936C151.326 154.859 136.08 160.874 119.864 160.874ZM119.864 45.6691C103.773 45.6691 88.6473 51.6367 77.2711 62.4731C65.8978 73.306 59.6349 87.7084 59.6349 103.027C59.6349 118.346 65.8985 132.748 77.2711 143.581C88.6473 154.418 103.773 160.385 119.864 160.385C135.953 160.385 151.08 154.418 162.456 143.581C173.83 132.748 180.093 118.346 180.093 103.027C180.093 87.7084 173.829 73.306 162.456 62.4731C151.08 51.6367 135.954 45.6691 119.864 45.6691Z" fill="white"/>
<path d="M119.862 160.872C107.961 160.872 96.7773 154.847 88.3696 143.905C79.9769 132.983 75.3548 118.464 75.3548 103.024C75.3548 87.5841 79.9769 73.0655 88.3696 62.1435C96.7773 51.2023 107.962 45.1762 119.862 45.1762C131.762 45.1762 142.947 51.2015 151.354 62.1435C159.747 73.0655 164.369 87.5841 164.369 103.024C164.369 118.464 159.747 132.983 151.354 143.905C142.947 154.847 131.763 160.872 119.862 160.872ZM119.862 45.6668C95.5908 45.6668 75.8447 71.3976 75.8447 103.025C75.8447 134.652 95.5908 160.383 119.862 160.383C144.133 160.383 163.879 134.652 163.879 103.025C163.879 71.3976 144.134 45.6668 119.862 45.6668Z" fill="white"/>
<path d="M119.862 160.872C113.841 160.872 108.203 154.825 103.984 143.843C99.7934 132.936 97.4859 118.44 97.4859 103.024C97.4859 87.6084 99.7941 73.1118 103.984 62.2048C108.203 51.2236 113.842 45.1762 119.862 45.1762C125.882 45.1762 131.52 51.2236 135.74 62.2048C139.93 73.1118 142.238 87.6084 142.238 103.024C142.238 118.44 139.93 132.936 135.74 143.843C131.52 154.825 125.882 160.872 119.862 160.872ZM119.862 45.6668C107.794 45.6668 97.9751 71.3976 97.9751 103.025C97.9751 134.652 107.793 160.383 119.862 160.383C131.93 160.383 141.748 134.652 141.748 103.025C141.748 71.3976 131.93 45.6668 119.862 45.6668Z" fill="white"/>
<path d="M120.108 45.4216H119.618V160.628H120.108V45.4216Z" fill="white"/>
<path d="M119.861 109.744C103.701 109.744 88.5078 109.212 77.0789 108.245C71.5155 107.775 67.1466 107.226 64.0919 106.616C59.6559 105.729 59.1425 104.918 59.1425 104.385C59.1425 103.851 59.6559 103.041 64.0919 102.154C67.1466 101.543 71.5163 100.994 77.0789 100.524C88.5071 99.5574 103.701 99.0255 119.861 99.0255C136.021 99.0255 151.215 99.5581 162.644 100.524C168.206 100.995 172.576 101.543 175.631 102.154C180.066 103.041 180.58 103.852 180.58 104.385C180.58 104.918 180.066 105.729 175.631 106.616C172.576 107.227 168.206 107.775 162.644 108.245C151.215 109.212 136.021 109.744 119.861 109.744ZM119.861 99.5146C103.715 99.5146 88.5356 100.047 77.1202 101.012C60.4752 102.42 59.6324 104.069 59.6324 104.385C59.6324 104.701 60.4752 106.349 77.1202 107.758C88.5356 108.723 103.715 109.255 119.861 109.255C136.008 109.255 151.187 108.723 162.602 107.758C179.247 106.35 180.09 104.701 180.09 104.385C180.09 104.069 179.247 102.42 162.602 101.012C151.187 100.047 136.008 99.5146 119.861 99.5146Z" fill="white"/>
<path d="M119.86 87.9381C92.3157 87.9381 63.8253 85.3326 63.8253 80.9715C63.8253 78.4908 72.8284 76.8857 80.3812 75.9751C90.9281 74.7044 104.948 74.0049 119.86 74.0049C134.771 74.0049 148.792 74.7044 159.339 75.9751C166.891 76.8849 175.894 78.4908 175.894 80.9715C175.894 85.3326 147.404 87.9381 119.86 87.9381ZM119.86 74.4948C86.6341 74.4948 64.3152 77.8433 64.3152 80.9715C64.3152 84.099 86.6341 87.4483 119.86 87.4483C153.085 87.4483 175.405 84.0997 175.405 80.9715C175.405 77.844 153.086 74.4948 119.86 74.4948Z" fill="white"/>
<path d="M119.691 60.8585C103.325 60.8585 86.397 58.8163 86.397 55.3986C86.397 51.9809 103.325 49.9387 119.691 49.9387C136.058 49.9387 152.986 51.9809 152.986 55.3986C152.986 58.8163 136.058 60.8585 119.691 60.8585ZM119.691 50.4285C100.069 50.4285 86.8869 52.9984 86.8869 55.3986C86.8869 57.7988 100.069 60.3686 119.691 60.3686C139.314 60.3686 152.496 57.7988 152.496 55.3986C152.496 52.9984 139.314 50.4285 119.691 50.4285Z" fill="white"/>
<path d="M119.86 131.612C104.948 131.612 90.9281 130.913 80.3812 129.642C72.8284 128.732 63.8253 127.126 63.8253 124.646C63.8253 122.165 72.8284 120.56 80.3812 119.649C90.9281 118.379 104.948 117.679 119.86 117.679C134.771 117.679 148.792 118.379 159.339 119.649C166.891 120.559 175.894 122.165 175.894 124.646C175.894 127.126 166.891 128.732 159.339 129.642C148.792 130.913 134.771 131.612 119.86 131.612ZM119.86 118.17C86.6341 118.17 64.3152 121.518 64.3152 124.646C64.3152 127.775 86.6341 131.123 119.86 131.123C153.085 131.123 175.405 127.775 175.405 124.646C175.405 121.518 153.086 118.17 119.86 118.17Z" fill="white"/>
<path d="M119.691 155.678C103.325 155.678 86.397 153.636 86.397 150.219C86.397 146.801 103.325 144.759 119.691 144.759C136.058 144.759 152.986 146.801 152.986 150.219C152.986 153.636 136.058 155.678 119.691 155.678ZM119.691 145.249C100.069 145.249 86.8869 147.819 86.8869 150.219C86.8869 152.619 100.069 155.189 119.691 155.189C139.314 155.189 152.496 152.619 152.496 150.219C152.496 147.819 139.314 145.249 119.691 145.249Z" fill="white"/>
<path d="M162.042 87.4816C163.318 87.4816 164.352 86.4472 164.352 85.1712C164.352 83.8953 163.318 82.8609 162.042 82.8609C160.766 82.8609 159.732 83.8953 159.732 85.1712C159.732 86.4472 160.766 87.4816 162.042 87.4816Z" fill="white"/>
<path d="M141.172 89.6471C142.448 89.6471 143.482 88.6128 143.482 87.3368C143.482 86.0609 142.448 85.0265 141.172 85.0265C139.896 85.0265 138.861 86.0609 138.861 87.3368C138.861 88.6128 139.896 89.6471 141.172 89.6471Z" fill="white"/>
<path d="M163.561 109.966C164.837 109.966 165.871 108.932 165.871 107.656C165.871 106.38 164.837 105.346 163.561 105.346C162.285 105.346 161.251 106.38 161.251 107.656C161.251 108.932 162.285 109.966 163.561 109.966Z" fill="white"/>
<path d="M141.866 111.277C143.142 111.277 144.177 110.242 144.177 108.966C144.177 107.691 143.142 106.656 141.866 106.656C140.59 106.656 139.556 107.691 139.556 108.966C139.556 110.242 140.59 111.277 141.866 111.277Z" fill="white"/>
<path d="M176.406 82.529C177.584 82.0407 178.144 80.6892 177.656 79.5103C177.168 78.3315 175.816 77.7717 174.637 78.26C173.458 78.7483 172.899 80.0998 173.387 81.2786C173.875 82.4575 175.227 83.0173 176.406 82.529Z" fill="white"/>
<path d="M180.142 106.754C181.418 106.754 182.452 105.72 182.452 104.444C182.452 103.168 181.418 102.133 180.142 102.133C178.866 102.133 177.831 103.168 177.831 104.444C177.831 105.72 178.866 106.754 180.142 106.754Z" fill="white"/>
<path d="M119.864 89.9455C121.14 89.9455 122.174 88.9112 122.174 87.6352C122.174 86.3592 121.14 85.3249 119.864 85.3249C118.588 85.3249 117.553 86.3592 117.553 87.6352C117.553 88.9112 118.588 89.9455 119.864 89.9455Z" fill="white"/>
<path d="M119.864 62.8385C121.14 62.8385 122.174 61.8042 122.174 60.5282C122.174 59.2523 121.14 58.2179 119.864 58.2179C118.588 58.2179 117.553 59.2523 117.553 60.5282C117.553 61.8042 118.588 62.8385 119.864 62.8385Z" fill="white"/>
<path d="M136.86 60.4489C137.153 59.2071 136.384 57.9628 135.143 57.6696C133.901 57.3764 132.657 58.1453 132.363 59.3871C132.07 60.6288 132.839 61.8732 134.081 62.1664C135.323 62.4596 136.567 61.6907 136.86 60.4489Z" fill="white"/>
<path d="M147.153 60.4769C148.429 60.4769 149.463 59.4425 149.463 58.1666C149.463 56.8906 148.429 55.8562 147.153 55.8562C145.877 55.8562 144.843 56.8906 144.843 58.1666C144.843 59.4425 145.877 60.4769 147.153 60.4769Z" fill="white"/>
<path d="M152.699 57.2891C153.975 57.2891 155.009 56.2547 155.009 54.9788C155.009 53.7028 153.975 52.6684 152.699 52.6684C151.423 52.6684 150.389 53.7028 150.389 54.9788C150.389 56.2547 151.423 57.2891 152.699 57.2891Z" fill="white"/>
<path d="M119.864 47.7449C121.14 47.7449 122.174 46.7105 122.174 45.4345C122.174 44.1586 121.14 43.1242 119.864 43.1242C118.588 43.1242 117.553 44.1586 117.553 45.4345C117.553 46.7105 118.588 47.7449 119.864 47.7449Z" fill="white"/>
<path d="M139.249 133.379C140.525 133.379 141.559 132.345 141.559 131.069C141.559 129.793 140.525 128.758 139.249 128.758C137.973 128.758 136.938 129.793 136.938 131.069C136.938 132.345 137.973 133.379 139.249 133.379Z" fill="white"/>
<path d="M161.004 130.649C161.906 129.747 161.906 128.284 161.004 127.382C160.101 126.479 158.639 126.479 157.736 127.382C156.834 128.284 156.834 129.747 157.736 130.649C158.639 131.551 160.101 131.551 161.004 130.649Z" fill="white"/>
<path d="M176.828 126.747C177.73 125.845 177.73 124.382 176.828 123.48C175.925 122.577 174.463 122.577 173.56 123.48C172.658 124.382 172.658 125.845 173.56 126.747C174.463 127.649 175.925 127.649 176.828 126.747Z" fill="white"/>
<path d="M162.856 227.964C162.701 227.964 162.576 227.838 162.576 227.683V154.505C162.576 154.351 162.701 154.224 162.856 154.224C163.011 154.224 163.136 154.35 163.136 154.505V227.683C163.137 227.838 163.011 227.964 162.856 227.964Z" fill="#97A6B7"/>
<path d="M182.573 223.367C182.418 223.367 182.292 223.241 182.292 223.086V152.659C182.292 152.504 182.418 152.378 182.573 152.378C182.727 152.378 182.853 152.504 182.853 152.659V223.086C182.854 223.24 182.728 223.367 182.573 223.367Z" fill="#97A6B7"/>
<path d="M228.15 226.646C228.035 226.646 227.927 226.575 227.886 226.461L201.532 153.844C201.479 153.699 201.555 153.538 201.7 153.485C201.846 153.432 202.007 153.507 202.06 153.653L228.414 226.27C228.466 226.415 228.391 226.577 228.245 226.629C228.214 226.64 228.181 226.646 228.15 226.646Z" fill="#97A6B7"/>
<path d="M208.694 232.329C208.574 232.329 208.463 232.251 208.426 232.131L184.773 155.569C184.727 155.421 184.81 155.264 184.958 155.219C185.107 155.173 185.264 155.256 185.309 155.404L208.962 231.966C209.008 232.114 208.925 232.271 208.777 232.316C208.75 232.324 208.722 232.329 208.694 232.329Z" fill="#97A6B7"/>
<path d="M182.354 152.587L162.578 154.051V154.495L185.18 155.508L202.073 153.438V152.994L182.354 152.587Z" fill="#97A6B7"/>
<path d="M182.353 152.142L162.576 154.051L185.178 155.064L202.072 152.994L182.353 152.142Z" fill="#E7EBEF"/>
<path d="M203.577 215.766C203.453 215.766 203.339 215.682 203.306 215.556C203.267 215.406 203.356 215.253 203.506 215.213L222.337 210.273C222.486 210.234 222.64 210.323 222.68 210.474C222.719 210.623 222.63 210.777 222.48 210.817L203.649 215.757C203.625 215.762 203.601 215.766 203.577 215.766Z" fill="#97A6B7"/>
<path d="M198.243 198.435C198.109 198.435 197.991 198.339 197.967 198.203C197.94 198.051 198.042 197.905 198.195 197.878L216.676 194.606C216.83 194.579 216.975 194.681 217.001 194.833C217.028 194.986 216.926 195.131 216.774 195.158L198.292 198.431C198.276 198.434 198.26 198.435 198.243 198.435Z" fill="#97A6B7"/>
<path d="M192.697 180.547C192.558 180.547 192.438 180.443 192.419 180.302C192.399 180.148 192.508 180.008 192.662 179.988L210.547 177.682C210.706 177.661 210.842 177.771 210.862 177.925C210.882 178.079 210.773 178.219 210.619 178.239L192.734 180.544C192.722 180.546 192.709 180.547 192.697 180.547Z" fill="#97A6B7"/>
<path d="M189.143 168.133C189.007 168.133 188.888 168.034 188.866 167.895C188.842 167.742 188.947 167.599 189.1 167.574L205.916 164.943C206.069 164.919 206.213 165.025 206.236 165.177C206.261 165.33 206.156 165.474 206.002 165.498L189.186 168.129C189.172 168.131 189.157 168.133 189.143 168.133Z" fill="#97A6B7"/>
<path d="M66.2756 213.66L66.0774 216.844C66.0774 216.844 66.5295 217.322 67.3987 216.989L68.3478 213.864L66.2756 213.66Z" fill="url(#paint18_linear_2:429)"/>
<path d="M66.6743 216.001C66.6743 216.001 65.1156 216.637 65.4186 217.326C65.5812 217.696 66.1438 218.533 66.6294 219.227C67.0794 219.87 67.8915 220.155 68.6431 219.93C68.8955 219.854 69.1537 219.78 69.3818 219.721C69.8546 219.599 69.8817 218.939 69.4218 218.777C69.1986 218.698 68.9775 218.635 68.785 218.605C68.2146 218.517 67.4288 217.169 67.3368 216.629C67.2455 216.088 66.6743 216.001 66.6743 216.001Z" fill="url(#paint19_linear_2:429)"/>
<path d="M62.9214 183.113C65.2175 183.905 73.7087 187.113 75.6011 194.474C75.7024 194.867 75.9612 195.96 75.9734 197.745C76.0233 205.175 71.7042 211.464 68.5625 215.123C67.572 215.106 66.5809 215.09 65.5904 215.073C65.0956 213.177 64.6406 210.341 65.3516 207.149C66.4376 202.271 69.2563 201.005 68.7122 198.612C67.7239 194.264 57.6291 194.924 56.6772 191.031C56.332 189.625 57.0872 187.238 62.9214 183.113Z" fill="url(#paint20_linear_2:429)"/>
<path d="M34.5325 227.602L38.8437 227.501C39.1097 227.494 39.2231 227.163 39.0198 226.992C38.8195 226.824 38.5421 226.686 38.1877 226.723C37.3684 226.808 35.5287 225.662 34.6937 225.908C34.4213 225.988 34.1995 226.629 34.0862 226.807C33.863 227.156 34.119 227.612 34.5325 227.602Z" fill="url(#paint21_linear_2:429)"/>
<path d="M36.4699 224.29L34.6951 225.909C34.6951 225.909 35.3148 226.371 36.2189 226.173L38.033 224.924L36.4699 224.29Z" fill="url(#paint22_linear_2:429)"/>
<g opacity="0.3">
<path opacity="0.3" d="M70.5413 202.283C71.7314 199.068 73.159 195.104 71.5275 192.853C69.8768 190.576 66.2615 192.499 62.6342 190.664C61.2886 189.984 59.906 188.766 58.7551 186.561C56.7193 188.664 56.4427 190.075 56.6765 191.032C57.6285 194.924 67.724 194.265 68.7116 198.612C69.2557 201.006 66.4369 202.272 65.3509 207.15C64.7399 209.893 64.9909 212.373 65.388 214.22C65.741 212.504 66.2893 210.703 67.1286 208.884C68.4285 206.065 69.2871 205.67 70.5413 202.283Z" fill="url(#paint23_linear_2:429)"/>
</g>
<path d="M64.238 182.184C62.8418 188.601 59.8655 198.398 53.045 208.625C47.9958 216.196 42.4482 221.591 38.0971 225.196C37.7876 225.288 37.26 225.402 36.6125 225.323C36.1319 225.263 35.7504 225.119 35.4937 224.996C35.7932 223.187 36.425 220.515 37.9238 217.629C40.6663 212.348 43.1099 212.517 45.8645 207.856C47.8817 204.443 48.5371 200.818 49.8477 193.566C50.8602 187.967 50.8602 186.629 52.2471 185.023C55.053 181.777 60.3197 181.74 64.238 182.184Z" fill="url(#paint24_linear_2:429)"/>
<g opacity="0.3">
<path opacity="0.3" d="M38.9758 218.824C39.9549 217.279 41.6919 215.669 45.1182 212.493C48.6592 209.212 48.523 209.805 49.2204 208.835C52.3408 204.494 50.6501 199.856 51.4202 194.259C51.8502 191.136 53.2285 187.055 57.2424 182.483C55.3613 182.83 53.5594 183.577 52.2481 185.023C50.638 186.8 50.7571 188.54 49.8486 193.567C48.538 200.818 47.882 204.443 45.8655 207.856C43.1109 212.518 40.6672 212.349 37.9248 217.63C36.4259 220.516 35.7942 223.188 35.4947 224.996C35.7514 225.118 36.1322 225.264 36.6135 225.323C36.995 225.369 37.3329 225.348 37.611 225.305C37.3829 221.636 38.4796 219.608 38.9758 218.824Z" fill="url(#paint25_linear_2:429)"/>
</g>
<path d="M68.0038 140.492C68.0038 140.492 69.1533 149.04 60.1473 155.069L69.7323 157.353C69.7323 157.353 72.7991 151.617 70.5765 142.116L68.0038 140.492Z" fill="#CE066D"/>
<path d="M69.6884 142.116C69.6884 142.116 70.2047 140.841 70.1212 140.267C70.0378 139.693 68.6716 138.927 67.7396 138.136C66.8083 137.345 67.7745 138.932 67.9913 139.293C68.2081 139.654 68.9682 140.195 68.8591 141.422L69.6884 142.116Z" fill="url(#paint26_linear_2:429)"/>
<path d="M58.9665 148.625C59.4371 147.698 59.6311 147.703 59.7466 147.213C60.0097 146.098 59.3295 144.682 58.7526 144.663C58.3811 144.65 58.3504 145.228 57.5632 146.13C56.5991 147.233 56.0137 147.089 55.4468 148.047C55.3142 148.271 54.7167 149.28 55.0846 150.033C55.5538 150.993 57.4021 151.145 58.175 150.404C58.5415 150.052 58.3875 149.767 58.9665 148.625Z" fill="url(#paint27_linear_2:429)"/>
<path d="M57.58 149.626C57.58 149.626 57.9101 151.388 57.6755 152.82C57.463 154.115 55.065 155.461 54.6058 155.847C54.1459 156.232 55.8251 156.65 57.3654 156.448C58.9056 156.247 63.1219 154.897 63.763 154.144C64.404 153.392 63.0171 153.763 61.8505 153.621C60.6839 153.479 59.5701 151.524 59.5359 150.526C59.5017 149.528 57.58 149.626 57.58 149.626Z" fill="url(#paint28_linear_2:429)"/>
<path d="M58.0836 150.94C58.0836 150.94 59.263 151.458 60.307 150.622C61.2418 149.874 59.8513 147.578 58.9001 147.548C58.5828 147.538 58.12 147.766 57.8462 148.099C57.685 148.296 57.6751 148.426 57.4048 148.742C57.1559 149.034 57.0461 149.059 57.0083 149.201C56.9613 149.378 57.0426 149.674 57.6829 150.182C57.3642 150.124 57.0889 150.208 56.9827 150.394C56.9656 150.424 56.9306 150.516 56.9413 150.612C56.9791 150.958 57.4319 151.119 58.0836 150.94Z" fill="url(#paint29_linear_2:429)"/>
<path d="M83.9956 144.808C83.9956 144.808 84.7093 144.708 84.4869 143.344C84.3122 142.276 84.4441 141.916 84.6965 142.105C84.9489 142.295 84.9846 142.912 84.9846 142.912C84.9846 142.912 85.9051 142.127 86.2838 141.098C86.6624 140.069 86.9063 140.936 86.9876 141.45C87.0689 141.964 86.4464 143.561 86.0948 143.859C85.7433 144.157 85.2292 145.469 85.2292 145.469L83.9956 144.808Z" fill="url(#paint30_linear_2:429)"/>
<path d="M85.8959 145.173C85.0837 144.604 84.2708 144.036 83.4586 143.467C82.4718 149.543 80.2256 151.927 78.3175 152.97C73.7146 155.488 69.6053 151.004 60.7947 152.836C58.3667 153.34 54.1346 154.28 51.7887 157.739C51.1719 158.649 50.953 159.337 49.9297 165.86C48.622 174.198 48.5756 175.652 48.7603 177.448C49.099 180.733 49.3036 182.724 50.8189 184.486C54.842 189.164 63.3909 186.75 64.4626 186.432C66.4428 185.845 69.5204 184.933 70.7426 182.317C71.318 181.085 71.2567 179.96 70.3711 175.458C68.6177 166.539 68.3938 165.962 68.8829 164.986C70.5322 161.689 75.7604 163.574 80.1764 160.508C82.7591 158.716 85.6684 154.811 85.8959 145.173Z" fill="#E40678"/>
<path d="M60.458 185.242C61.3194 183.473 60.1607 181.845 61.4314 179.719C63.0507 177.01 65.965 177.929 67.0617 175.929C68.9364 172.506 61.554 167.734 63.0529 162.285C63.7688 159.684 66.2688 157.8 68.3581 157.087C72.9958 155.503 76.0299 159.539 80.3782 158.276C81.4085 157.976 82.5915 157.356 83.7873 156.07C82.7306 158.301 81.4171 159.649 80.1792 160.509C75.7632 163.574 70.535 161.689 68.8857 164.986C68.3973 165.963 68.6212 166.54 70.3739 175.458C71.2588 179.96 71.3201 181.085 70.7454 182.317C69.5232 184.934 66.4456 185.846 64.4655 186.433C63.8786 186.607 61.0513 187.407 57.9523 187.33C59.3343 186.767 60.078 186.022 60.458 185.242Z" fill="#CE066D"/>
<path d="M98.389 128.963C100.403 129.985 102.933 129.046 104.04 126.865C105.147 124.684 104.412 122.088 102.397 121.065C102.293 121.012 102.186 120.967 102.08 120.925C102.453 119.719 102.736 118.502 102.925 117.286C103.04 117.286 103.156 117.284 103.273 117.273C105.571 117.068 107.394 114.956 107.346 112.556C107.297 110.156 105.395 108.377 103.097 108.582C102.978 108.593 102.859 108.612 102.742 108.633C102.502 107.443 102.173 106.282 101.758 105.157C101.864 105.095 101.969 105.032 102.072 104.96C104.038 103.582 104.665 100.864 103.475 98.888C102.284 96.9121 99.7246 96.4272 97.7594 97.8049C97.6588 97.8755 97.564 97.9518 97.4706 98.0295C96.694 97.171 95.8419 96.3759 94.9207 95.65C94.9855 95.5438 95.049 95.4361 95.106 95.3234C96.2127 93.1422 97.6595 90.7598 95.6294 89.7694C90.9332 87.4783 88.9188 89.4407 87.8121 91.6219C87.7551 91.7346 87.7052 91.8494 87.6581 91.9649C86.5279 91.6497 85.3834 91.4315 84.2326 91.3117C84.2397 91.1905 84.2454 91.0693 84.2425 90.9459C84.194 88.5465 84.9057 87.2473 82.5996 87.2031C77.5697 87.1061 75.8733 89.2895 75.9218 91.6897C75.9247 91.8152 75.9346 91.9378 75.9475 92.0597C74.7952 92.3885 73.6628 92.8085 72.5611 93.3169C72.5091 93.2099 72.4542 93.1037 72.3922 93.0003C71.2013 91.0244 68.6422 90.5395 66.677 91.9178C64.711 93.2955 64.0835 96.0137 65.2744 97.9896C65.335 98.0908 65.402 98.1857 65.4697 98.2791C64.5991 99.1497 63.7841 100.095 63.0311 101.11C62.9334 101.049 62.835 100.989 62.7302 100.936C60.7158 99.9134 58.1858 100.853 57.0791 103.034C55.9725 105.215 56.7076 107.811 58.722 108.834C58.8261 108.887 58.9331 108.932 59.0401 108.974C58.6664 110.18 58.384 111.397 58.1951 112.613C58.0796 112.614 57.964 112.615 57.8464 112.626C55.5482 112.831 53.7249 114.943 53.7741 117.343C53.8226 119.743 55.725 121.522 58.0225 121.317C58.1423 121.306 58.2607 121.287 58.3776 121.266C58.6179 122.455 58.9466 123.617 59.3624 124.742C59.2568 124.804 59.1513 124.867 59.0486 124.939C57.0827 126.317 56.4552 129.035 57.646 131.011C58.8368 132.987 62.7786 133.904 64.7446 132.526C64.8451 132.455 63.5573 131.947 63.6507 131.869C64.4272 132.728 65.2794 133.523 66.2006 134.249C66.1357 134.355 66.0723 134.463 66.0152 134.575C64.9086 136.757 65.6437 139.353 67.6581 140.375C69.6725 141.398 72.2025 140.458 73.3092 138.278C73.3662 138.165 73.4161 138.05 73.4632 137.935C74.5934 138.25 75.7378 138.468 76.8887 138.588C76.8816 138.709 76.8759 138.83 76.8787 138.954C76.9272 141.354 78.8297 143.133 81.1272 142.927C83.4247 142.722 85.248 140.61 85.1995 138.211C85.1966 138.085 85.1866 137.962 85.1738 137.84C86.3261 137.512 87.4585 137.092 88.5601 136.583C88.6122 136.69 88.6671 136.797 88.7291 136.9C89.9199 138.876 92.4791 139.361 94.4443 137.983C96.4102 136.605 97.0377 133.887 95.8469 131.911C95.7856 131.81 95.7193 131.715 95.6515 131.623C96.5222 130.752 97.3372 129.806 98.0902 128.792C98.1858 128.85 98.2849 128.91 98.389 128.963ZM73.2821 129.287C65.9689 125.575 63.2985 116.147 67.3166 108.228C71.3354 100.31 80.5211 96.8993 87.8342 100.611C95.1474 104.322 97.8178 113.75 93.7997 121.669C89.7816 129.587 80.5952 132.997 73.2821 129.287Z" fill="#D8DEE8"/>
<path d="M103.272 117.273C105.569 117.068 107.393 114.956 107.344 112.556C107.296 110.156 105.393 108.377 103.096 108.582C102.976 108.593 102.858 108.612 102.741 108.633C102.5 107.443 102.172 106.282 101.757 105.157C101.862 105.095 101.968 105.032 102.07 104.96C104.036 103.582 106.468 100.254 105.08 98.411C102.447 94.9127 99.7229 96.428 97.7577 97.8056C97.6572 97.8762 97.5624 97.9525 97.4689 98.0295C96.6924 97.171 95.8403 96.376 94.919 95.6501C94.9839 95.5438 95.0474 95.4361 95.1044 95.3235C95.707 94.1362 95.7597 92.8278 95.3618 91.7154C93.4637 95.0575 91.5912 98.4139 89.7522 101.789C95.5865 106.062 97.4454 114.486 93.8002 121.669C90.7113 127.756 84.5696 131.174 78.5721 130.747C78.3047 131.441 78.0423 132.138 77.7556 132.826C76.9784 134.69 76.0956 136.517 75.2114 138.341C75.7676 138.446 76.3259 138.528 76.8864 138.587C76.8793 138.708 76.8736 138.83 76.8764 138.953C76.9249 141.353 78.3824 143.392 82.5467 143.17C84.8506 143.047 85.2456 140.609 85.1971 138.21C85.1943 138.084 85.1843 137.962 85.1715 137.84C86.3238 137.511 87.4561 137.091 88.5578 136.583C88.6099 136.69 88.6648 136.796 88.7268 136.899C89.9176 138.875 94.0484 139.714 96.0136 138.336C97.9795 136.958 97.0361 133.886 95.8446 131.91C95.7833 131.809 95.717 131.714 95.6492 131.621C96.5199 130.75 97.3349 129.804 98.0879 128.79C98.1856 128.851 98.284 128.91 98.3888 128.964C100.403 129.986 102.933 129.046 104.04 126.866C105.146 124.685 104.411 122.088 102.397 121.066C102.293 121.013 102.186 120.968 102.08 120.926C102.453 119.719 102.736 118.503 102.925 117.287C103.038 117.285 103.154 117.283 103.272 117.273Z" fill="#D8DEE8"/>
<path d="M100.555 129.209C102.57 130.231 105.099 129.291 106.206 127.111C107.313 124.93 106.578 122.333 104.563 121.311C104.459 121.258 104.352 121.213 104.245 121.171C104.619 119.965 104.901 118.748 105.09 117.532C105.206 117.532 105.321 117.529 105.439 117.519C107.736 117.313 109.56 115.202 109.511 112.802C109.463 110.402 107.56 108.623 105.263 108.828C105.143 108.839 105.025 108.858 104.908 108.879C104.667 107.689 104.339 106.528 103.923 105.403C104.028 105.341 104.134 105.278 104.237 105.206C106.203 103.828 106.83 101.11 105.639 99.1339C104.448 97.158 101.889 96.6731 99.924 98.0507C99.8235 98.1213 99.7287 98.1976 99.6353 98.2746C98.8587 97.4161 98.0066 96.621 97.0853 95.8951C97.1502 95.7889 97.2137 95.6812 97.2707 95.5685C98.3774 93.3873 97.6422 90.791 95.6278 89.7685C93.6134 88.746 91.0835 89.6858 89.9768 91.8663C89.9198 91.979 89.8699 92.0938 89.8228 92.2093C88.6926 91.8941 87.5481 91.6759 86.3972 91.5561C86.4044 91.4349 86.4101 91.3137 86.4072 91.1903C86.3587 88.7902 84.4563 87.0111 82.1588 87.2164C79.8613 87.4218 78.038 89.5339 78.0865 91.9333C78.0894 92.0588 78.0993 92.1815 78.1122 92.3034C76.9599 92.6321 75.8275 93.0521 74.7258 93.5606C74.6738 93.4536 74.6189 93.3473 74.5568 93.244C73.366 91.2681 70.8068 90.7832 68.8416 92.1615C66.8757 93.5392 66.2482 96.2581 67.4391 98.2333C67.5004 98.3345 67.5667 98.4293 67.6344 98.5228C66.7638 99.3934 65.9488 100.339 65.1958 101.354C65.0981 101.292 64.9997 101.233 64.8948 101.18C62.8804 100.157 60.3505 101.097 59.2438 103.277C58.1372 105.459 58.8723 108.055 60.8867 109.078C60.9908 109.13 61.0978 109.175 61.2047 109.217C60.8311 110.424 60.5487 111.64 60.3598 112.857C60.2443 112.857 60.1287 112.859 60.0111 112.87C57.7136 113.075 55.8903 115.187 55.9388 117.586C55.9873 119.987 57.8897 121.766 60.1872 121.56C60.307 121.55 60.4254 121.53 60.5423 121.51C60.7826 122.699 61.1113 123.861 61.5271 124.985C61.4215 125.047 61.316 125.111 61.2133 125.183C59.2474 126.56 58.6199 129.279 59.8107 131.254C61.0015 133.23 63.5607 133.715 65.5259 132.338C65.6264 132.267 65.7213 132.191 65.8147 132.113C66.5912 132.972 67.4433 133.767 68.3646 134.492C68.2997 134.599 68.2363 134.706 68.1792 134.819C67.0725 137 67.8077 139.597 69.8221 140.619C71.8365 141.641 74.3665 140.702 75.4731 138.521C75.5302 138.409 75.5801 138.294 75.6272 138.178C76.7574 138.493 77.9018 138.712 79.0527 138.831C79.0456 138.953 79.0399 139.074 79.0427 139.197C79.0912 141.597 80.9937 143.377 83.2911 143.171C85.5886 142.966 87.4119 140.854 87.3634 138.454C87.3606 138.329 87.3506 138.206 87.3378 138.084C88.4901 137.755 89.6224 137.335 90.7241 136.827C90.7762 136.934 90.8311 137.04 90.8931 137.144C92.0839 139.12 94.6431 139.604 96.6083 138.227C98.5742 136.849 99.2017 134.131 98.0109 132.155C97.9496 132.054 97.8833 131.959 97.8148 131.866C98.6855 130.995 99.5005 130.049 100.253 129.035C100.352 129.096 100.45 129.156 100.555 129.209ZM75.4482 129.532C68.135 125.82 65.4646 116.392 69.4827 108.474C73.5015 100.555 82.6872 97.1444 90.0004 100.856C97.3135 104.567 99.9839 113.996 95.9658 121.914C91.9477 129.833 82.7613 133.243 75.4482 129.532Z" fill="white"/>
<path d="M127.619 195.287H112.11C101.996 195.287 93.7683 187.059 93.7683 176.945V172.345C93.7683 164.269 89.7373 156.696 82.9861 152.088C74.9641 146.612 68.3034 139.329 63.7241 131.027C58.9922 122.448 56.4915 112.758 56.4915 103.001C56.4915 86.8784 63.0852 71.7201 75.0575 60.3204C87.0263 48.9235 102.94 42.6471 119.865 42.6471C136.79 42.6471 152.703 48.9235 164.672 60.3204C176.645 71.7201 183.238 86.8777 183.238 103.001C183.238 112.758 180.738 122.448 176.006 131.027C171.427 139.329 164.766 146.612 156.744 152.088C149.993 156.696 145.962 164.269 145.962 172.345V176.945C145.961 187.059 137.733 195.287 127.619 195.287ZM119.864 43.137C103.065 43.137 87.2723 49.3656 75.3948 60.6748C63.5209 71.9811 56.9814 87.0132 56.9814 103.001C56.9814 112.675 59.4614 122.284 64.1534 130.79C68.6956 139.026 75.3035 146.25 83.262 151.683C90.1474 156.383 94.2582 164.107 94.2582 172.345V176.945C94.2582 186.788 102.267 194.797 112.11 194.797H127.62C137.463 194.797 145.472 186.788 145.472 176.945V172.345C145.472 164.107 149.583 156.383 156.468 151.683C164.426 146.25 171.034 139.025 175.577 130.79C180.269 122.284 182.749 112.675 182.749 103.001C182.749 87.0132 176.21 71.9818 164.336 60.6755C152.456 49.3656 136.663 43.137 119.864 43.137Z" fill="white"/>
<path d="M148.663 162.555C149.994 162.555 151.074 161.476 151.074 160.145C151.074 158.813 149.994 157.734 148.663 157.734C147.331 157.734 146.252 158.813 146.252 160.145C146.252 161.476 147.331 162.555 148.663 162.555Z" fill="white"/>
<path d="M130.161 175.949C131.176 175.949 131.998 175.127 131.998 174.113C131.998 173.098 131.176 172.276 130.161 172.276C129.147 172.276 128.324 173.098 128.324 174.113C128.324 175.127 129.147 175.949 130.161 175.949Z" fill="white"/>
<path d="M129.93 174.783L129.632 174.394L148.57 159.908L148.639 159.901L176.17 157.108L176.219 157.596L148.757 160.381L129.93 174.783Z" fill="white"/>
<path d="M176.901 159.431C177.838 159.043 178.283 157.968 177.895 157.031C177.507 156.094 176.432 155.649 175.495 156.037C174.558 156.425 174.113 157.5 174.501 158.437C174.889 159.374 175.964 159.819 176.901 159.431Z" fill="white"/>
<path d="M173 150.932C173 150.932 168.508 153.215 168.434 153.579C168.361 153.943 171.323 153.457 172.532 153.509C173.742 153.562 174.736 153.162 174.627 152.589C174.518 152.017 174.095 150.576 174.095 150.576L173 150.932Z" fill="url(#paint31_linear_2:429)"/>
<path d="M172.838 149.08L173.111 151.341C173.111 151.341 173.822 151.624 174.3 151.29L174.503 148.81L172.838 149.08Z" fill="url(#paint32_linear_2:429)"/>
<path d="M193.992 149.134L194.514 150.071C194.661 150.334 194.704 150.65 194.634 150.949C194.452 151.729 194.087 153.248 193.927 153.645C193.711 154.184 190.804 154.505 190.804 154.505C190.804 154.505 190.544 154.097 191.148 153.605C191.751 153.112 192.139 153.034 192.352 152.308C192.566 151.581 192.707 149.525 192.707 149.525L193.992 149.134Z" fill="url(#paint33_linear_2:429)"/>
<path d="M191.817 146.75C192.008 146.92 192.942 150.089 192.942 150.089C192.942 150.089 193.244 150.521 193.818 149.884C194.392 149.246 194.078 149.598 194.078 149.598L193.97 146.482L191.817 146.75Z" fill="url(#paint34_linear_2:429)"/>
<path d="M170.367 103.648C170.13 110.393 170.12 117.722 170.467 125.551C170.858 134.367 171.644 142.516 172.634 149.903C173.002 149.915 173.388 149.917 173.793 149.905C174.066 149.897 174.329 149.882 174.585 149.863C175.098 148.331 175.706 146.317 176.249 143.911C176.821 141.381 177.165 139.112 177.411 136.942C178.276 129.301 177.262 128.635 177.965 122.973C178.586 117.958 179.471 117.763 180.509 110.643C181.635 102.917 180.797 101.759 180.389 101.34C178.653 99.5574 174.575 100.77 170.367 103.648Z" fill="url(#paint35_linear_2:429)"/>
<path d="M173.214 103.535C177.175 110.014 181.447 118.078 185.268 127.731C188.155 135.026 190.249 141.875 191.787 147.978C191.995 148.086 192.485 148.301 193.112 148.208C193.967 148.082 194.48 147.471 194.614 147.301C195.24 142.926 195.171 139.22 194.958 136.545C194.822 134.832 194.582 131.981 193.606 128.46C192.512 124.517 191.76 124.295 190.334 120.123C188.854 115.793 189.212 114.713 187.794 109.293C187.211 107.067 186.237 103.754 184.627 99.7917C180.822 101.039 177.018 102.287 173.214 103.535Z" fill="url(#paint36_linear_2:429)"/>
<path d="M168.454 74.8899C165.297 71.4508 163.602 71.3217 163.07 68.8203C162.544 66.346 163.435 62.8598 165.704 61.4708C165.87 61.3688 167.587 60.3548 169.379 61.0608C172.091 62.1282 171.395 65.7206 174.124 68.1436C176.437 70.1965 179.587 69.9705 181.72 69.8179C186.854 69.4492 188.316 66.649 190.649 67.75C193.572 69.1291 192.583 74.1419 195.569 75.2279C197.564 75.9531 198.599 73.9301 201.442 74.025C204.782 74.1362 207.728 77.0762 209.037 80.071C211.43 85.5452 208.755 92.1239 205.468 95.7178C202.768 98.6705 197.834 101.601 194.737 99.9099C192.291 98.5743 192.28 95.0589 189.946 94.8129C188.286 94.6382 187.784 96.3624 185.664 96.7745C182.183 97.4519 179.062 93.6734 178.211 92.643C175.784 89.7052 176.614 88.4338 173.882 83.088C172.804 80.9766 171.25 77.9354 168.454 74.8899Z" fill="url(#paint37_linear_2:429)"/>
<path d="M140.84 64.2714C140.84 64.2714 140.101 63.2375 139.632 62.4688C139.163 61.7001 136.974 59.5409 136.974 59.5409C136.974 59.5409 136.807 59.8832 137.278 60.4316C137.75 60.9799 138.741 61.919 138.513 62.3169C138.285 62.7141 137.643 63.0649 138.107 63.815C138.57 64.5659 139.375 64.0532 139.788 64.655C140.199 65.2569 140.621 65.9136 140.621 65.9136L140.84 64.2714Z" fill="url(#paint38_linear_2:429)"/>
<path d="M141.127 63.5958C140.629 64.4393 140.131 65.2822 139.632 66.125C140.151 67.8199 141.045 70.1738 142.613 72.6567C143.304 73.7519 145.447 76.9657 149.076 79.5498C154.016 83.0674 163.016 86.3496 165.65 82.606C168.001 79.266 164.206 71.8616 163.508 70.5324C162.094 71.274 159.77 72.2573 156.783 72.4898C155.804 72.5661 153.256 72.7394 150.385 71.7539C145.072 69.9299 142.123 65.3249 141.127 63.5958Z" fill="#29B0B0"/>
<path d="M157.743 74.898C157.992 76.1473 161.877 75.477 162.679 77.7446C163.109 78.9611 162.195 79.734 162.158 81.8005C162.115 84.1136 163.217 85.4271 164.063 87.2476C165.301 89.913 165.306 92.5256 165.316 97.751C165.329 105.189 163.684 106.685 165.088 109.082C166.916 112.203 171.304 112.402 172.49 112.456C176.546 112.64 177.027 110.486 181.429 110.228C186.455 109.934 187.171 112.666 190.766 111.501C194.05 110.436 195.155 107.605 197.712 108.191C199.31 108.557 199.735 109.859 201.242 109.719C202.757 109.577 204.324 108.075 204.43 106.536C204.563 104.622 202.471 102.211 199.192 102.208C197.889 102.719 195.729 103.311 193.328 102.653C189.392 101.574 187.346 97.833 185.073 93.678C183.5 90.8036 180.609 85.5198 180.575 78.5917C180.56 75.7344 181.043 74.8987 180.347 73.3714C178.086 68.4127 169.312 69.1522 168.569 69.2242C162.59 69.7989 157.443 73.3899 157.743 74.898Z" fill="#29B0B0"/>
<path d="M155.782 81.1388L166.802 81.6194C166.924 81.6244 167.029 81.7114 167.07 81.839L172.262 97.9414C172.336 98.1724 172.103 98.75 171.885 98.7236L160.989 97.0664C160.879 97.0529 160.784 96.9716 160.744 96.8554L155.343 81.8254C155.265 81.603 155.568 81.1295 155.782 81.1388Z" fill="url(#paint39_linear_2:429)"/>
<path d="M155.611 81.5329L166.631 82.0136C166.753 82.0185 166.858 82.1055 166.9 82.2332L172.091 98.3356C172.165 98.5666 171.997 98.8048 171.779 98.7784L160.818 97.4606C160.707 97.4471 160.612 97.3658 160.572 97.2496L155.322 81.9843C155.245 81.7611 155.398 81.5237 155.611 81.5329Z" fill="url(#paint40_linear_2:429)"/>
<path d="M158.625 82.1328L158.2 80.8493C158.161 80.7338 158.238 80.6105 158.349 80.6105H162.361C162.43 80.6105 162.491 80.6604 162.512 80.7345L162.915 82.1542C162.948 82.2712 162.868 82.3888 162.759 82.3853L158.769 82.2491C158.704 82.2462 158.647 82.2006 158.625 82.1328Z" fill="url(#paint41_linear_2:429)"/>
<path opacity="0.3" d="M165.408 94.8812C164.692 92.2857 165.87 90.5957 164.668 88.5792C162.967 85.7269 159.314 86.9341 158.178 84.6324C157.871 84.012 157.725 83.0865 158.138 81.6439L155.611 81.5341C155.397 81.5249 155.245 81.7623 155.322 81.9855L160.572 97.2507C160.612 97.367 160.707 97.4483 160.818 97.4618L167.48 98.2633C166.293 97.1053 165.698 95.9358 165.408 94.8812Z" fill="url(#paint42_linear_2:429)"/>
<path d="M173.456 92.9519C173.456 92.9519 171.791 92.5818 171.149 92.1297C170.506 91.6776 169.825 90.951 168.878 90.991C167.931 91.0309 166.979 91.5693 167.416 91.6926C167.853 91.816 168.67 92.7864 169.295 93.1679C169.919 93.5501 171.346 93.5844 171.611 93.5637C171.876 93.543 172.925 94.2482 172.925 94.2482L173.456 92.9519Z" fill="url(#paint43_linear_2:429)"/>
<path d="M199.19 102.207C197.887 102.718 195.727 103.311 193.325 102.653C189.39 101.574 187.344 97.8325 185.07 93.6775C183.497 90.8031 180.607 85.5193 180.572 78.5912C180.558 75.734 181.041 74.8982 180.345 73.3709C180.234 73.1277 180.103 72.9024 179.963 72.6863C178.246 73.9848 177.58 75.2847 177.384 76.4263C176.911 79.2051 179.145 81.4777 177.982 83.8743C176.868 86.1703 174.115 85.535 173.541 87.5031C172.922 89.6258 175.969 90.9065 176.103 94.1873C176.264 98.1241 172.03 100.052 172.772 102.686C173.415 104.968 176.959 104.803 176.957 106.028C176.955 107.483 177.067 104.478 172.772 102.686C171.471 102.142 165.346 106.663 164.601 105.869C164.441 107.152 164.47 108.031 165.086 109.082C166.914 112.203 171.302 112.402 172.488 112.456C176.544 112.64 177.025 110.486 181.427 110.228C186.453 109.935 187.169 112.666 190.764 111.501C194.048 110.437 195.153 107.605 197.71 108.191C199.308 108.558 199.732 109.86 201.24 109.719C202.755 109.577 204.322 108.076 204.428 106.536C204.56 104.622 202.468 102.211 199.19 102.207Z" fill="#149E9E"/>
<path d="M173.415 92.1805C172.903 93.1995 172.391 94.2177 171.878 95.236C172.668 95.6688 181.114 100.137 187.236 95.7137C187.993 95.1668 190.005 93.7136 191.089 90.867C192.284 87.7296 191.613 84.8131 191.178 82.9185C190.102 78.2287 187.058 73.3093 182.738 71.3334C181.088 70.5783 179.129 70.1968 177.287 69.8374C175.724 69.5329 173.268 69.1593 173.216 69.4238C173.19 69.5529 173.76 69.7176 174.157 69.9686C176.591 71.5081 173.501 77.865 176.361 80.9141C179.101 83.8348 182.657 83.3521 183.231 85.999C183.497 87.2297 182.945 88.3364 182.7 88.8298C181.33 91.5808 177.639 92.8123 173.415 92.1805Z" fill="#29B0B0"/>
<path d="M167.679 64.6505C167.679 64.6505 168.671 67.8743 169.906 68.377C171.141 68.879 173.094 69.4551 173.34 69.6783C173.585 69.9015 166.777 72.373 162.959 71.2357C164.046 70.7037 164.337 70.5333 164.337 70.5333C164.628 70.3629 165.17 70.047 165.678 69.5436C166.024 69.2013 166.566 68.5638 166.974 67.5042L166.617 65.6738L167.679 64.6505Z" fill="url(#paint44_linear_2:429)"/>
<path d="M168.127 66.0586C168.127 66.0586 167.552 67.4876 166.189 67.2679C164.968 67.0719 165.03 63.6385 165.86 63.0537C166.136 62.8591 166.697 62.7849 167.114 62.9553C167.407 63.0751 168.279 63.8738 168.084 65.0432C168.353 64.8835 168.621 64.9084 168.714 65.0517C168.832 65.2343 168.641 65.5652 168.598 65.64C168.448 65.9003 168.229 66.0144 168.127 66.0586Z" fill="url(#paint45_linear_2:429)"/>
<path d="M174.192 208.862L190.328 196.471L187.605 193.101L171.498 205.529L174.192 208.862Z" fill="url(#paint46_linear_2:429)"/>
<path d="M179.037 216.449L196.846 202.905L191.912 196.8L174.16 210.415L179.037 216.449Z" fill="url(#paint47_linear_2:429)"/>
<path d="M185.504 232.057H216.938L210.113 215.014L197.484 203.944L179.733 217.559L185.504 232.057Z" fill="url(#paint48_linear_2:429)"/>
<path d="M148.365 164.557L147.531 163.525L148.352 162.857L171.333 191.294L172.82 191.071L173.378 189.696L150.366 161.222L151.191 160.551L152.027 161.587L188.006 179.788L188.258 191.121L179.806 197.651L177.753 199.237L169.415 205.678L158.48 202.821L148.365 164.557Z" fill="url(#paint49_linear_2:429)"/>
<defs>
<linearGradient id="paint0_linear_2:429" x1="206.145" y1="88.0421" x2="104.052" y2="216.205" gradientUnits="userSpaceOnUse">
<stop stop-color="#146685"/>
<stop offset="1" stop-color="#38C1CB"/>
</linearGradient>
<linearGradient id="paint1_linear_2:429" x1="125.833" y1="174.065" x2="235.662" y2="168.742" gradientUnits="userSpaceOnUse">
<stop stop-color="#F9867A"/>
<stop offset="1" stop-color="#E40678"/>
</linearGradient>
<linearGradient id="paint2_linear_2:429" x1="189.413" y1="188.026" x2="172.6" y2="236.839" gradientUnits="userSpaceOnUse">
<stop offset="0.00359712" stop-color="#F96EBB"/>
<stop offset="1" stop-color="#2C9EC6"/>
</linearGradient>
<linearGradient id="paint3_linear_2:429" x1="118.55" y1="232.363" x2="119.671" y2="223.394" gradientUnits="userSpaceOnUse">
<stop offset="0.003597" stop-color="#26264F"/>
<stop offset="1" stop-color="#444B8C"/>
</linearGradient>
<linearGradient id="paint4_linear_2:429" x1="113.939" y1="224.188" x2="125.15" y2="204.007" gradientUnits="userSpaceOnUse">
<stop offset="0.003597" stop-color="#26264F"/>
<stop offset="1" stop-color="#444B8C"/>
</linearGradient>
<linearGradient id="paint5_linear_2:429" x1="101.259" y1="214.624" x2="138.47" y2="214.624" gradientUnits="userSpaceOnUse">
<stop offset="0.003597" stop-color="#26264F"/>
<stop offset="1" stop-color="#444B8C"/>
</linearGradient>
<linearGradient id="paint6_linear_2:429" x1="115.005" y1="218.673" x2="126.077" y2="197.371" gradientUnits="userSpaceOnUse">
<stop offset="0.003597" stop-color="#26264F"/>
<stop offset="1" stop-color="#444B8C"/>
</linearGradient>
<linearGradient id="paint7_linear_2:429" x1="99.5888" y1="208.353" x2="140.116" y2="208.353" gradientUnits="userSpaceOnUse">
<stop offset="0.003597" stop-color="#26264F"/>
<stop offset="1" stop-color="#444B8C"/>
</linearGradient>
<linearGradient id="paint8_linear_2:429" x1="98.9908" y1="201.03" x2="140.737" y2="201.03" gradientUnits="userSpaceOnUse">
<stop offset="0.003597" stop-color="#26264F"/>
<stop offset="1" stop-color="#444B8C"/>
</linearGradient>
<linearGradient id="paint9_linear_2:429" x1="118.827" y1="197.881" x2="122.938" y2="178.634" gradientUnits="userSpaceOnUse">
<stop offset="0.003597" stop-color="#26264F"/>
<stop offset="1" stop-color="#444B8C"/>
</linearGradient>
<linearGradient id="paint10_linear_2:429" x1="110.931" y1="90.4867" x2="192.492" y2="219.974" gradientUnits="userSpaceOnUse">
<stop stop-color="#FCB148"/>
<stop offset="0.0521" stop-color="#FDBA46"/>
<stop offset="0.1424" stop-color="#FFC244"/>
<stop offset="0.3183" stop-color="#FFC444"/>
<stop offset="0.4849" stop-color="#FDB946"/>
<stop offset="0.7754" stop-color="#F99C4D"/>
<stop offset="0.8658" stop-color="#F8924F"/>
<stop offset="1" stop-color="#F8924F"/>
</linearGradient>
<linearGradient id="paint11_linear_2:429" x1="96.0315" y1="190.191" x2="112.662" y2="141.607" gradientUnits="userSpaceOnUse">
<stop offset="0.494" stop-color="#EBEFF2"/>
<stop offset="1" stop-color="white"/>
</linearGradient>
<linearGradient id="paint12_linear_2:429" x1="111.931" y1="195.633" x2="128.562" y2="147.049" gradientUnits="userSpaceOnUse">
<stop offset="0.494" stop-color="#EBEFF2"/>
<stop offset="1" stop-color="white"/>
</linearGradient>
<linearGradient id="paint13_linear_2:429" x1="90.2406" y1="188.209" x2="106.871" y2="139.625" gradientUnits="userSpaceOnUse">
<stop offset="0.494" stop-color="#EBEFF2"/>
<stop offset="1" stop-color="white"/>
</linearGradient>
<linearGradient id="paint14_linear_2:429" x1="113.794" y1="61.2994" x2="97.5368" y2="195.279" gradientUnits="userSpaceOnUse">
<stop stop-color="#FCB148"/>
<stop offset="0.0521" stop-color="#FDBA46"/>
<stop offset="0.1424" stop-color="#FFC244"/>
<stop offset="0.3183" stop-color="#FFC444"/>
<stop offset="0.4849" stop-color="#FDB946"/>
<stop offset="0.7754" stop-color="#F99C4D"/>
<stop offset="0.8658" stop-color="#F8924F"/>
<stop offset="1" stop-color="#F8924F"/>
</linearGradient>
<linearGradient id="paint15_linear_2:429" x1="131.908" y1="56.5797" x2="52.7187" y2="231.432" gradientUnits="userSpaceOnUse">
<stop stop-color="#FFC444"/>
<stop offset="0.9964" stop-color="#F56D59"/>
</linearGradient>
<linearGradient id="paint16_linear_2:429" x1="86.4179" y1="100.581" x2="165.743" y2="100.581" gradientUnits="userSpaceOnUse">
<stop stop-color="#FCB148"/>
<stop offset="0.0521" stop-color="#FDBA46"/>
<stop offset="0.1424" stop-color="#FFC244"/>
<stop offset="0.3183" stop-color="#FFC444"/>
<stop offset="0.4849" stop-color="#FDB946"/>
<stop offset="0.7754" stop-color="#F99C4D"/>
<stop offset="0.8658" stop-color="#F8924F"/>
<stop offset="1" stop-color="#F8924F"/>
</linearGradient>
<linearGradient id="paint17_linear_2:429" x1="126.861" y1="105.088" x2="152.909" y2="49.5539" gradientUnits="userSpaceOnUse">
<stop offset="0.00540541" stop-color="#D8DEE8"/>
<stop offset="1" stop-color="#F4F7FA"/>
</linearGradient>
<linearGradient id="paint18_linear_2:429" x1="67.1713" y1="217.095" x2="68.4386" y2="213.621" gradientUnits="userSpaceOnUse">
<stop stop-color="#FCDAC2"/>
<stop offset="0.9964" stop-color="#FFAD61"/>
</linearGradient>
<linearGradient id="paint19_linear_2:429" x1="69.1725" y1="203.497" x2="66.3257" y2="229.544" gradientUnits="userSpaceOnUse">
<stop stop-color="#444B8C"/>
<stop offset="0.9964" stop-color="#26264F"/>
</linearGradient>
<linearGradient id="paint20_linear_2:429" x1="56.6068" y1="199.118" x2="75.9735" y2="199.118" gradientUnits="userSpaceOnUse">
<stop stop-color="#3BA4D5"/>
<stop offset="0.9964" stop-color="#08536C"/>
</linearGradient>
<linearGradient id="paint21_linear_2:429" x1="46.9202" y1="200.529" x2="38.5075" y2="222.136" gradientUnits="userSpaceOnUse">
<stop stop-color="#444B8C"/>
<stop offset="0.9964" stop-color="#26264F"/>
</linearGradient>
<linearGradient id="paint22_linear_2:429" x1="36.3033" y1="226.216" x2="36.6046" y2="224.051" gradientUnits="userSpaceOnUse">
<stop stop-color="#FCDAC2"/>
<stop offset="0.9964" stop-color="#FFAD61"/>
</linearGradient>
<linearGradient id="paint23_linear_2:429" x1="85.1383" y1="208.174" x2="56.4446" y2="198.492" gradientUnits="userSpaceOnUse">
<stop stop-color="#AB316D"/>
<stop offset="1" stop-color="#792D3D"/>
</linearGradient>
<linearGradient id="paint24_linear_2:429" x1="35.4933" y1="203.666" x2="64.2376" y2="203.666" gradientUnits="userSpaceOnUse">
<stop stop-color="#3BA4D5"/>
<stop offset="0.9964" stop-color="#08536C"/>
</linearGradient>
<linearGradient id="paint25_linear_2:429" x1="53.3064" y1="191.673" x2="37.0937" y2="224.195" gradientUnits="userSpaceOnUse">
<stop stop-color="#AB316D"/>
<stop offset="1" stop-color="#792D3D"/>
</linearGradient>
<linearGradient id="paint26_linear_2:429" x1="68.6853" y1="142.101" x2="70.2189" y2="137.862" gradientUnits="userSpaceOnUse">
<stop stop-color="#FCDAC2"/>
<stop offset="0.9964" stop-color="#FFAD61"/>
</linearGradient>
<linearGradient id="paint27_linear_2:429" x1="57.3405" y1="149.652" x2="57.5398" y2="142.834" gradientUnits="userSpaceOnUse">
<stop stop-color="#444B8C"/>
<stop offset="0.9964" stop-color="#26264F"/>
</linearGradient>
<linearGradient id="paint28_linear_2:429" x1="59.0559" y1="156.476" x2="60.3962" y2="148.858" gradientUnits="userSpaceOnUse">
<stop stop-color="#FCDAC2"/>
<stop offset="0.9964" stop-color="#FFAD61"/>
</linearGradient>
<linearGradient id="paint29_linear_2:429" x1="58.7111" y1="151.086" x2="59.6041" y2="147.238" gradientUnits="userSpaceOnUse">
<stop stop-color="#FCDAC2"/>
<stop offset="0.9964" stop-color="#FFAD61"/>
</linearGradient>
<linearGradient id="paint30_linear_2:429" x1="85.4406" y1="145.452" x2="87.312" y2="140.639" gradientUnits="userSpaceOnUse">
<stop stop-color="#FCDAC2"/>
<stop offset="0.9964" stop-color="#FFAD61"/>
</linearGradient>
<linearGradient id="paint31_linear_2:429" x1="170.736" y1="142.964" x2="171.988" y2="158.895" gradientUnits="userSpaceOnUse">
<stop offset="0.003597" stop-color="#26264F"/>
<stop offset="1" stop-color="#444B8C"/>
</linearGradient>
<linearGradient id="paint32_linear_2:429" x1="173.64" y1="151.443" x2="174.645" y2="148.808" gradientUnits="userSpaceOnUse">
<stop stop-color="#FCDAC2"/>
<stop offset="0.9964" stop-color="#FFAD61"/>
</linearGradient>
<linearGradient id="paint33_linear_2:429" x1="191.815" y1="141.101" x2="193.07" y2="157.073" gradientUnits="userSpaceOnUse">
<stop offset="0.003597" stop-color="#26264F"/>
<stop offset="1" stop-color="#444B8C"/>
</linearGradient>
<linearGradient id="paint34_linear_2:429" x1="192.948" y1="150.219" x2="194.382" y2="146.486" gradientUnits="userSpaceOnUse">
<stop stop-color="#FCDAC2"/>
<stop offset="0.9964" stop-color="#FFAD61"/>
</linearGradient>
<linearGradient id="paint35_linear_2:429" x1="170.197" y1="125.21" x2="181.073" y2="125.21" gradientUnits="userSpaceOnUse">
<stop stop-color="#3BA4D5"/>
<stop offset="0.9964" stop-color="#033647"/>
</linearGradient>
<linearGradient id="paint36_linear_2:429" x1="173.214" y1="124.011" x2="195.109" y2="124.011" gradientUnits="userSpaceOnUse">
<stop stop-color="#3BA4D5"/>
<stop offset="0.9964" stop-color="#033647"/>
</linearGradient>
<linearGradient id="paint37_linear_2:429" x1="177.11" y1="94.0668" x2="179.481" y2="76.0478" gradientUnits="userSpaceOnUse">
<stop stop-color="#075375"/>
<stop offset="0.9964" stop-color="#013E53"/>
</linearGradient>
<linearGradient id="paint38_linear_2:429" x1="138.822" y1="65.8908" x2="141.3" y2="59.5878" gradientUnits="userSpaceOnUse">
<stop stop-color="#FCDAC2"/>
<stop offset="0.9964" stop-color="#FFAD61"/>
</linearGradient>
<linearGradient id="paint39_linear_2:429" x1="165.491" y1="87.146" x2="158.675" y2="98.4431" gradientUnits="userSpaceOnUse">
<stop offset="0.003597" stop-color="#6165D7"/>
<stop offset="1" stop-color="#AA80F9"/>
</linearGradient>
<linearGradient id="paint40_linear_2:429" x1="170.125" y1="86.7395" x2="153.24" y2="95.7269" gradientUnits="userSpaceOnUse">
<stop stop-color="#FF9085"/>
<stop offset="1" stop-color="#FB6FBB"/>
</linearGradient>
<linearGradient id="paint41_linear_2:429" x1="162.449" y1="75.3023" x2="160.445" y2="81.8608" gradientUnits="userSpaceOnUse">
<stop offset="0.003597" stop-color="#26264F"/>
<stop offset="1" stop-color="#444B8C"/>
</linearGradient>
<linearGradient id="paint42_linear_2:429" x1="169.472" y1="85.6574" x2="152.672" y2="94.5993" gradientUnits="userSpaceOnUse">
<stop stop-color="#FF9085"/>
<stop offset="1" stop-color="#FB6FBB"/>
</linearGradient>
<linearGradient id="paint43_linear_2:429" x1="170.269" y1="94.2366" x2="170.736" y2="90.5743" gradientUnits="userSpaceOnUse">
<stop stop-color="#FCDAC2"/>
<stop offset="0.9964" stop-color="#FFAD61"/>
</linearGradient>
<linearGradient id="paint44_linear_2:429" x1="167.964" y1="71.5088" x2="169.185" y2="63.8428" gradientUnits="userSpaceOnUse">
<stop stop-color="#FCDAC2"/>
<stop offset="0.9964" stop-color="#FFAD61"/>
</linearGradient>
<linearGradient id="paint45_linear_2:429" x1="166.938" y1="67.275" x2="168.348" y2="62.6439" gradientUnits="userSpaceOnUse">
<stop stop-color="#FCDAC2"/>
<stop offset="0.9964" stop-color="#FFAD61"/>
</linearGradient>
<linearGradient id="paint46_linear_2:429" x1="171.498" y1="200.982" x2="190.328" y2="200.982" gradientUnits="userSpaceOnUse">
<stop stop-color="#3BA4D5"/>
<stop offset="0.9964" stop-color="#08536C"/>
</linearGradient>
<linearGradient id="paint47_linear_2:429" x1="174.16" y1="206.625" x2="196.846" y2="206.625" gradientUnits="userSpaceOnUse">
<stop stop-color="#3BA4D5"/>
<stop offset="0.9964" stop-color="#08536C"/>
</linearGradient>
<linearGradient id="paint48_linear_2:429" x1="179.732" y1="218.001" x2="216.938" y2="218.001" gradientUnits="userSpaceOnUse">
<stop stop-color="#3BA4D5"/>
<stop offset="0.9964" stop-color="#08536C"/>
</linearGradient>
<linearGradient id="paint49_linear_2:429" x1="163.607" y1="173.889" x2="174.301" y2="223.643" gradientUnits="userSpaceOnUse">
<stop stop-color="#3496B9"/>
<stop offset="0.9964" stop-color="#176F8E"/>
</linearGradient>
</defs>
</svg>
