<svg width="80" height="80" viewBox="0 0 80 80" fill="none" xmlns="http://www.w3.org/2000/svg">
<path d="M57.0036 8.62731C46.207 4.40309 31.2561 6.00793 22.9939 13.5507C17.1602 18.8765 21.6753 20.3945 25.6527 30.1398C28.5312 37.1929 0 36.2222 0 48.9672C0 63.7014 20.6642 60.9084 28.3327 62.595C40.057 65.1737 50.2852 74.8203 62.812 73.5486C73.7175 72.4414 77.875 63.8837 79.3916 54.0733C82.2169 35.7958 75.2777 15.7773 57.0036 8.62731Z" fill="url(#paint0_linear)"/>
<path d="M65.3343 18.7256C65.3343 13.9478 62.8284 9.75601 59.0596 7.39062V16.5212C59.0596 17.3761 58.6097 18.1679 57.8751 18.6055L53.2017 21.3898C52.4365 21.8456 51.4832 21.8456 50.718 21.3898L46.0446 18.6053C45.3101 18.1678 44.8601 17.3759 44.8601 16.521V7.39062C41.1325 9.73025 38.6401 13.8566 38.5863 18.5695C38.5198 24.3821 42.2281 29.411 47.4201 31.301V59.5774C47.4201 62.0846 49.4526 64.117 51.9598 64.117C54.4671 64.117 56.4995 62.0846 56.4995 59.5774V31.3085C61.6514 29.4496 65.3343 24.518 65.3343 18.7256Z" fill="#D4D9FF"/>
<path d="M59.0596 7.39062V13.5981C59.7158 15.1772 60.0782 16.9089 60.0782 18.7256C60.0782 24.2173 56.7678 28.9353 52.0337 30.9945C51.5541 31.2032 51.2436 31.6755 51.2436 32.1985V59.5774C51.2436 61.1053 50.4888 62.4567 49.332 63.2795C50.0736 63.8069 50.9807 64.117 51.96 64.117C54.4673 64.117 56.4997 62.0845 56.4997 59.5773V31.3086C61.6515 29.4498 65.3345 24.5181 65.3345 18.7256C65.3343 13.9478 62.8284 9.75601 59.0596 7.39062Z" fill="#C7CDFF"/>
<path d="M29.036 58.4441H40.6768V72.6083H29.036V58.4441Z" fill="#FFF5B5"/>
<path d="M35.4207 58.4441H40.6768V72.6083H35.4207V58.4441Z" fill="#FFEF8F"/>
<path d="M52.3177 40.7134H63.9586V72.6083H52.3177V40.7134Z" fill="#A6F5CF"/>
<path d="M58.7024 40.7134H63.9585V72.6083H58.7024V40.7134Z" fill="#8AEDBD"/>
<path d="M40.6769 49.9023H52.3177V72.6082H40.6769V49.9023Z" fill="#FF8CCC"/>
<path d="M47.0616 49.9023H52.3177V72.6082H47.0616V49.9023Z" fill="#FF78C2"/>
<path d="M22.992 68.0872H29.7273C30.9644 68.0872 31.9672 67.0843 31.9672 65.8473C31.9672 64.6103 30.9644 63.6074 29.7273 63.6074H22.992C21.755 63.6074 20.7521 64.6103 20.7521 65.8473C20.7521 67.0843 21.755 68.0872 22.992 68.0872Z" fill="#7776D0"/>
<path d="M29.7274 63.6066H24.4713C25.7083 63.6066 26.7111 64.6094 26.7111 65.8465C26.7111 67.0835 25.7083 68.0864 24.4713 68.0864H29.7274C30.9644 68.0864 31.9673 67.0835 31.9673 65.8465C31.9673 64.6094 30.9644 63.6066 29.7274 63.6066Z" fill="#6967BF"/>
<path d="M22.992 72.5657H29.7273C30.9644 72.5657 31.9672 71.5629 31.9672 70.3258C31.9672 69.0888 30.9644 68.0859 29.7273 68.0859H22.992C21.755 68.0859 20.7521 69.0888 20.7521 70.3258C20.7521 71.5629 21.755 72.5657 22.992 72.5657Z" fill="#D4D9FF"/>
<path d="M29.7274 68.0858H24.4713C25.7083 68.0858 26.7111 69.0887 26.7111 70.3257C26.7111 71.5629 25.7083 72.5657 24.4713 72.5657H29.7274C30.9644 72.5657 31.9673 71.5629 31.9673 70.3257C31.9673 69.0887 30.9644 68.0858 29.7274 68.0858Z" fill="#C7CDFF"/>
<path d="M10.5278 42.3928C10.5278 33.5189 17.8292 26.3504 26.7524 26.5664C35.0462 26.7672 41.8456 33.4524 42.1783 41.7416C42.3523 46.077 40.7797 50.0422 38.1092 52.9972C37.1639 54.0432 36.6557 55.4091 36.7032 56.819C36.7032 60.5668 33.6649 63.6049 29.917 63.6049H22.8021C19.0542 63.6049 16.0159 60.5668 16.0159 56.819C16.0472 55.4414 15.5891 54.0719 14.6541 53.0458C12.0918 50.2339 10.5278 46.4969 10.5278 42.3928Z" fill="#FFD54D"/>
<path d="M42.1783 41.7417C41.8456 33.4525 35.0462 26.7673 26.7524 26.5665C25.7189 26.5415 24.7071 26.6156 23.726 26.7799C30.9773 28.001 36.6199 34.2092 36.9222 41.7418C37.0962 46.0772 35.5236 50.0424 32.8531 52.9974C31.9078 54.0434 31.3996 55.4093 31.447 56.8193C31.447 60.567 28.4088 63.6052 24.6609 63.6052H29.917C33.6649 63.6052 36.7032 60.567 36.7032 56.8193C36.6557 55.4093 37.1639 54.0434 38.1092 52.9974C40.7797 50.0423 42.3523 46.0771 42.1783 41.7417Z" fill="#FFC919"/>
<path d="M63.9586 39.7278H57.4852V31.9824C62.7976 29.7665 66.3198 24.5251 66.3198 18.7254C66.3198 13.7524 63.8016 9.20301 59.5835 6.55577C58.9007 6.12727 58.074 6.68652 58.074 7.39057V16.5211C58.074 17.0261 57.8045 17.5002 57.3706 17.7587L52.6973 20.5428C52.2424 20.8138 51.6773 20.8139 51.2224 20.5428L46.5489 17.7587C46.115 17.5002 45.8455 17.026 45.8455 16.5211V7.39057C45.8455 6.68678 45.0189 6.12713 44.3361 6.55577C40.1747 9.16754 37.6569 13.6544 37.6008 18.5581C37.5338 24.4119 41.0568 29.7171 46.4346 31.9732V48.9168H41.8647C42.8138 46.6656 43.2639 44.2132 43.1631 41.7021C42.8088 32.8763 35.6108 25.795 26.7762 25.5811C23.4342 25.5003 20.1852 26.3971 17.3767 28.175C16.3 28.8563 17.3545 30.5226 18.4308 29.8404C20.9092 28.2716 23.7785 27.4796 26.7284 27.5516C34.5269 27.7404 40.8807 33.9907 41.1935 41.7811C41.3504 45.6914 39.9953 49.4399 37.3779 52.3364C36.2556 53.5782 35.6664 55.175 35.7176 56.8342C35.7094 60.0256 33.1105 62.6194 29.917 62.6194H27.345V48.1892H31.2259C31.7702 48.1892 32.2114 47.7481 32.2114 47.2037C32.2114 46.6593 31.7702 46.2182 31.2259 46.2182H21.4931C20.9489 46.2182 20.5076 46.6593 20.5076 47.2037C20.5076 47.7481 20.9489 48.1892 21.4931 48.1892H25.374V62.6194H22.8021C19.6069 62.6194 17.0068 60.023 17.0014 56.8292C17.0367 55.1457 16.4621 53.5669 15.3825 52.382C12.8873 49.6438 11.5132 46.0962 11.5132 42.3926C11.5132 38.9705 12.6449 35.7552 14.7857 33.0943C15.5845 32.1016 14.0484 30.8657 13.25 31.8589C10.859 34.8307 9.54218 38.5717 9.54218 42.3926C9.54218 46.5885 11.0989 50.6076 13.9256 53.7094C14.6649 54.521 15.0574 55.6174 15.0306 56.7966C15.0305 56.8041 15.0304 56.8115 15.0304 56.819C15.0304 60.2085 17.2118 63.0982 20.2446 64.1581C19.4893 65.3828 19.6757 67.0538 20.6729 68.086C18.7514 70.0749 20.2214 73.5937 22.9919 73.5937H63.9586C64.5031 73.5937 64.9442 73.1526 64.9442 72.6082V40.7133C64.9442 40.169 64.5031 39.7278 63.9586 39.7278ZM47.7573 30.3748C42.8012 28.5708 39.5116 23.8311 39.5718 18.5807C39.613 14.9811 41.1923 11.6415 43.8746 9.33718V16.5211C43.8746 17.7169 44.5127 18.8398 45.5402 19.4521L50.2135 22.2362C51.2909 22.8784 52.6291 22.878 53.7062 22.2363L58.3795 19.4522C59.4068 18.8401 60.0451 17.7171 60.0451 16.5212V9.33626C62.7683 11.6729 64.3488 15.0663 64.3488 18.7254C64.3488 23.9309 61.06 28.6152 56.1651 30.3814C55.7745 30.5222 55.5142 30.8932 55.5142 31.3084V39.7278H52.3178C51.7734 39.7278 51.3323 40.1689 51.3323 40.7133V48.9168H48.4058V31.3009C48.4058 30.8865 48.1467 30.5166 47.7573 30.3748ZM38.8404 53.6579C39.1387 53.3279 39.4224 52.988 39.6915 52.6393V57.4585H37.6627C37.7796 56.0294 37.7985 54.8109 38.8404 53.6579ZM37.2377 59.4296H39.6915V71.6227H32.6804C33.195 70.4556 32.933 69.0038 32.0463 68.086C33.0428 67.0545 33.229 65.3811 32.4746 64.1581C34.6884 63.3845 36.4485 61.6359 37.2377 59.4296ZM29.7273 67.1002H22.9919C21.3797 67.1002 21.3726 64.592 22.9919 64.592H29.7273C31.3465 64.592 31.3394 67.1002 29.7273 67.1002ZM21.7376 70.3257C21.7376 69.6398 22.3073 69.0719 22.9919 69.0719H29.7273C31.3393 69.0719 31.3465 71.5801 29.7273 71.5801H22.9919C22.3004 71.5801 21.7376 71.0175 21.7376 70.3257ZM62.9731 71.6227H53.3033V67.3415C53.3033 66.0672 51.3323 66.0672 51.3323 67.3415V71.6227H41.6625V50.8878H51.3323V62.0914C51.3323 63.3656 53.3033 63.3656 53.3033 62.0914V41.699H62.9731V71.6227Z" fill="#2626BC"/>
<path d="M26.3596 24.134C27.6279 24.134 27.63 22.163 26.3596 22.163C25.0913 22.163 25.0892 24.134 26.3596 24.134Z" fill="#2626BC"/>
<path d="M9.55629 51.1218C8.28799 51.1218 8.28589 53.0929 9.55629 53.0929C10.8246 53.0929 10.8266 51.1218 9.55629 51.1218Z" fill="#2626BC"/>
<path d="M7.27376 44.8086C6.00546 44.8086 6.00336 46.7796 7.27376 46.7796C8.54207 46.7796 8.54417 44.8086 7.27376 44.8086Z" fill="#2626BC"/>
<path d="M7.28829 38.0955C6.01999 38.0955 6.01788 40.0665 7.28829 40.0665C8.55646 40.0665 8.55856 38.0955 7.28829 38.0955Z" fill="#2626BC"/>
<path d="M9.59783 33.763C10.8661 33.763 10.8682 31.792 9.59783 31.792C8.32953 31.792 8.32742 33.763 9.59783 33.763Z" fill="#2626BC"/>
<path d="M13.9244 28.6296C15.1927 28.6296 15.1948 26.6586 13.9244 26.6586C12.6561 26.6586 12.654 28.6296 13.9244 28.6296Z" fill="#2626BC"/>
<path d="M19.5327 25.364C20.801 25.364 20.8031 23.3929 19.5327 23.3929C18.2644 23.3929 18.2623 25.364 19.5327 25.364Z" fill="#2626BC"/>
<path d="M33.3766 25.364C34.6449 25.364 34.647 23.3929 33.3766 23.3929C32.1083 23.3929 32.1062 25.364 33.3766 25.364Z" fill="#2626BC"/>
<path d="M69.298 73.5938C69.8423 73.5938 70.2835 73.1526 70.2835 72.6083C70.2835 72.064 69.8423 71.6228 69.298 71.6228C68.7537 71.6228 68.3124 72.064 68.3124 72.6083C68.3124 73.1526 68.7537 73.5938 69.298 73.5938Z" fill="#2626BC"/>
<path d="M69.298 63.0815C69.8423 63.0815 70.2835 62.6403 70.2835 62.096C70.2835 61.5517 69.8423 61.1105 69.298 61.1105C68.7537 61.1105 68.3124 61.5517 68.3124 62.096C68.3124 62.6403 68.7537 63.0815 69.298 63.0815Z" fill="#2626BC"/>
<path d="M69.298 68.3376C69.8423 68.3376 70.2835 67.8964 70.2835 67.3521C70.2835 66.8078 69.8423 66.3666 69.298 66.3666C68.7537 66.3666 68.3124 66.8078 68.3124 67.3521C68.3124 67.8964 68.7537 68.3376 69.298 68.3376Z" fill="#2626BC"/>
<path d="M69.298 57.8254C69.8423 57.8254 70.2835 57.3842 70.2835 56.8399C70.2835 56.2956 69.8423 55.8544 69.298 55.8544C68.7537 55.8544 68.3124 56.2956 68.3124 56.8399C68.3124 57.3842 68.7537 57.8254 69.298 57.8254Z" fill="#2626BC"/>
<path d="M73.3699 30.7042L69.9795 27.4747C69.6038 27.115 68.9914 27.115 68.6159 27.4747L65.2254 30.7042C64.3027 31.583 65.6622 33.0103 66.5849 32.1313L68.3123 30.4861V51.3255C68.3123 51.8699 68.7535 52.311 69.2979 52.311C69.8423 52.311 70.2834 51.8699 70.2834 51.3255V30.4862L72.0108 32.1315C72.9284 33.0056 74.2956 31.586 73.3699 30.7042Z" fill="#2626BC"/>
<defs>
<linearGradient id="paint0_linear" x1="43.4567" y1="76.8704" x2="36.5817" y2="16.5579" gradientUnits="userSpaceOnUse">
<stop stop-color="#C7D3FF"/>
<stop offset="0.593" stop-color="#E7D8F5"/>
<stop offset="0.997" stop-color="#FFDBED"/>
</linearGradient>
</defs>
</svg>
