<svg width="18" height="18" viewBox="0 0 18 18" fill="none" xmlns="http://www.w3.org/2000/svg">
<path fill-rule="evenodd" clip-rule="evenodd" d="M16.3389 5.35293L15.8202 4.45285C15.3814 3.69125 14.4089 3.42852 13.6463 3.86552V3.86552C13.2832 4.07937 12.85 4.14005 12.4422 4.03416C12.0344 3.92827 11.6855 3.66452 11.4723 3.30106C11.3352 3.07004 11.2616 2.80691 11.2588 2.53828V2.53828C11.2711 2.1076 11.1087 1.69025 10.8083 1.38131C10.508 1.07237 10.0954 0.898138 9.66457 0.898316H8.61956C8.19745 0.898311 7.79274 1.06651 7.49498 1.36571C7.19722 1.6649 7.03096 2.07041 7.03299 2.49252V2.49252C7.02048 3.36402 6.31038 4.06393 5.43878 4.06384C5.17016 4.06105 4.90703 3.98737 4.67601 3.85026V3.85026C3.91336 3.41326 2.94091 3.676 2.5021 4.4376L1.94527 5.35293C1.50699 6.11358 1.76615 7.08542 2.52498 7.52684V7.52684C3.01823 7.81162 3.32209 8.33791 3.32209 8.90747C3.32209 9.47703 3.01823 10.0033 2.52498 10.2881V10.2881C1.76711 10.7265 1.50767 11.696 1.94527 12.4544V12.4544L2.47158 13.3621C2.67719 13.7331 3.02215 14.0068 3.43014 14.1228C3.83813 14.2387 4.27551 14.1873 4.6455 13.9799V13.9799C5.00921 13.7677 5.44264 13.7096 5.84943 13.8184C6.25622 13.9273 6.60268 14.1941 6.81178 14.5596C6.94889 14.7907 7.02257 15.0538 7.02536 15.3224V15.3224C7.02536 16.2029 7.73911 16.9166 8.61956 16.9166H9.66457C10.542 16.9166 11.2546 16.2075 11.2588 15.33V15.33C11.2567 14.9066 11.424 14.4999 11.7234 14.2005C12.0229 13.9011 12.4295 13.7338 12.853 13.7358C13.121 13.743 13.383 13.8164 13.6157 13.9494V13.9494C14.3764 14.3877 15.3482 14.1285 15.7897 13.3697V13.3697L16.3389 12.4544C16.5514 12.0895 16.6098 11.6549 16.501 11.2469C16.3922 10.8389 16.1252 10.491 15.7591 10.2805V10.2805C15.3931 10.0699 15.1261 9.72207 15.0173 9.31404C14.9085 8.90601 14.9669 8.47143 15.1794 8.10655C15.3177 7.8652 15.5178 7.66508 15.7591 7.52684V7.52684C16.5134 7.08566 16.772 6.1195 16.3389 5.36056V5.36056V5.35293Z" stroke="#153059" stroke-width="1.5" stroke-linecap="round" stroke-linejoin="round"/>
<ellipse cx="9.14589" cy="8.90749" rx="2.1968" ry="2.1968" stroke="#153059" stroke-width="1.5" stroke-linecap="round" stroke-linejoin="round"/>
</svg>
