<svg width="40" height="22" viewBox="0 0 40 22" fill="none" xmlns="http://www.w3.org/2000/svg">
<rect x="1" y="1" width="38" height="20" fill="#F7F9FF" stroke="#C4D7E7" stroke-width="0.5"/>
<path d="M13.7872 9.63636H13.1288V14H13.7872V9.63636ZM14.746 9.63636V14H15.3724V10.8402H15.4129L16.6998 13.9936H17.2197L18.5067 10.8423H18.5471V14H19.1736V9.63636H18.3746L16.9854 13.0284H16.9342L15.545 9.63636H14.746ZM20.1308 14H20.7892V12.4659H21.684C22.6961 12.4659 23.1968 11.8544 23.1968 11.049C23.1968 10.2457 22.7004 9.63636 21.6862 9.63636H20.1308V14ZM20.7892 11.9077V10.201H21.6159C22.2678 10.201 22.5342 10.5547 22.5342 11.049C22.5342 11.5433 22.2678 11.9077 21.6244 11.9077H20.7892ZM26.3486 10.7827H26.9836C26.9644 10.0838 26.3465 9.5767 25.4601 9.5767C24.5844 9.5767 23.9133 10.0774 23.9133 10.8295C23.9133 11.4368 24.3479 11.7926 25.0489 11.9822L25.5645 12.1229C26.0312 12.2464 26.3912 12.3999 26.3912 12.7876C26.3912 13.2138 25.9843 13.495 25.4239 13.495C24.9168 13.495 24.4949 13.2692 24.4566 12.794H23.7961C23.8387 13.5845 24.4502 14.0724 25.4282 14.0724C26.453 14.0724 27.0432 13.5334 27.0432 12.794C27.0432 12.0078 26.3422 11.7031 25.7883 11.5668L25.3621 11.456C25.0212 11.3686 24.5674 11.2088 24.5695 10.7912C24.5695 10.4205 24.9083 10.1456 25.4452 10.1456C25.9459 10.1456 26.3018 10.38 26.3486 10.7827Z" fill="#153059"/>
</svg>
