<svg width="17" height="17" viewBox="0 0 17 17" fill="none" xmlns="http://www.w3.org/2000/svg">
<path d="M8.45044 1.968C10.5495 1.968 10.7964 1.9731 11.6299 2.01393C12.3964 2.04455 12.808 2.17723 13.0858 2.2844C13.4511 2.4273 13.7135 2.60081 13.9861 2.87639C14.2588 3.15197 14.4337 3.41735 14.5778 3.78479C14.6858 4.06547 14.8093 4.48394 14.8505 5.25965C14.8916 6.0966 14.8968 6.34666 14.8968 8.46455C14.8968 10.5824 14.8916 10.8325 14.8505 11.6694C14.8196 12.4401 14.691 12.8636 14.5778 13.1443C14.4337 13.5118 14.264 13.7771 13.9861 14.0527C13.7135 14.3283 13.4511 14.5018 13.0858 14.6447C12.808 14.757 12.3913 14.8845 11.6299 14.9152C10.8016 14.956 10.5495 14.9611 8.45044 14.9611C6.3514 14.9611 6.10445 14.956 5.27101 14.9152C4.50445 14.8845 4.09287 14.7519 3.81505 14.6447C3.44978 14.5018 3.1874 14.3283 2.91473 14.0527C2.64206 13.7771 2.46714 13.5118 2.32309 13.1443C2.21505 12.8636 2.09158 12.4452 2.05042 11.6694C2.00926 10.8325 2.00412 10.5824 2.00412 8.46455C2.00412 6.34666 2.00926 6.0966 2.05042 5.25965C2.08129 4.48905 2.2099 4.06547 2.32309 3.78479C2.46714 3.41735 2.63692 3.15197 2.91473 2.87639C3.1874 2.60081 3.44978 2.4273 3.81505 2.2844C4.09287 2.17213 4.50959 2.04455 5.27101 2.01393C6.09931 1.9782 6.3514 1.968 8.45044 1.968ZM8.45044 0.539062C6.31538 0.539062 6.04786 0.549269 5.21442 0.590096C4.38097 0.630923 3.80476 0.76361 3.30573 0.957537C2.78611 1.16167 2.34881 1.43215 1.91666 1.87614C1.47936 2.32013 1.21183 2.75901 1.01119 3.28466C0.815687 3.78479 0.681925 4.36657 0.645912 5.20862C0.604754 6.05067 0.599609 6.32115 0.599609 8.47475C0.599609 10.6284 0.609899 10.8988 0.645912 11.7409C0.68707 12.5829 0.820832 13.1596 1.01119 13.6649C1.21183 14.1854 1.47936 14.6294 1.91666 15.0734C2.35396 15.5174 2.79126 15.7878 3.30573 15.992C3.80476 16.191 4.38097 16.3237 5.21442 16.3594C6.053 16.4002 6.32053 16.4104 8.45044 16.4104C10.5804 16.4104 10.853 16.4002 11.6865 16.3594C12.5199 16.3186 13.0961 16.1859 13.5952 15.992C14.1148 15.7878 14.5521 15.5174 14.9842 15.0734C15.4215 14.6294 15.689 14.1905 15.8897 13.6649C16.0852 13.1647 16.219 12.5829 16.255 11.7409C16.2961 10.8988 16.3013 10.6284 16.3013 8.47475C16.3013 6.32115 16.291 6.05067 16.255 5.20862C16.2138 4.36657 16.08 3.78989 15.8897 3.28466C15.689 2.76412 15.4215 2.32013 14.9842 1.87614C14.5469 1.43215 14.1096 1.16167 13.5952 0.957537C13.0961 0.758506 12.5199 0.625819 11.6865 0.590096C10.853 0.549269 10.5804 0.539062 8.45044 0.539062Z" fill="#A53C9B"/>
<path d="M8.45044 4.39795C6.21764 4.39795 4.41699 6.21982 4.41699 8.47036C4.41699 10.7209 6.22278 12.5428 8.45044 12.5428C10.6781 12.5428 12.4839 10.7209 12.4839 8.47036C12.4839 6.21982 10.6781 4.39795 8.45044 4.39795ZM8.45044 11.1139C7.00478 11.1139 5.83179 9.935 5.83179 8.47036C5.83179 7.00572 7.00478 5.82687 8.45044 5.82687C9.8961 5.82687 11.0691 7.00572 11.0691 8.47036C11.0691 9.935 9.8961 11.1139 8.45044 11.1139Z" fill="#A53C9B"/>
<path d="M12.6436 5.18604C13.1636 5.18604 13.5851 4.76073 13.5851 4.23608C13.5851 3.71144 13.1636 3.28613 12.6436 3.28613C12.1237 3.28613 11.7021 3.71144 11.7021 4.23608C11.7021 4.76073 12.1237 5.18604 12.6436 5.18604Z" fill="#A53C9B"/>
</svg>
