<svg width="18" height="18" viewBox="0 0 18 18" fill="none" xmlns="http://www.w3.org/2000/svg">
<path d="M11.0996 6C12.2931 6 13.4377 6.47411 14.2816 7.31802C15.1255 8.16193 15.5996 9.30653 15.5996 10.5V15.75H12.5996V10.5C12.5996 10.1022 12.4416 9.72064 12.1603 9.43934C11.879 9.15804 11.4974 9 11.0996 9C10.7018 9 10.3203 9.15804 10.039 9.43934C9.75765 9.72064 9.59961 10.1022 9.59961 10.5V15.75H6.59961V10.5C6.59961 9.30653 7.07372 8.16193 7.91763 7.31802C8.76154 6.47411 9.90614 6 11.0996 6Z" fill="#0272B1"/>
<path d="M5.40039 6.75H2.40039V15.75H5.40039V6.75Z" fill="#0272B1"/>
<path d="M3.90039 4.5C4.72882 4.5 5.40039 3.82843 5.40039 3C5.40039 2.17157 4.72882 1.5 3.90039 1.5C3.07196 1.5 2.40039 2.17157 2.40039 3C2.40039 3.82843 3.07196 4.5 3.90039 4.5Z" fill="#0272B1"/>
</svg>
