<svg xmlns="http://www.w3.org/2000/svg" width="199" height="131" viewBox="0 0 199 131">
  <g id="Listen" transform="translate(-5233 -1486)">
    <rect id="Rectangle_109" data-name="Rectangle 109" width="199" height="131" rx="20" transform="translate(5233 1486)" fill="#f20192"/>
    <g id="Listen-2" data-name="Listen" transform="translate(5256.243 1539.646)">
      <g id="Layer_1" data-name="Layer 1">
        <path id="Path_57" data-name="Path 57" d="M181.751,20.06a1.885,1.885,0,0,1,2.431-.21,11.487,11.487,0,0,0,6.359,2.289,7.794,7.794,0,0,0,4.163-1.1,2.632,2.632,0,0,0,1.432-2.139,1.569,1.569,0,0,0-.3-.95,2.98,2.98,0,0,0-1-.891,14.341,14.341,0,0,0-4.559-1.4h-.067a19.649,19.649,0,0,1-4.3-1.16,7.02,7.02,0,0,1-3.107-2.33,4.194,4.194,0,0,1-.777-2.436A5.369,5.369,0,0,1,184.7,5.4a10.7,10.7,0,0,1,5.761-1.574,13.948,13.948,0,0,1,7.25,2.377,1.423,1.423,0,0,1,.466,2.11,1.812,1.812,0,0,1-2.364.445,10.347,10.347,0,0,0-5.36-1.9,6.921,6.921,0,0,0-3.731,1.01,2.332,2.332,0,0,0-1.266,1.872,1.336,1.336,0,0,0,.233.834,3.133,3.133,0,0,0,.9.777,12.424,12.424,0,0,0,4.161,1.308h.067a21.439,21.439,0,0,1,4.6,1.248,7.626,7.626,0,0,1,3.33,2.465,4.438,4.438,0,0,1,.8,2.524,5.634,5.634,0,0,1-2.864,4.606,11.4,11.4,0,0,1-6.162,1.693,15.34,15.34,0,0,1-8.523-2.972,1.463,1.463,0,0,1-.238-2.159Z" transform="translate(-134.419 -2.834)" fill="#fff"/>
        <path id="Path_58" data-name="Path 58" d="M188.034,23.738h0a16.191,16.191,0,0,1-9.062-3.143h-.013a2.211,2.211,0,0,1-.409-3.286l.016-.016a2.685,2.685,0,0,1,1.763-.852,2.848,2.848,0,0,1,1.924.518,10.631,10.631,0,0,0,5.774,2.108h0a6.883,6.883,0,0,0,3.625-.945,1.9,1.9,0,0,0,1.062-1.489.826.826,0,0,0-.171-.536,2.162,2.162,0,0,0-.722-.632,13.488,13.488,0,0,0-4.143-1.264h-.062l-.091-.016a20.558,20.558,0,0,1-4.513-1.219,7.778,7.778,0,0,1-3.459-2.618,4.966,4.966,0,0,1-.9-2.866A6.1,6.1,0,0,1,181.677,2.5h0A11.724,11.724,0,0,1,187.969.767a14.88,14.88,0,0,1,7.664,2.457l.111.062a2.18,2.18,0,0,1,.7,3.216,2.589,2.589,0,0,1-1.631,1.012,2.848,2.848,0,0,1-1.988-.339,9.4,9.4,0,0,0-4.86-1.766,5.937,5.937,0,0,0-3.192.854c-.6.394-.9.805-.9,1.222a.619.619,0,0,0,.1.406,2.242,2.242,0,0,0,.647.536,11.525,11.525,0,0,0,3.734,1.163h.062l.093.016a22.08,22.08,0,0,1,4.811,1.318h0a8.394,8.394,0,0,1,3.7,2.765,5.178,5.178,0,0,1,.937,2.949,6.385,6.385,0,0,1-3.236,5.259A12.242,12.242,0,0,1,188.034,23.738Zm-7.964-4.4a14.37,14.37,0,0,0,7.962,2.791,10.367,10.367,0,0,0,5.621-1.535h0a4.841,4.841,0,0,0,2.488-3.951,3.684,3.684,0,0,0-.663-2.1,6.755,6.755,0,0,0-2.954-2.167,20.268,20.268,0,0,0-4.293-1.168h-.06l-.075-.023a13.227,13.227,0,0,1-4.513-1.437,3.858,3.858,0,0,1-1.15-1.007,2.072,2.072,0,0,1-.373-1.261,3.039,3.039,0,0,1,1.631-2.519,7.92,7.92,0,0,1,4.27-1.168,11.117,11.117,0,0,1,5.862,2.038.867.867,0,0,0,.606.1.777.777,0,0,0,.489-.306l.026-.034a.6.6,0,0,0,.109-.518.777.777,0,0,0-.339-.469l-.07-.039a13.007,13.007,0,0,0-6.683-2.2,9.751,9.751,0,0,0-5.227,1.419,4.565,4.565,0,0,0-2.294,3.687,3.48,3.48,0,0,0,.629,2.009,6.134,6.134,0,0,0,2.716,2.017,18.515,18.515,0,0,0,4,1.08h.057l.085.016a15.364,15.364,0,0,1,4.893,1.512h0a3.835,3.835,0,0,1,1.271,1.147,2.286,2.286,0,0,1,.43,1.364,3.341,3.341,0,0,1-1.812,2.791,8.788,8.788,0,0,1-4.689,1.253h-.091a12.528,12.528,0,0,1-6.848-2.473.919.919,0,0,0-.608-.163.857.857,0,0,0-.544.259.715.715,0,0,0,.145,1.049Z" transform="translate(-131.911 -0.568)" fill="#fff"/>
        <path id="Path_59" data-name="Path 59" d="M60.65,20.8V2.348A2.5,2.5,0,0,1,63.281,0h.733a2.5,2.5,0,0,1,2.631,2.348V16.107a2.5,2.5,0,0,0,2.633,2.348h7.309A2.5,2.5,0,0,1,79.217,20.8h0a2.5,2.5,0,0,1-2.631,2.348H63.281A2.5,2.5,0,0,1,60.65,20.8Z" transform="translate(-44.947)" fill="#fff"/>
        <path id="Path_60" data-name="Path 60" d="M142.45,21.056V3.426A2.821,2.821,0,0,1,145.417.78h0a2.821,2.821,0,0,1,2.967,2.646V21.058a2.821,2.821,0,0,1-2.967,2.646h0A2.825,2.825,0,0,1,142.45,21.056Z" transform="translate(-105.568 -0.578)" fill="#fff"/>
        <path id="Path_61" data-name="Path 61" d="M280.822,5.368h-2.6A2.476,2.476,0,0,0,275.61,7.7V21.317a2.473,2.473,0,0,1-2.6,2.33h-.725a2.473,2.473,0,0,1-2.6-2.33V7.691a2.484,2.484,0,0,0-2.607-2.33h-2.641a2.476,2.476,0,0,1-2.607-2.33h0A2.476,2.476,0,0,1,264.427.7h16.395a2.476,2.476,0,0,1,2.607,2.33h0A2.48,2.48,0,0,1,280.822,5.368Z" transform="translate(-194.031 -0.519)" fill="#fff"/>
        <path id="Path_62" data-name="Path 62" d="M374.519,21.149v.35a2.288,2.288,0,0,1-2.408,2.146H358.865A2.287,2.287,0,0,1,356.46,21.5V2.856A2.287,2.287,0,0,1,358.865.71h12.922a2.287,2.287,0,0,1,2.405,2.146v.355a2.289,2.289,0,0,1-2.405,2.149H364.8a2.288,2.288,0,0,0-2.408,2.146v.161A2.29,2.29,0,0,0,364.8,9.816h5.321a2.287,2.287,0,0,1,2.405,2.146h0a2.287,2.287,0,0,1-2.405,2.146H364.8a2.288,2.288,0,0,0-2.408,2.146v.583a2.288,2.288,0,0,0,2.408,2.146h7.309A2.312,2.312,0,0,1,374.519,21.149Z" transform="translate(-264.167 -0.526)" fill="#fff"/>
        <path id="Path_63" data-name="Path 63" d="M446.124,18.1v2.954a2.821,2.821,0,0,1-2.967,2.646h0a2.821,2.821,0,0,1-2.967-2.646V3.425A2.821,2.821,0,0,1,443.157.779h.233a3.107,3.107,0,0,1,2.33,1l5.789,6.512c1.748,1.963,5.292.86,5.292-1.647V3.425A2.821,2.821,0,0,1,459.769.779h0a2.824,2.824,0,0,1,2.97,2.646V21.057a2.824,2.824,0,0,1-2.97,2.646h-.388a3.107,3.107,0,0,1-2.312-.986L451.4,16.441C449.648,14.494,446.124,15.594,446.124,18.1Z" transform="translate(-326.218 -0.577)" fill="#fff"/>
        <rect id="Rectangle_96" data-name="Rectangle 96" width="3.441" height="9.481" rx="1.72" transform="translate(0 6.983)" fill="#fff"/>
        <rect id="Rectangle_97" data-name="Rectangle 97" width="3.441" height="14.279" rx="1.72" transform="translate(5.002 4.583)" fill="#fff"/>
        <rect id="Rectangle_98" data-name="Rectangle 98" width="3.441" height="20.413" rx="1.72" transform="translate(10.186 1.517)" fill="#fff"/>
        <rect id="Rectangle_99" data-name="Rectangle 99" width="3.441" height="9.481" rx="1.72" transform="translate(152.224 16.462) rotate(180)" fill="#fff"/>
        <rect id="Rectangle_100" data-name="Rectangle 100" width="3.441" height="14.279" rx="1.72" transform="translate(147.222 18.862) rotate(180)" fill="#fff"/>
        <rect id="Rectangle_101" data-name="Rectangle 101" width="3.604" height="20.413" rx="1.802" transform="translate(142.111 21.928) rotate(180)" fill="#fff"/>
      </g>
    </g>
  </g>
</svg>
