<svg xmlns="http://www.w3.org/2000/svg" width="199" height="131" viewBox="0 0 199 131">
  <g id="Loan" transform="translate(-5566 -1123)">
    <rect id="Rectangle_111" data-name="Rectangle 111" width="199" height="131" rx="20" transform="translate(5566 1123)" fill="#b13158"/>
    <g id="Group_36" data-name="Group 36" transform="translate(-1115.923 -162)">
      <g id="Group_35" data-name="Group 35" transform="translate(0 99)">
        <g id="Group_33" data-name="Group 33" transform="translate(-286 3.16)">
          <path id="Path_69" data-name="Path 69" d="M17.216,0,11.584-16a.739.739,0,0,0-.3-.416.868.868,0,0,0-.464-.128.748.748,0,0,0-.768.544L4.416,0H.672l6.24-17.5A3.536,3.536,0,0,1,8.4-19.456a4.516,4.516,0,0,1,2.416-.64,4.538,4.538,0,0,1,2.4.64,3.513,3.513,0,0,1,1.5,1.952L20.96,0ZM24.48,0V-15.232a5.006,5.006,0,0,1,.4-2.032,4.524,4.524,0,0,1,1.1-1.552,5.038,5.038,0,0,1,1.648-.992,5.77,5.77,0,0,1,2.032-.352,4.887,4.887,0,0,1,2.8.832,4.3,4.3,0,0,1,1.712,2.3L38.208-4.736a2.681,2.681,0,0,0,.464.928.934.934,0,0,0,.752.32q1.5,0,1.5-1.76v-9.984a5.006,5.006,0,0,1,.4-2.032,4.524,4.524,0,0,1,1.1-1.552,5.038,5.038,0,0,1,1.648-.992,5.77,5.77,0,0,1,2.032-.352,4.769,4.769,0,0,1,2.768.848,4.559,4.559,0,0,1,1.744,2.288L56.7,0H52.736L47.392-15.39a3.377,3.377,0,0,0-.48-.93.887.887,0,0,0-.736-.321q-1.5,0-1.5,1.764v10a5.024,5.024,0,0,1-.4,2.036,4.533,4.533,0,0,1-1.1,1.555,5.037,5.037,0,0,1-1.648.994,5.759,5.759,0,0,1-2.032.353,4.88,4.88,0,0,1-2.8-.834,4.311,4.311,0,0,1-1.712-2.309L30.944-15.39a2.687,2.687,0,0,0-.464-.93.933.933,0,0,0-.752-.321q-1.5,0-1.5,1.764V0ZM63.488-11.872H70.5a2.168,2.168,0,0,0,1.664-.688,2.376,2.376,0,0,0,.64-1.68,2.292,2.292,0,0,0-.672-1.632,2.137,2.137,0,0,0-1.6-.7h-7.04Zm0,8.352H70.5a2.1,2.1,0,0,0,1.7-.72A2.659,2.659,0,0,0,72.8-6.016a2.292,2.292,0,0,0-.672-1.632,2.137,2.137,0,0,0-1.6-.7h-7.04Zm6.5-16.576a8.145,8.145,0,0,1,2.928.464,5.356,5.356,0,0,1,1.968,1.264,4.692,4.692,0,0,1,1.1,1.872,7.719,7.719,0,0,1,.336,2.32,5.433,5.433,0,0,1-.512,2.208,4.057,4.057,0,0,1-1.7,1.856,4.22,4.22,0,0,1,1.68,1.84,5.451,5.451,0,0,1,.528,2.32,7.287,7.287,0,0,1-.336,2.192,5.067,5.067,0,0,1-1.088,1.9A5.456,5.456,0,0,1,72.928-.512,7.578,7.578,0,0,1,69.984,0H59.968V-20.1Z" transform="translate(7060.328 1246)" fill="#fff"/>
        </g>
        <path id="Path_102" data-name="Path 102" d="M11.3-1.466V-20.725h4.084V-4.839h7.811v3.372Zm33.8-9.656q0,4.782-2.371,7.35a8.79,8.79,0,0,1-6.8,2.569,8.79,8.79,0,0,1-6.8-2.569q-2.371-2.569-2.371-7.377t2.378-7.344a8.891,8.891,0,0,1,6.817-2.536q4.439,0,6.791,2.556T45.1-11.122Zm-14.055,0a8.045,8.045,0,0,0,1.225,4.861,4.286,4.286,0,0,0,3.662,1.633q4.887,0,4.887-6.494t-4.861-6.507a4.316,4.316,0,0,0-3.675,1.64A8.011,8.011,0,0,0,31.044-11.122ZM61.959-1.466l-1.4-4.584H53.542l-1.4,4.584h-4.4l6.8-19.338h4.992L66.359-1.466ZM59.588-9.475q-1.936-6.231-2.18-7.047t-.349-1.291q-.435,1.686-2.49,8.338ZM86.947-1.466h-5.19L73.379-16.035H73.26q.25,3.86.25,5.506v9.063H69.862V-20.725h5.151L83.377-6.3h.092q-.2-3.754-.2-5.309v-9.116h3.675Z" transform="translate(6763.701 1273.66)" fill="#fff"/>
      </g>
      <g id="loan-2" data-name="loan" transform="translate(6712.922 1325)">
        <path id="Path_83" data-name="Path 83" d="M49.644,269.9l-1.2-1.192a3.388,3.388,0,0,0-4.789,0l-7.242,7.246v-.931a2.54,2.54,0,0,0-2.54-2.54H11.856a.846.846,0,0,0-.6.248l-2.789,2.789v-1.343a.847.847,0,0,0-.847-.847H.847a.847.847,0,0,0-.847.847v16.936a.847.847,0,0,0,.847.847H7.622a.847.847,0,0,0,.847-.847v-1.343l3.738-3.738h23.36a.845.845,0,0,0,.6-.248L49.646,272.3a1.7,1.7,0,0,0,0-2.4ZM6.775,290.26H1.694V275.018H6.775Zm28.441-5.928H11.856a.848.848,0,0,0-.6.248l-2.789,2.789v-9.461l3.738-3.738H33.873a.847.847,0,0,1,.847.847v2.541H23.711v1.694H35.566a.847.847,0,0,0,.847-.847l8.44-8.5a1.693,1.693,0,0,1,2.395,0l1.2,1.2Zm0,0" transform="translate(0 -241.146)" fill="#fff"/>
        <path id="Path_84" data-name="Path 84" d="M181.74,178.289a.847.847,0,0,1-.847-.847H179.2a2.541,2.541,0,0,0,1.694,2.385v1h1.694v-1a2.535,2.535,0,0,0-.847-4.925.847.847,0,1,1,.847-.847h1.694a2.541,2.541,0,0,0-1.694-2.385v-1h-1.694v1a2.534,2.534,0,0,0,.847,4.925.847.847,0,0,1,0,1.694Zm0,0" transform="translate(-161.416 -153.732)" fill="#fff"/>
        <path id="Path_85" data-name="Path 85" d="M135.621,160.309A7.621,7.621,0,1,0,128,152.688,7.621,7.621,0,0,0,135.621,160.309Zm0-13.549a5.927,5.927,0,1,1-5.928,5.928A5.928,5.928,0,0,1,135.621,146.76Zm0,0" transform="translate(-115.298 -130.671)" fill="#fff"/>
        <path id="Path_86" data-name="Path 86" d="M238.934,213.332h1.694v1.694h-1.694Zm0,0" transform="translate(-215.223 -192.162)" fill="#fff"/>
        <path id="Path_87" data-name="Path 87" d="M153.6,213.332H155.3v1.694H153.6Zm0,0" transform="translate(-138.359 -192.162)" fill="#fff"/>
        <path id="Path_88" data-name="Path 88" d="M352.408,118.554a.847.847,0,0,1-.847-.847h-1.694a2.541,2.541,0,0,0,1.694,2.385v1h1.694v-1a2.534,2.534,0,0,0-.847-4.925.847.847,0,1,1,.847-.847h1.694a2.541,2.541,0,0,0-1.694-2.385v-1h-1.694v1a2.535,2.535,0,0,0,.847,4.925.847.847,0,0,1,0,1.694Zm0,0" transform="translate(-315.148 -99.925)" fill="#fff"/>
        <path id="Path_89" data-name="Path 89" d="M306.29,69.829a7.63,7.63,0,0,0,7.621-7.621V53.74h-1.694v3.689a7.6,7.6,0,0,0-11.855,0V51.2h-1.694V62.208a7.63,7.63,0,0,0,7.621,7.621Zm0-13.549a5.928,5.928,0,1,1-5.928,5.928A5.928,5.928,0,0,1,306.29,56.28Zm0,0" transform="translate(-269.03 -46.119)" fill="#fff"/>
        <path id="Path_90" data-name="Path 90" d="M409.6,153.6H411.3V155.3H409.6Zm0,0" transform="translate(-368.955 -138.359)" fill="#fff"/>
        <path id="Path_91" data-name="Path 91" d="M324.27,153.6h1.694V155.3H324.27Zm0,0" transform="translate(-292.091 -138.359)" fill="#fff"/>
        <path id="Path_92" data-name="Path 92" d="M145.066,34.133h1.694V42.6h-1.694Zm0,0" transform="translate(-130.67 -30.746)" fill="#fff"/>
        <path id="Path_93" data-name="Path 93" d="M145.066,0h1.694V1.694h-1.694Zm0,0" transform="translate(-130.67)" fill="#fff"/>
        <path id="Path_94" data-name="Path 94" d="M196.266,76.8h1.694v5.081h-1.694Zm0,0" transform="translate(-176.789 -69.18)" fill="#fff"/>
        <path id="Path_95" data-name="Path 95" d="M196.266,42.668h1.694v1.694h-1.694Zm0,0" transform="translate(-176.789 -38.434)" fill="#fff"/>
        <path id="Path_96" data-name="Path 96" d="M247.469,51.2h1.694V56.28h-1.694Zm0,0" transform="translate(-222.911 -46.118)" fill="#fff"/>
        <path id="Path_97" data-name="Path 97" d="M247.469,17.066h1.694V18.76h-1.694Zm0,0" transform="translate(-222.911 -15.373)" fill="#fff"/>
        <path id="Path_98" data-name="Path 98" d="M298.668,17.066h1.694V18.76h-1.694Zm0,0" transform="translate(-269.03 -15.373)" fill="#fff"/>
        <path id="Path_99" data-name="Path 99" d="M366.934,0h1.694V1.694h-1.694Zm0,0" transform="translate(-330.521)" fill="#fff"/>
        <path id="Path_100" data-name="Path 100" d="M366.934,34.133h1.694V37.52h-1.694Zm0,0" transform="translate(-330.521 -30.746)" fill="#fff"/>
        <path id="Path_101" data-name="Path 101" d="M435.2,42.668h1.694v1.694H435.2Zm0,0" transform="translate(-392.012 -38.434)" fill="#fff"/>
      </g>
    </g>
  </g>
</svg>
