<svg width="251" height="250" viewBox="0 0 251 250" fill="none" xmlns="http://www.w3.org/2000/svg">
<path d="M241.738 96.8031C239.035 63.4478 237.684 46.771 231.392 35.98C213.383 5.08893 161.03 -2.26373 127.963 0.554121C83.6935 4.32465 33.05 29.8014 10.7576 78.9915C-9.48982 123.669 -0.153651 174.241 30.3548 207.321C86.2808 267.967 201.646 257.142 229.827 217.347C241.074 201.465 241.885 176.097 243.075 138.838C243.649 120.901 242.531 106.607 241.738 96.8031Z" fill="#F4F7FA"/>
<path d="M220.524 20.4067C217.662 18.0362 213.32 16.746 209.651 16.4853C183.635 14.6398 179.839 69.0745 183.826 81.2441C187.812 93.4137 185.229 97.4048 164.739 103.77C144.249 110.135 154.08 122.39 156.578 129.557C159.076 136.724 164.021 142.779 149.086 149.9C134.152 157.022 139.34 161.433 139.34 161.433C139.34 161.433 166.885 189.639 165.364 180.609C163.842 171.579 166.598 157.943 191.295 156.907C201.932 156.461 218.222 151.381 221.828 139.979C222.669 137.323 223.255 133.268 222.614 130.52C221.728 126.707 219.225 123.704 217.84 120.115C214.606 111.754 222.718 105.631 227.383 100.041C229.82 97.1236 232.256 94.1316 234.122 90.8048C237.997 83.8977 236.547 76.4905 232.328 70.1236C230.304 67.0709 227.492 63.8316 226.61 60.1906C225.662 56.2781 226.488 50.9334 226.713 46.9093C226.892 43.7531 227.19 40.6094 227.013 37.4451C226.686 31.5603 225.309 24.3746 220.524 20.4067Z" fill="url(#paint0_linear)"/>
<g style="mix-blend-mode:soft-light" opacity="0.8">
<g style="mix-blend-mode:soft-light" opacity="0.8">
<path d="M137.173 177.264C137.081 177.299 136.979 177.297 136.889 177.258C136.799 177.22 136.726 177.149 136.687 177.059C136.647 176.969 136.644 176.867 136.677 176.774C136.71 176.682 136.777 176.605 136.864 176.561C136.98 176.5 148.577 170.394 161.512 160.337C173.432 151.07 188.961 136.457 195.248 119.472C200.499 105.284 205.288 81.8316 208.387 55.1262C211.166 31.1789 211.605 13.4683 210.424 10.1808C210.406 10.1331 210.398 10.0824 210.4 10.0316C210.402 9.98084 210.414 9.93097 210.436 9.88489C210.457 9.8388 210.487 9.79742 210.525 9.76313C210.562 9.72884 210.606 9.70232 210.654 9.6851C210.702 9.66789 210.753 9.66032 210.803 9.66282C210.854 9.66533 210.904 9.67786 210.949 9.6997C210.995 9.72155 211.036 9.75227 211.07 9.79009C211.104 9.8279 211.13 9.87207 211.147 9.92004C212.529 13.7656 211.652 33.662 209.151 55.2146C206.046 81.9789 201.241 105.497 195.969 119.739C189.618 136.899 173.976 151.623 161.973 160.954C148.985 171.05 137.337 177.182 137.221 177.243C137.205 177.251 137.189 177.258 137.173 177.264Z" fill="white"/>
</g>
<g style="mix-blend-mode:soft-light" opacity="0.8">
<path d="M208.345 59.7682C208.145 59.8396 207.943 59.7842 207.871 59.5851C207.774 59.3217 198.076 33.2012 185.569 27.3039C185.524 27.2834 185.484 27.2541 185.45 27.2175C185.416 27.181 185.391 27.1381 185.374 27.0914C185.357 27.0446 185.35 26.995 185.353 26.9455C185.356 26.8959 185.369 26.8475 185.391 26.803C185.436 26.7113 185.515 26.641 185.611 26.6075C185.707 26.5741 185.813 26.5801 185.905 26.6245C198.697 32.6566 208.194 58.2315 208.592 59.3173C208.665 59.5164 208.548 59.6958 208.348 59.7637L208.345 59.7682Z" fill="white"/>
</g>
<g style="mix-blend-mode:soft-light" opacity="0.8">
<path d="M203.616 90.0603C203.53 90.0915 203.437 90.0914 203.351 90.06C203.266 90.0286 203.195 89.968 203.15 89.8889C203.105 89.8098 203.089 89.7174 203.106 89.6279C203.123 89.5385 203.171 89.4579 203.241 89.4005C203.312 89.3415 210.452 83.4781 219.263 78.5576C231.167 71.9094 240.29 70.0532 246.376 73.0415C246.421 73.0638 246.462 73.0948 246.495 73.1328C246.528 73.1707 246.554 73.2149 246.57 73.2627C246.587 73.3106 246.593 73.3611 246.59 73.4116C246.587 73.462 246.574 73.5114 246.552 73.5567C246.529 73.6021 246.498 73.6427 246.46 73.6761C246.423 73.7094 246.378 73.735 246.331 73.7514C246.283 73.7677 246.232 73.7745 246.182 73.7712C246.132 73.768 246.082 73.7549 246.037 73.7326C232.035 66.8576 204.01 89.763 203.728 89.9951C203.695 90.023 203.657 90.0451 203.616 90.0603Z" fill="white"/>
</g>
<g style="mix-blend-mode:soft-light" opacity="0.8">
<path d="M172.528 151.977C172.488 151.992 172.446 151.999 172.404 151.999C172.353 152 172.303 151.991 172.256 151.972C172.209 151.954 172.166 151.926 172.13 151.891C172.094 151.856 172.065 151.814 172.045 151.767C172.024 151.721 172.014 151.671 172.013 151.621C172.013 151.508 171.813 140.301 169.47 128.496C167.322 117.669 162.885 104.107 153.951 100.982C153.902 100.967 153.856 100.942 153.816 100.908C153.777 100.875 153.744 100.834 153.721 100.788C153.698 100.741 153.684 100.691 153.681 100.639C153.677 100.587 153.684 100.535 153.701 100.486C153.718 100.437 153.745 100.392 153.78 100.354C153.815 100.316 153.857 100.285 153.904 100.263C153.951 100.242 154.002 100.23 154.054 100.228C154.106 100.227 154.157 100.236 154.206 100.255C161.655 102.861 167.044 112.315 170.226 128.356C172.581 140.23 172.78 151.498 172.782 151.611C172.782 151.691 172.758 151.769 172.713 151.834C172.667 151.9 172.603 151.95 172.528 151.977Z" fill="white"/>
</g>
<g style="mix-blend-mode:soft-light" opacity="0.8">
<path d="M188.424 133.871C188.337 133.901 188.243 133.899 188.157 133.865C188.072 133.832 188.001 133.769 187.958 133.688C187.915 133.607 187.902 133.513 187.922 133.423C187.942 133.334 187.994 133.254 188.067 133.199C189.305 132.282 218.526 110.775 229.922 112.83C230.022 112.848 230.111 112.905 230.17 112.989C230.228 113.072 230.251 113.176 230.233 113.277C230.215 113.377 230.158 113.466 230.074 113.525C229.99 113.583 229.887 113.606 229.786 113.588C218.713 111.592 188.824 133.596 188.524 133.818C188.493 133.841 188.46 133.859 188.424 133.871Z" fill="white"/>
</g>
</g>
<path d="M243.357 100.588C241.465 97.3878 237.816 94.7021 234.45 93.2137C210.593 82.6646 188.62 132.606 188.26 145.405C187.9 158.204 184.119 161.088 162.687 160.137C141.256 159.186 146.366 174.048 146.29 181.639C146.214 189.229 148.825 196.601 132.363 198.246C115.9 199.89 119.29 205.795 119.29 205.795C119.29 205.795 135.677 241.668 137.297 232.655C138.918 223.641 146.122 211.743 169.711 219.134C179.871 222.318 196.913 223.055 204.165 213.547C205.853 211.333 207.774 207.715 208.102 204.913C208.556 201.025 207.219 197.352 207.126 193.506C206.908 184.541 216.611 181.527 222.894 177.849C226.173 175.929 229.476 173.939 232.357 171.44C238.338 166.253 239.477 158.791 237.659 151.371C236.786 147.813 235.235 143.812 235.636 140.087C236.066 136.084 238.649 131.337 240.222 127.624C241.455 124.715 242.8 121.857 243.7 118.82C245.385 113.17 246.52 105.938 243.357 100.588Z" fill="url(#paint1_linear)"/>
<g style="mix-blend-mode:soft-light" opacity="0.8">
<g style="mix-blend-mode:soft-light" opacity="0.8">
<path d="M111.903 219.957C111.806 219.957 111.712 219.92 111.641 219.853C111.57 219.787 111.527 219.696 111.52 219.598C111.514 219.501 111.544 219.405 111.606 219.329C111.667 219.254 111.755 219.204 111.852 219.191C111.981 219.173 124.957 217.355 140.53 212.273C154.876 207.589 174.429 199.101 186.092 185.247C195.828 173.675 208.262 153.228 220.205 129.148C230.914 107.555 237.313 91.0369 237.313 87.5405C237.318 87.4415 237.36 87.3482 237.432 87.2798C237.504 87.2115 237.599 87.1733 237.698 87.1733C237.797 87.1733 237.892 87.2115 237.964 87.2798C238.035 87.3482 238.078 87.4415 238.083 87.5405C238.083 91.628 230.532 110.053 220.893 129.488C208.925 153.621 196.456 174.123 186.68 185.738C174.903 199.734 155.208 208.291 140.759 213.005C125.124 218.105 112.091 219.93 111.961 219.948C111.942 219.953 111.923 219.956 111.903 219.957Z" fill="white"/>
</g>
<g style="mix-blend-mode:soft-light" opacity="0.8">
<path d="M218.592 133.581C218.542 133.582 218.493 133.573 218.447 133.555C218.4 133.537 218.358 133.509 218.322 133.475C218.286 133.44 218.258 133.399 218.238 133.353C218.218 133.307 218.208 133.258 218.207 133.208C218.207 132.928 217.909 105.043 208.133 95.2619C208.097 95.2264 208.067 95.1839 208.047 95.137C208.027 95.0901 208.017 95.0396 208.017 94.9886C208.016 94.9376 208.026 94.887 208.046 94.8398C208.065 94.7926 208.094 94.7498 208.13 94.7139C208.166 94.6779 208.209 94.6495 208.256 94.6303C208.303 94.6112 208.354 94.6017 208.405 94.6023C208.456 94.603 208.506 94.6138 208.553 94.6341C208.6 94.6545 208.642 94.684 208.677 94.7208C218.676 104.731 218.969 132.048 218.977 133.207C218.977 133.258 218.967 133.307 218.948 133.353C218.929 133.4 218.9 133.442 218.865 133.477C218.829 133.512 218.787 133.54 218.74 133.558C218.694 133.577 218.644 133.586 218.594 133.585L218.592 133.581Z" fill="white"/>
</g>
<g style="mix-blend-mode:soft-light" opacity="0.8">
<path d="M203.902 160.405C203.812 160.405 203.724 160.372 203.655 160.314C203.586 160.256 203.54 160.175 203.524 160.085C203.509 159.996 203.525 159.904 203.57 159.826C203.616 159.748 203.687 159.688 203.772 159.657C203.861 159.626 212.561 156.526 222.514 154.881C235.964 152.657 245.175 154.001 249.895 158.875C249.966 158.949 250.005 159.048 250.003 159.15C250.001 159.252 249.959 159.349 249.886 159.42C249.849 159.455 249.807 159.483 249.76 159.502C249.713 159.52 249.662 159.529 249.612 159.528C249.51 159.527 249.413 159.485 249.342 159.411C238.484 148.197 204.375 160.259 204.034 160.382C203.992 160.398 203.947 160.405 203.902 160.405Z" fill="white"/>
</g>
<g style="mix-blend-mode:soft-light" opacity="0.8">
<path d="M153.722 208.139C153.661 208.139 153.6 208.124 153.546 208.096C153.491 208.068 153.444 208.028 153.408 207.978C153.373 207.928 153.35 207.87 153.341 207.809C153.332 207.749 153.338 207.687 153.358 207.629C153.394 207.523 156.996 196.915 158.783 185.004C160.42 174.089 160.829 159.825 153.479 153.857C153.406 153.791 153.36 153.699 153.352 153.601C153.344 153.502 153.375 153.404 153.437 153.327C153.499 153.25 153.589 153.2 153.687 153.187C153.786 153.175 153.885 153.2 153.965 153.259C160.093 158.234 161.969 168.957 159.542 185.129C157.744 197.102 154.122 207.772 154.086 207.878C154.06 207.954 154.011 208.02 153.946 208.067C153.88 208.113 153.802 208.138 153.722 208.139Z" fill="white"/>
</g>
<g style="mix-blend-mode:soft-light" opacity="0.8">
<path d="M174.798 196.485C174.706 196.485 174.616 196.452 174.546 196.391C174.476 196.331 174.431 196.247 174.417 196.156C174.404 196.064 174.424 195.971 174.473 195.893C174.523 195.815 174.599 195.758 174.688 195.731C176.163 195.285 210.93 184.949 220.959 190.742C221.047 190.793 221.112 190.877 221.138 190.976C221.165 191.074 221.151 191.179 221.1 191.268C221.049 191.356 220.965 191.421 220.866 191.447C220.768 191.474 220.663 191.46 220.575 191.409C210.83 185.784 175.267 196.362 174.911 196.469C174.874 196.48 174.836 196.485 174.798 196.485Z" fill="white"/>
</g>
</g>
<path opacity="0.4" d="M163.383 10.6245L163.108 12.5888C162.205 12.6287 161.308 12.7482 160.425 12.9459L159.683 11.1084C159.634 10.9891 159.562 10.8806 159.471 10.7892C159.38 10.6978 159.272 10.6253 159.153 10.5759C159.034 10.5265 158.907 10.5012 158.778 10.5014C158.649 10.5016 158.522 10.5274 158.403 10.5772L155.248 11.8745C155.006 11.9739 154.813 12.1646 154.71 12.4055C154.607 12.6464 154.603 12.9182 154.699 13.162L155.447 15.0227C154.681 15.5098 153.959 16.0618 153.288 16.6727L151.702 15.4459C151.494 15.2863 151.232 15.2154 150.972 15.2489C150.712 15.2824 150.476 15.4174 150.315 15.6245L148.196 18.3388C148.115 18.4405 148.055 18.5573 148.019 18.6824C147.983 18.8075 147.973 18.9384 147.987 19.0677C148.002 19.197 148.043 19.322 148.106 19.4357C148.169 19.5493 148.255 19.6493 148.357 19.7298L149.947 20.9682C149.518 21.7739 149.16 22.6152 148.877 23.4825L146.858 23.2147C146.595 23.182 146.33 23.2537 146.119 23.4144C145.908 23.575 145.769 23.812 145.73 24.0745L145.223 27.4977C145.204 27.6266 145.209 27.7582 145.241 27.8847C145.272 28.0113 145.329 28.1303 145.406 28.2349C145.484 28.3395 145.582 28.4274 145.694 28.4937C145.807 28.56 145.931 28.6032 146.06 28.6209L148.084 28.8888C148.106 29.8019 148.208 30.7113 148.389 31.6066L146.492 32.4102C146.245 32.5132 146.049 32.7085 145.944 32.9544C145.839 33.2004 145.834 33.4776 145.93 33.7271L147.195 36.9468C147.243 37.0689 147.315 37.1802 147.407 37.2741C147.499 37.3679 147.608 37.4424 147.729 37.4932C147.85 37.544 147.98 37.57 148.111 37.5697C148.242 37.5694 148.372 37.5428 148.492 37.4914L150.393 36.695C150.871 37.4709 151.416 38.2034 152.021 38.8843L150.755 40.5352C150.59 40.7465 150.514 41.0144 150.545 41.2809C150.576 41.5475 150.71 41.7912 150.919 41.9593L153.635 44.0914C153.739 44.1722 153.859 44.2314 153.986 44.2655C154.114 44.2997 154.247 44.308 154.378 44.2902C154.509 44.2723 154.635 44.2286 154.749 44.1615C154.863 44.0944 154.962 44.0053 155.041 43.8995L156.29 42.2646C157.099 42.6941 157.945 43.05 158.817 43.328L158.532 45.3691C158.512 45.5002 158.519 45.6339 158.551 45.7625C158.583 45.891 158.64 46.0119 158.72 46.1182C158.799 46.2244 158.898 46.3138 159.012 46.3813C159.126 46.4487 159.253 46.4928 159.384 46.5111L162.811 46.9575C163.078 46.9896 163.346 46.9149 163.558 46.7496C163.77 46.5844 163.908 46.342 163.942 46.0753L164.219 44.0503C165.141 44.0118 166.057 43.8905 166.958 43.6878L167.709 45.5628C167.758 45.6857 167.83 45.7977 167.922 45.8921C168.014 45.9865 168.125 46.0615 168.246 46.1125C168.368 46.1635 168.499 46.1896 168.631 46.1892C168.762 46.1888 168.893 46.1619 169.014 46.1102L172.211 44.7548C172.457 44.6483 172.653 44.4493 172.754 44.2004C172.856 43.9516 172.857 43.6727 172.756 43.4236L172.004 41.5655C172.784 41.0608 173.519 40.4886 174.201 39.8557L175.766 41.0709C175.87 41.1515 175.988 41.2106 176.115 41.2447C176.242 41.2787 176.374 41.2871 176.505 41.2693C176.635 41.2515 176.76 41.2079 176.873 41.141C176.986 41.0742 177.085 40.9853 177.163 40.8798L179.257 38.1012C179.418 37.8881 179.488 37.6205 179.454 37.3559C179.419 37.0914 179.282 36.8509 179.073 36.6861L177.529 35.4825C177.954 34.6532 178.305 33.7883 178.58 32.8977L180.515 33.1521C180.645 33.1685 180.777 33.159 180.903 33.1243C181.029 33.0896 181.147 33.0302 181.25 32.9497C181.354 32.8691 181.44 32.769 181.505 32.6549C181.569 32.5409 181.61 32.4153 181.626 32.2852L182.066 28.8522C182.1 28.5903 182.03 28.3255 181.87 28.1157C181.71 27.9058 181.473 27.768 181.212 27.7325L179.282 27.4789C179.243 26.5551 179.124 25.6363 178.925 24.7334L180.715 23.9834C180.958 23.8816 181.15 23.6877 181.25 23.444C181.351 23.2004 181.351 22.9269 181.25 22.6834L179.937 19.5182C179.888 19.398 179.816 19.2886 179.725 19.1965C179.633 19.1043 179.525 19.0312 179.405 18.9814C179.285 18.9316 179.157 18.906 179.027 18.9062C178.897 18.9064 178.769 18.9323 178.649 18.9825L176.849 19.7316C176.359 18.9617 175.803 18.2361 175.187 17.5629L176.376 16.0084C176.535 15.8012 176.606 15.5393 176.572 15.28C176.539 15.0207 176.404 14.7853 176.197 14.6254L173.508 12.5566C173.406 12.4779 173.289 12.4201 173.164 12.3866C173.04 12.3532 172.91 12.3447 172.781 12.3617C172.653 12.3787 172.53 12.4209 172.418 12.4857C172.307 12.5506 172.209 12.6369 172.13 12.7397L170.929 14.2995C170.126 13.8835 169.287 13.5396 168.423 13.2718L168.69 11.3174C168.708 11.1898 168.7 11.06 168.667 10.9354C168.635 10.8109 168.578 10.6941 168.499 10.5918C168.421 10.4894 168.324 10.4036 168.212 10.3392C168.101 10.2748 167.978 10.2331 167.85 10.2165L164.491 9.77539C164.231 9.74212 163.97 9.81268 163.762 9.97171C163.555 10.1307 163.418 10.3654 163.383 10.6245ZM151.538 26.5754C152.509 19.8111 158.71 15.0691 165.395 15.9504C172.08 16.8316 176.774 23.0039 175.876 29.7745C174.973 36.5896 168.758 41.4254 162.001 40.5379C155.243 39.6504 150.561 33.3807 151.538 26.5754Z" fill="url(#paint2_linear)"/>
<path d="M111.867 9.55289L111.441 12.5984C110.046 12.6599 108.658 12.8439 107.294 13.1484L106.145 10.3074C106.069 10.1228 105.958 9.95508 105.818 9.81378C105.677 9.67247 105.51 9.56041 105.326 9.48405C105.142 9.40769 104.945 9.36854 104.746 9.36886C104.546 9.36919 104.349 9.40897 104.166 9.48593L99.2888 11.4975C98.9141 11.6507 98.6149 11.9455 98.4559 12.318C98.297 12.6906 98.2912 13.1109 98.4397 13.4877L99.5992 16.3645C98.4159 17.1184 97.2991 17.9721 96.2609 18.9163L93.8091 17.0136C93.4871 16.7686 93.0815 16.6609 92.6806 16.7139C92.2797 16.7669 91.916 16.9764 91.6686 17.2966L88.3918 21.4931C88.2667 21.6505 88.1739 21.831 88.1186 22.0244C88.0634 22.2178 88.0468 22.4202 88.0698 22.62C88.0929 22.8198 88.1551 23.0131 88.2529 23.1888C88.3507 23.3646 88.4821 23.5192 88.6398 23.6439L91.0987 25.5573C90.4384 26.8036 89.8866 28.1046 89.4496 29.4457L86.328 29.0359C85.9214 28.9858 85.5114 29.097 85.1856 29.3456C84.8598 29.5942 84.644 29.9605 84.5844 30.3663L83.7933 35.66C83.7624 35.8593 83.7715 36.0627 83.8201 36.2584C83.8686 36.4541 83.9556 36.6382 84.076 36.7999C84.1964 36.9616 84.3478 37.0976 84.5213 37.2001C84.6948 37.3025 84.8869 37.3693 85.0865 37.3966L88.217 37.8073C88.2511 39.2192 88.4083 40.6255 88.687 42.01L85.7554 43.2359C85.3743 43.3953 85.0703 43.6973 84.9081 44.0776C84.7459 44.458 84.7382 44.8866 84.8868 45.2725L86.8435 50.2502C86.9176 50.439 87.0288 50.6111 87.1704 50.7563C87.3121 50.9014 87.4814 51.0166 87.6683 51.0951C87.8553 51.1736 88.056 51.2138 88.2587 51.2133C88.4614 51.2128 88.662 51.1716 88.8485 51.0921L91.7872 49.8609C92.5256 51.0632 93.3678 52.1985 94.3041 53.2537L92.342 55.7993C92.0865 56.1258 91.9699 56.54 92.0175 56.952C92.0651 57.364 92.273 57.7406 92.5961 58.0001L96.7933 61.2975C96.955 61.4225 97.14 61.5141 97.3374 61.5668C97.5348 61.6196 97.7407 61.6325 97.9432 61.6049C98.1456 61.5772 98.3405 61.5095 98.5166 61.4057C98.6926 61.3018 98.8463 61.164 98.9686 61.0001L100.904 58.4716C102.154 59.1363 103.462 59.6867 104.811 60.1162L104.371 63.2725C104.34 63.475 104.35 63.6817 104.4 63.8805C104.449 64.0792 104.538 64.2662 104.66 64.4304C104.783 64.5947 104.936 64.733 105.112 64.8374C105.288 64.9418 105.484 65.0101 105.686 65.0385L110.987 65.7341C111.399 65.7838 111.814 65.6684 112.141 65.413C112.469 65.1576 112.682 64.7829 112.735 64.3707L113.163 61.2385C114.588 61.1791 116.005 60.992 117.397 60.6796L118.557 63.5733C118.632 63.7632 118.743 63.9362 118.886 64.082C119.029 64.2279 119.199 64.3437 119.387 64.4225C119.575 64.5014 119.777 64.5418 119.98 64.5414C120.184 64.5409 120.386 64.4995 120.573 64.4198L125.516 62.3234C125.896 62.1587 126.197 61.8518 126.355 61.4681C126.512 61.0844 126.513 60.6544 126.358 60.2698L125.199 57.3966C126.406 56.616 127.542 55.7314 128.595 54.7528L131.011 56.6278C131.172 56.7526 131.355 56.8441 131.551 56.897C131.748 56.9498 131.953 56.9628 132.154 56.9354C132.355 56.908 132.549 56.8405 132.724 56.7371C132.899 56.6337 133.052 56.4964 133.173 56.3332L136.41 52.0376C136.658 51.7082 136.767 51.2943 136.714 50.885C136.66 50.4758 136.449 50.1038 136.124 49.8493L133.73 47.9921C134.388 46.7102 134.931 45.3729 135.355 43.9957L138.348 44.3885C138.548 44.414 138.752 44.3996 138.947 44.346C139.143 44.2924 139.325 44.2008 139.485 44.0763C139.645 43.9519 139.778 43.7971 139.878 43.6209C139.978 43.4446 140.042 43.2504 140.066 43.0493L140.745 37.7421C140.799 37.3372 140.69 36.9274 140.442 36.6027C140.195 36.278 139.829 36.0648 139.424 36.01L136.44 35.618C136.382 34.1897 136.198 32.7693 135.891 31.3734L138.655 30.2127C139.03 30.0542 139.327 29.7538 139.481 29.3772C139.635 29.0005 139.634 28.578 139.479 28.202L137.457 23.31C137.381 23.1246 137.269 22.9561 137.127 22.8141C136.986 22.6721 136.818 22.5594 136.633 22.4826C136.448 22.4058 136.25 22.3663 136.049 22.3664C135.849 22.3665 135.651 22.4062 135.466 22.4832L132.682 23.6439C131.925 22.4528 131.066 21.3306 130.113 20.2904L131.955 17.8886C132.077 17.7297 132.167 17.5481 132.219 17.3544C132.272 17.1606 132.285 16.9584 132.259 16.7594C132.233 16.5604 132.169 16.3684 132.069 16.1945C131.969 16.0205 131.835 15.8681 131.676 15.7457L127.518 12.5475C127.359 12.4257 127.179 12.3363 126.986 12.2845C126.793 12.2328 126.592 12.2196 126.394 12.2458C126.196 12.272 126.006 12.3371 125.833 12.4373C125.66 12.5375 125.509 12.6708 125.388 12.8297L123.536 15.2404C122.294 14.5969 120.997 14.0654 119.66 13.652L120.073 10.6297C120.1 10.4325 120.088 10.2319 120.038 10.0395C119.987 9.84699 119.899 9.66645 119.778 9.50825C119.658 9.35005 119.507 9.21732 119.335 9.11771C119.163 9.01811 118.973 8.9536 118.775 8.9279L113.582 8.24575C113.182 8.19359 112.777 8.30162 112.456 8.54636C112.135 8.79111 111.923 9.1528 111.867 9.55289ZM93.5522 34.2216C95.0533 23.7627 104.642 16.4306 114.977 17.7877C125.312 19.1448 132.571 28.6895 131.183 39.1627C129.787 49.6984 120.178 57.176 109.73 55.8037C99.2817 54.4314 92.0414 44.743 93.5522 34.2216Z" fill="#D8DEE8"/>
<path d="M106.892 39.0444L84.1744 228.11C83.8337 230.945 85.7851 233.486 88.5187 233.758L183.158 244.158C188.955 244.52 192.13 241.555 192.487 238.541L216.342 37.5319C216.699 34.5346 213.854 31.8176 208.032 31.8176L112.532 33.8337C109.768 33.8801 107.235 36.2248 106.892 39.0444Z" fill="url(#paint3_linear)"/>
<path opacity="0.15" d="M102.637 38.7192L79.7908 228.73C79.4484 231.579 81.4069 234.133 84.1503 234.407L182.265 244.186C185.341 244.492 188.159 242.264 188.52 239.235L212.511 37.1879C212.868 34.1745 210.61 31.7531 207.5 31.8058L108.295 33.4817C105.521 33.5281 102.978 35.8852 102.637 38.7192Z" fill="white"/>
<path d="M104.497 49.1959L83.3224 225.374C83.0022 228.036 84.8386 230.418 87.4045 230.668L179.677 239.651C182.537 239.929 185.158 237.85 185.492 235.03L207.662 48.3852C207.995 45.5789 205.897 43.3093 203.009 43.3397L109.79 44.3334C107.194 44.3611 104.817 46.5513 104.497 49.1959Z" fill="#D8DEE8"/>
<path d="M153.985 38.5877C153.864 39.5993 154.589 40.4092 155.605 40.3967C156.622 40.3842 157.547 39.5511 157.668 38.5377C157.79 37.5243 157.061 36.7145 156.043 36.7297C155.026 36.7449 154.102 37.577 153.985 38.5877Z" fill="url(#paint4_linear)"/>
<g style="mix-blend-mode:soft-light">
<g style="mix-blend-mode:soft-light">
<path d="M120.45 167.462C139.34 132.498 167.559 122.032 176.055 85.9985C180.648 66.52 177.519 47.8736 172.249 32.4013L207.497 31.8058C210.607 31.7531 212.866 34.1745 212.509 37.1879L188.517 239.235C188.161 242.264 185.339 244.492 182.262 244.186L105.135 236.498C104.568 205.17 112.032 183.047 120.45 167.462Z" fill="white"/>
</g>
</g>
<path d="M9.48828 58.7703C9.48828 40.1917 25.6758 25.1337 45.1027 25.1355C63.9552 25.1355 78.8335 39.4042 78.8335 56.9988C78.8335 74.5935 63.9552 89.6202 45.1027 90.5854C25.6758 91.58 9.48828 77.3488 9.48828 58.7703Z" fill="url(#paint5_linear)"/>
<path d="M11.582 57.2888C11.582 38.7103 27.3014 23.6514 46.1663 23.6541C64.4739 23.6541 78.9214 37.9219 78.9214 55.5174C78.9214 73.1129 64.473 88.1388 46.1663 89.104C27.3014 90.0986 11.582 75.8665 11.582 57.2888Z" fill="url(#paint6_linear)"/>
<g style="mix-blend-mode:soft-light" opacity="0.5">
<g style="mix-blend-mode:soft-light" opacity="0.5">
<path d="M16.9639 57.1469C16.9639 41.5389 30.1708 28.8871 46.0203 28.8889C61.4016 28.8889 73.5401 40.8764 73.5401 55.6594C73.5401 70.4424 61.4016 83.0656 46.0203 83.8737C30.1708 84.7129 16.9639 72.7558 16.9639 57.1469Z" fill="white"/>
</g>
</g>
<g style="mix-blend-mode:soft-light" opacity="0.5">
<path d="M44.9302 31.2871C60.3106 31.2871 72.4491 43.2746 72.4491 58.0576C72.4459 61.4997 71.7863 64.9096 70.5057 68.104C72.4922 64.2569 73.5319 59.9902 73.538 55.6594C73.538 40.8764 61.3996 28.8907 46.0183 28.8889C33.7942 28.8889 23.1488 36.4157 18.915 47.0192C23.7124 37.6978 33.6497 31.2862 44.9302 31.2871Z" fill="white"/>
</g>
<path d="M32.8789 53.3264V66.9496C32.8789 70.8889 36.1887 73.9951 40.2592 73.8889L50.3526 73.621C54.374 73.5157 57.624 70.2719 57.624 66.3737V52.8916L32.8789 53.3264ZM42.174 67.4103L44.047 61.7202C43.6426 61.5159 43.3025 61.2036 43.0645 60.8179C42.8265 60.4321 42.6998 59.9879 42.6985 59.5345C42.6985 58.1362 43.8704 56.98 45.3135 56.9532C46.7565 56.9264 47.9222 58.0344 47.9222 59.43C47.9175 59.8889 47.7906 60.3382 47.5545 60.7315C47.3183 61.1249 46.9816 61.448 46.579 61.6675L48.452 67.2639L42.174 67.4103Z" fill="white"/>
<path d="M54.7544 51.7184C53.6842 51.7362 52.8155 50.9068 52.8155 49.8657C52.8155 45.8613 49.4575 42.647 45.3166 42.6997C41.1604 42.7532 37.7695 46.0755 37.7695 50.1104C37.7695 51.1586 36.8883 52.0229 35.8011 52.0407C34.7139 52.0586 33.8301 51.2229 33.8301 50.1729C33.8301 44.0398 38.9967 38.9916 45.3166 38.9229C51.6016 38.8523 56.6907 43.7363 56.6907 49.8095C56.6907 50.8434 55.8247 51.7005 54.7544 51.7184Z" fill="white"/>
<path d="M78.1317 129.421C78.1317 129.421 77.4459 126.844 77.9319 126.185C78.418 125.526 81.3924 122.892 81.107 123.751C80.9393 124.259 80.699 124.741 80.3935 125.18C80.3935 125.18 81.9989 125.924 80.9652 127.041C79.9315 128.157 79.5917 128.415 79.5382 129.417C79.4847 130.42 78.8185 130.766 78.1317 129.421Z" fill="url(#paint7_linear)"/>
<path d="M49.5599 240.65C49.5599 240.65 49.196 242.883 49.2424 243.672C49.2887 244.461 58.08 244.871 58.1692 244.276C58.2583 243.682 56.7163 242.738 55.6309 242.401C54.5455 242.065 51.3686 241.178 51.3686 241.178L49.5599 240.65Z" fill="url(#paint8_linear)"/>
<path d="M51.6935 238.429L51.4135 241.197C51.4135 241.197 50.3923 241.873 49.4924 241.351L49.042 238.335L51.6935 238.429Z" fill="url(#paint9_linear)"/>
<path d="M33.8742 244.263C33.8742 244.263 33.5112 246.495 33.5567 247.285C33.6022 248.075 42.3952 248.483 42.4844 247.889C42.5736 247.296 41.0306 246.35 39.9452 246.014C38.8598 245.679 35.6838 244.791 35.6838 244.791L33.8742 244.263Z" fill="url(#paint10_linear)"/>
<path d="M36.0074 242.041L35.7274 244.809C35.7274 244.809 34.7062 245.484 33.8063 244.963L33.3604 241.947L36.0074 242.041Z" fill="url(#paint11_linear)"/>
<path d="M50.099 166.084L53.1474 172.272C53.9644 184.043 54.3711 196.842 54.1097 210.531C53.9162 220.714 53.3722 230.362 52.5935 239.417L48.4597 239.228C46.4672 235.269 44.1145 229.271 43.8986 221.867C43.6721 214.145 46.0115 213.117 45.8608 205.725C45.669 196.141 41.6547 193.582 39.516 182.056C38.6981 177.648 38.1469 171.89 38.8025 164.904L50.099 166.084Z" fill="url(#paint12_linear)"/>
<path style="mix-blend-mode:multiply" opacity="0.3" d="M38.8018 164.904L44.9032 165.541C48.5599 171.919 49.5855 178.557 48.9434 181.493C48.0345 185.648 45.6309 186.978 45.7629 191.148C45.8931 195.275 48.3217 196.346 49.8656 201.21C50.9358 204.578 50.6504 207.674 50.0439 213.73C48.8221 225.927 45.8798 229.657 48.344 233.656C49.0441 234.792 50.3061 236.146 52.7784 237.179C52.7178 237.927 52.658 238.677 52.5947 239.417L48.4609 239.228C46.4684 235.268 44.1156 229.271 43.8998 221.867C43.6733 214.145 46.0127 213.117 45.8619 205.725C45.6702 196.141 41.6558 193.582 39.5171 182.057C38.6984 177.648 38.1472 171.89 38.8018 164.904Z" fill="url(#paint13_linear)"/>
<path d="M44.6305 169.798C42.7228 180.212 41.038 191.357 39.7252 203.177C38.1377 217.449 37.2904 230.905 36.9604 243.398L32.4207 243.526C26.4612 231.724 26.0964 223.722 26.9562 218.511C27.2871 216.504 28.1861 212.567 28.3921 206.684C28.5348 202.583 28.2735 199.462 27.9462 195.71C27.2327 187.484 26.3622 185.689 26.2373 179.397C26.1196 173.491 26.0955 170.504 27.7794 168.759C32.2147 164.165 43.7556 169.391 44.6305 169.798Z" fill="url(#paint14_linear)"/>
<path d="M77.3401 129.024L80.3573 128.813C82.7306 138.412 81.028 147.723 75.6732 151.147C67.3065 156.498 51.7566 146.415 48.3871 135.442C46.9075 130.621 47.2446 123.673 50.2003 122.317C51.0208 121.942 52.2944 121.883 55.053 123.434C63.2913 128.065 63.508 136.816 67.6953 137.558C69.5576 137.891 72.565 136.703 77.3401 129.024Z" fill="#29B0B0"/>
<path d="M54.3033 174.383C55.7526 171.977 53.9323 169.651 53.5175 165.098C53.0484 159.929 55.0337 159.068 57.0039 150.503C58.3123 144.807 59.568 139.338 58.0688 132.936C57.3553 129.868 56.1325 124.665 51.831 122.151C49.6111 120.854 46.5796 120.983 40.6085 121.297C33.2238 121.683 29.5314 121.876 26.7782 123.328C26.3751 123.541 17.9985 128.102 17.4215 135.537C16.8346 143.105 25.0676 144.122 26.1619 154.214C26.6542 158.744 25.7757 165.712 25.2058 170.232C24.6591 174.571 24.2827 175.678 25.138 176.995C27.1991 180.162 33.511 179.259 46.1355 177.455C51.0907 176.744 53.2214 176.18 54.3033 174.383Z" fill="#29B0B0"/>
<path d="M35.0953 152.589C34.5602 154.553 32.6417 156.024 31.3057 160.809C31.0167 161.842 28.9619 169.202 31.6277 171.008C33.1671 172.054 34.5495 170.072 38.2864 169.814C44.7615 169.368 47.8465 174.814 52.0766 173.326C52.8097 173.068 53.7792 172.517 54.746 171.253C54.9387 172.392 54.9057 173.382 54.3001 174.384C53.2182 176.181 51.0893 176.745 46.1358 177.453C33.5113 179.257 27.1995 180.16 25.1384 176.993C24.2831 175.68 24.6594 174.569 25.2062 170.23C25.7761 165.71 26.6546 158.742 26.1623 154.212C25.0644 144.123 16.8314 143.103 17.4219 135.535C17.5788 133.513 18.3227 131.711 19.3162 130.143C29.7601 134.374 36.7738 146.406 35.0953 152.589Z" fill="#149E9E"/>
<path d="M21.9082 167.474L23.997 168.813C24.3725 168.379 25.2456 167.504 26.5968 167.206C28.1255 166.869 29.8789 167.351 29.9199 167.84C29.952 168.231 28.8845 168.625 28.7195 168.686C27.3817 169.179 26.4006 168.77 25.8583 169.307C25.6675 169.496 25.4302 169.849 24.8835 170.176C24.7641 170.249 24.6395 170.314 24.5107 170.368C23.6188 170.715 22.0946 169.164 21.9635 169.029L21.9082 167.474Z" fill="url(#paint15_linear)"/>
<path d="M28.0803 140.039C29.592 136.415 30.6391 130.866 28.2516 122.629C12.5206 128.834 4.49819 143.545 7.63046 155.206C10.2133 164.821 19.6075 169.499 21.7034 170.484L23.167 167.151C20.7375 164.443 18.0012 160.44 18.3883 155.871C18.9243 149.538 25.0185 147.376 28.0803 140.039Z" fill="#29B0B0"/>
<path d="M40.2232 113.839C40.2232 113.839 40.0993 116.593 39.2422 118.66C38.4707 120.525 34.41 121.696 33.5877 122.113C32.7654 122.53 35.1288 123.745 37.5039 123.988C39.879 124.231 46.6617 123.687 47.8845 122.786C49.1072 121.885 46.9034 121.952 45.2088 121.329C43.5143 120.706 42.5332 117.388 42.8329 115.883C43.1325 114.377 40.2232 113.839 40.2232 113.839Z" fill="url(#paint16_linear)"/>
<path d="M43.9809 112.84C45.2134 111.628 45.3856 111.486 45.5193 111.067C46.0545 109.385 44.755 107.083 43.0462 106.514C42.957 106.484 41.8118 106.117 41.3739 106.615C41.0029 107.038 41.5523 107.622 41.2847 108.436C41.0412 109.199 40.3812 109.256 39.1567 110.256C38.1489 111.08 37.5219 111.595 37.3774 112.309C37.0795 113.794 38.8749 115.946 40.4642 115.888C41.0403 115.871 41.1964 115.579 43.9809 112.84Z" fill="url(#paint17_linear)"/>
<path d="M40.6259 116.122C40.6259 116.122 41.936 117.607 43.9311 117.116C45.7149 116.676 45.2618 112.571 43.9543 111.915C43.5182 111.697 42.7253 111.715 42.1296 112.004C41.7728 112.174 41.6836 112.35 41.0994 112.617C40.5643 112.862 40.394 112.828 40.2495 113.001C40.0711 113.217 39.9917 113.683 40.5563 114.807C40.1496 114.518 39.7117 114.458 39.4432 114.649C39.3522 114.721 39.2833 114.817 39.2443 114.926C39.0713 115.433 39.5993 115.95 40.6259 116.122Z" fill="url(#paint18_linear)"/>
<path d="M190.036 60.5352L190.498 63.0271L181.006 63.0494L98.632 63.245C96.5129 63.2494 94.5642 65.003 94.2734 67.1619L74.6066 198.729C74.3141 200.906 77.7006 204.23 79.8072 204.393L116.352 207.205V207.161L171.017 211.357L171.15 211.413C173.484 211.591 175.625 209.895 175.928 207.597V207.606L194.348 67.1423C194.647 64.8601 192.383 60.5352 190.036 60.5352Z" fill="url(#paint19_linear)"/>
<path d="M174.069 204.861C173.767 207.162 171.627 208.879 169.293 208.7L77.854 201.672C75.7483 201.509 74.2865 199.613 74.5755 197.435L92.4514 64.4708C92.7412 62.3128 94.69 60.5592 96.8073 60.5539L188.76 60.3003C191.106 60.2941 192.773 62.136 192.472 64.4146L174.069 204.861Z" fill="url(#paint20_linear)"/>
<path opacity="0.63" d="M175.284 131.738C175.134 132.878 174.071 133.728 172.91 133.685L92.4324 130.745C91.3702 130.706 90.6237 129.83 90.7691 128.742L92.3557 117.002C92.502 115.914 93.4715 115.179 94.5346 115.208L175.082 117.447C176.241 117.48 177.069 118.302 176.919 119.441L175.284 131.738Z" fill="white"/>
<path opacity="0.63" d="M172.167 155.593C172.016 156.735 170.952 157.709 169.792 157.647L89.376 153.67C88.3147 153.617 87.5753 152.598 87.7216 151.511L89.3162 139.547C89.4625 138.457 90.4418 137.524 91.5031 137.567L171.968 140.816C173.128 140.864 173.951 141.915 173.801 143.055L172.167 155.593Z" fill="white"/>
<path style="mix-blend-mode:multiply" opacity="0.1" d="M176.923 119.393C176.724 119.33 176.517 119.296 176.308 119.291L95.7593 117.053C94.6961 117.022 93.7258 117.759 93.5813 118.845L92 130.586C92 130.617 91.9938 130.645 91.9902 130.675C91.1741 130.445 90.6524 129.67 90.7719 128.741L92.3567 117.001C92.5012 115.916 93.4716 115.178 94.5338 115.209L175.084 117.447C176.223 117.481 177.042 118.277 176.923 119.393Z" fill="url(#paint21_linear)"/>
<path style="mix-blend-mode:multiply" opacity="0.1" d="M173.82 142.794C173.621 142.715 173.409 142.67 173.195 142.662L92.732 139.413C91.6698 139.369 90.6896 140.306 90.546 141.392L88.9487 153.356C88.9392 153.432 88.9341 153.508 88.9335 153.584C88.1166 153.316 87.5957 152.44 87.7206 151.512L89.317 139.548C89.4615 138.459 90.4417 137.525 91.5039 137.568L171.967 140.817C172.472 140.842 172.947 141.062 173.293 141.43C173.639 141.799 173.827 142.288 173.82 142.794Z" fill="url(#paint22_linear)"/>
<path d="M150.78 174.928C151.017 173.127 149.746 171.468 147.938 171.364L106.309 168.971C104.585 168.872 102.993 170.325 102.759 172.079L101.041 185.041C100.807 186.798 102.003 188.478 103.725 188.596L145.333 191.446C147.14 191.57 148.804 190.042 149.042 188.239L150.78 174.928Z" fill="url(#paint23_linear)"/>
<path d="M153.924 87.595C153.375 91.7388 151.248 95.479 148.226 98.2298C144.968 101.196 140.676 103.001 136.213 102.916C131.772 102.826 128.035 100.887 125.635 97.8539C123.421 95.0593 122.335 91.3361 122.88 87.2593C124.01 78.7834 131.788 71.9317 140.325 71.9522C148.942 71.9718 155.064 78.9745 153.924 87.595Z" fill="url(#paint24_linear)"/>
<path opacity="0.63" d="M145.623 82.8854C145.131 86.5979 141.708 89.572 137.992 89.5273C134.291 89.4836 131.698 86.4595 132.188 82.7738C132.679 79.0881 136.067 76.1167 139.769 76.1336C143.489 76.1506 146.115 79.1729 145.623 82.8854Z" fill="white"/>
<path opacity="0.63" d="M148.226 98.2297C144.968 101.196 140.676 103.001 136.213 102.915C131.773 102.826 128.036 100.887 125.636 97.8538C128.383 94.0226 132.913 91.4744 137.725 91.5378C142.562 91.6003 146.461 94.2851 148.226 98.2297Z" fill="white"/>
<g style="mix-blend-mode:soft-light" opacity="0.4">
<path d="M192.474 64.4164L174.069 204.863C173.767 207.163 171.49 208.873 169.157 208.694L114.238 204.472C111.515 201.679 109.376 198.371 107.948 194.739C107.18 192.78 106.62 190.745 106.277 188.668C105.258 182.738 105.653 175.998 107.14 169.382C108.278 164.3 110.035 159.377 112.37 154.723C114.206 151.095 116.364 147.778 118.775 144.99C120.511 142.984 122.388 141.035 124.368 139.123C126.755 136.816 129.293 134.565 131.911 132.333C138.009 127.131 144.541 122.044 150.588 116.673C164.541 104.282 175.86 90.436 173.137 70.6807C173.047 70.0557 172.199 65.2932 171.113 60.3539L188.626 60.3057C190.971 60.2959 192.773 62.1423 192.474 64.4164Z" fill="white"/>
</g>
<defs>
<linearGradient id="paint0_linear" x1="195.315" y1="110.679" x2="224.85" y2="17.2719" gradientUnits="userSpaceOnUse">
<stop offset="0.00359712" stop-color="#F96EBB"/>
<stop offset="1" stop-color="#2C9EC6"/>
</linearGradient>
<linearGradient id="paint1_linear" x1="237" y1="142.5" x2="160.799" y2="173.467" gradientUnits="userSpaceOnUse">
<stop stop-color="#F9867A"/>
<stop offset="1" stop-color="#E40678"/>
</linearGradient>
<linearGradient id="paint2_linear" x1="161.266" y1="18.8804" x2="173.065" y2="58.0314" gradientUnits="userSpaceOnUse">
<stop stop-color="#50AFD1"/>
<stop offset="0.9964" stop-color="#3A9EC1"/>
</linearGradient>
<linearGradient id="paint3_linear" x1="135.333" y1="168.758" x2="153.915" y2="119.046" gradientUnits="userSpaceOnUse">
<stop stop-color="#1A83B3"/>
<stop offset="0.9964" stop-color="#095D7A"/>
</linearGradient>
<linearGradient id="paint4_linear" x1="153.128" y1="31.2556" x2="261.724" y2="325.051" gradientUnits="userSpaceOnUse">
<stop stop-color="#FFC444"/>
<stop offset="1" stop-color="#F36F56"/>
</linearGradient>
<linearGradient id="paint5_linear" x1="36.8608" y1="44.4946" x2="50.2544" y2="117.593" gradientUnits="userSpaceOnUse">
<stop stop-color="#3496B9"/>
<stop offset="0.9964" stop-color="#176F8E"/>
</linearGradient>
<linearGradient id="paint6_linear" x1="40.9083" y1="39.7007" x2="61.0539" y2="109.049" gradientUnits="userSpaceOnUse">
<stop stop-color="#50AFD1"/>
<stop offset="0.9964" stop-color="#3A9EC1"/>
</linearGradient>
<linearGradient id="paint7_linear" x1="79.4703" y1="130.28" x2="82.3635" y2="123.917" gradientUnits="userSpaceOnUse">
<stop stop-color="#FCDAC2"/>
<stop offset="0.9964" stop-color="#FFAD61"/>
</linearGradient>
<linearGradient id="paint8_linear" x1="44.5962" y1="214.847" x2="53.3723" y2="251.306" gradientUnits="userSpaceOnUse">
<stop stop-color="#311944"/>
<stop offset="1" stop-color="#BF066C"/>
</linearGradient>
<linearGradient id="paint9_linear" x1="50.3195" y1="241.537" x2="51.305" y2="238.154" gradientUnits="userSpaceOnUse">
<stop stop-color="#FCDAC2"/>
<stop offset="0.9964" stop-color="#FFAD61"/>
</linearGradient>
<linearGradient id="paint10_linear" x1="28.9103" y1="218.454" x2="37.6887" y2="254.92" gradientUnits="userSpaceOnUse">
<stop stop-color="#311944"/>
<stop offset="1" stop-color="#BF066C"/>
</linearGradient>
<linearGradient id="paint11_linear" x1="34.6357" y1="245.149" x2="35.6227" y2="241.767" gradientUnits="userSpaceOnUse">
<stop stop-color="#FCDAC2"/>
<stop offset="0.9964" stop-color="#FFAD61"/>
</linearGradient>
<linearGradient id="paint12_linear" x1="2974.43" y1="181775" x2="-18574.8" y2="204951" gradientUnits="userSpaceOnUse">
<stop stop-color="#311944"/>
<stop offset="1" stop-color="#893976"/>
</linearGradient>
<linearGradient id="paint13_linear" x1="65379.9" y1="214248" x2="63030.7" y2="214436" gradientUnits="userSpaceOnUse">
<stop stop-color="#311944"/>
<stop offset="1" stop-color="#893976"/>
</linearGradient>
<linearGradient id="paint14_linear" x1="78452.4" y1="221295" x2="73842.7" y2="221664" gradientUnits="userSpaceOnUse">
<stop stop-color="#311944"/>
<stop offset="1" stop-color="#893976"/>
</linearGradient>
<linearGradient id="paint15_linear" x1="25.7687" y1="170.407" x2="26.1437" y2="166.647" gradientUnits="userSpaceOnUse">
<stop stop-color="#FCDAC2"/>
<stop offset="0.9964" stop-color="#FFAD61"/>
</linearGradient>
<linearGradient id="paint16_linear" x1="40.5601" y1="124.009" x2="42.4385" y2="112.664" gradientUnits="userSpaceOnUse">
<stop stop-color="#FCDAC2"/>
<stop offset="0.9964" stop-color="#FFAD61"/>
</linearGradient>
<linearGradient id="paint17_linear" x1="38.9475" y1="123.599" x2="43.6979" y2="107.997" gradientUnits="userSpaceOnUse">
<stop stop-color="#444B8C"/>
<stop offset="1" stop-color="#3E4177"/>
</linearGradient>
<linearGradient id="paint18_linear" x1="42.0524" y1="117.196" x2="43.3694" y2="111.266" gradientUnits="userSpaceOnUse">
<stop stop-color="#FCDAC2"/>
<stop offset="0.9964" stop-color="#FFAD61"/>
</linearGradient>
<linearGradient id="paint19_linear" x1="240658" y1="113820" x2="249412" y2="320807" gradientUnits="userSpaceOnUse">
<stop stop-color="#CE391D"/>
<stop offset="1" stop-color="#C98D0C"/>
</linearGradient>
<linearGradient id="paint20_linear" x1="144.778" y1="73.6497" x2="65.3516" y2="241.638" gradientUnits="userSpaceOnUse">
<stop stop-color="#FFC444"/>
<stop offset="0.9964" stop-color="#F56D59"/>
</linearGradient>
<linearGradient id="paint21_linear" x1="129101" y1="28450" x2="212377" y2="28450" gradientUnits="userSpaceOnUse">
<stop stop-color="#F36F56"/>
<stop offset="1" stop-color="#FFC444"/>
</linearGradient>
<linearGradient id="paint22_linear" x1="126064" y1="33541.5" x2="209216" y2="33541.5" gradientUnits="userSpaceOnUse">
<stop stop-color="#F36F56"/>
<stop offset="1" stop-color="#FFC444"/>
</linearGradient>
<linearGradient id="paint23_linear" x1="100115" y1="17122.2" x2="100584" y2="48017.1" gradientUnits="userSpaceOnUse">
<stop stop-color="#EB5235"/>
<stop offset="1" stop-color="#FFBD2F"/>
</linearGradient>
<linearGradient id="paint24_linear" x1="63025.4" y1="23418.1" x2="64436.6" y2="65926" gradientUnits="userSpaceOnUse">
<stop stop-color="#F36F56"/>
<stop offset="1" stop-color="#FFC444"/>
</linearGradient>
</defs>
</svg>
