<?xml version="1.0" encoding="UTF-8"?>
<!DOCTYPE svg PUBLIC "-//W3C//DTD SVG 1.1//EN" "http://www.w3.org/Graphics/SVG/1.1/DTD/svg11.dtd">
<!-- Creator: CorelDRAW X8 -->
<svg xmlns="http://www.w3.org/2000/svg" xml:space="preserve" width="500px" height="79px" version="1.1" style="shape-rendering:geometricPrecision; text-rendering:geometricPrecision; image-rendering:optimizeQuality; fill-rule:evenodd; clip-rule:evenodd"
viewBox="0 0 604 100"
 xmlns:xlink="http://www.w3.org/1999/xlink">
 <defs>
  <style type="text/css">
   <![CDATA[
    .fil1 {fill:url(#id0)}
    .fil0 {fill:url(#id1)}
    .fil2 {fill:url(#id2)}
   ]]>
  </style>
  <linearGradient id="id0" gradientUnits="userSpaceOnUse" x1="150.131" y1="39.9596" x2="219.437" y2="39.9596">
   <stop offset="0" style="stop-opacity:1; stop-color:#2774BA"/>
   <stop offset="1" style="stop-opacity:1; stop-color:#8E429D"/>
  </linearGradient>
  <linearGradient id="id1" gradientUnits="userSpaceOnUse" x1="-0" y1="27.9138" x2="107.505" y2="27.9138">
   <stop offset="0" style="stop-opacity:1; stop-color:#1A9A9D"/>
   <stop offset="1" style="stop-opacity:1; stop-color:#1B7ABE"/>
  </linearGradient>
  <linearGradient id="id2" gradientUnits="userSpaceOnUse" x1="233.83" y1="28.9126" x2="503.885" y2="28.9126">
   <stop offset="0" style="stop-opacity:1; stop-color:#E5097F"/>
   <stop offset="1" style="stop-opacity:1; stop-color:#E0574D"/>
  </linearGradient>
 </defs>
 <g id="Layer_x0020_1">
  <metadata id="CorelCorpID_0Corel-Layer"/>
  <path class="fil0" d="M57 56l-13 0 -14 -43c0,0 -1,-1 -1,-1 -1,0 -1,1 -2,1l-14 43 -13 0c1,-4 3,-9 5,-16 2,-8 5,-15 7,-22 3,-8 4,-12 5,-13 1,-2 3,-3 5,-4 2,-1 4,-1 7,-1 2,0 4,0 6,1 2,1 4,2 5,4 1,1 2,5 5,13 2,5 4,13 7,22 2,5 4,11 5,16zm30 0l-27 0 0 -56 27 0c6,0 12,3 15,9 4,5 6,12 6,20 0,7 -2,13 -6,18 -3,6 -8,9 -15,9zm-2 -12c3,0 5,-2 7,-5 2,-3 2,-7 2,-12 0,-4 0,-7 -2,-10 -2,-3 -4,-5 -7,-5l-13 0 0 32 13 0z"/>
  <polygon class="fil1" points="194,30 185,0 185,0 185,0 185,0 169,0 169,0 169,0 169,0 161,29 152,0 152,0 152,0 152,0 136,0 136,0 136,0 136,0 119,56 135,56 144,27 153,56 152,56 169,56 169,56 177,27 186,56 186,56 179,80 196,80 213,21 213,21 214,19 219,0 203,0 197,21 197,21 "/>
  <path class="fil2" d="M451 45c0,4 -1,7 -4,9 -3,2 -6,3 -10,3 -3,0 -6,-1 -9,-2 -3,-2 -5,-5 -6,-9 0,0 -1,-4 -3,-11 -2,-7 -4,-12 -5,-16 -2,-5 -3,-7 -5,-7 0,0 -1,1 -1,1 0,1 -1,1 -1,2l0 42 -12 0 0 -45c0,-4 2,-7 5,-9 2,-2 6,-3 10,-3 5,0 10,3 13,8 2,4 4,10 6,18 2,9 4,15 5,17 0,1 1,1 1,1 1,1 1,1 2,1 0,0 1,0 1,-1 1,0 1,-1 1,-2l0 -41 12 0 0 44zm-58 12l-14 0 -14 -43c0,-1 -1,-1 -1,-1 -1,0 -1,0 -1,1l-14 43 -14 0c1,-4 3,-9 5,-16 3,-8 5,-15 7,-22 3,-8 5,-13 5,-13 1,-2 3,-3 5,-4 2,-1 4,-1 7,-1 2,0 5,0 7,1 2,1 3,2 4,4 1,0 3,5 5,12 2,6 5,13 8,23 1,5 3,10 5,16zm90 0l-27 0 0 -56 27 0c7,0 12,3 16,9 3,5 5,12 5,19 0,8 -2,14 -5,19 -4,6 -9,9 -16,9zm-2 -12c3,0 6,-2 7,-6 2,-3 3,-6 3,-11 0,-4 -1,-8 -3,-10 -1,-4 -4,-5 -7,-5l-12 0 0 32 12 0zm-148 13l-35 -15 0 14 -12 0 0 -19c0,-4 1,-8 3,-11 3,-3 6,-4 11,-4l15 0c2,0 3,-1 4,-2 0,-1 1,-2 1,-3 0,-2 -1,-3 -1,-4 -1,-1 -2,-1 -4,-1l-29 0 0 -12 31 0c5,0 9,2 12,5 2,3 3,7 3,12 0,4 -1,8 -3,11 -3,4 -7,6 -12,6l-7 0 23 10 0 13zm-56 -29c1,1 2,3 3,5 0,2 1,4 1,6 0,4 -2,8 -4,11 -3,4 -7,6 -12,6l-31 0 0 -12 29 0c2,0 3,-1 4,-2 0,-1 1,-2 1,-3 0,-1 -1,-3 -1,-3 -1,-1 -2,-2 -4,-2l-29 0 0 -12 29 0c2,0 3,-1 4,-2 0,-1 1,-2 1,-3 0,-2 -1,-3 -1,-4 -1,-1 -2,-1 -4,-1l-29 0 0 -12 31 0c5,0 9,2 12,5 2,4 4,8 4,12 0,2 -1,4 -1,6 -1,2 -2,4 -3,5z"/>
 </g>
</svg>
