<svg width="80" height="80" viewBox="0 0 80 80" fill="none" xmlns="http://www.w3.org/2000/svg">
<g clip-path="url(#clip0)">
<path d="M57.0036 8.62737C46.207 4.40315 31.2561 6.00799 22.9939 13.5508C17.1602 18.8766 21.6753 20.3946 25.6527 30.1399C28.5312 37.193 0 36.2222 0 48.9672C0 63.7014 20.6642 60.9085 28.3327 62.595C40.057 65.1738 50.2852 74.8203 62.812 73.5486C73.7175 72.4414 77.875 63.8838 79.3916 54.0733C82.2169 35.7958 75.2777 15.7774 57.0036 8.62737Z" fill="url(#paint0_linear)"/>
<path opacity="0.11" d="M64.6735 20.297H8.8172C7.09126 20.297 5.6922 21.6961 5.6922 23.422V53.6484C5.6922 55.1041 6.68892 56.3236 8.03595 56.6709V58.3569C8.03595 59.8125 9.03267 61.032 10.3797 61.3794V63.0011C10.3797 63.1011 10.3844 63.1995 10.3938 63.298C10.5422 64.8855 11.8781 66.1261 13.5047 66.1261H59.986C61.6125 66.1261 62.9485 64.8855 63.0969 63.298C63.1063 63.1995 63.111 63.1011 63.111 63.0011V61.3794C64.458 61.032 65.4547 59.8123 65.4547 58.3569V56.6709C66.8017 56.3236 67.7985 55.1039 67.7985 53.6484V23.422C67.7985 21.6961 66.3992 20.297 64.6735 20.297Z" fill="#2626BC"/>
<path d="M66.3656 48.313V59.7895C66.3656 59.8895 66.3609 59.988 66.3516 60.0864C66.2031 61.6739 64.8672 62.9145 63.2406 62.9145H16.7594C15.1328 62.9145 13.7969 61.6739 13.6484 60.0864C13.6391 59.988 13.6344 59.8895 13.6344 59.7895V48.313C13.6344 46.588 15.0328 45.188 16.7594 45.188H63.2406C64.9672 45.188 66.3656 46.588 66.3656 48.313Z" fill="#FFD54D"/>
<path d="M66.3656 48.313V59.7895C66.3656 59.8895 66.3609 59.988 66.3516 60.0864C66.1016 60.1255 65.8453 60.1458 65.5844 60.1458H14.4156C14.1547 60.1458 13.8984 60.1255 13.6484 60.0864C13.6391 59.988 13.6344 59.8895 13.6344 59.7895V48.313C13.6344 46.588 15.0328 45.188 16.7594 45.188H63.2406C64.9672 45.188 66.3656 46.588 66.3656 48.313Z" fill="#FFC919"/>
<path d="M65.5844 58.2703H14.4156C12.6897 58.2703 11.2906 56.8713 11.2906 55.1453V34.2938C11.2906 32.5678 12.6897 31.1688 14.4156 31.1688H65.5844C67.3103 31.1688 68.7094 32.5678 68.7094 34.2938V55.1453C68.7094 56.8711 67.3103 58.2703 65.5844 58.2703Z" fill="#02FFB3"/>
<path d="M68.7094 34.2942V55.1458C68.7094 55.2239 68.7062 55.3005 68.7 55.377C68.4484 55.4161 68.1906 55.4364 67.9281 55.4364H12.0719C11.8094 55.4364 11.5516 55.4161 11.3 55.377C11.2937 55.3005 11.2906 55.2239 11.2906 55.1458V34.2942C11.2906 32.5677 12.6891 31.1692 14.4156 31.1692H65.5844C67.3109 31.1692 68.7094 32.5677 68.7094 34.2942Z" fill="#00D897"/>
<path d="M67.9281 53.5617H12.0719C10.3459 53.5617 8.94687 52.1626 8.94687 50.4367V20.2103C8.94687 18.4844 10.3459 17.0853 12.0719 17.0853H67.9281C69.6541 17.0853 71.0531 18.4844 71.0531 20.2103V50.4367C71.0531 52.1626 69.6541 53.5617 67.9281 53.5617Z" fill="#FFA8CF"/>
<path d="M65.4172 31.3338V39.3131C65.4172 39.6606 65.1861 39.9616 64.8536 40.063C61.703 41.0239 59.2863 43.665 58.6457 46.943C58.5747 47.3056 58.2493 47.5627 57.8797 47.5627H22.1204C21.7508 47.5627 21.4254 47.3056 21.3544 46.943C20.7138 43.665 18.2971 41.0239 15.1464 40.063C14.8139 39.9616 14.5829 39.6608 14.5829 39.3131V31.3338C14.5829 30.9863 14.8139 30.6853 15.1464 30.5839C18.2971 29.623 20.7138 26.9819 21.3544 23.7039C21.4254 23.3413 21.7508 23.0842 22.1204 23.0842H57.8797C58.2493 23.0842 58.5747 23.3413 58.6457 23.7039C59.2863 26.9819 61.703 29.623 64.8536 30.5839C65.1861 30.6855 65.4172 30.9863 65.4172 31.3338Z" fill="#FF5BA8"/>
<path d="M39.8906 45.0588C44.2485 45.0588 47.7812 40.5684 47.7812 35.0294C47.7812 29.4903 44.2485 25 39.8906 25C35.5328 25 32 29.4903 32 35.0294C32 40.5684 35.5328 45.0588 39.8906 45.0588Z" fill="#FFA8CF"/>
<path d="M28.3419 44.6855H24.9341C24.5025 44.6855 24.1528 44.3356 24.1528 43.9042C24.1528 43.4728 24.5025 43.123 24.9341 43.123H28.3419C28.7734 43.123 29.1231 43.4728 29.1231 43.9042C29.1231 44.3356 28.7734 44.6855 28.3419 44.6855Z" fill="#FFA8CF"/>
<path d="M55.0658 27.524H51.658C51.2264 27.524 50.8767 27.1742 50.8767 26.7428C50.8767 26.3114 51.2264 25.9615 51.658 25.9615H55.0658C55.4974 25.9615 55.847 26.3114 55.847 26.7428C55.847 27.1742 55.4974 27.524 55.0658 27.524Z" fill="#FFA8CF"/>
<path d="M23.2154 36.1969C23.6978 36.1969 24.0889 35.8058 24.0889 35.3235C24.0889 34.8411 23.6978 34.45 23.2154 34.45C22.7331 34.45 22.342 34.8411 22.342 35.3235C22.342 35.8058 22.7331 36.1969 23.2154 36.1969Z" fill="#FFA8CF"/>
<path d="M25.8576 36.1969C26.34 36.1969 26.7311 35.8058 26.7311 35.3235C26.7311 34.8411 26.34 34.45 25.8576 34.45C25.3752 34.45 24.9842 34.8411 24.9842 35.3235C24.9842 35.8058 25.3752 36.1969 25.8576 36.1969Z" fill="#FFA8CF"/>
<path d="M28.4998 36.1969C28.9822 36.1969 29.3732 35.8058 29.3732 35.3235C29.3732 34.8411 28.9822 34.45 28.4998 34.45C28.0174 34.45 27.6263 34.8411 27.6263 35.3235C27.6263 35.8058 28.0174 36.1969 28.4998 36.1969Z" fill="#FFA8CF"/>
<path d="M51.5002 36.1969C51.9825 36.1969 52.3736 35.8058 52.3736 35.3235C52.3736 34.8411 51.9825 34.45 51.5002 34.45C51.0178 34.45 50.6267 34.8411 50.6267 35.3235C50.6267 35.8058 51.0178 36.1969 51.5002 36.1969Z" fill="#FFA8CF"/>
<path d="M54.1423 36.1969C54.6247 36.1969 55.0158 35.8058 55.0158 35.3235C55.0158 34.8411 54.6247 34.45 54.1423 34.45C53.6599 34.45 53.2689 34.8411 53.2689 35.3235C53.2689 35.8058 53.6599 36.1969 54.1423 36.1969Z" fill="#FFA8CF"/>
<path d="M56.7845 36.1969C57.2669 36.1969 57.6579 35.8058 57.6579 35.3235C57.6579 34.8411 57.2669 34.45 56.7845 34.45C56.3021 34.45 55.911 34.8411 55.911 35.3235C55.911 35.8058 56.3021 36.1969 56.7845 36.1969Z" fill="#FFA8CF"/>
<path d="M64.2046 27.3148C64.0046 27.3148 63.8047 27.2386 63.6521 27.0861C63.3469 26.7809 63.3469 26.2863 63.6521 25.9813L66.4125 23.2208C66.7177 22.9158 67.2122 22.9158 67.5174 23.2208C67.8225 23.5259 67.8225 24.0206 67.5174 24.3256L64.7569 27.0861C64.6044 27.2386 64.4044 27.3148 64.2046 27.3148Z" fill="#FF5BA8"/>
<path d="M62.2538 25.1533C62.0538 25.1533 61.8539 25.077 61.7013 24.9245C61.3961 24.6194 61.3961 24.1247 61.7013 23.8197L64.4617 21.0592C64.7669 20.7542 65.2614 20.7542 65.5666 21.0592C65.8717 21.3644 65.8717 21.8591 65.5666 22.1641L62.8061 24.9245C62.6536 25.077 62.4538 25.1533 62.2538 25.1533Z" fill="#FF5BA8"/>
<path d="M14.9858 49.8166C14.7858 49.8166 14.586 49.7403 14.4333 49.5878C14.1282 49.2827 14.1282 48.788 14.4333 48.483L17.1938 45.7225C17.4989 45.4175 17.9935 45.4175 18.2986 45.7225C18.6038 46.0277 18.6038 46.5223 18.2986 46.8273L15.5382 49.5878C15.3857 49.7403 15.1857 49.8166 14.9858 49.8166Z" fill="#FF5BA8"/>
<path d="M13.035 47.6552C12.835 47.6552 12.6352 47.5789 12.4825 47.4264C12.1774 47.1213 12.1774 46.6266 12.4825 46.3216L15.243 43.5611C15.5482 43.2561 16.0427 43.2561 16.3478 43.5611C16.653 43.8662 16.653 44.3609 16.3478 44.6659L13.5875 47.4263C13.4349 47.5788 13.235 47.6552 13.035 47.6552Z" fill="#FF5BA8"/>
<path d="M41.0233 34.5422H40.7812V32.9359H41.7986C42.2301 32.9359 42.5798 32.5861 42.5798 32.1547C42.5798 31.7233 42.2301 31.3734 41.7986 31.3734H40.7812V30.9749C40.7812 30.5434 40.4315 30.1936 40 30.1936C39.5684 30.1936 39.2187 30.5434 39.2187 30.9749V31.3734H38.9767C37.6723 31.3734 36.6111 32.4347 36.6111 33.7392C36.6111 35.0436 37.6723 36.1049 38.9767 36.1049H39.2187V37.7113H38.2014C37.7698 37.7113 37.4201 38.0611 37.4201 38.4925C37.4201 38.9239 37.7698 39.2738 38.2014 39.2738H39.2187V39.6724C39.2187 40.1038 39.5684 40.4536 40 40.4536C40.4315 40.4536 40.7812 40.1038 40.7812 39.6724V39.2738H41.0233C42.3276 39.2738 43.3889 38.2125 43.3889 36.908C43.3887 35.6034 42.3275 34.5422 41.0233 34.5422ZM38.9767 34.5422C38.5339 34.5422 38.1736 34.1819 38.1736 33.7391C38.1736 33.2963 38.5339 32.9358 38.9767 32.9358H39.2187V34.5422H38.9767ZM41.0233 37.7111H40.7812V36.1047H41.0233C41.4661 36.1047 41.8264 36.465 41.8264 36.9078C41.8264 37.3506 41.4661 37.7111 41.0233 37.7111Z" fill="white"/>
<path d="M71.0531 42.8828C71.4847 42.8828 71.8344 42.533 71.8344 42.1015V20.2103C71.8344 18.0564 70.082 16.304 67.9281 16.304H12.0719C9.91796 16.304 8.16562 18.0564 8.16562 20.2103V50.4367C8.16562 52.0353 9.13124 53.4119 10.5094 54.0158V55.1453C10.5094 56.7186 11.4473 58.1148 12.8531 58.7267V59.7897C12.8531 61.9436 14.6055 63.6959 16.7594 63.6959H63.2406C65.3945 63.6959 67.1469 61.9436 67.1469 59.7897V58.7253C68.5523 58.1134 69.4906 56.7187 69.4906 55.1453V54.0158C70.8687 53.4117 71.8344 52.0351 71.8344 50.4367V46.4922C71.8344 46.0608 71.4847 45.7109 71.0531 45.7109C70.6216 45.7109 70.2719 46.0608 70.2719 46.4922V50.4367C70.2719 51.729 69.2205 52.7805 67.9281 52.7805H12.0719C10.7795 52.7805 9.72812 51.729 9.72812 50.4367V20.2103C9.72812 18.918 10.7795 17.8665 12.0719 17.8665H67.9281C69.2205 17.8665 70.2719 18.918 70.2719 20.2103V42.1015C70.2719 42.533 70.6217 42.8828 71.0531 42.8828ZM67.9281 54.343V55.1453C67.9281 56.2158 67.2056 57.149 66.1717 57.415C65.98 57.464 65.7825 57.489 65.5844 57.489H18.1348C17.7033 57.489 17.3536 57.8389 17.3536 58.2703C17.3536 58.7017 17.7033 59.0515 18.1348 59.0515H65.5844V59.7897C65.5844 61.082 64.533 62.1334 63.2406 62.1334H16.7594C15.467 62.1334 14.4156 61.082 14.4156 59.7897V58.1719C14.4156 57.8155 14.1744 57.5042 13.8292 57.4153C12.7945 57.1487 12.0719 56.2155 12.0719 55.1453V54.343H67.9281Z" fill="#2626BC"/>
<path d="M59.4124 23.5544C59.2708 22.8294 58.6263 22.3031 57.8797 22.3031H22.1202C21.3738 22.3031 20.7293 22.8294 20.5875 23.5542C20.0039 26.5409 17.8316 28.9481 14.9186 29.8367C14.2505 30.0405 13.8016 30.642 13.8016 31.3338V39.3131C13.8016 40.0049 14.2505 40.6064 14.9185 40.8102C17.8318 41.6988 20.0039 44.1059 20.5875 47.0925C20.7289 47.8175 21.3736 48.3438 22.1202 48.3438H57.8797C58.6261 48.3438 59.2708 47.8175 59.4124 47.0927C59.996 44.1059 62.1683 41.6988 65.0813 40.8102C65.7494 40.6064 66.1983 40.0049 66.1983 39.3131V31.3338C66.1983 30.642 65.7494 30.0405 65.0814 29.8367C62.1683 28.9483 59.9961 26.5409 59.4124 23.5544ZM64.6257 39.3158C61.1588 40.3731 58.5738 43.2383 57.8799 46.7814L22.1213 46.7931C21.4266 43.2384 18.8414 40.3731 15.3643 39.3133L15.3746 31.3314C18.8414 30.2741 21.4264 27.4089 22.1204 23.8658L57.8789 23.8541C58.5735 27.4084 61.1582 30.2733 64.636 31.338L64.6257 39.3158Z" fill="#2626BC"/>
<path d="M9.25781 59.5623H8.75V59.0545C8.75 58.6231 8.40031 58.2733 7.96875 58.2733C7.53719 58.2733 7.1875 58.6231 7.1875 59.0545V59.5623H6.67969C6.24812 59.5623 5.89844 59.9122 5.89844 60.3436C5.89844 60.775 6.24812 61.1248 6.67969 61.1248H7.1875V61.6327C7.1875 62.0641 7.53719 62.4139 7.96875 62.4139C8.40031 62.4139 8.75 62.0641 8.75 61.6327V61.1248H9.25781C9.68937 61.1248 10.0391 60.775 10.0391 60.3436C10.0391 59.9122 9.68937 59.5623 9.25781 59.5623Z" fill="#8399FE"/>
<path d="M24.0952 12.2005H23.5874V11.6927C23.5874 11.2613 23.2377 10.9114 22.8061 10.9114C22.3745 10.9114 22.0249 11.2613 22.0249 11.6927V12.2005H21.517C21.0855 12.2005 20.7358 12.5503 20.7358 12.9817C20.7358 13.4131 21.0855 13.763 21.517 13.763H22.0249V14.2708C22.0249 14.7022 22.3745 15.052 22.8061 15.052C23.2377 15.052 23.5874 14.7022 23.5874 14.2708V13.763H24.0952C24.5267 13.763 24.8764 13.4131 24.8764 12.9817C24.8764 12.5503 24.5267 12.2005 24.0952 12.2005Z" fill="#01ECA5"/>
<path d="M72.8288 60.8141H72.3209V60.3062C72.3209 59.8748 71.9713 59.525 71.5397 59.525C71.1081 59.525 70.7584 59.8748 70.7584 60.3062V60.8141H70.2506C69.8191 60.8141 69.4694 61.1639 69.4694 61.5953C69.4694 62.0267 69.8191 62.3766 70.2506 62.3766H70.7584V62.8844C70.7584 63.3158 71.1081 63.6656 71.5397 63.6656C71.9713 63.6656 72.3209 63.3158 72.3209 62.8844V62.3766H72.8288C73.2603 62.3766 73.61 62.0267 73.61 61.5953C73.61 61.1639 73.2603 60.8141 72.8288 60.8141Z" fill="#FF7EB8"/>
<path d="M70.2536 11.4727C70.0258 11.4727 69.7969 11.4381 69.5733 11.3686C68.9913 11.1877 68.5147 10.7909 68.231 10.2514C67.9475 9.71188 67.891 9.09422 68.0719 8.51219C68.2527 7.93032 68.6496 7.45375 69.1891 7.17016C69.7285 6.88656 70.3464 6.83016 70.928 7.0111C71.51 7.19203 71.9866 7.58875 72.2703 8.12828C72.5538 8.66782 72.6103 9.28532 72.4294 9.86735C72.2486 10.4494 71.8517 10.9259 71.3122 11.2095C70.9802 11.3841 70.6183 11.4727 70.2536 11.4727ZM70.25 8.47031C70.135 8.47031 70.021 8.49828 69.9163 8.55328C69.7461 8.64266 69.6211 8.79297 69.5641 8.97641C69.5071 9.15985 69.5249 9.35453 69.6141 9.52453C69.7035 9.69453 69.8538 9.81969 70.0372 9.87672C70.2208 9.93391 70.4155 9.91594 70.5853 9.82657C70.7555 9.73719 70.8805 9.58688 70.9375 9.40344C70.9946 9.22 70.9767 9.02547 70.8875 8.85532C70.7982 8.68532 70.6478 8.56016 70.4644 8.50313C70.3939 8.48125 70.3217 8.47031 70.25 8.47031Z" fill="#FF7EB8"/>
<path d="M11.7836 68.3785C11.5597 68.3785 11.3322 68.3452 11.1075 68.2753C9.90624 67.9017 9.2328 66.6205 9.60624 65.4191C9.98015 64.2178 11.2603 63.5442 12.4626 63.9178C13.6639 64.2914 14.3373 65.5727 13.9637 66.7741C13.66 67.7506 12.7564 68.3785 11.7836 68.3785ZM11.7855 65.3772C11.4787 65.3772 11.1941 65.575 11.0983 65.883C10.9806 66.2616 11.1928 66.6655 11.5716 66.7833C11.9503 66.9011 12.3539 66.6888 12.4719 66.31C12.5895 65.9313 12.3773 65.5275 11.9987 65.4097C11.9278 65.3877 11.8559 65.3772 11.7855 65.3772ZM13.2178 66.542H13.2194H13.2178Z" fill="#FF7EB8"/>
</g>
<defs>
<linearGradient id="paint0_linear" x1="65.7584" y1="12.7556" x2="28.4147" y2="70.7244" gradientUnits="userSpaceOnUse">
<stop offset="0.0112" stop-color="#DCFDEE"/>
<stop offset="0.3814" stop-color="#E8F1EE"/>
<stop offset="1" stop-color="#FFDBED"/>
</linearGradient>
<clipPath id="clip0">
<rect width="80" height="80" fill="white"/>
</clipPath>
</defs>
</svg>
