<svg width="24" height="24" viewBox="0 0 24 24" fill="none" xmlns="http://www.w3.org/2000/svg">
<path d="M13 5C13 4.45 12.55 4 12 4C11.45 4 11 4.45 11 5C11 5.55 11.45 6 12 6C12.55 6 13 5.55 13 5Z" fill="#415F8B" stroke="#415F8B" stroke-width="1.5"/>
<path d="M13 19C13 18.45 12.55 18 12 18C11.45 18 11 18.45 11 19C11 19.55 11.45 20 12 20C12.55 20 13 19.55 13 19Z" fill="#415F8B" stroke="#415F8B" stroke-width="1.5"/>
<path d="M13 12C13 11.45 12.55 11 12 11C11.45 11 11 11.45 11 12C11 12.55 11.45 13 12 13C12.55 13 13 12.55 13 12Z" fill="#415F8B" stroke="#415F8B" stroke-width="1.5"/>
</svg>
