<svg width="32" height="32" viewBox="0 0 32 32" fill="none" xmlns="http://www.w3.org/2000/svg">
<g clip-path="url(#clip0)">
<g filter="url(#filter0_d)">
<path d="M16 1C11.0373 1 7 4.95851 7 9.82431V22.1757C7 27.0415 11.0373 31 16 31C20.9627 31 25 27.0415 25 22.1757V9.82431C25 4.95851 20.9627 1 16 1Z" fill="white"/>
<path d="M7.75 9.82431C7.75 5.3866 11.4375 1.75 16 1.75C20.5625 1.75 24.25 5.3866 24.25 9.82431V22.1757C24.25 26.6134 20.5625 30.25 16 30.25C11.4375 30.25 7.75 26.6134 7.75 22.1757V9.82431Z" stroke="#415F8B" stroke-width="1.5" stroke-linecap="round" stroke-linejoin="round"/>
</g>
<path d="M15.9756 7.36572C15.4453 7.36572 15.0156 7.79541 15.0156 8.32568V12.7441C15.0156 13.2742 15.4453 13.7041 15.9756 13.7041C16.5056 13.7041 16.9355 13.2742 16.9355 12.7441V8.32568C16.9355 7.79541 16.5059 7.36572 15.9756 7.36572Z" fill="#415F8B"/>
</g>
<defs>
<filter id="filter0_d" x="-3" y="-7" width="42" height="54" filterUnits="userSpaceOnUse" color-interpolation-filters="sRGB">
<feFlood flood-opacity="0" result="BackgroundImageFix"/>
<feColorMatrix in="SourceAlpha" type="matrix" values="0 0 0 0 0 0 0 0 0 0 0 0 0 0 0 0 0 0 127 0" result="hardAlpha"/>
<feOffset dx="2" dy="4"/>
<feGaussianBlur stdDeviation="6"/>
<feColorMatrix type="matrix" values="0 0 0 0 1 0 0 0 0 1 0 0 0 0 1 0 0 0 0.25 0"/>
<feBlend mode="normal" in2="BackgroundImageFix" result="effect1_dropShadow"/>
<feBlend mode="normal" in="SourceGraphic" in2="effect1_dropShadow" result="shape"/>
</filter>
<clipPath id="clip0">
<rect width="32" height="32" fill="white"/>
</clipPath>
</defs>
</svg>
