<svg width="40" height="22" viewBox="0 0 40 22" fill="none" xmlns="http://www.w3.org/2000/svg">
<rect x="1" y="1" width="38" height="20" fill="#F7F9FF" stroke="#C4D7E7" stroke-width="0.5"/>
<path d="M16.2407 5.63636H15.5887V8.84091H15.5482L13.328 5.63636H12.7187V10H13.377V6.79972H13.4175L15.6356 10H16.2407V5.63636ZM17.2011 10H19.9624V9.43324H17.8595V8.0973H19.7941V7.53267H17.8595V6.20312H19.9369V5.63636H17.2011V10ZM20.8163 10H21.4747V8.0973H23.3284V7.53267H21.4747V6.20312H23.5223V5.63636H20.8163V10ZM24.1167 6.20312H25.4761V10H26.1324V6.20312H27.4939V5.63636H24.1167V6.20312ZM12.5048 17H13.1632V15.3487H14.0581C14.073 15.3487 14.0858 15.3487 14.1007 15.3487L14.987 17H15.737L14.7697 15.2337C15.3045 15.0355 15.5708 14.5902 15.5708 14.0043C15.5708 13.201 15.0723 12.6364 14.0602 12.6364H12.5048V17ZM13.1632 14.782V13.201H13.9899C14.6397 13.201 14.9082 13.5099 14.9082 14.0043C14.9082 14.4964 14.6397 14.782 13.9984 14.782H13.1632ZM16.1568 13.2031H17.5162V17H18.1724V13.2031H19.5339V12.6364H16.1568V13.2031ZM23.0517 14.0149H23.7271C23.5801 13.1648 22.8535 12.5767 21.9118 12.5767C20.7825 12.5767 19.9579 13.4268 19.9579 14.8203C19.9579 16.201 20.7591 17.0597 21.9416 17.0597C23.0005 17.0597 23.7569 16.3651 23.7569 15.2635V14.767H22.0417V15.3104H23.1199C23.1049 16.0135 22.6404 16.4588 21.9416 16.4588C21.1724 16.4588 20.612 15.8771 20.612 14.8161C20.612 13.7592 21.1767 13.1776 21.916 13.1776C22.4956 13.1776 22.8876 13.4972 23.0517 14.0149ZM26.9727 13.7827H27.6076C27.5884 13.0838 26.9705 12.5767 26.0842 12.5767C25.2085 12.5767 24.5373 13.0774 24.5373 13.8295C24.5373 14.4368 24.9719 14.7926 25.6729 14.9822L26.1886 15.1229C26.6552 15.2464 27.0153 15.3999 27.0153 15.7876C27.0153 16.2138 26.6083 16.495 26.0479 16.495C25.5408 16.495 25.119 16.2692 25.0806 15.794H24.4201C24.4627 16.5845 25.0742 17.0724 26.0522 17.0724C27.0771 17.0724 27.6673 16.5334 27.6673 15.794C27.6673 15.0078 26.9663 14.7031 26.4123 14.5668L25.9862 14.456C25.6452 14.3686 25.1914 14.2088 25.1935 13.7912C25.1935 13.4205 25.5323 13.1456 26.0692 13.1456C26.57 13.1456 26.9258 13.38 26.9727 13.7827Z" fill="#153059"/>
</svg>
