<svg width="40" height="22" viewBox="0 0 40 22" fill="none" xmlns="http://www.w3.org/2000/svg">
<rect x="1" y="1" width="38" height="20" fill="#F7F9FF" stroke="#C4D7E7" stroke-width="0.5"/>
<path d="M19.3833 5.63636H18.7313V8.84091H18.6908L16.4706 5.63636H15.8612V10H16.5196V6.79972H16.5601L18.7781 10H19.3833V5.63636ZM21.703 10.0661C22.4168 10.0661 22.9218 9.71449 23.0667 9.18182L22.4637 9.07315C22.3486 9.3821 22.0716 9.53977 21.7094 9.53977C21.164 9.53977 20.7975 9.18608 20.7805 8.5554H23.1072V8.32955C23.1072 7.14702 22.3998 6.68466 21.6583 6.68466C20.7464 6.68466 20.1455 7.37926 20.1455 8.38494C20.1455 9.40128 20.7378 10.0661 21.703 10.0661ZM20.7826 8.07812C20.8081 7.61364 21.1448 7.21094 21.6626 7.21094C22.1569 7.21094 22.4807 7.57741 22.4829 8.07812H20.7826ZM25.3417 6.72727H24.6705V5.94318H24.0335V6.72727H23.5541V7.23864H24.0335V9.17116C24.0313 9.76562 24.4852 10.0533 24.988 10.0426C25.1904 10.0405 25.3268 10.0021 25.4014 9.97443L25.2863 9.44815C25.2437 9.45668 25.1649 9.47585 25.0626 9.47585C24.8559 9.47585 24.6705 9.40767 24.6705 9.03906V7.23864H25.3417V6.72727ZM9.45401 17H11.1266C12.1408 17 12.5989 16.495 12.5989 15.826C12.5989 15.1506 12.1259 14.7692 11.6934 14.7457V14.7031C12.0939 14.6009 12.4284 14.3281 12.4284 13.7827C12.4284 13.1371 11.981 12.6364 11.052 12.6364H9.45401V17ZM10.1124 16.4354V15.0376H11.0861C11.6145 15.0376 11.9448 15.3786 11.9448 15.794C11.9448 16.1605 11.6955 16.4354 11.0627 16.4354H10.1124ZM10.1124 14.5241V13.1967H11.0115C11.5336 13.1967 11.7828 13.4716 11.7828 13.8338C11.7828 14.2557 11.4377 14.5241 10.9945 14.5241H10.1124ZM14.2811 17.0724C14.8223 17.0724 15.127 16.7976 15.2484 16.5526H15.274V17H15.8961V14.8267C15.8961 13.8743 15.1461 13.6847 14.6262 13.6847C14.0339 13.6847 13.4885 13.9233 13.2754 14.5199L13.8741 14.6562C13.9679 14.424 14.2065 14.2003 14.6348 14.2003C15.046 14.2003 15.2569 14.4155 15.2569 14.7862V14.8011C15.2569 15.0334 15.0183 15.0291 14.4302 15.0973C13.8102 15.1697 13.1752 15.3317 13.1752 16.0753C13.1752 16.7188 13.6589 17.0724 14.2811 17.0724ZM14.4196 16.5611C14.0595 16.5611 13.7995 16.3991 13.7995 16.0838C13.7995 15.7429 14.1021 15.6214 14.4707 15.5724C14.6774 15.5447 15.1674 15.4893 15.2591 15.3977V15.8196C15.2591 16.2074 14.9501 16.5611 14.4196 16.5611ZM17.3817 15.0568C17.3817 14.5348 17.7013 14.2365 18.1445 14.2365C18.5771 14.2365 18.8391 14.5199 18.8391 14.995V17H19.4762V14.9183C19.4762 14.1087 19.0309 13.6847 18.3619 13.6847C17.8697 13.6847 17.5479 13.9126 17.3967 14.2599H17.3562V13.7273H16.7447V17H17.3817V15.0568ZM20.3306 17H20.9677V15.8388L21.2852 15.5213L22.3974 17H23.1793L21.7646 15.1314L23.0898 13.7273H22.3271L21.0231 15.1122H20.9677V12.6364H20.3306V17ZM23.6705 17H24.3075V13.7273H23.6705V17ZM23.9922 13.2223C24.2116 13.2223 24.3949 13.0518 24.3949 12.843C24.3949 12.6342 24.2116 12.4616 23.9922 12.4616C23.7706 12.4616 23.5895 12.6342 23.5895 12.843C23.5895 13.0518 23.7706 13.2223 23.9922 13.2223ZM25.8017 15.0568C25.8017 14.5348 26.1213 14.2365 26.5645 14.2365C26.997 14.2365 27.2591 14.5199 27.2591 14.995V17H27.8961V14.9183C27.8961 14.1087 27.4508 13.6847 26.7818 13.6847C26.2896 13.6847 25.9679 13.9126 25.8166 14.2599H25.7761V13.7273H25.1646V17H25.8017V15.0568ZM30.1227 18.2891C30.9558 18.2891 31.5993 17.9077 31.5993 17.0724V13.7273H30.975V14.2578H30.9281C30.8152 14.0554 30.5893 13.6847 29.9799 13.6847C29.1895 13.6847 28.6078 14.3089 28.6078 15.3509C28.6078 16.3949 29.2022 16.951 29.9757 16.951C30.5765 16.951 30.8088 16.6122 30.9238 16.4034H30.9643V17.0469C30.9643 17.5518 30.6127 17.7756 30.1291 17.7756C29.5985 17.7756 29.3919 17.5092 29.2789 17.3281L28.7314 17.554C28.9039 17.9482 29.3407 18.2891 30.1227 18.2891ZM30.1163 16.4226C29.5474 16.4226 29.2512 15.9858 29.2512 15.3423C29.2512 14.7138 29.541 14.2259 30.1163 14.2259C30.6724 14.2259 30.9707 14.6797 30.9707 15.3423C30.9707 16.0178 30.666 16.4226 30.1163 16.4226Z" fill="#153059"/>
</svg>
