<svg width="71" height="48" viewBox="0 0 71 48" fill="none" xmlns="http://www.w3.org/2000/svg">
<path d="M63.8643 0H7.13568C3.19475 0 0 3.28097 0 7.32824V40.6718C0 44.719 3.19475 48 7.13568 48H63.8643C67.8053 48 71 44.719 71 40.6718V7.32824C71 3.28097 67.8053 0 63.8643 0Z" fill="#2196F3"/>
<path fill-rule="evenodd" clip-rule="evenodd" d="M35.3115 17.9375L29.9705 21.3904V24.4594L32.641 25.9939L29.9705 27.5284V30.9813L35.3115 34.0502L40.6526 30.9813V27.5284L37.982 25.9939L40.6526 24.4594V21.3904L35.3115 17.9375ZM32.641 29.0629L35.3115 27.5284L37.982 29.0629L35.3115 30.9813L32.641 29.0629ZM35.3115 24.4594L37.982 22.9245L35.3115 21.0065L32.641 22.9245L35.3115 24.459V24.4594Z" fill="#FEFEFE"/>
<path d="M46.3237 15.6357H24.6048C24.4078 15.6357 24.248 15.7964 24.248 15.9945V34.8376C24.248 35.0357 24.4078 35.1964 24.6048 35.1964H46.3237C46.5207 35.1964 46.6805 35.0357 46.6805 34.8376V15.9945C46.6805 15.7964 46.5207 15.6357 46.3237 15.6357Z" stroke="#FEFEFE" stroke-width="2.362"/>
<path d="M26.5841 13.4668L26.2446 13.5977L26.9415 15.425L27.2809 15.2941L26.5841 13.4668Z" fill="#FEFEFE"/>
<path fill-rule="evenodd" clip-rule="evenodd" d="M27.2999 13.718V14.1015H25.774L25.3926 13.718V13.3345H27.2999V13.718Z" fill="#FEFEFE"/>
<path d="M30.7711 13.1929L30.418 13.3291L31.1427 15.2295L31.4958 15.0934L30.7711 13.1929Z" fill="#FEFEFE"/>
<path fill-rule="evenodd" clip-rule="evenodd" d="M31.4965 12.9504L31.8779 13.7179H29.9705L29.5891 12.9504V12.5669H31.4965V12.9504Z" fill="#FEFEFE"/>
<path d="M35.3154 12.9502H34.9301V15.3275H35.3154V12.9502Z" fill="#FEFEFE"/>
<path fill-rule="evenodd" clip-rule="evenodd" d="M33.7855 12.1829V11.7993H36.8375V12.1829L36.0743 13.3338H34.5487L33.7855 12.1829Z" fill="#FEFEFE"/>
<path d="M43.9693 13.5972L43.6299 13.4663L42.933 15.2937L43.2725 15.4246L43.9693 13.5972Z" fill="#FEFEFE"/>
<path fill-rule="evenodd" clip-rule="evenodd" d="M42.9429 13.718V14.1015H44.4688L44.8502 13.718V13.3345H42.9429V13.718Z" fill="#FEFEFE"/>
<path d="M39.7967 13.329L39.4436 13.1929L38.7189 15.0933L39.072 15.2295L39.7967 13.329Z" fill="#FEFEFE"/>
<path fill-rule="evenodd" clip-rule="evenodd" d="M38.7453 12.9504L38.3639 13.7179H40.2713L40.6527 12.9504V12.5669H38.7453V12.9504Z" fill="#FEFEFE"/>
</svg>
