<svg width="24" height="24" viewBox="0 0 24 24" fill="none" xmlns="http://www.w3.org/2000/svg">
<circle cx="12" cy="12" r="12" fill="#415F8B"/>
<ellipse cx="11.6841" cy="8.10616" rx="3.58352" ry="3.55636" fill="white" stroke="white" stroke-width="1.5" stroke-linecap="round" stroke-linejoin="round"/>
<path fill-rule="evenodd" clip-rule="evenodd" d="M6.00001 16.6086C5.99905 16.3586 6.05539 16.1117 6.16477 15.8865C6.50802 15.2052 7.47598 14.8441 8.27919 14.6806C8.85846 14.5579 9.44573 14.4759 10.0366 14.4353C11.1306 14.3399 12.231 14.3399 13.325 14.4353C13.9158 14.4764 14.503 14.5583 15.0824 14.6806C15.8856 14.8441 16.8536 15.1711 17.1968 15.8865C17.4168 16.3455 17.4168 16.8785 17.1968 17.3376C16.8536 18.053 15.8856 18.38 15.0824 18.5367C14.5038 18.6645 13.9163 18.7487 13.325 18.7888C12.4345 18.8637 11.5399 18.8773 10.6476 18.8296C10.4417 18.8296 10.2426 18.8296 10.0366 18.7888C9.44747 18.7492 8.86224 18.6649 8.28605 18.5367C7.47598 18.38 6.51489 18.053 6.16477 17.3376C6.05595 17.1098 5.99966 16.8608 6.00001 16.6086Z" fill="white" stroke="white" stroke-width="1.5" stroke-linecap="round" stroke-linejoin="round"/>
</svg>
