<svg width="24" height="24" viewBox="0 0 24 24" fill="none" xmlns="http://www.w3.org/2000/svg">
<path d="M8.84819 7.40527V11.1503" stroke="#415F8B" stroke-width="1.5" stroke-linecap="round" stroke-linejoin="round"/>
<path d="M10.7591 9.27806H6.93799" stroke="#415F8B" stroke-width="1.5" stroke-linecap="round" stroke-linejoin="round"/>
<path d="M15.3661 7.51927H15.259" stroke="#415F8B" stroke-width="1.5" stroke-linecap="round" stroke-linejoin="round"/>
<path d="M17.1795 11.094H17.0725" stroke="#415F8B" stroke-width="1.5" stroke-linecap="round" stroke-linejoin="round"/>
<path fill-rule="evenodd" clip-rule="evenodd" d="M16.4283 17.5892C13.4231 17.6401 10.473 17.638 7.57275 17.5892C4.3535 17.5892 2 15.293 2 12.1379V7.48832C2 4.33322 4.3535 2.037 7.57275 2.037C10.4889 1.98715 13.4411 1.98819 16.4283 2.037C19.6476 2.037 22 4.33426 22 7.48832V12.1379C22 15.293 19.6476 17.5892 16.4283 17.5892Z" stroke="#415F8B" stroke-width="1.5" stroke-linecap="round" stroke-linejoin="round"/>
<line x1="12.25" y1="18.25" x2="12.25" y2="20.25" stroke="#415F8B" stroke-width="1.5" stroke-linecap="round" stroke-linejoin="round"/>
<line x1="6.75" y1="21.25" x2="17.25" y2="21.25" stroke="#415F8B" stroke-width="1.5" stroke-linecap="round" stroke-linejoin="round"/>
</svg>
