<svg width="24" height="24" viewBox="0 0 24 24" fill="none" xmlns="http://www.w3.org/2000/svg">
<path d="M11.9999 1.8938C11.2689 1.8938 10.5679 2.18419 10.051 2.70108C9.53407 3.21798 9.24368 3.91904 9.24368 4.65005V12C9.24368 12.731 9.53407 13.4321 10.051 13.949C10.5679 14.4659 11.2689 14.7563 11.9999 14.7563C12.7309 14.7563 13.432 14.4659 13.9489 13.949C14.4658 13.4321 14.7562 12.731 14.7562 12V4.65005C14.7562 3.91904 14.4658 3.21798 13.9489 2.70108C13.432 2.18419 12.7309 1.8938 11.9999 1.8938V1.8938Z" stroke="#415F8B" stroke-width="1.5" stroke-linecap="round" stroke-linejoin="round"/>
<path d="M18.4313 10.1626V12.0001C18.4313 13.7058 17.7537 15.3416 16.5476 16.5477C15.3415 17.7538 13.7057 18.4313 12 18.4313C10.2944 18.4313 8.65855 17.7538 7.45245 16.5477C6.24636 15.3416 5.56879 13.7058 5.56879 12.0001V10.1626" stroke="#415F8B" stroke-width="1.5" stroke-linecap="round" stroke-linejoin="round"/>
<path d="M12 18.4314V22.1064" stroke="#415F8B" stroke-width="1.5" stroke-linecap="round" stroke-linejoin="round"/>
<path d="M8.32497 22.1062H15.675" stroke="#415F8B" stroke-width="1.5" stroke-linecap="round" stroke-linejoin="round"/>
</svg>
