<svg width="20" height="20" viewBox="0 0 20 20" fill="none" xmlns="http://www.w3.org/2000/svg">
<path d="M14.8 6.8C16.1255 6.8 17.2 5.72548 17.2 4.4C17.2 3.07452 16.1255 2 14.8 2C13.4745 2 12.4 3.07452 12.4 4.4C12.4 5.72548 13.4745 6.8 14.8 6.8Z" stroke="#415F8B" stroke-linecap="round" stroke-linejoin="round"/>
<path d="M5.20005 12.3999C6.52553 12.3999 7.60005 11.3253 7.60005 9.99985C7.60005 8.67437 6.52553 7.59985 5.20005 7.59985C3.87457 7.59985 2.80005 8.67437 2.80005 9.99985C2.80005 11.3253 3.87457 12.3999 5.20005 12.3999Z" stroke="#415F8B" stroke-linecap="round" stroke-linejoin="round"/>
<path d="M14.8 18C16.1255 18 17.2 16.9254 17.2 15.6C17.2 14.2745 16.1255 13.2 14.8 13.2C13.4745 13.2 12.4 14.2745 12.4 15.6C12.4 16.9254 13.4745 18 14.8 18Z" stroke="#415F8B" stroke-linecap="round" stroke-linejoin="round"/>
<path d="M7.27197 11.208L12.736 14.392" stroke="#415F8B" stroke-linecap="round" stroke-linejoin="round"/>
<path d="M12.728 5.60791L7.27197 8.79191" stroke="#415F8B" stroke-linecap="round" stroke-linejoin="round"/>
</svg>
