<svg width="20" height="20" viewBox="0 0 20 20" fill="none" xmlns="http://www.w3.org/2000/svg">
<path d="M7.80005 7.63989C9.22405 8.15989 10.776 8.15989 12.2 7.63989" stroke="#415F8B" stroke-linecap="round" stroke-linejoin="round"/>
<path d="M13.856 2H6.14403C4.44003 2 3.05603 3.392 3.05603 5.088V16.36C3.05603 17.8 4.08803 18.408 5.35203 17.712L9.25603 15.544C9.67203 15.312 10.344 15.312 10.752 15.544L14.656 17.712C15.92 18.416 16.952 17.808 16.952 16.36V5.088C16.944 3.392 15.56 2 13.856 2Z" stroke="#415F8B" stroke-linecap="round" stroke-linejoin="round"/>
<path d="M13.856 2H6.14403C4.44003 2 3.05603 3.392 3.05603 5.088V16.36C3.05603 17.8 4.08803 18.408 5.35203 17.712L9.25603 15.544C9.67203 15.312 10.344 15.312 10.752 15.544L14.656 17.712C15.92 18.416 16.952 17.808 16.952 16.36V5.088C16.944 3.392 15.56 2 13.856 2Z" stroke="#415F8B" stroke-linecap="round" stroke-linejoin="round"/>
</svg>
