<svg xmlns="http://www.w3.org/2000/svg" width="199" height="131" viewBox="0 0 199 131">
  <g id="Surface" transform="translate(-467 -305)">
    <rect id="Rectangle_86" data-name="Rectangle 86" width="199" height="131" rx="20" transform="translate(467 305)" fill="#37bae6"/>
    <g id="Digiad" transform="translate(527.526 331.399)">
      <g id="Layer_1" data-name="Layer 1">
        <path id="Path_46" data-name="Path 46" d="M9.99,154.917V98.51H0v65.3H65.3v-8.894Z" transform="translate(0 -86.509)" fill="#fff"/>
        <path id="Path_47" data-name="Path 47" d="M107.91,0V65.321h65.322V0Zm57.822,41.3q0,6.052-3.492,9.146t-9.746,3.093H131.077V46.227h22.816a4.142,4.142,0,0,0,3.226-1.462,5.229,5.229,0,0,0,1.3-3.593,5.171,5.171,0,0,0-1.3-3.492,4.1,4.1,0,0,0-3.226-1.5H142.118a15.3,15.3,0,0,1-6.152-1.1,11.692,11.692,0,0,1-4.058-2.828,10.6,10.6,0,0,1-2.261-3.891,13.856,13.856,0,0,1-.7-4.291,15.136,15.136,0,0,1,.731-4.751,10.37,10.37,0,0,1,2.328-3.924,10.933,10.933,0,0,1,4.091-2.661,16.708,16.708,0,0,1,6.02-.965h20.822v7.317H140.988a4.443,4.443,0,0,0-3.326,1.462,4.767,4.767,0,0,0-1.4,3.393,4.871,4.871,0,0,0,1.364,3.493,4.521,4.521,0,0,0,3.429,1.424h11.574q6.052,0,9.579,3.093t3.525,9.08Z" transform="translate(-94.763)" fill="#fff"/>
      </g>
    </g>
  </g>
</svg>
