<svg width="17" height="14" viewBox="0 0 17 14" fill="none" xmlns="http://www.w3.org/2000/svg">
<path d="M14.4064 3.57943C14.6127 8.16111 11.1689 13.2636 5.07519 13.2636C3.21894 13.2636 1.49394 12.7242 0.0439453 11.8004C1.78769 12.005 3.52519 11.5276 4.90644 10.455C3.46894 10.4302 2.25644 9.48787 1.83769 8.19211C2.35019 8.29131 2.85644 8.26031 3.31894 8.13631C1.73769 7.82012 0.650194 6.41276 0.687694 4.9C1.13144 5.14179 1.63769 5.29059 2.17519 5.30919C0.712694 4.34201 0.300195 2.42626 1.15644 0.963104C2.77519 2.93465 5.19394 4.23042 7.92518 4.36681C7.45018 2.32707 9.00643 0.36792 11.1252 0.36792C12.0689 0.36792 12.9189 0.764709 13.5189 1.39709C14.2689 1.2483 14.9689 0.981703 15.6064 0.609713C15.3627 1.37229 14.8377 2.01088 14.1627 2.41386C14.8252 2.33327 15.4564 2.15967 16.0502 1.89928C15.6002 2.55026 15.0439 3.12065 14.4064 3.57943Z" fill="#099DED"/>
</svg>
