<svg width="40" height="22" viewBox="0 0 40 22" fill="none" xmlns="http://www.w3.org/2000/svg">
<rect x="1" y="1" width="38" height="20" fill="#F7F9FF" stroke="#C4D7E7" stroke-width="0.5"/>
<path d="M18.3461 9.63636V12.4531C18.3461 13.0455 17.937 13.4716 17.2722 13.4716C16.6096 13.4716 16.1983 13.0455 16.1983 12.4531V9.63636H15.54V12.5064C15.54 13.4226 16.226 14.0724 17.2722 14.0724C18.3184 14.0724 19.0066 13.4226 19.0066 12.5064V9.63636H18.3461ZM19.9638 14H20.6222V12.4659H21.517C22.5291 12.4659 23.0298 11.8544 23.0298 11.049C23.0298 10.2457 22.5334 9.63636 21.5192 9.63636H19.9638V14ZM20.6222 11.9077V10.201H21.4489C22.1009 10.201 22.3672 10.5547 22.3672 11.049C22.3672 11.5433 22.1009 11.9077 21.4574 11.9077H20.6222ZM24.46 9.63636H23.8017V14H24.46V9.63636Z" fill="#153059"/>
</svg>
