<svg width="80" height="80" viewBox="0 0 80 80" fill="none" xmlns="http://www.w3.org/2000/svg">
<path d="M57.0036 8.62731C46.207 4.40309 31.2561 6.00793 22.9939 13.5507C17.1602 18.8765 21.6753 20.3945 25.6527 30.1398C28.5312 37.1929 0 36.2222 0 48.9672C0 63.7014 20.6642 60.9084 28.3327 62.595C40.057 65.1737 50.2852 74.8203 62.812 73.5486C73.7175 72.4414 77.875 63.8837 79.3916 54.0733C82.2169 35.7958 75.2777 15.7773 57.0036 8.62731Z" fill="url(#paint0_linear)"/>
<path d="M68.4459 65.741C74.2835 57.3487 73.0556 47.3953 70.3868 41.8128C69.8145 40.6158 69.7327 39.3822 69.7327 38.0896C69.7327 26.5341 60.3651 17.1666 48.8097 17.1666C37.2544 17.1666 27.8867 26.5343 27.8867 38.0896C27.8867 39.3879 27.8 40.6243 27.2261 41.8265C23.5696 49.4873 24.3348 58.7643 29.1879 65.722L68.4459 65.741Z" fill="#F1B279"/>
<path d="M26.2882 72.6389C26.2882 60.2142 36.3603 50.1421 48.785 50.1421C61.2097 50.1421 71.2818 60.2142 71.2818 72.6389H26.2882Z" fill="#FFA8CF"/>
<path d="M48.785 50.1421C47.8969 50.1421 47.0207 50.1937 46.1594 50.2939C57.3469 51.5944 66.0305 61.1026 66.0305 72.6391H71.2819C71.2819 60.2142 61.2096 50.1421 48.785 50.1421Z" fill="#FF78C2"/>
<path d="M59.4089 30.7965C52.7162 45.0826 37.6196 42.5035 34.3018 41.8603C34.8895 49.3475 41.1469 55.2413 48.785 55.2413C56.8113 55.2413 63.3179 48.7346 63.3179 40.7084C63.3179 36.8763 61.8324 33.3929 59.4089 30.7965Z" fill="#FFDBD3"/>
<path d="M37.6349 42.3363C36.1475 42.2035 34.9792 41.9916 34.3019 41.8602C34.3174 42.0574 34.3368 42.2534 34.3601 42.4484C35.3766 42.4727 36.48 42.4463 37.6349 42.3363Z" fill="#FFD1C7"/>
<path d="M59.409 30.7965C58.6635 32.3879 57.8137 33.77 56.8875 34.9688C57.646 36.7292 58.0667 38.6695 58.0667 40.7083C58.0667 47.8381 52.9324 53.7687 46.1595 55.0046C47.011 55.1601 47.8885 55.2413 48.7852 55.2413C56.8115 55.2413 63.318 48.7346 63.318 40.7084C63.318 36.8763 61.8326 33.3929 59.409 30.7965Z" fill="#FFD1C7"/>
<path d="M33.1775 38.2695H29.9063V42.8668L23.6522 38.2695H14.2814H15.1218C10.8783 38.2695 7.43814 34.832 7.43814 30.5916V15.0687C7.43814 10.8284 10.8782 7.39087 15.1218 7.39087H32.3373C36.5808 7.39087 40.021 10.8284 40.021 15.0687V30.5916C40.021 34.7763 36.5251 38.2695 32.3373 38.2695H33.1775Z" fill="#A6F5CF"/>
<path d="M32.337 7.39087H27.0856C31.3291 7.39087 34.7693 10.8284 34.7693 15.0687V30.5916C34.7693 34.7763 31.2734 38.2695 27.0856 38.2695H23.7292L24.6548 39.0067L29.9061 42.8668V38.2695H32.337C36.5248 38.2695 40.0206 34.7763 40.0206 30.5916V15.0687C40.0206 10.8284 36.5804 7.39087 32.337 7.39087Z" fill="#8AEDBD"/>
<path d="M17.7336 30.9328C16.2876 30.9328 15.1154 29.7606 15.1154 28.3146V22.2766C15.1154 20.8307 16.2876 19.6584 17.7336 19.6584C19.1795 19.6584 20.3518 20.8307 20.3518 22.2766V28.3146C20.3518 29.7607 19.1795 30.9328 17.7336 30.9328Z" fill="#FFD54D"/>
<path d="M32.2977 21.9635L32.3033 21.9413C32.5059 21.1503 31.9065 20.3815 31.09 20.3848C30.7865 20.386 30.463 20.3869 30.1408 20.3873C28.7629 20.3888 26.5851 20.3902 25.6453 20.3902V15.9886C25.6453 14.8786 24.1132 14.4808 23.567 15.4512L20.6213 21.4741C20.4355 21.854 20.3389 22.2714 20.3389 22.6944V27.3125C20.3389 28.0926 20.667 28.8367 21.2428 29.3629C21.9738 30.0308 22.9307 30.4015 23.9241 30.4015C25.8977 30.4015 27.6643 30.3935 29.1667 30.3989C29.738 30.4009 30.2363 30.0146 30.3781 29.4611L30.3817 29.4466C30.5838 28.6577 32.1564 22.5154 32.2977 21.9635Z" fill="white"/>
<path d="M49.4211 10.9671C49.9648 10.9671 50.4057 10.5262 50.4057 9.98243C50.4057 9.43864 49.9648 8.9978 49.4211 8.9978C48.8773 8.9978 48.4364 9.43864 48.4364 9.98243C48.4364 10.5262 48.8773 10.9671 49.4211 10.9671Z" fill="#2626BC"/>
<path d="M59.399 10.9671C59.9428 10.9671 60.3836 10.5262 60.3836 9.98243C60.3836 9.43864 59.9428 8.9978 59.399 8.9978C58.8552 8.9978 58.4143 9.43864 58.4143 9.98243C58.4143 10.5262 58.8552 10.9671 59.399 10.9671Z" fill="#2626BC"/>
<path d="M44.4321 10.9671C44.9759 10.9671 45.4167 10.5262 45.4167 9.98243C45.4167 9.43864 44.9759 8.9978 44.4321 8.9978C43.8883 8.9978 43.4474 9.43864 43.4474 9.98243C43.4474 10.5262 43.8883 10.9671 44.4321 10.9671Z" fill="#2626BC"/>
<path d="M54.41 10.9671C54.9538 10.9671 55.3947 10.5262 55.3947 9.98243C55.3947 9.43864 54.9538 8.9978 54.41 8.9978C53.8662 8.9978 53.4254 9.43864 53.4254 9.98243C53.4254 10.5262 53.8662 10.9671 54.41 10.9671Z" fill="#2626BC"/>
<path d="M64.3873 10.9671C64.9311 10.9671 65.3719 10.5262 65.3719 9.98243C65.3719 9.43864 64.9311 8.9978 64.3873 8.9978C63.8435 8.9978 63.4026 9.43864 63.4026 9.98243C63.4026 10.5262 63.8435 10.9671 64.3873 10.9671Z" fill="#2626BC"/>
<path d="M69.2331 11.1101C69.7769 11.1101 70.2177 10.6693 70.2177 10.1255C70.2177 9.5817 69.7769 9.14087 69.2331 9.14087C68.6893 9.14087 68.2484 9.5817 68.2484 10.1255C68.2484 10.6693 68.6893 11.1101 69.2331 11.1101Z" fill="#2626BC"/>
<path d="M69.2331 16.0989C69.7769 16.0989 70.2177 15.6581 70.2177 15.1143C70.2177 14.5705 69.7769 14.1296 69.2331 14.1296C68.6893 14.1296 68.2484 14.5705 68.2484 15.1143C68.2484 15.6581 68.6893 16.0989 69.2331 16.0989Z" fill="#2626BC"/>
<path d="M69.2331 21.0878C69.7769 21.0878 70.2177 20.647 70.2177 20.1032C70.2177 19.5594 69.7769 19.1185 69.2331 19.1185C68.6893 19.1185 68.2484 19.5594 68.2484 20.1032C68.2484 20.647 68.6893 21.0878 69.2331 21.0878Z" fill="#2626BC"/>
<path d="M9.3785 60.0908C9.92229 60.0908 10.3631 59.65 10.3631 59.1062C10.3631 58.5624 9.92229 58.1216 9.3785 58.1216C8.8347 58.1216 8.39387 58.5624 8.39387 59.1062C8.39387 59.65 8.8347 60.0908 9.3785 60.0908Z" fill="#2626BC"/>
<path d="M14.8525 63.4124C14.309 63.4124 13.8679 63.8522 13.8679 64.397C13.8679 64.9405 14.309 65.3803 14.8525 65.3803C15.3961 65.3803 15.8371 64.9404 15.8371 64.397C15.8371 63.852 15.3961 63.4124 14.8525 63.4124Z" fill="#2626BC"/>
<path d="M20.2352 63.4124C19.6917 63.4124 19.2505 63.8522 19.2505 64.397C19.2505 64.9405 19.6917 65.3803 20.2352 65.3803C20.7788 65.3803 21.2198 64.9404 21.2198 64.397C21.2198 63.852 20.7788 63.4124 20.2352 63.4124Z" fill="#2626BC"/>
<path d="M9.46983 63.4124C8.92631 63.4124 8.4852 63.8522 8.4852 64.397C8.4852 64.9405 8.92631 65.3803 9.46983 65.3803C10.0135 65.3803 10.4545 64.9404 10.4545 64.397C10.4545 63.852 10.0135 63.4124 9.46983 63.4124Z" fill="#2626BC"/>
<path d="M9.3785 49.3256C9.92229 49.3256 10.3631 48.8847 10.3631 48.341C10.3631 47.7972 9.92229 47.3563 9.3785 47.3563C8.8347 47.3563 8.39387 47.7972 8.39387 48.341C8.39387 48.8847 8.8347 49.3256 9.3785 49.3256Z" fill="#2626BC"/>
<path d="M9.3785 54.7083C9.92229 54.7083 10.3631 54.2674 10.3631 53.7236C10.3631 53.1798 9.92229 52.739 9.3785 52.739C8.8347 52.739 8.39387 53.1798 8.39387 53.7236C8.39387 54.2674 8.8347 54.7083 9.3785 54.7083Z" fill="#2626BC"/>
<path d="M9.3785 43.9429C9.92229 43.9429 10.3631 43.5021 10.3631 42.9583C10.3631 42.4145 9.92229 41.9736 9.3785 41.9736C8.8347 41.9736 8.39387 42.4145 8.39387 42.9583C8.39387 43.5021 8.8347 43.9429 9.3785 43.9429Z" fill="#2626BC"/>
<path d="M72.6239 52.7799C72.0768 52.7457 71.6138 53.1588 71.58 53.7016C71.4024 56.558 70.734 59.2605 69.5891 61.7607C67.3943 57.566 63.9486 54.0561 59.6229 51.8032C62.5084 48.9837 64.302 45.0515 64.302 40.7082C64.302 36.767 62.8197 33.0084 60.1281 30.1248C59.5011 29.639 58.9639 29.7237 58.5167 30.379C54.0914 39.8252 44.2076 42.7781 34.4886 40.8938C33.7541 40.8554 33.3644 41.2033 33.3198 41.9375C33.614 45.6873 35.251 49.1759 37.9411 51.8055C33.6388 54.0467 30.2088 57.5273 28.0137 61.69C26.7661 58.9663 26.053 55.9792 25.9357 52.9461C25.798 49.381 26.4879 45.8269 27.9335 42.639L29.3229 43.6603C29.9667 44.1336 30.8907 43.6573 30.8907 42.867V39.2543H32.3369C34.6252 39.2543 36.7944 38.3459 38.4451 36.6965C40.0959 35.0469 41.0052 32.8789 41.0052 30.5918V19.7363C43.4725 18.6843 46.0949 18.1513 48.8092 18.1513C59.8032 18.1513 68.7476 27.0957 68.7476 38.0898C68.7476 39.3371 68.8055 40.7892 69.498 42.2376C70.3624 44.0457 70.9996 46.184 71.3408 48.4207C71.5291 49.6545 73.4814 49.3944 73.2875 48.1237C72.9175 45.698 72.2215 43.369 71.2747 41.3883C70.8102 40.4167 70.7168 39.4057 70.7168 38.0898C70.7168 26.0098 60.8892 16.182 48.8092 16.182C46.1086 16.182 43.4901 16.6625 41.0052 17.6124V15.0688C41.0052 10.2923 37.1165 6.40625 32.3369 6.40625H15.1215C10.3418 6.40625 6.4532 10.2923 6.4532 15.0688V17.0408C6.4532 18.3138 8.42246 18.3138 8.42246 17.0408V15.0688C8.42246 11.3781 11.4276 8.37551 15.1215 8.37551H32.3369C36.0308 8.37551 39.0359 11.3781 39.0359 15.0688V30.5915C39.0359 34.2197 35.9682 37.2848 32.3369 37.2848H29.906C29.3621 37.2848 28.9214 37.7255 28.9214 38.2694V40.9208L24.2351 37.476C24.066 37.3518 23.8616 37.2848 23.6519 37.2848H15.1215C11.4276 37.2848 8.42246 34.2822 8.42246 30.5915V22.2904C8.42246 21.0174 6.4532 21.0174 6.4532 22.2904V30.5915C6.4532 35.3681 10.3418 39.254 15.1215 39.254H23.329L26.3149 41.449C24.6245 45.0104 23.813 49.011 23.9679 53.022C24.1165 56.8668 25.1488 60.6454 26.9582 63.9816C25.8832 66.6892 25.3031 69.6187 25.3031 72.639C25.3031 73.9121 27.2723 73.9121 27.2723 72.639C27.2723 64.3164 32.0802 56.7475 39.5706 53.194C42.2269 55.1595 45.4401 56.2259 48.7845 56.2259C52.2292 56.2259 55.4153 55.0976 57.9927 53.1914C65.4831 56.7433 70.2966 64.3244 70.2966 72.639C70.2966 73.9121 72.2658 73.9121 72.2658 72.639C72.2658 69.6497 71.6958 66.7472 70.6391 64.0601C72.3398 60.9362 73.3172 57.4949 73.5453 53.8238C73.5791 53.2811 73.1666 52.8137 72.6239 52.7799ZM40.36 51.3177C37.8519 49.0701 36.035 46.4398 35.4437 43.0582C45.0235 44.5314 54.7753 41.455 59.614 32.571C61.376 34.9096 62.3326 37.7499 62.3326 40.7082C62.3326 48.1787 56.2549 54.2565 48.7844 54.2565C45.703 54.2565 42.7494 53.2197 40.36 51.3177Z" fill="#2626BC"/>
<path d="M25.0638 13.9881C24.1495 13.7492 23.1087 14.1462 22.6823 15.0187L20.3451 19.7977C19.6881 19.1058 18.7601 18.6739 17.733 18.6739C15.7464 18.6739 14.1303 20.2901 14.1303 22.2766V28.3146C14.1303 30.3012 15.7466 31.9174 17.733 31.9174C19.006 31.9174 20.1269 31.2538 20.7679 30.2543C21.6545 30.986 22.7655 31.3861 23.9239 31.3861C25.6729 31.3861 27.422 31.3788 29.1711 31.3834C30.1908 31.3834 31.0784 30.6942 31.33 29.7116L33.2507 22.21C33.5285 20.8108 32.587 19.4 31.0955 19.4C29.6069 19.4048 28.1182 19.4045 26.6296 19.4051V15.9886C26.6297 15.0376 26.0004 14.2336 25.0638 13.9881ZM17.7332 29.9482C16.8326 29.9482 16.0997 29.2153 16.0997 28.3146V22.2766C16.0997 21.376 16.8326 20.6432 17.7332 20.6432C18.6339 20.6432 19.3667 21.376 19.3667 22.2766C19.3163 24.2871 19.3451 26.3036 19.3667 28.3146C19.3667 29.2153 18.6339 29.9482 17.7332 29.9482ZM31.0939 21.3694C31.2696 21.408 31.3839 21.5379 31.3436 21.7193L29.4295 29.196L29.424 29.217C29.3942 29.3332 29.2902 29.4142 29.1709 29.4142C27.4219 29.4094 25.6728 29.417 23.9239 29.417C22.8307 29.417 21.4787 28.7208 21.3359 27.5237V22.484C21.3596 22.2839 21.4171 22.0875 21.5056 21.9068L24.4339 15.9196C24.5338 15.8617 24.6093 15.8848 24.6605 15.9887V20.3902C24.6605 20.9341 25.1012 21.3748 25.6451 21.3748C26.5852 21.3748 30.7893 21.3705 31.0939 21.3694Z" fill="#2626BC"/>
<defs>
<linearGradient id="paint0_linear" x1="80.2673" y1="15.7209" x2="19.333" y2="63.9998" gradientUnits="userSpaceOnUse">
<stop stop-color="#C7D3FF"/>
<stop offset="0.593" stop-color="#E7D8F5"/>
<stop offset="0.997" stop-color="#FFDBED"/>
</linearGradient>
</defs>
</svg>
