<svg width="80" height="80" viewBox="0 0 80 80" fill="none" xmlns="http://www.w3.org/2000/svg">
<g clip-path="url(#clip0)">
<path d="M73.6681 22.7834C63.4467 14.9252 53.5327 21.3294 42.4744 19.0652C31.3361 16.7844 26.8986 9.19001 14.2125 12.6955C2.97469 15.8008 -3.84406 28.2505 2.33376 38.6734C4.09423 41.6436 7.09329 43.8844 8.31891 47.2077C10.2959 52.5688 7.28657 56.6847 7.8736 61.9533C10.313 83.8441 43.7445 75.3648 56.0459 68.5541C75.3381 57.8728 88.3894 34.1014 73.6681 22.7834Z" fill="url(#paint0_linear)"/>
<path opacity="0.11" d="M67.5949 33.5258C67.5949 32.6084 66.8511 31.8647 65.9339 31.8647H64.7183V27.1131C64.7183 26.6086 64.6686 26.1158 64.577 25.6378C64.1474 23.3983 62.7147 21.4192 60.7252 20.3039C61.4233 19.2236 61.8622 17.9638 61.9486 16.6156C62.2494 11.9188 58.3764 8.04563 53.6796 8.34657C49.8764 8.59017 46.7692 11.6284 46.4467 15.4256C46.3285 16.8186 46.5792 18.1422 47.1105 19.3116H45.0886H17.7027C15.9845 19.3116 14.5719 20.6145 14.3977 22.2864C14.3974 22.2894 14.3966 22.292 14.3964 22.295C14.3891 22.3666 14.3792 46.9106 14.3792 46.9106C11.7844 48.7675 10.0917 51.8042 10.0917 55.2383C10.0917 60.8916 14.6746 65.4744 20.3278 65.4744H25.4374C29.6791 65.4744 33.3181 62.8942 34.871 59.2178H36.8747H56.9185C59.1105 59.2178 61.0895 58.3123 62.5061 56.8566C63.8744 55.4513 64.7185 53.533 64.7185 51.4166V46.6648H65.9339C66.8514 46.6648 67.595 45.9211 67.595 45.0036V33.5259C67.5949 33.5261 67.5949 33.5259 67.5949 33.5258Z" fill="#2626BC"/>
<path d="M68.2328 23.5356V47.8403C68.2328 52.1481 64.7422 55.6403 60.4344 55.6403H28.4719C26.6359 55.6403 25.1484 54.1528 25.1484 52.3169V19.0575C25.1484 17.2216 26.6359 15.7341 28.4719 15.7341H60.4344C62.1406 15.7341 63.7187 16.2825 65.0015 17.2122C65.2656 17.4028 65.5187 17.6091 65.7562 17.8325C65.8984 17.9669 66.0359 18.1059 66.1687 18.2497C67.45 19.6403 68.2328 21.495 68.2328 23.5356Z" fill="#6583FE"/>
<path d="M65.0016 17.2122C63.9781 19.9669 61.425 22.0091 58.3859 22.2669C56.5438 22.4231 54.8234 21.9356 53.4203 21.0059L50.9406 22.0981C50.4281 22.3231 49.9078 21.8013 50.1328 21.2888L51.2234 18.8106C50.6203 17.9013 50.2047 16.8575 50.0297 15.7341H60.4344C62.1406 15.7341 63.7188 16.2825 65.0016 17.2122Z" fill="#4369FD"/>
<path d="M68.2334 30.6201V45.4192H51.5092C50.5915 45.4192 49.8476 44.6773 49.8476 43.7597V32.2819C49.8476 31.3642 50.5915 30.6203 51.5092 30.6203H68.2334V30.6201Z" fill="#4369FD"/>
<path d="M17.8953 52.3176C17.8953 54.1525 19.3828 55.64 21.2176 55.64H53.1798C57.4881 55.64 60.9806 52.1475 60.9806 47.8392V23.5356C60.9806 19.2273 57.4881 15.7348 53.1798 15.7348H21.2176C19.3828 15.7348 17.8953 17.2223 17.8953 19.0572V52.3176Z" fill="#FF7EB8"/>
<path d="M60.7547 21.6731C60.0156 21.9903 59.2203 22.195 58.3859 22.2669C56.5438 22.4231 54.8234 21.9356 53.4203 21.0059L50.9406 22.0981C50.4281 22.3231 49.9078 21.8013 50.1328 21.2888L51.2234 18.8106C50.6203 17.9013 50.2047 16.8575 50.0297 15.7341H53.1797C56.8453 15.7341 59.9234 18.2638 60.7547 21.6731Z" fill="#FF5BA8"/>
<path d="M60.9801 30.6201V45.4192H51.5092C50.5915 45.4192 49.8476 44.6773 49.8476 43.7597V32.2819C49.8476 31.3642 50.5915 30.6203 51.5092 30.6203H60.9801V30.6201Z" fill="#FF5BA8"/>
<path d="M69.4499 43.0874H51.5092C50.5917 43.0874 49.848 42.3436 49.848 41.4263V29.9486C49.848 29.0311 50.5917 28.2874 51.5092 28.2874H69.4499C70.3674 28.2874 71.1111 29.0311 71.1111 29.9486V41.4263C71.111 42.3438 70.3672 43.0874 69.4499 43.0874Z" fill="#8399FE"/>
<path d="M71.1109 29.9481V41.4262C71.1109 42.3434 70.3672 43.0872 69.45 43.0872H67.0016C67.9188 43.0872 68.6625 42.3434 68.6625 41.4262V29.9481C68.6625 29.0309 67.9188 28.2872 67.0016 28.2872H69.45C70.3672 28.2872 71.1109 29.0309 71.1109 29.9481Z" fill="#9FB0FE"/>
<path d="M63.3184 43.0874H51.5091C50.5916 43.0874 49.8478 42.3436 49.8478 41.4263V29.9486C49.8478 29.0311 50.5916 28.2874 51.5091 28.2874H63.3184C64.2359 28.2874 64.9797 29.0311 64.9797 29.9486V41.4263C64.9797 42.3438 64.2359 43.0874 63.3184 43.0874Z" fill="#FFA8CF"/>
<path d="M64.9797 29.9481V41.4262C64.9797 42.3434 64.2359 43.0872 63.3188 43.0872H60.8703C61.7875 43.0872 62.5313 42.3434 62.5313 41.4262V29.9481C62.5313 29.0309 61.7875 28.2872 60.8703 28.2872H63.3188C64.2359 28.2872 64.9797 29.0309 64.9797 29.9481Z" fill="#FFC4DF"/>
<path d="M28.9533 61.8969C34.6066 61.8969 39.1894 57.3141 39.1894 51.6608C39.1894 46.0075 34.6066 41.4247 28.9533 41.4247H23.8438V61.8969H28.9533Z" fill="#8399FE"/>
<path d="M23.8438 61.8969C29.497 61.8969 34.0798 57.314 34.0798 51.6608C34.0798 46.0075 29.497 41.4247 23.8438 41.4247C18.1905 41.4247 13.6077 46.0075 13.6077 51.6608C13.6077 57.314 18.1905 61.8969 23.8438 61.8969Z" fill="#02FFB3"/>
<path d="M65.4647 13.0381C65.7655 8.34124 61.8925 4.46812 57.1956 4.76906C53.3925 5.01265 50.2853 8.05093 49.9628 11.8481C49.8064 13.69 50.2944 15.4111 51.2241 16.8139L50.1325 19.293C49.907 19.805 50.4288 20.3266 50.9408 20.1012L53.4198 19.0097C54.8227 19.9394 56.5438 20.4273 58.3856 20.2709C62.183 19.9484 65.2211 16.8412 65.4647 13.0381Z" fill="#FFD54D"/>
<path d="M54.7358 13.3083C55.2182 13.3083 55.6092 12.9172 55.6092 12.4348C55.6092 11.9525 55.2182 11.5614 54.7358 11.5614C54.2534 11.5614 53.8623 11.9525 53.8623 12.4348C53.8623 12.9172 54.2534 13.3083 54.7358 13.3083Z" fill="white"/>
<path d="M57.8467 13.3083C58.3291 13.3083 58.7201 12.9172 58.7201 12.4348C58.7201 11.9525 58.3291 11.5614 57.8467 11.5614C57.3643 11.5614 56.9733 11.9525 56.9733 12.4348C56.9733 12.9172 57.3643 13.3083 57.8467 13.3083Z" fill="white"/>
<path d="M60.9578 13.3083C61.4402 13.3083 61.8312 12.9172 61.8312 12.4348C61.8312 11.9525 61.4402 11.5614 60.9578 11.5614C60.4754 11.5614 60.0844 11.9525 60.0844 12.4348C60.0844 12.9172 60.4754 13.3083 60.9578 13.3083Z" fill="white"/>
<path d="M37.8214 29.4028H23.9856C23.4212 29.4028 22.9637 28.9453 22.9637 28.3809V25.162C22.9637 24.5977 23.4212 24.1402 23.9856 24.1402H37.8214C38.3858 24.1402 38.8433 24.5977 38.8433 25.162V28.3809C38.8433 28.9453 38.3858 29.4028 37.8214 29.4028Z" fill="#FFDBED"/>
<path d="M31.0769 34.5805H23.9855C23.4211 34.5805 22.9636 34.123 22.9636 33.5586V32.7922C22.9636 32.2278 23.4211 31.7703 23.9855 31.7703H31.0769C31.6413 31.7703 32.0988 32.2278 32.0988 32.7922V33.5586C32.0988 34.1228 31.6413 34.5805 31.0769 34.5805Z" fill="#FF5BA8"/>
<path d="M32.3302 22.1473H24.0877C23.4669 22.1473 22.9636 21.644 22.9636 21.0233C22.9636 20.4025 23.4669 19.8992 24.0877 19.8992H32.3302C32.951 19.8992 33.4542 20.4025 33.4542 21.0233C33.4542 21.644 32.951 22.1473 32.3302 22.1473Z" fill="#FFDBED"/>
<path d="M56.4492 32.6598H53.8318C53.3403 32.6598 52.9421 32.2616 52.9421 31.7702C52.9421 31.2787 53.3403 30.8805 53.8318 30.8805H56.4492C56.9407 30.8805 57.3389 31.2787 57.3389 31.7702C57.3389 32.2616 56.9407 32.6598 56.4492 32.6598Z" fill="#FFDBED"/>
<path d="M26.3248 55.2625H21.8827C22.1006 54.8984 22.217 54.4809 22.217 54.0455V52.4422H23.8438C24.2752 52.4422 24.625 52.0923 24.625 51.6609C24.625 51.2295 24.2752 50.8797 23.8438 50.8797H22.217V49.2669C22.217 48.4948 22.8452 47.8667 23.6172 47.8667C24.3892 47.8667 25.0173 48.4948 25.0173 49.2669C25.0173 49.6983 25.3672 50.0481 25.7986 50.0481C26.23 50.0481 26.5798 49.6983 26.5798 49.2669C26.5798 47.6331 25.2508 46.3042 23.6172 46.3042C21.9834 46.3042 20.6545 47.6333 20.6545 49.2669V50.8797H20.1791C19.7477 50.8797 19.3978 51.2295 19.3978 51.6609C19.3978 52.0923 19.7477 52.4422 20.1791 52.4422H20.6545V54.0456C20.6545 54.2628 20.57 54.4669 20.4164 54.6205C20.0458 54.9912 19.9358 55.5436 20.1364 56.0278C20.337 56.5122 20.8053 56.8251 21.3295 56.8251H26.3247C26.7561 56.8251 27.1059 56.4753 27.1059 56.0439C27.1059 55.6125 26.7563 55.2625 26.3248 55.2625Z" fill="white"/>
<path d="M69.4498 27.5063H69.0156V23.5356C69.0156 20.6785 67.6331 18.0683 65.2955 16.4636C65.8317 15.4384 66.167 14.2953 66.2444 13.088C66.4022 10.6252 65.4955 8.21548 63.7567 6.47689C62.018 4.73829 59.6083 3.83236 57.1456 3.98923C52.9614 4.2572 49.5388 7.60736 49.1844 11.782C49.0919 12.8711 49.2016 13.9397 49.5017 14.9536H21.2177C18.955 14.9536 17.1141 16.7945 17.1141 19.0572V38.6086C17.1141 39.04 17.4639 39.3899 17.8953 39.3899C18.3267 39.3899 18.6766 39.04 18.6766 38.6086V19.0574C18.6766 17.6561 19.8164 16.5163 21.2177 16.5163H50.1405C50.205 16.638 50.2716 16.7589 50.3424 16.878L49.4177 18.9781C49.1841 19.5088 49.298 20.1163 49.7078 20.5261C50.1178 20.936 50.7252 21.0499 51.2556 20.8163L53.3558 19.8916C54.6775 20.6761 56.1597 21.0814 57.6992 21.0814C57.9488 21.0814 58.1998 21.0708 58.4517 21.0494C58.8664 21.0142 59.2723 20.9475 59.6684 20.8541C60.0205 21.7025 60.1994 22.6025 60.1994 23.5358V27.5064H51.5092C50.1623 27.5064 49.0667 28.602 49.0667 29.9488V41.4264C49.0667 42.7731 50.1623 43.8688 51.5092 43.8688H60.1994V47.8394C60.1994 51.7099 57.0505 54.8589 53.1798 54.8589H39.4956C39.8034 53.8463 39.9705 52.773 39.9705 51.6611C39.9705 45.5861 35.0281 40.6438 28.9531 40.6438H23.8438C17.7688 40.6438 12.8264 45.5861 12.8264 51.6611C12.8264 57.7361 17.7688 62.6781 23.8438 62.6781H28.9533C33.3242 62.6781 37.1086 60.1194 38.8878 56.4213H60.4336C65.1658 56.4213 69.0156 52.5714 69.0156 47.8392V47.2653C69.0156 46.8339 68.6658 46.4841 68.2344 46.4841C67.803 46.4841 67.4531 46.8339 67.4531 47.2653V47.8392C67.4531 51.7097 64.3042 54.8588 60.4336 54.8588H58.108C60.3155 53.3044 61.7617 50.7383 61.7617 47.8392V43.8688H63.3183H69.4497C70.7966 43.8688 71.8922 42.7731 71.8922 41.4264V29.9488C71.8922 28.6019 70.7966 27.5063 69.4498 27.5063ZM14.3889 51.661C14.3889 46.4475 18.6303 42.2061 23.8438 42.2061C29.0572 42.2061 33.2986 46.4475 33.2986 51.661C33.2986 56.8744 29.0572 61.1158 23.8438 61.1158C18.6303 61.1156 14.3889 56.8742 14.3889 51.661ZM29.5247 61.0969C32.72 59.166 34.8611 55.6591 34.8611 51.661C34.8611 47.6628 32.72 44.156 29.5245 42.2249C34.4727 42.5216 38.408 46.6394 38.408 51.661C38.4081 56.6822 34.4728 60.8002 29.5247 61.0969ZM58.3195 19.4925C56.7213 19.6286 55.1758 19.2361 53.8513 18.3585C53.7213 18.2724 53.5709 18.2285 53.4197 18.2285C53.3128 18.2285 53.2056 18.2503 53.1048 18.2947L51.0217 19.212L51.9391 17.1289C52.0463 16.8855 52.0222 16.6042 51.8753 16.3825C50.9977 15.0581 50.6056 13.5131 50.7413 11.9144C51.0308 8.50439 53.827 5.76783 57.2455 5.54876C59.2598 5.42033 61.2305 6.16079 62.6517 7.58204C64.073 9.00329 64.8139 10.9738 64.685 12.9883C64.4661 16.4067 61.7295 19.203 58.3195 19.4925ZM61.15 20.3545C62.4492 19.7781 63.5811 18.8855 64.4475 17.777C66.3369 19.092 67.453 21.2141 67.453 23.5356V27.5063H61.7617V23.5356C61.7619 22.4308 61.5545 21.3641 61.15 20.3545ZM51.5092 42.3063C51.0241 42.3063 50.6292 41.9116 50.6292 41.4264V29.9488C50.6292 29.4636 51.0239 29.0689 51.5092 29.0689H63.3184C63.8036 29.0689 64.1984 29.4636 64.1984 29.9488V41.4264C64.1984 41.9116 63.8038 42.3063 63.3184 42.3063H51.5092ZM70.3297 41.4263C70.3297 41.9114 69.935 42.3061 69.4497 42.3061H65.5942C65.7003 42.0327 65.7608 41.7367 65.7608 41.4263V29.9486C65.7608 29.6381 65.7003 29.3422 65.5942 29.0688H69.4497C69.9348 29.0688 70.3297 29.4635 70.3297 29.9486V41.4263Z" fill="#2626BC"/>
<path d="M74.3359 14.9528H73.8281V14.445C73.8281 14.0136 73.4783 13.6638 73.0469 13.6638C72.6155 13.6638 72.2656 14.0136 72.2656 14.445V14.9528H71.7578C71.3264 14.9528 70.9766 15.3027 70.9766 15.7341C70.9766 16.1655 71.3264 16.5153 71.7578 16.5153H72.2656V17.0231C72.2656 17.4545 72.6155 17.8044 73.0469 17.8044C73.4783 17.8044 73.8281 17.4545 73.8281 17.0231V16.5153H74.3359C74.7673 16.5153 75.1172 16.1655 75.1172 15.7341C75.1172 15.3027 74.7673 14.9528 74.3359 14.9528Z" fill="#01ECA5"/>
<path d="M41.4159 67.4108H40.9081V66.903C40.9081 66.4715 40.5583 66.1217 40.1269 66.1217C39.6955 66.1217 39.3456 66.4715 39.3456 66.903V67.4108H38.8378C38.4064 67.4108 38.0565 67.7606 38.0565 68.192C38.0565 68.6234 38.4064 68.9733 38.8378 68.9733H39.3456V69.4811C39.3456 69.9125 39.6955 70.2623 40.1269 70.2623C40.5583 70.2623 40.9081 69.9125 40.9081 69.4811V68.9733H41.4159C41.8473 68.9733 42.1972 68.6234 42.1972 68.192C42.1972 67.7606 41.8473 67.4108 41.4159 67.4108Z" fill="#FF7EB8"/>
<path d="M12.8695 27.0741H12.3617V26.5663C12.3617 26.1348 12.0119 25.785 11.5805 25.785C11.1491 25.785 10.7992 26.1348 10.7992 26.5663V27.0741H10.2914C9.86001 27.0741 9.51017 27.4239 9.51017 27.8553C9.51017 28.2867 9.86001 28.6366 10.2914 28.6366H10.7992V29.1444C10.7992 29.5758 11.1491 29.9256 11.5805 29.9256C12.0119 29.9256 12.3617 29.5758 12.3617 29.1444V28.6366H12.8695C13.3009 28.6366 13.6508 28.2867 13.6508 27.8553C13.6508 27.4239 13.3009 27.0741 12.8695 27.0741Z" fill="#8399FE"/>
<path d="M45.9995 64.6473C44.7414 64.6473 43.7178 63.6237 43.7178 62.3656C43.7178 61.1075 44.7414 60.0839 45.9995 60.0839C47.2577 60.0839 48.2812 61.1075 48.2812 62.3656C48.2812 63.6237 47.2577 64.6473 45.9995 64.6473ZM45.9995 61.6464C45.603 61.6464 45.2803 61.9691 45.2803 62.3656C45.2803 62.7622 45.603 63.0848 45.9995 63.0848C46.3961 63.0848 46.7187 62.7622 46.7187 62.3656C46.7187 61.9691 46.3962 61.6464 45.9995 61.6464Z" fill="#FF7EB8"/>
<path d="M42.9067 9.03063C41.6486 9.03063 40.625 8.00704 40.625 6.74891C40.625 5.49079 41.6486 4.46719 42.9067 4.46719C44.1648 4.46719 45.1884 5.49079 45.1884 6.74891C45.1884 8.00704 44.1648 9.03063 42.9067 9.03063ZM42.9067 6.02969C42.5102 6.02969 42.1875 6.35219 42.1875 6.74891C42.1875 7.14563 42.5102 7.46813 42.9067 7.46813C43.3033 7.46813 43.6259 7.14548 43.6259 6.74891C43.6259 6.35235 43.3033 6.02969 42.9067 6.02969Z" fill="#8399FE"/>
</g>
<defs>
<linearGradient id="paint0_linear" x1="-1.40827" y1="25.8586" x2="72.8156" y2="61.5288" gradientUnits="userSpaceOnUse">
<stop stop-color="#C7D3FF"/>
<stop offset="0.593" stop-color="#E7D8F5"/>
<stop offset="0.997" stop-color="#FFDBED"/>
</linearGradient>
<clipPath id="clip0">
<rect width="80" height="80" fill="white"/>
</clipPath>
</defs>
</svg>
