<svg width="40" height="22" viewBox="0 0 40 22" fill="none" xmlns="http://www.w3.org/2000/svg">
<rect x="1" y="1" width="38" height="20" fill="#F7F9FF" stroke="#C4D7E7" stroke-width="0.5"/>
<path d="M12.4832 14H13.148L14.0663 10.7315H14.1004L15.0187 14H15.6814L16.8937 9.63636H16.1991L15.3511 13.0178H15.3106L14.4264 9.63636H13.7403L12.8561 13.0156H12.8156L11.9655 9.63636H11.273L12.4832 14ZM18.0731 14.0724C18.6143 14.0724 18.9189 13.7976 19.0404 13.5526H19.066V14H19.6881V11.8267C19.6881 10.8743 18.9381 10.6847 18.4182 10.6847C17.8259 10.6847 17.2805 10.9233 17.0674 11.5199L17.6661 11.6562C17.7599 11.424 17.9985 11.2003 18.4268 11.2003C18.838 11.2003 19.0489 11.4155 19.0489 11.7862V11.8011C19.0489 12.0334 18.8103 12.0291 18.2222 12.0973C17.6022 12.1697 16.9672 12.3317 16.9672 13.0753C16.9672 13.7188 17.4509 14.0724 18.0731 14.0724ZM18.2116 13.5611C17.8515 13.5611 17.5915 13.3991 17.5915 13.0838C17.5915 12.7429 17.8941 12.6214 18.2627 12.5724C18.4694 12.5447 18.9594 12.4893 19.051 12.3977V12.8196C19.051 13.2074 18.7421 13.5611 18.2116 13.5611ZM21.1737 9.63636H20.5367V14H21.1737V9.63636ZM22.6679 9.63636H22.0308V14H22.6679V9.63636ZM24.9355 14.0661C25.6492 14.0661 26.1542 13.7145 26.2991 13.1818L25.6961 13.0732C25.5811 13.3821 25.3041 13.5398 24.9419 13.5398C24.3964 13.5398 24.0299 13.1861 24.0129 12.5554H26.3396V12.3295C26.3396 11.147 25.6322 10.6847 24.8907 10.6847C23.9788 10.6847 23.3779 11.3793 23.3779 12.3849C23.3779 13.4013 23.9703 14.0661 24.9355 14.0661ZM24.015 12.0781C24.0406 11.6136 24.3772 11.2109 24.895 11.2109C25.3893 11.2109 25.7132 11.5774 25.7153 12.0781H24.015ZM28.5741 10.7273H27.903V9.94318H27.2659V10.7273H26.7865V11.2386H27.2659V13.1712C27.2638 13.7656 27.7176 14.0533 28.2204 14.0426C28.4229 14.0405 28.5592 14.0021 28.6338 13.9744L28.5187 13.4482C28.4761 13.4567 28.3973 13.4759 28.295 13.4759C28.0883 13.4759 27.903 13.4077 27.903 13.0391V11.2386H28.5741V10.7273Z" fill="#153059"/>
</svg>
