<svg width="20" height="20" viewBox="0 0 20 20" fill="none" xmlns="http://www.w3.org/2000/svg">
<path d="M18.7835 5.34998C18.6845 4.95449 18.4829 4.59212 18.199 4.29948C17.9152 4.00685 17.5591 3.7943 17.1668 3.68331C15.7335 3.33331 10.0001 3.33331 10.0001 3.33331C10.0001 3.33331 4.26682 3.33331 2.83348 3.71665C2.44119 3.82763 2.08513 4.04018 1.80127 4.33282C1.51741 4.62546 1.31581 4.98782 1.21682 5.38331C0.954496 6.83794 0.826181 8.31357 0.833484 9.79165C0.824134 11.2808 0.952457 12.7677 1.21682 14.2333C1.32595 14.6165 1.53207 14.9651 1.81527 15.2454C2.09847 15.5257 2.44917 15.7282 2.83348 15.8333C4.26682 16.2166 10.0001 16.2166 10.0001 16.2166C10.0001 16.2166 15.7335 16.2166 17.1668 15.8333C17.5591 15.7223 17.9152 15.5098 18.199 15.2171C18.4829 14.9245 18.6845 14.5621 18.7835 14.1666C19.0438 12.723 19.1721 11.2586 19.1668 9.79165C19.1762 8.30244 19.0478 6.81556 18.7835 5.34998Z" fill="#F80000"/>
<path d="M8.125 12.5167L12.9167 9.79165L8.125 7.06665V12.5167Z" fill="white"/>
</svg>
